<?xml version="1.0" encoding="UTF-8" standalone="no"?>
<!DOCTYPE svg PUBLIC "-//W3C//DTD SVG 1.1//EN" "http://www.w3.org/Graphics/SVG/1.1/DTD/svg11.dtd">
<svg xmlns="http://www.w3.org/2000/svg" version="1.1" viewBox="0.00 0.00 100.00 100.00">
<g stroke-width="2.00" fill="none" stroke-linecap="butt">
<path stroke="#3a98b6" vector-effect="non-scaling-stroke" d="
  M 70.39 11.71
  L 55.41 12.55"
/>
<path stroke="#808896" vector-effect="non-scaling-stroke" d="
  M 68.79 16.51
  Q 66.01 16.91 63.90 15.69
  Q 61.58 14.34 60.78 14.19
  Q 58.38 13.73 56.03 14.09"
/>
<path stroke="#7bccdc" vector-effect="non-scaling-stroke" d="
  M 69.20 16.73
  Q 63.91 16.40 58.60 16.16
  C 57.59 16.11 56.77 16.61 55.76 16.79"
/>
<path stroke="#35dcfc" vector-effect="non-scaling-stroke" d="
  M 72.07 18.25
  L 72.11 18.60
  A 0.52 0.52 0.0 0 1 71.57 19.19
  Q 66.95 19.00 62.54 20.38
  Q 62.06 20.53 61.59 20.41
  Q 55.92 18.96 51.87 22.37"
/>
<path stroke="#18a7e9" vector-effect="non-scaling-stroke" d="
  M 72.56 19.21
  L 71.88 19.93"
/>
<path stroke="#17b7f3" vector-effect="non-scaling-stroke" d="
  M 71.88 19.93
  Q 71.24 19.39 69.37 19.80"
/>
<path stroke="#15c3fa" vector-effect="non-scaling-stroke" d="
  M 69.37 19.80
  Q 67.21 19.83 64.99 21.42
  Q 64.62 21.68 64.50 22.12
  L 63.45 25.72
  A 0.67 0.67 0.0 0 1 62.81 26.20
  L 62.04 26.21
  Q 61.64 26.21 61.32 26.44
  Q 60.73 26.88 61.22 27.53
  A 0.86 0.84 -54.0 0 1 61.34 28.32
  Q 59.85 32.46 58.36 34.36
  Q 57.48 35.48 55.41 35.05
  A 0.33 0.33 0.0 0 0 55.26 35.69
  Q 55.84 35.84 55.50 36.00
  Q 55.03 36.23 54.62 35.90
  Q 52.85 34.45 51.85 32.29"
/>
<path stroke="#338ca5" vector-effect="non-scaling-stroke" d="
  M 51.85 32.29
  L 51.84 30.51"
/>
<path stroke="#51adca" vector-effect="non-scaling-stroke" d="
  M 51.84 30.51
  L 51.77 27.18"
/>
<path stroke="#6dc7e1" vector-effect="non-scaling-stroke" d="
  M 51.77 27.18
  Q 52.14 26.63 51.73 25.85"
/>
<path stroke="#a0a4ae" vector-effect="non-scaling-stroke" d="
  M 51.77 27.18
  L 39.86 28.03
  Q 39.41 28.06 39.03 28.31
  Q 36.33 30.07 34.92 32.92
  A 1.34 1.30 -85.4 0 1 34.13 33.61
  C 27.23 35.81 24.56 40.01 20.81 45.52
  A 0.68 0.65 -76.0 0 1 20.35 45.81
  L 19.20 45.98
  Q 18.90 46.02 18.89 45.72
  Q 18.87 45.24 18.64 45.01"
/>
<path stroke="#1177d2" vector-effect="non-scaling-stroke" d="
  M 72.82 21.02
  L 72.73 37.54
  Q 72.73 38.03 72.45 38.43
  C 71.68 39.57 72.42 41.35 71.87 42.69
  C 70.98 44.83 70.50 46.99 69.81 49.22
  Q 69.68 49.66 69.29 49.91
  Q 67.35 51.17 66.00 51.40
  Q 62.66 51.98 54.62 52.52
  Q 54.11 52.56 53.69 52.28
  L 52.06 51.22"
/>
<path stroke="#128edf" vector-effect="non-scaling-stroke" d="
  M 51.88 50.62
  Q 56.55 52.31 61.68 50.44
  Q 64.42 49.45 64.91 46.50
  Q 65.31 44.05 66.05 41.70
  Q 66.82 39.22 67.16 36.93
  Q 68.02 31.09 70.29 25.67
  C 71.11 23.71 72.81 22.89 71.88 19.93"
/>
<path stroke="#2d729b" vector-effect="non-scaling-stroke" d="
  M 51.93 41.87
  L 51.95 34.65"
/>
<path stroke="#0faaf0" vector-effect="non-scaling-stroke" d="
  M 69.37 19.80
  Q 66.81 21.11 65.90 24.32
  Q 64.94 27.68 63.52 30.88
  Q 63.34 31.27 63.38 31.70
  Q 63.54 33.22 62.48 34.30
  Q 62.15 34.63 62.07 35.10
  Q 61.86 36.37 60.67 38.16
  Q 59.57 39.81 59.95 42.69
  A 1.17 1.13 -28.5 0 1 59.66 43.61
  Q 57.64 45.83 54.70 46.32
  A 0.86 0.86 0.0 0 1 53.74 45.74
  Q 52.85 42.95 53.50 39.01
  Q 53.81 37.08 51.95 34.65"
/>
<path stroke="#2b7fa1" vector-effect="non-scaling-stroke" d="
  M 51.95 34.65
  L 51.85 32.29"
/>
<path stroke="#666971" vector-effect="non-scaling-stroke" d="
  M 51.84 30.51
  L 51.52 33.65
  Q 51.44 34.45 50.81 33.94
  Q 49.42 32.81 48.74 30.74"
/>
<path stroke="#6d7583" vector-effect="non-scaling-stroke" d="
  M 48.74 30.74
  Q 47.71 29.39 46.35 29.58
  C 44.19 29.87 43.83 32.18 40.59 32.16
  Q 39.99 32.16 39.88 32.75
  Q 39.32 35.53 40.64 37.98
  A 0.84 0.84 0.0 0 1 39.75 39.21
  Q 36.89 38.70 35.24 36.29
  A 1.41 1.39 85.8 0 0 34.73 35.84
  C 31.96 34.44 28.13 38.03 26.66 39.95
  Q 25.14 41.94 24.86 45.46
  Q 24.36 51.80 24.40 58.14
  A 1.60 1.53 -62.9 0 0 24.66 59.01
  Q 25.92 60.91 27.59 61.58"
/>
<path stroke="#51adca" vector-effect="non-scaling-stroke" d="
  M 33.01 67.41
  L 30.01 72.86"
/>
<path stroke="#6d7583" vector-effect="non-scaling-stroke" d="
  M 30.01 72.86
  Q 29.33 70.29 26.97 69.65
  Q 26.53 69.53 26.23 69.18
  L 18.52 60.11"
/>
<path stroke="#2c5b8d" vector-effect="non-scaling-stroke" d="
  M 68.96 54.12
  L 55.84 53.94"
/>
<path stroke="#4f535e" vector-effect="non-scaling-stroke" d="
  M 48.74 30.74
  L 46.98 30.61
  A 0.81 0.81 0.0 0 0 46.22 31.00
  C 44.99 33.03 43.18 32.21 41.38 32.33
  A 1.85 1.85 0.0 0 0 40.01 35.25
  L 42.23 38.32
  A 1.08 1.08 0.0 0 1 41.73 39.96
  Q 39.33 40.87 36.16 39.00"
/>
<path stroke="#3a98b6" vector-effect="non-scaling-stroke" d="
  M 30.01 72.86
  L 28.51 75.07"
/>
<path stroke="#17b7f3" vector-effect="non-scaling-stroke" d="
  M 46.78 66.68
  L 36.38 68.23
  Q 35.82 68.32 35.52 68.79
  L 26.22 83.66"
/>
<path stroke="#63c0dd" vector-effect="non-scaling-stroke" d="
  M 26.22 83.66
  Q 23.82 84.18 23.96 82.31"
/>
<path stroke="#67aed7" vector-effect="non-scaling-stroke" d="
  M 48.41 68.86
  Q 48.23 69.33 48.75 69.75"
/>
<path stroke="#4b94c0" vector-effect="non-scaling-stroke" d="
  M 48.75 69.75
  Q 49.82 70.00 49.86 71.91"
/>
<path stroke="#4288b3" vector-effect="non-scaling-stroke" d="
  M 49.86 71.91
  L 51.28 73.88"
/>
<path stroke="#2d729b" vector-effect="non-scaling-stroke" d="
  M 51.28 73.88
  L 53.65 77.73"
/>
<path stroke="#19608a" vector-effect="non-scaling-stroke" d="
  M 53.65 77.73
  Q 53.78 77.93 53.97 78.01"
/>
<path stroke="#1086dc" vector-effect="non-scaling-stroke" d="
  M 56.36 81.88
  Q 55.91 81.99 55.83 82.36
  Q 55.77 82.67 55.48 82.54
  Q 52.51 81.13 49.20 81.39
  Q 48.78 81.42 48.53 81.08
  L 46.24 78.01
  A 0.58 0.56 30.0 0 1 46.14 77.66
  C 46.27 73.96 46.07 69.96 42.21 68.12"
/>
<path stroke="#347eac" vector-effect="non-scaling-stroke" d="
  M 42.21 68.12
  Q 37.34 66.90 35.23 71.76"
/>
<path stroke="#1086dc" vector-effect="non-scaling-stroke" d="
  M 35.23 71.76
  Q 34.48 72.88 35.03 74.75
  Q 35.83 77.52 36.66 80.58
  Q 36.98 81.77 35.75 81.94
  L 32.22 82.40
  A 0.70 0.70 0.0 0 0 32.29 83.80
  L 39.91 83.95"
/>
<path stroke="#5da7d3" vector-effect="non-scaling-stroke" d="
  M 39.91 83.95
  L 26.22 83.66"
/>
<path stroke="#979daa" vector-effect="non-scaling-stroke" d="
  M 39.91 83.95
  Q 40.46 84.73 40.35 85.17
  Q 40.25 85.57 39.48 85.58
  Q 29.75 85.78 20.11 86.73
  Q 19.66 86.78 19.51 86.36
  Q 19.44 86.17 19.45 85.97"
/>
<path stroke="#33679f" vector-effect="non-scaling-stroke" d="
  M 42.21 68.12
  Q 45.26 70.59 44.65 73.75"
/>
<path stroke="#3b414d" vector-effect="non-scaling-stroke" d="
  M 44.65 73.75
  Q 44.68 72.68 44.00 72.09
  Q 43.70 71.82 43.29 71.84
  L 36.70 72.27
  Q 36.18 72.30 35.97 72.77
  Q 35.67 73.41 35.65 74.35"
/>
<path stroke="#33679f" vector-effect="non-scaling-stroke" d="
  M 35.65 74.35
  L 35.23 71.76"
/>
<path stroke="#34353c" vector-effect="non-scaling-stroke" d="
  M 73.78 76.61
  Q 63.92 75.57 54.52 76.17
  Q 54.05 76.20 53.83 76.61
  Q 53.58 77.08 53.65 77.73"
/>
<path stroke="#7b7f8a" vector-effect="non-scaling-stroke" d="
  M 74.08 71.33
  Q 73.59 71.79 72.26 71.87
  Q 60.85 72.49 49.86 71.91"
/>
<path stroke="#5d5d65" vector-effect="non-scaling-stroke" d="
  M 74.34 72.16
  Q 72.09 73.29 71.25 73.34
  Q 61.39 73.95 51.28 73.88"
/>
<path stroke="#a0a4ae" vector-effect="non-scaling-stroke" d="
  M 72.38 69.36
  Q 60.49 70.28 48.75 69.75"
/>
<path stroke="#4a7db2" vector-effect="non-scaling-stroke" d="
  M 56.75 82.42
  L 56.40 83.41
  Q 56.23 83.88 55.72 83.88
  L 39.91 83.95"
/>
<path stroke="#18497d" vector-effect="non-scaling-stroke" d="
  M 35.65 74.35
  Q 36.69 77.35 39.75 77.73
  Q 43.65 78.22 44.65 73.75"
/>
<path stroke="#a0a4ae" vector-effect="non-scaling-stroke" d="
  M 71.93 82.50
  Q 73.89 84.57 77.72 84.10
  A 0.64 0.64 0.0 0 0 78.28 83.49
  Q 78.29 83.31 78.23 83.09"
/>
<path stroke="#7b7f8a" vector-effect="non-scaling-stroke" d="
  M 80.01 85.00
  Q 79.93 85.53 79.50 85.56
  Q 49.92 87.29 20.16 87.94"
/>
<path stroke="#72757e" vector-effect="non-scaling-stroke" d="
  M 20.16 87.94
  Q 19.04 87.83 19.30 86.22"
/>
<path stroke="#545359" vector-effect="non-scaling-stroke" d="
  M 80.83 89.61
  Q 81.65 87.07 77.63 88.93
  Q 76.14 89.62 74.74 89.67
  Q 46.74 90.53 18.96 90.12"
/>
<path stroke="#696972" vector-effect="non-scaling-stroke" d="
  M 80.37 85.56
  Q 79.05 87.15 77.49 87.22
  Q 50.30 88.35 23.09 89.50
  Q 22.60 89.52 22.19 89.26
  L 20.16 87.94"
/>
<path stroke="#34353c" vector-effect="non-scaling-stroke" d="
  M 48.69 32.03
  L 40.61 34.02
  A 0.27 0.27 0.0 0 0 40.41 34.35
  L 40.50 34.71
  A 4.68 4.28 76.2 0 0 45.77 38.23
  L 46.06 38.16
  A 4.68 4.28 76.2 0 0 49.10 32.59
  L 49.01 32.23
  A 0.27 0.27 0.0 0 0 48.69 32.03"
/>
</g>
<path fill="#1dd0fd" d="
  M 70.39 11.71
  L 55.41 12.55
  Q 53.82 12.61 54.42 9.97
  Q 54.76 8.49 57.12 8.40
  Q 63.04 8.19 68.97 8.80
  A 1.19 1.18 -16.6 0 1 69.77 9.23
  Q 70.55 10.20 70.39 11.71
  Z"
/>
<path fill="#565f6f" d="
  M 70.39 11.71
  Q 67.96 13.86 68.79 16.51
  Q 66.01 16.91 63.90 15.69
  Q 61.58 14.34 60.78 14.19
  Q 58.38 13.73 56.03 14.09
  Q 56.08 13.74 55.41 12.55
  L 70.39 11.71
  Z"
/>
<path fill="#a9b0bd" d="
  M 68.79 16.51
  Q 69.08 16.49 69.20 16.73
  Q 63.91 16.40 58.60 16.16
  C 57.59 16.11 56.77 16.61 55.76 16.79
  Q 56.21 15.70 56.03 14.09
  Q 58.38 13.73 60.78 14.19
  Q 61.58 14.34 63.90 15.69
  Q 66.01 16.91 68.79 16.51
  Z"
/>
<path fill="#4ce8fb" d="
  M 69.20 16.73
  Q 71.09 17.06 72.07 18.25
  L 72.11 18.60
  A 0.52 0.52 0.0 0 1 71.57 19.19
  Q 66.95 19.00 62.54 20.38
  Q 62.06 20.53 61.59 20.41
  Q 55.92 18.96 51.87 22.37
  Q 51.13 17.38 55.76 16.79
  C 56.77 16.61 57.59 16.11 58.60 16.16
  Q 63.91 16.40 69.20 16.73
  Z"
/>
<path fill="#1dd0fd" d="
  M 72.07 18.25
  Q 72.43 18.65 72.56 19.21
  L 71.88 19.93
  Q 71.24 19.39 69.37 19.80
  Q 67.21 19.83 64.99 21.42
  Q 64.62 21.68 64.50 22.12
  L 63.45 25.72
  A 0.67 0.67 0.0 0 1 62.81 26.20
  L 62.04 26.21
  Q 61.64 26.21 61.32 26.44
  Q 60.73 26.88 61.22 27.53
  A 0.86 0.84 -54.0 0 1 61.34 28.32
  Q 59.85 32.46 58.36 34.36
  Q 57.48 35.48 55.41 35.05
  A 0.33 0.33 0.0 0 0 55.26 35.69
  Q 55.84 35.84 55.50 36.00
  Q 55.03 36.23 54.62 35.90
  Q 52.85 34.45 51.85 32.29
  L 51.84 30.51
  L 51.77 27.18
  Q 52.14 26.63 51.73 25.85
  L 51.87 22.37
  Q 55.92 18.96 61.59 20.41
  Q 62.06 20.53 62.54 20.38
  Q 66.95 19.00 71.57 19.19
  A 0.52 0.52 0.0 0 0 72.11 18.60
  L 72.07 18.25
  Z"
/>
<path fill="#137ed5" d="
  M 72.56 19.21
  L 72.82 21.02
  L 72.73 37.54
  Q 72.73 38.03 72.45 38.43
  C 71.68 39.57 72.42 41.35 71.87 42.69
  C 70.98 44.83 70.50 46.99 69.81 49.22
  Q 69.68 49.66 69.29 49.91
  Q 67.35 51.17 66.00 51.40
  Q 62.66 51.98 54.62 52.52
  Q 54.11 52.56 53.69 52.28
  L 52.06 51.22
  Q 51.80 50.87 51.88 50.62
  Q 56.55 52.31 61.68 50.44
  Q 64.42 49.45 64.91 46.50
  Q 65.31 44.05 66.05 41.70
  Q 66.82 39.22 67.16 36.93
  Q 68.02 31.09 70.29 25.67
  C 71.11 23.71 72.81 22.89 71.88 19.93
  L 72.56 19.21
  Z"
/>
<path fill="#0db6f6" d="
  M 69.37 19.80
  Q 66.81 21.11 65.90 24.32
  Q 64.94 27.68 63.52 30.88
  Q 63.34 31.27 63.38 31.70
  Q 63.54 33.22 62.48 34.30
  Q 62.15 34.63 62.07 35.10
  Q 61.86 36.37 60.67 38.16
  Q 59.57 39.81 59.95 42.69
  A 1.17 1.13 -28.5 0 1 59.66 43.61
  Q 57.64 45.83 54.70 46.32
  A 0.86 0.86 0.0 0 1 53.74 45.74
  Q 52.85 42.95 53.50 39.01
  Q 53.81 37.08 51.95 34.65
  L 51.85 32.29
  Q 52.85 34.45 54.62 35.90
  Q 55.03 36.23 55.50 36.00
  Q 55.84 35.84 55.26 35.69
  A 0.33 0.33 0.0 0 1 55.41 35.05
  Q 57.48 35.48 58.36 34.36
  Q 59.85 32.46 61.34 28.32
  A 0.86 0.84 -54.0 0 0 61.22 27.53
  Q 60.73 26.88 61.32 26.44
  Q 61.64 26.21 62.04 26.21
  L 62.81 26.20
  A 0.67 0.67 0.0 0 0 63.45 25.72
  L 64.50 22.12
  Q 64.62 21.68 64.99 21.42
  Q 67.21 19.83 69.37 19.80
  Z"
/>
<path fill="#119de9" d="
  M 69.37 19.80
  Q 71.24 19.39 71.88 19.93
  C 72.81 22.89 71.11 23.71 70.29 25.67
  Q 68.02 31.09 67.16 36.93
  Q 66.82 39.22 66.05 41.70
  Q 65.31 44.05 64.91 46.50
  Q 64.42 49.45 61.68 50.44
  Q 56.55 52.31 51.88 50.62
  L 51.93 41.87
  L 51.95 34.65
  Q 53.81 37.08 53.50 39.01
  Q 52.85 42.95 53.74 45.74
  A 0.86 0.86 0.0 0 0 54.70 46.32
  Q 57.64 45.83 59.66 43.61
  A 1.17 1.13 -28.5 0 0 59.95 42.69
  Q 59.57 39.81 60.67 38.16
  Q 61.86 36.37 62.07 35.10
  Q 62.15 34.63 62.48 34.30
  Q 63.54 33.22 63.38 31.70
  Q 63.34 31.27 63.52 30.88
  Q 64.94 27.68 65.90 24.32
  Q 66.81 21.11 69.37 19.80
  Z"
/>
<path fill="#0f6fce" d="
  M 72.82 21.02
  Q 73.03 43.53 72.88 49.88
  Q 72.78 53.80 68.96 54.12
  L 55.84 53.94
  Q 52.29 53.87 52.06 51.22
  L 53.69 52.28
  Q 54.11 52.56 54.62 52.52
  Q 62.66 51.98 66.00 51.40
  Q 67.35 51.17 69.29 49.91
  Q 69.68 49.66 69.81 49.22
  C 70.50 46.99 70.98 44.83 71.87 42.69
  C 72.42 41.35 71.68 39.57 72.45 38.43
  Q 72.73 38.03 72.73 37.54
  L 72.82 21.02
  Z"
/>
<path fill="#bcbec5" d="
  M 51.73 25.85
  Q 52.14 26.63 51.77 27.18
  L 39.86 28.03
  Q 39.41 28.06 39.03 28.31
  Q 36.33 30.07 34.92 32.92
  A 1.34 1.30 -85.4 0 1 34.13 33.61
  C 27.23 35.81 24.56 40.01 20.81 45.52
  A 0.68 0.65 -76.0 0 1 20.35 45.81
  L 19.20 45.98
  Q 18.90 46.02 18.89 45.72
  Q 18.87 45.24 18.64 45.01
  Q 21.60 32.29 34.37 29.67
  Q 34.87 29.57 35.16 29.15
  C 38.58 24.33 46.48 25.85 51.73 25.85
  Z"
/>
<path fill="#848a96" d="
  M 51.77 27.18
  L 51.84 30.51
  L 51.52 33.65
  Q 51.44 34.45 50.81 33.94
  Q 49.42 32.81 48.74 30.74
  Q 47.71 29.39 46.35 29.58
  C 44.19 29.87 43.83 32.18 40.59 32.16
  Q 39.99 32.16 39.88 32.75
  Q 39.32 35.53 40.64 37.98
  A 0.84 0.84 0.0 0 1 39.75 39.21
  Q 36.89 38.70 35.24 36.29
  A 1.41 1.39 85.8 0 0 34.73 35.84
  C 31.96 34.44 28.13 38.03 26.66 39.95
  Q 25.14 41.94 24.86 45.46
  Q 24.36 51.80 24.40 58.14
  A 1.60 1.53 -62.9 0 0 24.66 59.01
  Q 25.92 60.91 27.59 61.58
  Q 29.31 65.92 33.01 67.41
  L 30.01 72.86
  Q 29.33 70.29 26.97 69.65
  Q 26.53 69.53 26.23 69.18
  L 18.52 60.11
  L 18.64 45.01
  Q 18.87 45.24 18.89 45.72
  Q 18.90 46.02 19.20 45.98
  L 20.35 45.81
  A 0.68 0.65 -76.0 0 0 20.81 45.52
  C 24.56 40.01 27.23 35.81 34.13 33.61
  A 1.34 1.30 -85.4 0 0 34.92 32.92
  Q 36.33 30.07 39.03 28.31
  Q 39.41 28.06 39.86 28.03
  L 51.77 27.18
  Z"
/>
<path fill="#565f6f" d="
  M 48.74 30.74
  L 46.98 30.61
  A 0.81 0.81 0.0 0 0 46.22 31.00
  C 44.99 33.03 43.18 32.21 41.38 32.33
  A 1.85 1.85 0.0 0 0 40.01 35.25
  L 42.23 38.32
  A 1.08 1.08 0.0 0 1 41.73 39.96
  Q 39.33 40.87 36.16 39.00
  Q 32.13 38.27 29.35 41.98
  C 25.96 46.51 26.93 56.22 27.59 61.58
  Q 25.92 60.91 24.66 59.01
  A 1.60 1.53 -62.9 0 1 24.40 58.14
  Q 24.36 51.80 24.86 45.46
  Q 25.14 41.94 26.66 39.95
  C 28.13 38.03 31.96 34.44 34.73 35.84
  A 1.41 1.39 85.8 0 1 35.24 36.29
  Q 36.89 38.70 39.75 39.21
  A 0.84 0.84 0.0 0 0 40.64 37.98
  Q 39.32 35.53 39.88 32.75
  Q 39.99 32.16 40.59 32.16
  C 43.83 32.18 44.19 29.87 46.35 29.58
  Q 47.71 29.39 48.74 30.74
  Z"
/>
<path fill="#48474c" d="
  M 48.74 30.74
  Q 49.42 32.81 50.81 33.94
  Q 51.44 34.45 51.52 33.65
  L 51.84 30.51
  L 51.85 32.29
  L 51.95 34.65
  L 51.93 41.87
  Q 46.31 41.41 41.99 41.63
  Q 38.82 41.79 36.16 39.00
  Q 39.33 40.87 41.73 39.96
  A 1.08 1.08 0.0 0 0 42.23 38.32
  L 40.01 35.25
  A 1.85 1.85 0.0 0 1 41.38 32.33
  C 43.18 32.21 44.99 33.03 46.22 31.00
  A 0.81 0.81 0.0 0 1 46.98 30.61
  L 48.74 30.74
  Z
  M 48.69 32.03
  L 40.61 34.02
  A 0.27 0.27 0.0 0 0 40.41 34.35
  L 40.50 34.71
  A 4.68 4.28 76.2 0 0 45.77 38.23
  L 46.06 38.16
  A 4.68 4.28 76.2 0 0 49.10 32.59
  L 49.01 32.23
  A 0.27 0.27 0.0 0 0 48.69 32.03
  Z"
/>
<path fill="#20232b" d="
  M 48.69 32.03
  A 0.27 0.27 0.0 0 1 49.01 32.23
  L 49.10 32.59
  A 4.68 4.28 76.2 0 1 46.06 38.16
  L 45.77 38.23
  A 4.68 4.28 76.2 0 1 40.50 34.71
  L 40.41 34.35
  A 0.27 0.27 0.0 0 1 40.61 34.02
  L 48.69 32.03
  Z"
/>
<path fill="#48474c" d="
  M 55.84 53.94
  L 68.96 54.12
  Q 68.38 55.08 68.60 55.90
  A 2.09 1.96 81.9 0 1 66.75 58.54
  L 58.02 58.50
  A 2.01 2.01 0.0 0 1 56.03 56.63
  L 55.84 53.94
  Z"
/>
<path fill="#565f6f" d="
  M 18.52 60.11
  L 26.23 69.18
  Q 26.53 69.53 26.97 69.65
  Q 29.33 70.29 30.01 72.86
  L 28.51 75.07
  Q 19.62 70.11 18.52 60.11
  Z"
/>
<path fill="#1dd0fd" d="
  M 46.78 66.68
  L 36.38 68.23
  Q 35.82 68.32 35.52 68.79
  L 26.22 83.66
  Q 23.82 84.18 23.96 82.31
  L 28.51 75.07
  L 30.01 72.86
  L 33.01 67.41
  Q 39.43 62.33 46.78 66.68
  Z"
/>
<path fill="#119de9" d="
  M 46.78 66.68
  L 48.41 68.86
  Q 48.23 69.33 48.75 69.75
  Q 49.82 70.00 49.86 71.91
  L 51.28 73.88
  L 53.65 77.73
  Q 53.78 77.93 53.97 78.01
  L 56.36 81.88
  Q 55.91 81.99 55.83 82.36
  Q 55.77 82.67 55.48 82.54
  Q 52.51 81.13 49.20 81.39
  Q 48.78 81.42 48.53 81.08
  L 46.24 78.01
  A 0.58 0.56 30.0 0 1 46.14 77.66
  C 46.27 73.96 46.07 69.96 42.21 68.12
  Q 37.34 66.90 35.23 71.76
  Q 34.48 72.88 35.03 74.75
  Q 35.83 77.52 36.66 80.58
  Q 36.98 81.77 35.75 81.94
  L 32.22 82.40
  A 0.70 0.70 0.0 0 0 32.29 83.80
  L 39.91 83.95
  L 26.22 83.66
  L 35.52 68.79
  Q 35.82 68.32 36.38 68.23
  L 46.78 66.68
  Z"
/>
<path fill="#565f6f" d="
  M 42.21 68.12
  Q 45.26 70.59 44.65 73.75
  Q 44.68 72.68 44.00 72.09
  Q 43.70 71.82 43.29 71.84
  L 36.70 72.27
  Q 36.18 72.30 35.97 72.77
  Q 35.67 73.41 35.65 74.35
  L 35.23 71.76
  Q 37.34 66.90 42.21 68.12
  Z"
/>
<path fill="#0f6fce" d="
  M 42.21 68.12
  C 46.07 69.96 46.27 73.96 46.14 77.66
  A 0.58 0.56 30.0 0 0 46.24 78.01
  L 48.53 81.08
  Q 48.78 81.42 49.20 81.39
  Q 52.51 81.13 55.48 82.54
  Q 55.77 82.67 55.83 82.36
  Q 55.91 81.99 56.36 81.88
  Q 56.07 81.93 56.75 82.42
  L 56.40 83.41
  Q 56.23 83.88 55.72 83.88
  L 39.91 83.95
  L 32.29 83.80
  A 0.70 0.70 0.0 0 1 32.22 82.40
  L 35.75 81.94
  Q 36.98 81.77 36.66 80.58
  Q 35.83 77.52 35.03 74.75
  Q 34.48 72.88 35.23 71.76
  L 35.65 74.35
  Q 36.69 77.35 39.75 77.73
  Q 43.65 78.22 44.65 73.75
  Q 45.26 70.59 42.21 68.12
  Z"
/>
<path fill="#bcbec5" d="
  M 72.38 69.36
  Q 60.49 70.28 48.75 69.75
  Q 48.23 69.33 48.41 68.86
  Q 60.49 68.11 72.38 69.36
  Z"
/>
<path fill="#848a96" d="
  M 72.38 69.36
  Q 73.72 70.23 74.08 71.33
  Q 73.59 71.79 72.26 71.87
  Q 60.85 72.49 49.86 71.91
  Q 49.82 70.00 48.75 69.75
  Q 60.49 70.28 72.38 69.36
  Z"
/>
<path fill="#72737d" d="
  M 49.86 71.91
  Q 60.85 72.49 72.26 71.87
  Q 73.59 71.79 74.08 71.33
  L 74.34 72.16
  Q 72.09 73.29 71.25 73.34
  Q 61.39 73.95 51.28 73.88
  L 49.86 71.91
  Z"
/>
<path fill="#20232b" d="
  M 44.65 73.75
  Q 43.65 78.22 39.75 77.73
  Q 36.69 77.35 35.65 74.35
  Q 35.67 73.41 35.97 72.77
  Q 36.18 72.30 36.70 72.27
  L 43.29 71.84
  Q 43.70 71.82 44.00 72.09
  Q 44.68 72.68 44.65 73.75
  Z"
/>
<path fill="#48474c" d="
  M 74.34 72.16
  Q 74.80 74.45 73.78 76.61
  Q 63.92 75.57 54.52 76.17
  Q 54.05 76.20 53.83 76.61
  Q 53.58 77.08 53.65 77.73
  L 51.28 73.88
  Q 61.39 73.95 71.25 73.34
  Q 72.09 73.29 74.34 72.16
  Z"
/>
<path fill="#20232b" d="
  M 73.78 76.61
  Q 64.77 78.01 54.25 77.41
  Q 53.82 77.38 53.97 78.01
  Q 53.78 77.93 53.65 77.73
  Q 53.58 77.08 53.83 76.61
  Q 54.05 76.20 54.52 76.17
  Q 63.92 75.57 73.78 76.61
  Z"
/>
<path fill="#a9b0bd" d="
  M 23.96 82.31
  Q 23.82 84.18 26.22 83.66
  L 39.91 83.95
  Q 40.46 84.73 40.35 85.17
  Q 40.25 85.57 39.48 85.58
  Q 29.75 85.78 20.11 86.73
  Q 19.66 86.78 19.51 86.36
  Q 19.44 86.17 19.45 85.97
  Q 20.66 82.93 23.96 82.31
  Z"
/>
<path fill="#848a96" d="
  M 56.75 82.42
  L 71.93 82.50
  Q 73.89 84.57 77.72 84.10
  A 0.64 0.64 0.0 0 0 78.28 83.49
  Q 78.29 83.31 78.23 83.09
  Q 79.52 84.02 80.01 85.00
  Q 79.93 85.53 79.50 85.56
  Q 49.92 87.29 20.16 87.94
  Q 19.04 87.83 19.30 86.22
  Q 19.26 86.09 19.45 85.97
  Q 19.44 86.17 19.51 86.36
  Q 19.66 86.78 20.11 86.73
  Q 29.75 85.78 39.48 85.58
  Q 40.25 85.57 40.35 85.17
  Q 40.46 84.73 39.91 83.95
  L 55.72 83.88
  Q 56.23 83.88 56.40 83.41
  L 56.75 82.42
  Z"
/>
<path fill="#bcbec5" d="
  M 71.93 82.50
  Q 76.15 82.06 78.23 83.09
  Q 78.29 83.31 78.28 83.49
  A 0.64 0.64 0.0 0 1 77.72 84.10
  Q 73.89 84.57 71.93 82.50
  Z"
/>
<path fill="#72737d" d="
  M 80.01 85.00
  L 80.37 85.56
  Q 79.05 87.15 77.49 87.22
  Q 50.30 88.35 23.09 89.50
  Q 22.60 89.52 22.19 89.26
  L 20.16 87.94
  Q 49.92 87.29 79.50 85.56
  Q 79.93 85.53 80.01 85.00
  Z"
/>
<path fill="#605f66" d="
  M 80.37 85.56
  Q 81.35 87.04 80.83 89.61
  Q 81.65 87.07 77.63 88.93
  Q 76.14 89.62 74.74 89.67
  Q 46.74 90.53 18.96 90.12
  Q 18.33 87.00 19.30 86.22
  Q 19.04 87.83 20.16 87.94
  L 22.19 89.26
  Q 22.60 89.52 23.09 89.50
  Q 50.30 88.35 77.49 87.22
  Q 79.05 87.15 80.37 85.56
  Z"
/>
<path fill="#48474c" d="
  M 80.83 89.61
  Q 80.43 91.75 77.25 91.76
  Q 49.75 91.82 22.25 91.82
  Q 19.76 91.82 18.96 90.12
  Q 46.74 90.53 74.74 89.67
  Q 76.14 89.62 77.63 88.93
  Q 81.65 87.07 80.83 89.61
  Z"
/>
</svg>
