<svg width="544" height="364" viewBox="0 0 544 364" fill="none" xmlns="http://www.w3.org/2000/svg">
<path opacity="0.3" d="M136.373 136.453L105.359 118.549L136.373 100.645L167.386 118.549L136.373 136.453Z" fill="#42E8E0"/>
<path opacity="0.5" d="M136.373 115.828L105.359 97.9237L136.373 80.0078L167.386 97.9237L136.373 115.828Z" fill="#42E8E0"/>
<path opacity="0.7" d="M136.373 99.2965L105.359 81.3806L136.373 63.4766L167.386 81.3806L136.373 99.2965Z" fill="#42E8E0"/>
<path d="M136.374 100.165C136.218 100.167 136.066 100.126 135.932 100.046L104.895 82.1421C104.76 82.0656 104.648 81.9544 104.57 81.8202C104.492 81.6859 104.452 81.5333 104.453 81.3782C104.455 81.2235 104.496 81.0719 104.573 80.938C104.651 80.8041 104.761 80.6926 104.895 80.6143L135.932 62.7103C136.067 62.6339 136.219 62.5938 136.374 62.5938C136.529 62.5938 136.681 62.6339 136.815 62.7103L167.853 80.6143C167.987 80.6903 168.098 80.8005 168.176 80.9336C168.253 81.0668 168.294 81.2181 168.294 81.3722C168.294 81.5263 168.253 81.6776 168.176 81.8108C168.098 81.9439 167.987 82.0541 167.853 82.1301L136.815 100.034C136.684 100.119 136.531 100.165 136.374 100.165ZM107.115 81.3782L136.374 98.2676L165.632 81.3782L136.374 64.4529L107.115 81.3782Z" fill="#42E8E0"/>
<path d="M348.573 139.031L327.085 11.6736L328.804 10.9574L326.214 9.46543C325.902 9.29739 325.549 9.22161 325.196 9.24698C324.843 9.27234 324.505 9.39781 324.22 9.60867L152.644 108.618C151.906 109.079 151.308 109.733 150.914 110.509C150.521 111.285 150.347 112.154 150.412 113.022L172.054 241.394C172.078 241.671 172.173 241.937 172.33 242.167C172.487 242.397 172.7 242.583 172.949 242.707L175.492 244.175L175.922 241.788H175.779L346.317 143.34C347.038 142.883 347.627 142.244 348.023 141.488C348.419 140.731 348.609 139.884 348.573 139.031Z" fill="url(#paint0_linear_2335_82996)"/>
<path d="M153.599 112.198L150.77 111.004C150.457 111.666 150.333 112.401 150.412 113.129L172.054 241.5C172.078 241.777 172.173 242.044 172.33 242.274C172.487 242.504 172.7 242.689 172.949 242.813L175.492 244.281L175.922 241.894H175.779L184.409 236.905L153.599 112.198Z" fill="url(#paint1_linear_2335_82996)"/>
<path d="M348.573 139.031L327.086 11.6736L328.399 11.1245C327.945 10.3129 327.014 10.1338 325.94 10.7545L154.363 109.811C153.637 110.276 153.047 110.925 152.655 111.693C152.263 112.461 152.082 113.319 152.131 114.18L173.773 242.54C173.818 242.838 173.928 243.124 174.096 243.375L175.098 243.96C175.241 243.978 175.386 243.978 175.528 243.96L175.922 241.835H175.779L346.317 143.387C347.046 142.927 347.639 142.28 348.035 141.515C348.432 140.749 348.617 139.892 348.573 139.031Z" fill="#42E8E0"/>
<path d="M349.014 144.94L177.437 244.009C176.112 244.773 174.978 244.331 174.739 242.958L153.097 114.587C153.051 113.728 153.234 112.873 153.626 112.108C154.018 111.342 154.605 110.695 155.329 110.23L326.906 11.1613C328.231 10.3974 329.365 10.8391 329.603 12.2117L351.246 140.583C351.292 141.442 351.109 142.297 350.717 143.062C350.325 143.828 349.737 144.475 349.014 144.94Z" fill="#24126A"/>
<g opacity="0.51">
<path d="M324.662 19.3594L159.281 114.835L179.79 235.723L345.063 140.319L324.662 19.3594Z" fill="#453C9E"/>
</g>
<path d="M456.868 205.715L447.509 210.597L353.61 156.36C352.64 155.922 351.581 155.716 350.518 155.76C349.455 155.803 348.416 156.095 347.486 156.611L185.543 250.141C183.991 249.27 176.924 245.868 176.924 245.868L180.362 254.796C180.543 255.253 180.882 255.63 181.317 255.858L280.206 312.936C281.175 313.377 282.234 313.584 283.298 313.541C284.362 313.497 285.401 313.204 286.33 312.686L452.045 217.019C452.673 216.708 453.169 216.183 453.442 215.539L456.868 205.715Z" fill="url(#paint2_linear_2335_82996)"/>
<path d="M455.424 207.257L285.591 305.3C284.64 305.826 283.58 306.124 282.494 306.17C281.408 306.215 280.327 306.007 279.335 305.562L177.999 247.076C176.387 246.145 176.59 244.522 178.44 243.495L348.238 145.381C349.193 144.849 350.26 144.548 351.353 144.502C352.445 144.457 353.533 144.668 354.529 145.119L455.866 203.605C457.478 204.56 457.275 206.183 455.424 207.257Z" fill="url(#paint3_linear_2335_82996)"/>
<path d="M455.424 206.278L285.591 304.368C284.634 304.896 283.567 305.193 282.475 305.237C281.383 305.28 280.295 305.069 279.3 304.619L177.963 246.132C177.51 245.899 177.157 245.509 176.972 245.034C176.848 245.442 176.881 245.88 177.065 246.265C177.248 246.649 177.568 246.951 177.963 247.111L279.335 305.562C280.331 306.014 281.418 306.227 282.511 306.184C283.603 306.14 284.67 305.841 285.626 305.311L455.46 207.269C456.654 206.541 457.191 205.574 456.892 204.738C456.603 205.411 456.082 205.957 455.424 206.278Z" fill="white"/>
<path d="M234.355 284.078V282.216C234.355 282.036 234.463 281.953 234.594 282.036L241.172 285.82C241.244 285.875 241.303 285.945 241.345 286.025C241.386 286.106 241.409 286.195 241.41 286.286V288.148C241.41 288.315 241.303 288.398 241.172 288.327L234.594 284.531C234.521 284.48 234.462 284.412 234.42 284.333C234.378 284.254 234.356 284.167 234.355 284.078Z" fill="#2842A2"/>
<path d="M244.18 289.757V287.895C244.18 287.716 244.287 287.633 244.418 287.716L250.996 291.5C251.068 291.554 251.128 291.624 251.169 291.705C251.21 291.786 251.233 291.875 251.235 291.965V293.827C251.235 294.006 251.127 294.078 250.996 294.006L244.418 290.211C244.345 290.16 244.286 290.092 244.244 290.013C244.203 289.934 244.181 289.846 244.18 289.757Z" fill="#2842A2"/>
<path d="M204.381 241.574L345.517 160.099C345.977 159.83 346.5 159.687 347.033 159.688C347.566 159.687 348.09 159.83 348.549 160.099L398.806 189.175C398.972 189.269 399.111 189.405 399.207 189.569C399.304 189.734 399.355 189.921 399.355 190.112C399.355 190.303 399.304 190.491 399.207 190.655C399.111 190.82 398.972 190.956 398.806 191.049L257.741 272.489C257.28 272.752 256.757 272.891 256.225 272.891C255.693 272.891 255.171 272.752 254.709 272.489L204.381 243.496C204.203 243.407 204.052 243.27 203.948 243.1C203.843 242.93 203.787 242.735 203.787 242.535C203.787 242.336 203.843 242.14 203.948 241.97C204.052 241.801 204.203 241.664 204.381 241.574Z" fill="#ADB1F2"/>
<path d="M204.381 243.496L204.882 243.783L345.517 162.618C345.977 162.348 346.5 162.206 347.033 162.206C347.566 162.206 348.09 162.348 348.549 162.618L398.304 191.395L398.806 191.109C398.972 191.016 399.111 190.88 399.207 190.715C399.304 190.55 399.355 190.363 399.355 190.172C399.355 189.981 399.304 189.794 399.207 189.629C399.111 189.464 398.972 189.328 398.806 189.235L348.573 160.099C348.113 159.83 347.59 159.687 347.057 159.688C346.524 159.687 346.001 159.83 345.541 160.099L204.381 241.574C204.203 241.664 204.052 241.801 203.948 241.97C203.843 242.14 203.787 242.336 203.787 242.535C203.787 242.735 203.843 242.93 203.948 243.1C204.052 243.27 204.203 243.407 204.381 243.496Z" fill="#9198DB"/>
<path d="M352.345 167.464L229.748 238.232L224.305 235.081L346.902 164.312L352.345 167.464Z" fill="#24126A"/>
<path d="M365.714 175.174L250.721 241.562L245.266 238.411L360.259 172.035L365.714 175.174Z" fill="#24126A"/>
<path d="M374.418 180.198L239.024 258.355L233.58 255.204L368.962 177.059L374.418 180.198Z" fill="#24126A"/>
<path d="M383.119 185.221L247.737 263.378L242.281 260.227L377.663 182.07L383.119 185.221Z" fill="#24126A"/>
<path d="M391.822 190.249L256.44 268.406L250.984 265.255L386.367 187.098L391.822 190.249Z" fill="#24126A"/>
<path d="M222.346 242.502L216.891 245.654L211.447 242.502L216.891 239.363L222.346 242.502Z" fill="#24126A"/>
<path d="M241.577 246.835L230.26 253.364L224.805 250.225L236.121 243.684L241.577 246.835Z" fill="#24126A"/>
<path d="M350.96 261.289L389.017 239.315C389.343 239.207 389.626 238.999 389.827 238.72C390.028 238.442 390.136 238.107 390.136 237.763C390.136 237.42 390.028 237.085 389.827 236.807C389.626 236.528 389.343 236.32 389.017 236.212L362.993 221.184C362.159 220.763 361.237 220.543 360.301 220.543C359.366 220.543 358.444 220.763 357.61 221.184L319.553 243.147C319.229 243.258 318.947 243.468 318.748 243.747C318.549 244.027 318.441 244.361 318.441 244.704C318.441 245.047 318.549 245.382 318.748 245.661C318.947 245.94 319.229 246.15 319.553 246.262L345.577 261.289C346.411 261.711 347.333 261.931 348.269 261.931C349.204 261.931 350.126 261.711 350.96 261.289Z" fill="url(#paint4_linear_2335_82996)"/>
<path d="M319.54 244.427L357.597 222.465C358.431 222.043 359.354 221.823 360.289 221.823C361.224 221.823 362.146 222.043 362.981 222.465L389.004 237.528C389.394 237.741 389.717 238.06 389.935 238.447C390.329 237.695 390.031 236.847 389.004 236.263L362.981 221.235C362.146 220.813 361.224 220.594 360.289 220.594C359.354 220.594 358.431 220.813 357.597 221.235L319.54 243.197C318.514 243.794 318.215 244.642 318.597 245.394C318.812 244.987 319.139 244.652 319.54 244.427Z" fill="#9198DB"/>
<g opacity="0.11">
<mask id="mask0_2335_82996" style="mask-type:luminance" maskUnits="userSpaceOnUse" x="159" y="19" width="187" height="217">
<path d="M324.662 19.3594L159.281 114.835L179.79 235.723L345.063 140.319L324.662 19.3594Z" fill="white"/>
</mask>
<g mask="url(#mask0_2335_82996)">
<path d="M348.406 145.176L178.573 243.218C177.62 243.751 176.555 244.052 175.464 244.097C174.374 244.143 173.288 243.932 172.294 243.481L70.9449 184.995C69.3333 184.064 69.5363 182.44 71.3985 181.414L241.232 83.2999C242.187 82.7723 243.252 82.4749 244.342 82.4314C245.432 82.3878 246.517 82.5994 247.511 83.0493L348.86 141.536C350.471 142.479 350.268 144.102 348.406 145.176Z" fill="url(#paint5_linear_2335_82996)"/>
<path d="M178.071 162.757L216.128 140.842C216.454 140.734 216.737 140.526 216.938 140.247C217.139 139.969 217.247 139.634 217.247 139.291C217.247 138.947 217.139 138.613 216.938 138.334C216.737 138.056 216.454 137.848 216.128 137.739L190.104 122.712C189.27 122.29 188.348 122.07 187.412 122.07C186.477 122.07 185.555 122.29 184.721 122.712L146.664 144.686C145.172 145.545 145.172 146.93 146.664 147.789L172.688 162.817C173.527 163.229 174.451 163.439 175.387 163.428C176.322 163.418 177.241 163.188 178.071 162.757Z" fill="url(#paint6_linear_2335_82996)"/>
<path d="M146.665 145.893L184.721 123.93C185.556 123.509 186.478 123.289 187.413 123.289C188.348 123.289 189.27 123.509 190.105 123.93L216.129 138.946C216.517 139.162 216.839 139.48 217.06 139.865C217.454 139.113 217.155 138.265 216.129 137.681L190.105 122.653C189.27 122.231 188.348 122.012 187.413 122.012C186.478 122.012 185.556 122.231 184.721 122.653L146.665 144.627C145.638 145.212 145.34 146.06 145.734 146.812C145.945 146.419 146.269 146.098 146.665 145.893Z" fill="#9198DB"/>
<path d="M129.94 197.084L271.064 115.609C271.528 115.346 272.053 115.207 272.586 115.207C273.12 115.207 273.645 115.346 274.108 115.609L324.365 144.685C324.528 144.781 324.664 144.918 324.758 145.082C324.852 145.247 324.902 145.433 324.902 145.622C324.902 145.812 324.852 145.998 324.758 146.162C324.664 146.327 324.528 146.464 324.365 146.559L183.3 227.975C182.837 228.238 182.312 228.377 181.778 228.377C181.245 228.377 180.72 228.238 180.256 227.975L129.94 198.935C129.779 198.84 129.646 198.704 129.553 198.542C129.461 198.38 129.412 198.196 129.412 198.009C129.412 197.823 129.461 197.639 129.553 197.477C129.646 197.315 129.779 197.179 129.94 197.084Z" fill="#ADB1F2"/>
<path d="M129.94 198.959L130.441 199.258L271.064 118.093C271.528 117.829 272.052 117.691 272.586 117.691C273.119 117.691 273.644 117.829 274.108 118.093L323.863 146.811L324.364 146.512C324.528 146.417 324.663 146.28 324.757 146.115C324.852 145.951 324.901 145.765 324.901 145.576C324.901 145.386 324.852 145.2 324.757 145.036C324.663 144.871 324.528 144.734 324.364 144.639L274.108 115.562C273.644 115.299 273.119 115.16 272.586 115.16C272.052 115.16 271.528 115.299 271.064 115.562L129.94 197.085C129.773 197.179 129.634 197.315 129.538 197.479C129.441 197.644 129.391 197.831 129.391 198.022C129.391 198.213 129.441 198.401 129.538 198.565C129.634 198.73 129.773 198.866 129.94 198.959Z" fill="#9198DB"/>
<path d="M311.209 142.707L188.266 213.69L193.136 216.495L316.08 145.524L311.209 142.707Z" fill="#24126A"/>
<path d="M298.258 135.223L181.391 202.685L186.261 205.502L303.128 138.04L298.258 135.223Z" fill="#24126A"/>
<path d="M172.663 207.719L161.752 214.021L166.622 216.838L177.533 210.536L172.663 207.719Z" fill="#24126A"/>
<path d="M182.309 217.113L174.705 221.506L179.576 224.323L187.18 219.93L182.309 217.113Z" fill="#24126A"/>
<path d="M290.139 130.543L153.635 209.344L158.505 212.149L295.01 133.348L290.139 130.543Z" fill="#24126A"/>
<path d="M282.022 125.852L145.518 204.653L150.388 207.47L286.892 128.668L282.022 125.852Z" fill="#24126A"/>
<path d="M273.905 121.172L137.4 199.973L142.271 202.778L278.775 123.977L273.905 121.172Z" fill="#24126A"/>
</g>
</g>
<path d="M221.559 189.641L234.94 181.906L235.322 184.222L221.953 191.956L221.559 189.641Z" fill="#42E8E0"/>
<path d="M237.09 180.663L244.384 176.449L244.766 178.777L237.484 182.99L237.09 180.663Z" fill="#42E8E0"/>
<path d="M255.723 169.907L260.999 166.852L261.393 169.179L256.117 172.223L255.723 169.907Z" fill="#42E8E0"/>
<path d="M251.879 172.128L253.681 171.09L254.075 173.405L252.261 174.456L251.879 172.128Z" fill="#42E8E0"/>
<path d="M246.555 175.21L249.826 173.312L250.219 175.64L246.949 177.526L246.555 175.21Z" fill="#42E8E0"/>
<path d="M232.146 171.868L237.411 168.824L237.805 171.14L232.528 174.195L232.146 171.868Z" fill="#42E8E0"/>
<path d="M219.756 179.015L230.094 173.047L230.488 175.374L220.15 181.342L219.756 179.015Z" fill="#42E8E0"/>
<path d="M234.582 141.371L244.92 135.391L245.314 137.718L234.976 143.698L234.582 141.371Z" fill="#42E8E0"/>
<path d="M229.258 144.437L232.529 142.551L232.923 144.866L229.652 146.764L229.258 144.437Z" fill="#42E8E0"/>
<path d="M236.301 151.991L246.639 146.023L247.033 148.339L236.695 154.319L236.301 151.991Z" fill="#42E8E0"/>
<path d="M230.988 155.074L234.259 153.176L234.653 155.503L231.382 157.389L230.988 155.074Z" fill="#42E8E0"/>
<path d="M226.954 95.4994L207.484 106.755L207.09 104.428L226.56 93.1719L226.954 95.4994Z" fill="#42E8E0"/>
<path d="M233.818 91.5385L228.995 94.3195L228.602 91.992L233.424 89.2109L233.818 91.5385Z" fill="#42E8E0"/>
<path d="M268.03 89.2806L248.56 100.524L248.166 98.2088L267.636 86.9531L268.03 89.2806Z" fill="#42E8E0"/>
<path d="M274.894 85.3078L270.072 88.1008L269.678 85.7733L274.5 82.9922L274.894 85.3078Z" fill="#42E8E0"/>
<path d="M213.657 109.011L208.38 112.055L207.986 109.739L213.263 106.684L213.657 109.011Z" fill="#42E8E0"/>
<path d="M245.744 102.124L240.468 105.18L240.074 102.852L245.351 99.8086L245.744 102.124Z" fill="#42E8E0"/>
<path d="M226.034 101.863L215.697 107.831L215.303 105.503L225.641 99.5352L226.034 101.863Z" fill="#42E8E0"/>
<path d="M231.346 98.7806L228.076 100.678L227.682 98.351L230.952 96.4531L231.346 98.7806Z" fill="#42E8E0"/>
<path d="M243.822 91.5853L233.484 97.5653L233.09 95.2377L243.428 89.2578L243.822 91.5853Z" fill="#42E8E0"/>
<path d="M249.145 88.5189L245.874 90.4048L245.48 88.0892L248.751 86.1914L249.145 88.5189Z" fill="#42E8E0"/>
<path d="M244.848 96.8117L239.572 99.8673L239.178 97.5398L244.454 94.4961L244.848 96.8117Z" fill="#42E8E0"/>
<path d="M257.228 89.6635L246.89 95.6434L246.496 93.3159L256.834 87.3359L257.228 89.6635Z" fill="#42E8E0"/>
<path d="M262.552 86.5971L259.269 88.4829L258.887 86.1554L262.158 84.2695L262.552 86.5971Z" fill="#42E8E0"/>
<path d="M220.066 111.124L209.275 117.367L208.881 115.039L219.672 108.809L220.066 111.124Z" fill="#42E8E0"/>
<path d="M229.914 105.429L222.107 109.941L221.713 107.625L229.52 103.113L229.914 105.429Z" fill="#42E8E0"/>
<path d="M237.233 101.206L231.956 104.25L231.562 101.935L236.839 98.8789L237.233 101.206Z" fill="#42E8E0"/>
<path d="M288.396 77.5226L277.605 83.7651L277.211 81.4376L288.002 75.207L288.396 77.5226Z" fill="#42E8E0"/>
<path d="M298.244 71.8431L290.437 76.3549L290.043 74.0274L297.85 69.5156L298.244 71.8431Z" fill="#42E8E0"/>
<path d="M305.563 67.6046L300.287 70.6603L299.893 68.3327L305.169 65.2891L305.563 67.6046Z" fill="#42E8E0"/>
<path d="M284.182 147.649L294.973 141.418L295.367 143.745L284.576 149.976L284.182 147.649Z" fill="#42E8E0"/>
<path d="M274.334 153.34L282.141 148.828L282.523 151.156L274.728 155.667L274.334 153.34Z" fill="#42E8E0"/>
<path d="M267.016 157.579L272.28 154.523L272.674 156.851L267.398 159.895L267.016 157.579Z" fill="#42E8E0"/>
<path d="M280.602 155.575L291.393 149.332L291.787 151.66L280.984 157.89L280.602 155.575Z" fill="#42E8E0"/>
<path d="M270.752 161.266L278.547 156.754L278.941 159.069L271.134 163.581L270.752 161.266Z" fill="#42E8E0"/>
<path d="M263.424 165.493L268.7 162.449L269.094 164.765L263.818 167.82L263.424 165.493Z" fill="#42E8E0"/>
<path d="M237.018 145.749L240.658 143.648L241.052 145.976L237.412 148.077L237.018 145.749Z" fill="#42E8E0"/>
<path d="M230.154 149.726L234.977 146.945L235.359 149.261L230.548 152.042L230.154 149.726Z" fill="#42E8E0"/>
<path d="M221.033 116.402L210.242 122.644L209.848 120.317L220.639 114.086L221.033 116.402Z" fill="#42E8E0"/>
<path d="M230.881 110.706L223.074 115.218L222.68 112.902L230.487 108.391L230.881 110.706Z" fill="#42E8E0"/>
<path d="M238.2 106.48L232.923 109.535L232.529 107.208L237.806 104.164L238.2 106.48Z" fill="#42E8E0"/>
<path d="M214.777 125.843L211.136 127.956L210.742 125.628L214.383 123.516L214.777 125.843Z" fill="#42E8E0"/>
<path d="M221.642 121.878L216.82 124.659L216.438 122.332L221.248 119.551L221.642 121.878Z" fill="#42E8E0"/>
<path d="M231.442 116.21L223.683 120.698L223.289 118.371L231.06 113.883L231.442 116.21Z" fill="#42E8E0"/>
<path d="M241.971 160.386L245.624 158.285L246.017 160.613L242.365 162.713L241.971 160.386Z" fill="#42E8E0"/>
<path d="M235.119 164.359L239.93 161.578L240.324 163.894L235.501 166.675L235.119 164.359Z" fill="#42E8E0"/>
<path d="M225.307 170.015L233.066 165.539L233.46 167.855L225.701 172.343L225.307 170.015Z" fill="#42E8E0"/>
<path d="M247.521 151.777L255.293 147.289L255.687 149.605L247.915 154.093L247.521 151.777Z" fill="#42E8E0"/>
<path d="M234.832 158.688L245.289 152.648L245.683 154.976L235.226 161.016L234.832 158.688Z" fill="#42E8E0"/>
<path d="M229.508 161.769L232.791 159.871L233.185 162.199L229.902 164.084L229.508 161.769Z" fill="#42E8E0"/>
<path d="M224.412 164.718L227.683 162.82L228.077 165.148L224.806 167.046L224.412 164.718Z" fill="#42E8E0"/>
<path d="M225.115 134.734L235.453 128.754L235.835 131.081L225.509 137.049L225.115 134.734Z" fill="#42E8E0"/>
<path d="M219.791 137.8L223.062 135.914L223.456 138.23L220.185 140.127L219.791 137.8Z" fill="#42E8E0"/>
<path d="M225.82 128.492L229.473 126.379L229.867 128.706L226.214 130.807L225.82 128.492Z" fill="#42E8E0"/>
<path d="M238.689 132.742L242.342 130.629L242.736 132.956L239.083 135.069L238.689 132.742Z" fill="#42E8E0"/>
<path d="M243.893 129.744L252.631 124.695L253.025 127.011L244.287 132.06L243.893 129.744Z" fill="#42E8E0"/>
<path d="M254.195 123.801L259.388 120.793L259.782 123.109L254.577 126.116L254.195 123.801Z" fill="#42E8E0"/>
<path d="M218.957 132.453L223.78 129.672L224.174 131.987L219.351 134.78L218.957 132.453Z" fill="#42E8E0"/>
<path d="M218.502 126.999L222.155 124.898L222.549 127.214L218.896 129.327L218.502 126.999Z" fill="#42E8E0"/>
<path d="M211.639 130.961L216.461 128.18L216.855 130.507L212.033 133.288L211.639 130.961Z" fill="#42E8E0"/>
<path d="M233.4 135.796L236.671 133.898L237.065 136.226L233.794 138.112L233.4 135.796Z" fill="#42E8E0"/>
<path d="M228.303 138.745L231.574 136.848L231.968 139.175L228.697 141.073L228.303 138.745Z" fill="#42E8E0"/>
<path d="M253.443 165.422L264.617 158.965L265.011 161.292L253.837 167.738L253.443 165.422Z" fill="#42E8E0"/>
<path d="M240.934 172.641L251.403 166.59L251.797 168.917L241.328 174.969L240.934 172.641Z" fill="#42E8E0"/>
<path d="M235.621 175.722L238.892 173.824L239.286 176.152L236.015 178.038L235.621 175.722Z" fill="#42E8E0"/>
<path d="M230.512 178.671L233.795 176.773L234.188 179.101L230.906 180.987L230.512 178.671Z" fill="#42E8E0"/>
<path d="M227.731 180.281L220.664 184.363L221.058 186.679L228.125 182.597L227.731 180.281Z" fill="#42E8E0"/>
<path opacity="0.7" d="M383.119 337.132L352.094 319.228L383.119 301.324L414.133 319.228L383.119 337.132Z" fill="#42E8E0"/>
<path d="M383.12 338.017C382.964 338.02 382.811 337.978 382.678 337.898L351.641 319.994C351.506 319.917 351.394 319.806 351.316 319.672C351.239 319.537 351.198 319.385 351.199 319.23C351.199 319.075 351.24 318.923 351.318 318.789C351.395 318.655 351.507 318.543 351.641 318.466L382.678 300.562C382.813 300.485 382.965 300.445 383.12 300.445C383.275 300.445 383.427 300.485 383.562 300.562L414.599 318.466C414.733 318.543 414.844 318.655 414.922 318.789C414.999 318.923 415.04 319.075 415.041 319.23C415.042 319.385 415.001 319.537 414.924 319.672C414.846 319.806 414.734 319.917 414.599 319.994L383.562 337.898C383.428 337.977 383.275 338.018 383.12 338.017ZM353.861 319.23L383.12 336.119L412.378 319.23L383.12 302.34L353.861 319.23Z" fill="#42E8E0"/>
<path opacity="0.7" d="M451.7 320.111L435.43 310.718L451.7 301.324L467.971 310.718L451.7 320.111Z" fill="#42E8E0"/>
<path opacity="0.5" d="M451.7 310.717L435.43 301.323L451.7 291.93L467.971 301.323L451.7 310.717Z" fill="#42E8E0"/>
<path opacity="0.3" d="M451.7 301.322L435.43 291.929L451.7 282.535L467.971 291.929L451.7 301.322Z" fill="#42E8E0"/>
<path d="M451.699 320.996C451.544 320.999 451.39 320.958 451.257 320.877L434.987 311.531C434.853 311.453 434.742 311.342 434.665 311.208C434.588 311.074 434.547 310.922 434.547 310.767C434.547 310.612 434.588 310.46 434.665 310.326C434.742 310.192 434.853 310.081 434.987 310.003L451.234 300.562C451.368 300.485 451.52 300.445 451.675 300.445C451.83 300.445 451.982 300.485 452.117 300.562L468.388 309.955C468.521 310.033 468.633 310.145 468.71 310.279C468.787 310.413 468.828 310.565 468.828 310.719C468.828 310.874 468.787 311.026 468.71 311.16C468.633 311.294 468.521 311.406 468.388 311.483L452.117 320.877C451.99 320.952 451.846 320.993 451.699 320.996ZM437.183 310.719L451.699 319.075L466.215 310.719L451.699 302.364L437.183 310.719Z" fill="#42E8E0"/>
<path opacity="0.7" d="M95.5226 262.76L79.252 253.366L95.5226 243.973L111.805 253.366L95.5226 262.76Z" fill="#42E8E0"/>
<path d="M95.4998 263.641C95.3446 263.64 95.1923 263.599 95.0581 263.521L78.7874 254.128C78.6524 254.051 78.5404 253.94 78.4627 253.806C78.3851 253.672 78.3447 253.519 78.3457 253.364C78.3471 253.209 78.3885 253.058 78.4659 252.924C78.5433 252.79 78.6541 252.678 78.7874 252.6L95.0581 243.206C95.1928 243.13 95.345 243.09 95.4998 243.09C95.6546 243.09 95.8068 243.13 95.9415 243.206L112.212 252.6C112.346 252.678 112.456 252.79 112.534 252.924C112.611 253.058 112.653 253.209 112.654 253.364C112.655 253.519 112.615 253.672 112.537 253.806C112.459 253.94 112.347 254.051 112.212 254.128L95.9415 263.521C95.8085 263.602 95.6553 263.644 95.4998 263.641ZM80.9839 253.364L95.4998 261.719L110.016 253.364L95.4998 245.009L80.9839 253.364Z" fill="#42E8E0"/>
<defs>
<linearGradient id="paint0_linear_2335_82996" x1="150.376" y1="126.713" x2="348.585" y2="126.713" gradientUnits="userSpaceOnUse">
<stop stop-color="#C0BFF6"/>
<stop offset="0.29" stop-color="#C5C4F7"/>
<stop offset="0.64" stop-color="#D3D2F9"/>
<stop offset="1" stop-color="#E9E9FD"/>
</linearGradient>
<linearGradient id="paint1_linear_2335_82996" x1="150.376" y1="177.535" x2="184.409" y2="177.535" gradientUnits="userSpaceOnUse">
<stop stop-color="#5761D7"/>
<stop offset="0.18" stop-color="#5C66D9"/>
<stop offset="0.39" stop-color="#6A73DF"/>
<stop offset="0.61" stop-color="#8289E8"/>
<stop offset="0.85" stop-color="#A3A7F5"/>
<stop offset="1" stop-color="#BCBEFF"/>
</linearGradient>
<linearGradient id="paint2_linear_2335_82996" x1="176.936" y1="234.672" x2="456.868" y2="234.672" gradientUnits="userSpaceOnUse">
<stop stop-color="#5761D7"/>
<stop offset="0.18" stop-color="#5C66D9"/>
<stop offset="0.39" stop-color="#6A73DF"/>
<stop offset="0.61" stop-color="#8289E8"/>
<stop offset="0.85" stop-color="#A3A7F5"/>
<stop offset="1" stop-color="#BCBEFF"/>
</linearGradient>
<linearGradient id="paint3_linear_2335_82996" x1="270.991" y1="225.34" x2="551.079" y2="225.34" gradientUnits="userSpaceOnUse">
<stop stop-color="#C0BFF6"/>
<stop offset="0.29" stop-color="#C5C4F7"/>
<stop offset="0.64" stop-color="#D3D2F9"/>
<stop offset="1" stop-color="#E9E9FD"/>
</linearGradient>
<linearGradient id="paint4_linear_2335_82996" x1="318.419" y1="241.237" x2="390.115" y2="241.237" gradientUnits="userSpaceOnUse">
<stop stop-color="#C0BFF6"/>
<stop offset="0.29" stop-color="#C5C4F7"/>
<stop offset="0.64" stop-color="#D3D2F9"/>
<stop offset="1" stop-color="#E9E9FD"/>
</linearGradient>
<linearGradient id="paint5_linear_2335_82996" x1="163.985" y1="163.259" x2="444.073" y2="163.259" gradientUnits="userSpaceOnUse">
<stop stop-color="#C0BFF6"/>
<stop offset="0.29" stop-color="#C5C4F7"/>
<stop offset="0.64" stop-color="#D3D2F9"/>
<stop offset="1" stop-color="#E9E9FD"/>
</linearGradient>
<linearGradient id="paint6_linear_2335_82996" x1="145.542" y1="142.705" x2="217.238" y2="142.705" gradientUnits="userSpaceOnUse">
<stop stop-color="#C0BFF6"/>
<stop offset="0.29" stop-color="#C5C4F7"/>
<stop offset="0.64" stop-color="#D3D2F9"/>
<stop offset="1" stop-color="#E9E9FD"/>
</linearGradient>
</defs>
</svg>
