<svg width="184" height="135" viewBox="0 0 184 135" fill="none" xmlns="http://www.w3.org/2000/svg">
<g id="&#208;&#161;&#208;&#187;&#208;&#190;&#208;&#185; 2">
<g id="illustration">
<path id="Vector" d="M80.9528 39.7111C102.849 45.6148 111.525 32.1873 141.5 44.6342C174.043 58.1469 170.524 102.158 153.56 119.71C135.648 138.246 93.7328 136.909 60.8831 131.349C12.2726 123.122 1.8169 91.4954 1.83988 68.3458C1.87216 36.3611 13.5333 26.9423 34.9479 23.8398C56.3624 20.7372 66.8738 35.9156 80.9528 39.7111Z" fill="#FFE1F4"/>
<g id="waman">
<path id="Vector_2" d="M89.4955 84.8498C89.4955 84.8498 89.3635 83.0112 89.8809 81.5591C90.3983 80.1071 92.307 78.4924 93.2597 77.9029C94.2123 77.3133 96.4096 75.9721 97.1979 75.3972C97.9863 74.8224 99.3052 73.4556 100.01 73.217C100.716 72.9783 101.455 73.1317 101.885 73.3983C102.315 73.6649 102.357 74.1206 102.028 75.0233C101.698 75.926 100.101 78.0832 100.101 78.0832L99.9219 78.8957C99.9219 78.8957 101.728 78.4885 102.586 78.0665C103.444 77.6446 103.835 77.5089 103.835 77.5089C103.835 77.5089 105.822 75.286 106.274 74.9278C106.726 74.5695 107.326 74.4906 107.568 74.5583C107.811 74.6259 108.166 74.844 108.04 75.5055C108.998 75.0968 109.11 74.6925 109.605 74.9915C110.1 75.2904 110.732 75.5442 110.219 76.4891C111.383 76.7027 111.661 76.2127 111.724 77.155C111.786 78.0974 111.643 78.7889 111.382 79.204C111.948 80.433 110.985 81.8654 109.901 82.8303C108.817 83.7953 106.575 84.4735 105.069 84.6999C103.563 84.9263 101.192 85.1502 100.632 85.5732C100.072 85.9961 99.334 87.5941 99.334 87.5941L89.4955 84.8498Z" fill="white"/>
<path id="Vector_3" d="M52.7061 43.1048C55.4447 42.3809 57.6303 41.9923 60.9029 42.5334C64.1756 43.0744 66.8619 45.6839 68.0023 47.2432C69.1427 48.8026 69.8435 50.8025 69.9585 52.6657C70.0734 54.5289 70.1154 55.8839 69.33 58.1131C68.5446 60.3423 68.1158 61.2406 68.2263 62.3697C68.3368 63.4988 69.3222 67.5642 69.7423 69.1118C70.1624 70.6594 70.5517 71.8316 70.1105 73.8565C69.6694 75.8814 68.8992 79.1618 65.3473 80.8804C61.7954 82.599 37.9846 91.2504 35.5765 91.1309C33.1685 91.0113 33.439 91.4087 32.3704 89.4157C31.3019 87.4226 30.6324 83.9844 31.5112 81.4768C32.39 78.9692 33.171 76.592 35.0963 73.8232C37.0217 71.0544 38.5015 67.4648 38.5807 65.6883C38.6599 63.9119 38.3636 58.7418 38.3998 56.8708C38.436 54.9998 39.1465 49.6705 40.7183 47.7157C42.2901 45.7608 46.5379 43.6713 47.9532 43.2488C49.3684 42.8264 51.5016 42.6524 52.7061 43.1048Z" fill="#FFBF31"/>
<path id="Vector_4" d="M68.9932 74.4955C69.4333 72.4706 69.046 71.2994 68.6249 69.7508C68.2039 68.2022 67.2175 64.1378 67.1089 63.0087C67.0003 61.8796 67.4273 60.9813 68.2127 58.7521C68.9981 56.5228 68.9575 55.1673 68.8411 53.3047C68.7247 51.442 68.0244 49.4416 66.8849 47.8822C65.7455 46.3229 63.0582 43.7134 59.7855 43.1723C56.5129 42.6313 54.3259 43.0199 51.5882 43.7437C50.3842 43.2914 48.2506 43.4629 46.8358 43.8849C46.1105 44.1015 44.6414 44.7562 43.168 45.6059C45.0004 44.3715 47.2128 43.3434 48.1562 43.0611C49.5715 42.6392 51.7051 42.4676 52.9091 42.9195C55.6478 42.1961 57.8333 41.8075 61.1064 42.3486C64.3796 42.8896 67.0649 45.4986 68.2058 47.0584C69.3467 48.6183 70.0466 50.6177 70.162 52.4804C70.2774 54.3431 70.3189 55.6991 69.5336 57.9278C68.7482 60.1566 68.3193 61.0558 68.4298 62.1844C68.5403 63.313 69.5257 67.379 69.9458 68.9265C70.3659 70.4741 70.7552 71.6463 70.3141 73.6717C69.8773 75.677 69.1164 78.9123 65.6516 80.6437C68.0058 78.8388 68.6186 76.2151 68.9932 74.4955Z" fill="white"/>
<path id="Vector_5" d="M33.4618 90.7892C33.4159 90.7892 33.3706 90.7791 33.3292 90.7594C33.2877 90.7398 33.2512 90.7111 33.2222 90.6755C31.0616 88.0101 30.4601 84.9688 31.3829 81.3772C32.1712 78.31 33.9445 75.328 35.5084 72.6969C36.8865 70.379 38.0769 68.3771 38.3258 66.8163C38.6935 64.513 38.5625 62.1559 38.4358 59.8757C38.2475 56.4894 38.0529 52.988 39.4471 49.4983C40.0027 48.1071 40.9275 46.8457 42.1955 45.7484C43.2763 44.8139 44.5747 44.0205 46.055 43.3908C48.8543 42.1995 51.4897 41.925 52.6463 42.2696C52.7221 42.295 52.785 42.3489 52.8218 42.42C52.8586 42.491 52.8665 42.5736 52.8437 42.6503C52.8209 42.727 52.7693 42.7919 52.6997 42.8312C52.6302 42.8705 52.5481 42.8812 52.4708 42.861C51.4311 42.5518 48.8372 42.8777 46.2961 43.9588C44.5087 44.7193 41.3167 46.4796 40.0188 49.7277C38.6759 53.0904 38.8662 56.5222 39.051 59.8414C39.1791 62.1544 39.3122 64.5459 38.9341 66.9138C38.6666 68.5888 37.4484 70.6382 36.0376 73.0105C32.9566 78.1914 29.124 84.639 33.7004 90.2834C33.7371 90.3287 33.7602 90.3834 33.7671 90.4413C33.774 90.4992 33.7645 90.5578 33.7395 90.6105C33.7145 90.6631 33.6752 90.7076 33.6261 90.7388C33.5769 90.77 33.52 90.7866 33.4618 90.7867V90.7892Z" fill="#2E2E2E"/>
<path id="Vector_6" d="M88.7909 84.6087L100.009 88.0003C100.009 88.0003 97.3897 97.9165 96.4723 100.203C95.5548 102.489 94.1699 107.394 92.7849 110.096C91.4 112.798 89.4042 115.523 86.9101 116.331C84.416 117.14 80.7056 116.271 79.5202 115.122C78.3348 113.974 71.5714 112.788 71.5714 112.788C71.5714 112.788 69.4034 122.094 69.4641 123.177C69.0024 123.438 36.1884 123.322 36.1884 123.322C36.1884 123.322 30.9498 123 29.5374 118.494C29.2064 116.896 29.6054 108.523 29.9834 106.586C30.3615 104.649 31.8349 95.923 32.4775 94.245C33.1201 92.5671 34.084 87.9881 35.403 85.8838C36.7219 83.7795 39.0747 80.9538 40.891 79.9541C42.7073 78.9544 44.9329 77.9861 44.9329 77.9861C44.9329 77.9861 47.1688 79.4244 48.2926 79.8571C49.4164 80.2898 51.6445 81.216 55.4575 81.4253C59.2705 81.6345 61.4047 80.7833 62.0498 80.5363C62.6948 80.2893 65.1747 78.9436 65.7425 78.2875C67.349 78.8368 70.1336 81.535 70.5101 81.9139C70.8867 82.2927 73.0483 84.5175 74.687 87.1795C76.3258 89.8414 79.0082 94.7787 79.0082 94.7787L80.7814 98.1111L81.4847 99.4788L88.7909 84.6087Z" fill="#B44BDB"/>
<path id="Vector_7" d="M71.1644 93.2322C72.2481 95.139 73.2365 98.3586 73.5852 99.9283C73.9338 101.498 73.9172 104.709 73.5167 106.231C73.1162 107.753 71.9469 110.964 71.9469 110.964L70.9414 110.723C70.9414 110.723 71.675 107.798 72.1425 106.005C72.7293 103.759 72.7782 100.815 72.233 98.5434C71.3023 94.669 71.1644 93.2322 71.1644 93.2322Z" fill="white"/>
<path id="Vector_8" d="M63.2477 50.974C63.2477 50.974 63.9812 53.361 64.2135 54.1593C64.4668 55.037 65.1789 57.6843 65.1789 57.6843C65.1789 57.6843 65.8528 60.8799 66.02 62.0256C66.1873 63.1714 65.863 64.7792 65.1109 66.7963C64.7431 67.7823 63.5147 69.1167 61.9292 69.7636C60.2948 70.4305 60.1364 70.7388 60.1364 70.7388C60.1364 70.7388 60.0875 75.085 60.4856 75.6437C60.8836 76.2024 61.3062 76.7037 61.85 76.7885C62.3938 76.8732 64.7519 77.8989 64.7519 77.8989C64.7519 77.8989 65.3212 78.3061 65.3627 78.4943C65.4043 78.6825 63.0119 80.6907 59.1876 81.0495C55.3634 81.4082 52.6898 81.3023 51.0412 80.8623C49.3927 80.4222 47.5275 79.8581 46.4756 79.1961C45.4236 78.534 45.2344 78.0053 45.2344 78.0053C45.2344 78.0053 48.6816 77.0011 49.1589 76.2371C49.6362 75.4732 49.847 74.3357 49.8925 73.6609C49.938 72.9861 50.1238 69.5788 50.0788 68.7197C50.0338 67.8607 50.1341 61.8026 50.1341 61.8026L50.405 59.2583C50.405 59.2583 53.4106 57.2981 53.8596 56.6439C54.3085 55.9896 56.7322 53.3943 57.1664 52.744C57.6007 52.0937 59.4454 49.0843 59.4283 48.4855L59.7099 48.5977C60.0138 49.1861 60.4826 49.6728 61.0587 49.9978C62.0192 50.5344 63.2477 50.974 63.2477 50.974Z" fill="white"/>
<path id="Vector_9" d="M71.5231 113.315C71.4993 113.315 71.4755 113.313 71.4522 113.308C71.3728 113.289 71.3041 113.239 71.2611 113.17C71.2181 113.1 71.2044 113.016 71.2229 112.937C71.4674 111.889 71.7921 110.774 72.1031 109.695C72.8773 107.031 73.6774 104.274 73.5008 101.971C73.2524 98.733 72.6499 96.5846 71.0209 93.1292C71.0025 93.0924 70.9916 93.0523 70.9889 93.0113C70.9862 92.9702 70.9918 92.9291 71.0052 92.8902C71.0186 92.8513 71.0396 92.8155 71.067 92.7849C71.0944 92.7542 71.1277 92.7294 71.1648 92.7118C71.2019 92.6943 71.2422 92.6843 71.2832 92.6825C71.3242 92.6808 71.3652 92.6872 71.4036 92.7016C71.4421 92.7159 71.4774 92.7378 71.5073 92.7659C71.5372 92.7941 71.5612 92.828 71.5779 92.8656C73.2436 96.3988 73.8602 98.5992 74.115 101.924C74.3004 104.339 73.4842 107.15 72.6968 109.868C72.3716 110.988 72.064 112.046 71.8229 113.077C71.807 113.145 71.7688 113.205 71.7144 113.249C71.66 113.292 71.5926 113.315 71.5231 113.315Z" fill="#2E2E2E"/>
<path id="Vector_10" d="M57.8489 70.5673C57.2057 70.5677 56.5634 70.5232 55.9264 70.434C55.8478 70.4201 55.7777 70.3762 55.7307 70.3115C55.6838 70.2467 55.6638 70.1663 55.6749 70.0871C55.686 70.0079 55.7273 69.936 55.7902 69.8868C55.8531 69.8375 55.9326 69.8146 56.012 69.8229C58.0269 70.1067 59.6798 69.846 60.2945 69.7205C65.47 68.6684 66.1214 64.5294 65.7566 61.2426C65.4886 58.8271 63.9555 53.1019 63.0229 51.0324C62.9921 50.9582 62.9913 50.875 63.0208 50.8003C63.0502 50.7256 63.1076 50.6653 63.1806 50.6323C63.2537 50.5993 63.3367 50.5961 63.4121 50.6234C63.4874 50.6507 63.5492 50.7063 63.5843 50.7785C64.5551 52.9318 66.0906 58.6639 66.3689 61.1745C66.6247 63.4777 66.32 65.4218 65.4622 66.9473C64.4709 68.7115 62.7725 69.8469 60.4168 70.3287C59.5706 70.4916 58.7105 70.5715 57.8489 70.5673Z" fill="#2E2E2E"/>
<path id="Vector_11" d="M62.4311 57.1221C62.5377 57.6445 62.8714 58.017 63.1782 57.9552C63.485 57.8935 63.6465 57.4162 63.5403 56.8962C63.4341 56.3763 63.0999 56.0009 62.7931 56.0631C62.4863 56.1254 62.3249 56.5998 62.4311 57.1221Z" fill="#2E2E2E"/>
<path id="Vector_12" d="M55.9853 58.7815C56.0919 59.3039 55.93 59.7783 55.6237 59.8405C55.3174 59.9027 54.9832 59.5303 54.8765 59.0074C54.7698 58.4845 54.9323 58.0111 55.2381 57.9484C55.5439 57.8857 55.8791 58.2591 55.9853 58.7815Z" fill="#2E2E2E"/>
<path id="Vector_13" d="M69.9299 123.658H69.9118C69.8713 123.655 69.8318 123.645 69.7953 123.627C69.7589 123.61 69.7262 123.585 69.6993 123.555C69.6723 123.525 69.6516 123.489 69.6383 123.451C69.625 123.413 69.6193 123.372 69.6216 123.332C69.7924 120.386 70.5464 117.402 70.5513 117.374C70.5715 117.294 70.6224 117.226 70.6927 117.184C70.7631 117.143 70.8471 117.131 70.9263 117.151C71.0056 117.171 71.0735 117.222 71.1152 117.293C71.1569 117.363 71.169 117.447 71.1487 117.526C71.1414 117.555 70.4015 120.483 70.2347 123.367C70.23 123.445 70.1959 123.519 70.1393 123.573C70.0828 123.626 70.0079 123.657 69.9299 123.658Z" fill="#2E2E2E"/>
<path id="Vector_14" d="M51.9715 57.1667C51.9107 57.1664 51.8513 57.1482 51.8008 57.1143C51.7503 57.0803 51.7109 57.0322 51.6876 56.9759C51.6643 56.9197 51.6581 56.8577 51.6698 56.7979C51.6815 56.7381 51.7106 56.6831 51.7534 56.6399C53.0816 55.3069 55.0921 54.6542 56.8756 54.9766C56.956 54.9912 57.0274 55.0371 57.0739 55.1044C57.1205 55.1717 57.1385 55.2547 57.124 55.3353C57.1095 55.4159 57.0636 55.4874 56.9965 55.5341C56.9293 55.5808 56.8465 55.5988 56.766 55.5843C55.2011 55.301 53.3609 55.9004 52.1896 57.076C52.161 57.1047 52.127 57.1275 52.0896 57.1431C52.0521 57.1587 52.012 57.1667 51.9715 57.1667Z" fill="#2E2E2E"/>
<path id="Vector_15" d="M61.0306 62.1638C60.9526 62.1635 60.8777 62.1336 60.8209 62.0801C60.7642 62.0267 60.7297 61.9536 60.7245 61.8757C60.7193 61.7978 60.7437 61.7208 60.7929 61.6603C60.842 61.5997 60.9123 61.56 60.9895 61.5493C61.0491 61.541 61.1166 61.5356 61.188 61.5297C61.4242 61.5106 61.8194 61.4807 61.947 61.3101C62.0008 61.2396 62.0135 61.1274 61.9847 60.9764C61.9387 60.7314 61.5514 60.4834 61.2095 60.2639C60.9821 60.1169 60.7469 59.9669 60.5694 59.7959L60.5396 59.7675C60.1483 59.394 59.3424 58.6173 59.3008 57.0687C59.2519 55.3173 59.6495 54.5205 60.9269 53.7854C62.1206 53.0993 64.2181 53.0337 65.3546 53.4017C65.3932 53.4142 65.4289 53.4341 65.4597 53.4604C65.4905 53.4868 65.5159 53.5189 65.5343 53.555C65.5528 53.5912 65.5639 53.6306 65.5672 53.671C65.5704 53.7115 65.5657 53.7522 65.5532 53.7908C65.5407 53.8294 65.5208 53.8652 65.4946 53.8961C65.4683 53.927 65.4362 53.9524 65.4002 53.9708C65.3641 53.9893 65.3248 54.0005 65.2844 54.0037C65.244 54.007 65.2034 54.0022 65.1649 53.9897C64.1741 53.6692 62.2404 53.7447 61.233 54.322C60.2681 54.8753 59.872 55.3771 59.917 57.0511C59.9512 58.3463 60.6115 58.9799 60.966 59.3205L60.9963 59.3499C61.1303 59.4788 61.3303 59.6072 61.5416 59.742C61.9881 60.0287 62.4943 60.354 62.5901 60.8593C62.6527 61.1896 62.6014 61.4665 62.437 61.6821C62.1436 62.0687 61.5988 62.1133 61.2384 62.1432C61.1724 62.1486 61.1152 62.153 61.0721 62.1589C61.0584 62.1615 61.0445 62.1631 61.0306 62.1638Z" fill="#2E2E2E"/>
<path id="Vector_16" d="M63.9375 111.539C63.9375 111.539 67.7173 109.65 70.4021 108.843C70.9376 108.682 74.7868 106.594 80.6074 107.113C81.0133 107.149 82.7846 107.75 82.8824 108.571C83.0863 110.274 75.6779 109.061 76.1469 110.094C78.0859 110.3 80.1819 110.587 80.9531 111.018C81.7243 111.448 82.2413 111.648 82.9856 112.096C83.6008 112.466 84.2835 113.563 83.8483 113.934C83.413 114.305 82.8345 114.529 81.9469 114.302C82.9249 115.774 80.6822 115.955 80.1863 115.736C80.5472 116.046 80.6387 116.413 80.3516 116.844C80.0205 117.342 79.0097 117.346 78.6087 117.261C77.5656 117.041 75.2607 116.541 74.2274 116.695C73.194 116.85 71.9846 117.888 71.0212 118.219C70.0578 118.55 69.4206 119.007 68.512 119.096C67.6033 119.185 64.7136 119.13 64.7322 119.047C64.7508 118.965 63.9375 111.539 63.9375 111.539Z" fill="white"/>
<path id="Vector_17" d="M64.0968 111.49C64.026 111.489 63.9574 111.465 63.9025 111.42C63.8476 111.375 63.8098 111.313 63.7955 111.243C63.7811 111.174 63.7911 111.102 63.8237 111.039C63.8563 110.976 63.9096 110.926 63.9746 110.898C64.248 110.779 70.7091 107.988 74.1114 107.162C76.9248 106.48 79.2429 106.153 81.4113 106.777C83.2017 107.293 83.296 107.909 83.2344 108.602C83.163 109.405 82.3097 109.549 81.3981 109.585C81.2122 109.593 80.978 109.597 80.7061 109.602C79.3495 109.626 77.0789 109.668 75.9575 110.186C75.9206 110.204 75.8804 110.214 75.8394 110.217C75.7983 110.219 75.7571 110.213 75.7183 110.2C75.6795 110.186 75.6439 110.165 75.6135 110.137C75.5831 110.109 75.5586 110.075 75.5413 110.038C75.5241 110 75.5146 109.96 75.5132 109.919C75.5119 109.877 75.5188 109.836 75.5336 109.798C75.5484 109.759 75.5707 109.724 75.5992 109.695C75.6278 109.665 75.662 109.641 75.6998 109.625C76.9385 109.053 79.2898 109.01 80.6948 108.984C80.9633 108.98 81.1946 108.976 81.3736 108.968C82.5874 108.919 82.6109 108.659 82.6207 108.547C82.6588 108.122 82.6882 107.787 81.2411 107.371C79.2028 106.783 76.9747 107.103 74.2566 107.763C70.9048 108.576 64.2851 111.438 64.2186 111.465C64.1802 111.481 64.1387 111.49 64.0968 111.49Z" fill="#2E2E2E"/>
<path id="Vector_18" d="M66.0161 119.408C65.418 119.408 64.9705 119.398 64.9216 119.398C64.8803 119.398 64.8392 119.39 64.801 119.375C64.7627 119.359 64.728 119.336 64.6988 119.306C64.6697 119.277 64.6468 119.242 64.6314 119.203C64.6161 119.165 64.6086 119.124 64.6094 119.082C64.6103 119.041 64.6195 119 64.6364 118.962C64.6533 118.925 64.6777 118.891 64.708 118.862C64.7383 118.834 64.774 118.812 64.8128 118.798C64.8517 118.784 64.893 118.778 64.9343 118.781C64.9666 118.781 68.1708 118.846 69.0677 118.63C70.5348 118.276 72.0508 117.379 73.0514 116.786C73.3531 116.608 73.6133 116.453 73.8221 116.345C74.4652 116.006 75.5338 116.178 76.885 116.397C77.6435 116.52 78.5037 116.659 79.3243 116.699C79.8354 116.725 79.9987 116.584 80.1337 116.425C80.3425 116.18 80.3293 116.022 80.3019 115.925C80.1063 115.239 78.2377 114.648 77.5349 114.426C77.4322 114.394 77.3393 114.365 77.2645 114.34C75.8179 113.862 74.8095 113.74 72.6572 114.278C72.5797 114.293 72.4995 114.278 72.433 114.235C72.3666 114.192 72.3191 114.126 72.3003 114.049C72.2815 113.972 72.2928 113.891 72.3319 113.822C72.371 113.753 72.435 113.702 72.5105 113.68C74.7963 113.107 75.9279 113.247 77.4596 113.753C77.5339 113.778 77.6224 113.806 77.7227 113.837C78.7311 114.155 80.608 114.748 80.8966 115.755C80.9675 116.003 80.9748 116.392 80.6031 116.825C80.3792 117.089 80.0486 117.353 79.2945 117.315C78.4396 117.273 77.5618 117.132 76.7872 117.006C75.6472 116.822 74.5704 116.647 74.1097 116.891C73.9141 116.994 73.6598 117.145 73.3654 117.319C72.331 117.931 70.7681 118.856 69.2124 119.23C68.5884 119.379 67.068 119.408 66.0161 119.408Z" fill="#2E2E2E"/>
<path id="Vector_19" d="M84.8888 116.864C84.6331 116.864 84.3776 116.85 84.1234 116.821L83.9478 116.802C83.159 116.718 82.0783 116.602 81.0337 115.988C80.9976 115.968 80.9659 115.941 80.9405 115.909C80.915 115.877 80.8963 115.839 80.8854 115.8C80.8745 115.76 80.8717 115.718 80.8771 115.677C80.8825 115.636 80.896 115.597 80.9168 115.561C80.9377 115.526 80.9654 115.495 80.9984 115.47C81.0315 115.446 81.0691 115.428 81.109 115.418C81.149 115.408 81.1906 115.407 81.2312 115.413C81.2718 115.42 81.3108 115.434 81.3457 115.456C82.2748 116.002 83.2392 116.105 84.0134 116.188L84.1909 116.207C87.5433 116.579 90.276 114.392 92.7911 109.324C95.0764 104.72 96.8746 98.3644 98.7789 91.6355C99.1125 90.4555 99.4572 89.2387 99.8059 88.0312C96.8883 87.1315 90.5142 85.2193 89.1449 84.8081C86.7315 90.3977 82.8363 98.2316 80.2023 103.298C80.1843 103.335 80.159 103.368 80.128 103.396C80.097 103.423 80.0609 103.443 80.0218 103.456C79.9827 103.469 79.9414 103.474 79.9004 103.471C79.8594 103.468 79.8194 103.456 79.7829 103.437C79.7464 103.418 79.7141 103.392 79.6878 103.36C79.6616 103.328 79.642 103.291 79.6302 103.252C79.6183 103.212 79.6145 103.171 79.619 103.13C79.6234 103.089 79.636 103.049 79.656 103.013C82.3242 97.8788 86.2904 89.9003 88.6876 84.3117L88.7962 84.0593L89.0588 84.1382C89.14 84.1622 97.1989 86.5762 100.279 87.5309L100.568 87.62L100.484 87.9111C100.109 89.2122 99.736 90.5295 99.3756 91.8036C97.4634 98.561 95.6589 104.944 93.3467 109.599C92.0972 112.117 90.8037 113.922 89.3899 115.119C88.0162 116.279 86.509 116.864 84.8888 116.864Z" fill="#2E2E2E"/>
<path id="Vector_20" d="M81.6614 99.4794C81.6079 99.4795 81.5553 99.4656 81.5088 99.4391C81.4623 99.4125 81.4235 99.3742 81.3964 99.328C80.5992 97.9798 79.8231 96.494 79.0001 94.9204C76.9798 91.0515 74.6902 86.6665 71.1705 82.5868C67.9967 78.9085 64.5064 77.7588 62.4211 77.0723C62.2133 77.0036 62.0172 76.9394 61.8343 76.8762C61.4113 76.7322 61.034 76.4784 60.7408 76.1406C60.4477 75.8027 60.2492 75.393 60.1657 74.9533C59.8894 73.4645 59.906 72.0389 59.9212 70.6599L59.9256 70.2556C59.9263 70.1743 59.9592 70.0965 60.0168 70.0392C60.0745 69.9819 60.1525 69.9498 60.2337 69.9498H60.2366C60.3183 69.9507 60.3963 69.9841 60.4535 70.0425C60.5107 70.1009 60.5424 70.1797 60.5418 70.2615C60.5418 70.3968 60.5401 70.532 60.5369 70.6673C60.5212 72.0164 60.5046 73.4116 60.7701 74.8401C60.8334 75.1723 60.9835 75.4818 61.2052 75.7369C61.4269 75.992 61.7121 76.1836 62.0319 76.2921C62.2113 76.3533 62.406 76.4175 62.6119 76.4852C64.7578 77.1918 68.3498 78.3748 71.6351 82.1825C75.2012 86.3166 77.5085 90.7354 79.5444 94.6338C80.362 96.1995 81.1342 97.6789 81.9231 99.0129C81.9509 99.0597 81.9659 99.1131 81.9664 99.1676C81.967 99.222 81.9531 99.2757 81.9262 99.3231C81.8993 99.3705 81.8603 99.4098 81.8133 99.4372C81.7663 99.4646 81.7129 99.479 81.6585 99.4789L81.6614 99.4794Z" fill="#2E2E2E"/>
<path id="Vector_21" d="M38.3638 123.135C38.0759 123.135 37.796 123.132 37.5241 123.126C34.5943 123.059 32.5574 122.636 31.4698 121.869C29.9655 120.808 29.2383 118.375 29.2462 114.432C29.252 111.32 29.7078 107.88 30.1988 104.627C31.1652 98.2297 32.7311 91.7816 34.2852 87.7985C35.6232 84.3681 37.4694 81.908 40.0955 80.0503C42.5348 78.3253 45.3771 77.3177 48.3143 76.3543C48.6619 76.2392 48.97 76.0279 49.2029 75.7449C49.4358 75.4619 49.5842 75.1186 49.6308 74.7547C50.0709 71.2641 49.8479 67.2707 49.6049 64.1814C49.6014 64.1408 49.6059 64.1 49.6183 64.0612C49.6306 64.0224 49.6505 63.9864 49.6767 63.9554C49.703 63.9243 49.7351 63.8988 49.7713 63.8802C49.8074 63.8616 49.8469 63.8504 49.8874 63.8472C49.9279 63.8439 49.9686 63.8488 50.0072 63.8614C50.0459 63.874 50.0816 63.8941 50.1125 63.9206C50.1433 63.9471 50.1686 63.9795 50.1869 64.0158C50.2052 64.0522 50.2161 64.0918 50.2191 64.1324C50.4636 67.2511 50.6891 71.2871 50.2421 74.8317C50.1802 75.3112 49.9843 75.7634 49.677 76.1362C49.3698 76.5091 48.9637 76.7873 48.5055 76.9389C42.2458 78.9908 37.6043 80.9863 34.8589 88.0215C33.3199 91.9649 31.7676 98.3616 30.8082 104.717C30.3191 107.947 29.8682 111.359 29.8619 114.431C29.855 118.106 30.5152 120.439 31.8244 121.362C33.6412 122.644 38.6832 122.87 46.0212 121.999L64.5915 119.656L63.7528 111.121L40.4481 111.914C40.3675 111.916 40.2897 111.885 40.2313 111.829C40.173 111.773 40.1387 111.697 40.136 111.616C40.1332 111.536 40.1622 111.457 40.2166 111.397C40.271 111.338 40.3466 111.302 40.4271 111.297L64.3093 110.483L65.2634 120.194L46.0931 122.612C43.2043 122.957 40.5537 123.135 38.3638 123.135Z" fill="#2E2E2E"/>
<path id="Vector_22" d="M43.2855 111.671C43.2691 111.671 43.2527 111.669 43.2365 111.667C43.1559 111.654 43.0836 111.61 43.0356 111.544C42.9875 111.477 42.9676 111.395 42.9803 111.314L44.3252 102.746C44.3386 102.666 44.3832 102.594 44.4493 102.546C44.5154 102.499 44.5976 102.479 44.6779 102.492C44.7583 102.505 44.8302 102.549 44.8781 102.615C44.926 102.681 44.9459 102.763 44.9335 102.844L43.5887 111.412C43.5769 111.484 43.5399 111.549 43.4844 111.597C43.4289 111.644 43.3584 111.67 43.2855 111.671Z" fill="#2E2E2E"/>
<path id="Vector_23" d="M81.3102 115.993C81.0227 115.993 80.6745 115.926 80.2617 115.748C80.2234 115.733 80.1884 115.71 80.159 115.681C80.1295 115.652 80.1061 115.618 80.0902 115.58C80.0742 115.542 80.0661 115.501 80.0662 115.46C80.0663 115.418 80.0746 115.377 80.0907 115.339C80.1069 115.301 80.1304 115.267 80.16 115.238C80.1896 115.21 80.2247 115.187 80.2631 115.172C80.3015 115.157 80.3425 115.15 80.3837 115.152C80.4249 115.153 80.4654 115.162 80.5028 115.18C80.9855 115.385 81.6305 115.534 81.9611 115.079C82.0858 114.907 82.101 114.853 82.0589 114.736C81.9758 114.503 81.6716 114.142 81.1298 113.634C80.562 113.101 79.2455 112.555 77.6938 112.206C76.0056 111.826 74.2705 111.725 72.9325 111.927C72.8533 111.936 72.7737 111.914 72.7104 111.865C72.6472 111.817 72.6052 111.746 72.5933 111.667C72.5814 111.588 72.6005 111.507 72.6466 111.442C72.6927 111.377 72.7622 111.332 72.8406 111.317C75.9548 110.846 80.2329 111.949 81.5503 113.182C82.7284 114.285 82.9329 114.792 82.4609 115.442C82.3157 115.641 81.9675 115.993 81.3102 115.993Z" fill="#2E2E2E"/>
<path id="Vector_24" d="M57.5108 68.6413C54.4298 68.6413 51.8218 67.5103 50.1698 65.456C50.1185 65.3922 50.0946 65.3107 50.1033 65.2292C50.112 65.1478 50.1527 65.0732 50.2163 65.0218C50.2799 64.9704 50.3613 64.9464 50.4426 64.9551C50.5238 64.9639 50.5983 65.0046 50.6496 65.0683C52.1822 66.9732 54.6186 68.0224 57.5108 68.0224C57.5925 68.0224 57.6709 68.0549 57.7287 68.1128C57.7864 68.1707 57.8189 68.2492 57.8189 68.3311C57.8189 68.413 57.7864 68.4915 57.7287 68.5494C57.6709 68.6073 57.5925 68.6398 57.5108 68.6398V68.6413Z" fill="#2E2E2E"/>
<path id="Vector_25" d="M59.046 69.0135C59.9021 68.9915 60.5858 68.567 60.5729 68.0653C60.5601 67.5637 59.8556 67.1749 58.9995 67.197C58.1433 67.219 57.4596 67.6435 57.4725 68.1451C57.4853 68.6467 58.1898 69.0355 59.046 69.0135Z" fill="#2E2E2E"/>
<path id="Vector_26" d="M48.5393 58.2414C47.8845 54.3338 47.1725 48.6854 51.7763 44.3083C53.1031 43.0469 54.6714 42.5181 57.2017 42.0217C56.6019 41.931 55.9951 41.8953 55.3888 41.9148C54.6421 41.9467 53.6361 41.8315 52.9955 41.9638C51.501 42.2687 50.2857 42.8508 49.3052 43.7545C45.478 47.2829 45.4956 52.6837 47.0023 58.4561L48.5393 58.2414Z" fill="#2E2E2E"/>
<path id="Vector_27" d="M50.418 65.9189C51.9733 65.2023 52.4558 62.9251 51.4957 60.8324C50.5357 58.7397 48.4965 57.6242 46.9412 58.3407C45.3858 59.0572 44.9033 61.3345 45.8634 63.4272C46.8235 65.5198 48.8626 66.6354 50.418 65.9189Z" fill="#2E2E2E"/>
<path id="Vector_28" d="M99.7658 79.1285C99.179 79.1285 98.5432 79.0192 97.8063 78.7561C97.7293 78.7286 97.6664 78.6716 97.6313 78.5976C97.5963 78.5236 97.592 78.4387 97.6194 78.3616C97.6469 78.2844 97.7038 78.2214 97.7776 78.1863C97.8514 78.1512 97.9361 78.1469 98.0131 78.1744C99.9262 78.8575 101.045 78.391 102.738 77.6843C103.069 77.5466 103.41 77.4045 103.784 77.2589C104.524 76.7513 104.986 76.1529 105.395 75.6241C105.821 75.0723 106.227 74.5514 106.847 74.2441C107.287 74.0275 107.94 73.9727 108.412 74.3373C108.621 74.498 108.749 74.8317 108.729 75.1679C108.729 75.2095 108.72 75.2505 108.703 75.2884C108.686 75.3264 108.662 75.3606 108.631 75.3889C108.601 75.4172 108.565 75.4391 108.526 75.4532C108.487 75.4673 108.445 75.4733 108.404 75.471C108.363 75.4687 108.322 75.4579 108.285 75.4395C108.248 75.4211 108.215 75.3953 108.188 75.3638C108.161 75.3322 108.14 75.2955 108.128 75.2559C108.115 75.2162 108.111 75.1745 108.115 75.1331C108.126 75.024 108.098 74.9145 108.035 74.8249C107.786 74.6337 107.384 74.6661 107.117 74.7979C106.622 75.0429 106.278 75.4869 105.88 76.002C105.44 76.5739 104.937 77.2227 104.098 77.7897L104.069 77.8093L104.037 77.822C103.657 77.969 103.309 78.116 102.973 78.2542C101.823 78.7355 100.879 79.1285 99.7658 79.1285Z" fill="#2E2E2E"/>
<path id="Vector_29" d="M89.4646 84.7121C89.4527 84.7128 89.4408 84.7128 89.4289 84.7121C89.3886 84.7075 89.3496 84.6949 89.3142 84.6751C89.2788 84.6554 89.2476 84.6288 89.2225 84.5969C89.1974 84.565 89.1788 84.5285 89.1678 84.4894C89.1568 84.4503 89.1536 84.4094 89.1584 84.369C89.3614 82.6151 89.5957 81.3925 90.1913 80.3315C90.7738 79.2941 91.6662 78.4639 93.2723 77.4662C93.6146 77.2545 93.9315 77.0579 94.2303 76.8732C96.5234 75.4555 97.6746 74.7444 99.5041 73.1517C100.346 72.4167 101.282 72.2785 102.009 72.7759C102.602 73.1821 102.869 73.9339 102.645 74.5636C101.916 76.6022 100.316 78.3581 99.7907 78.9348C99.7639 78.9664 99.731 78.9922 99.694 79.0108C99.657 79.0293 99.6167 79.0402 99.5754 79.0428C99.5341 79.0454 99.4928 79.0397 99.4537 79.0259C99.4147 79.0122 99.3789 78.9907 99.3484 78.9627C99.3178 78.9348 99.2932 78.901 99.276 78.8633C99.2587 78.8256 99.2493 78.7848 99.2481 78.7434C99.2469 78.702 99.2541 78.6608 99.2692 78.6222C99.2843 78.5836 99.3069 78.5484 99.3359 78.5188C99.841 77.9645 101.378 76.2778 102.065 74.3533C102.197 73.9838 102.028 73.534 101.662 73.2836C101.173 72.9493 100.535 73.0704 99.909 73.6158C98.0414 75.2413 96.877 75.9617 94.5545 77.3966C94.2562 77.5808 93.9383 77.7773 93.5975 77.989C90.6926 79.7934 90.1708 80.9852 89.7707 84.4381C89.7622 84.5135 89.7263 84.5831 89.6698 84.6336C89.6133 84.6842 89.5403 84.7121 89.4646 84.7121Z" fill="#2E2E2E"/>
<path id="Vector_30" d="M99.6708 87.7994C99.6193 87.7994 99.5687 87.7864 99.5235 87.7617C99.4783 87.7371 99.44 87.7014 99.4121 87.6581C99.3842 87.6148 99.3676 87.5652 99.3637 87.5137C99.3599 87.4623 99.3689 87.4107 99.3901 87.3637C99.4698 87.1873 99.5368 87.0065 99.6092 86.8154C99.8258 86.2381 100.049 85.6392 100.603 85.1639C100.894 84.9135 101.819 84.7674 104.02 84.4705C105.4 84.2842 106.963 84.073 107.593 83.8447C109.971 82.6788 111.223 80.9583 111.387 80.4957C111.704 79.6018 111.43 79.3382 111.34 79.2514C111.111 79.0304 110.64 79.101 109.94 79.4616C109.465 79.7067 108.931 80.182 108.415 80.6427C107.672 81.3052 106.971 81.931 106.283 82.078C105.891 82.1618 105.26 82.1545 104.463 82.1452C102.855 82.1261 100.653 82.1006 99.3197 82.8655C99.2845 82.887 99.2455 82.9011 99.2048 82.9071C99.1641 82.9132 99.1226 82.911 99.0828 82.9007C99.0429 82.8904 99.0055 82.8722 98.9728 82.8472C98.9401 82.8222 98.9127 82.7909 98.8923 82.7552C98.8719 82.7194 98.8588 82.6799 98.8538 82.639C98.8489 82.598 98.8521 82.5566 98.8634 82.5169C98.8747 82.4773 98.8938 82.4403 98.9196 82.4082C98.9454 82.3761 98.9773 82.3495 99.0135 82.3299C100.492 81.4811 102.791 81.5081 104.47 81.5282C105.198 81.5365 105.827 81.5439 106.154 81.4743C106.683 81.3611 107.356 80.7618 108.006 80.182C108.55 79.6954 109.114 79.1926 109.658 78.9123C110.016 78.728 111.105 78.1679 111.767 78.8064C112.205 79.2284 112.27 79.8483 111.967 80.7025C111.74 81.3434 110.387 83.1664 107.849 84.4063L107.821 84.4185C107.136 84.6729 105.594 84.8811 104.104 85.082C102.899 85.2447 101.25 85.4672 101.004 85.6343C100.571 86.0087 100.385 86.5061 100.187 87.0325C100.115 87.2246 100.041 87.4245 99.9535 87.6176C99.9289 87.672 99.8891 87.7181 99.8389 87.7503C99.7888 87.7826 99.7304 87.7996 99.6708 87.7994Z" fill="#2E2E2E"/>
<path id="Vector_31" d="M104.105 80.5672C104.031 80.5672 103.96 80.5408 103.904 80.4928C103.848 80.4447 103.812 80.3782 103.8 80.3053C103.789 80.2324 103.805 80.1579 103.843 80.0953C103.882 80.0327 103.942 79.9861 104.013 79.964L104.37 79.8517C105.255 79.5744 106.171 79.2877 106.552 79.0324C106.973 78.7511 107.614 78.1532 108.233 77.5754C108.882 76.9707 109.442 76.4483 109.791 76.2401C110.439 75.8529 111.401 75.7794 111.985 76.5341C112.595 77.3236 112.297 78.3291 111.763 78.929C111.737 78.9608 111.704 78.9869 111.668 79.0059C111.631 79.0248 111.591 79.0361 111.549 79.0392C111.508 79.0423 111.467 79.037 111.428 79.0237C111.389 79.0104 111.353 78.9893 111.322 78.9618C111.291 78.9342 111.266 78.9007 111.248 78.8633C111.231 78.8258 111.221 78.7852 111.219 78.7439C111.217 78.7025 111.224 78.6612 111.238 78.6224C111.253 78.5837 111.275 78.5483 111.304 78.5183C111.612 78.1714 111.919 77.4573 111.499 76.9124C111.093 76.3866 110.434 76.5757 110.108 76.7703C109.815 76.9452 109.226 77.4951 108.655 78.0273C108.019 78.6217 107.358 79.2367 106.894 79.5464C106.431 79.8562 105.525 80.1374 104.554 80.4413L104.198 80.553C104.168 80.5625 104.137 80.5673 104.105 80.5672Z" fill="#2E2E2E"/>
<path id="Vector_32" d="M103.418 79.1118C103.343 79.112 103.271 79.0849 103.215 79.0356C103.159 78.9864 103.122 78.9183 103.112 78.8441C103.102 78.7699 103.119 78.6947 103.161 78.6323C103.202 78.5699 103.265 78.5248 103.337 78.5052C103.904 78.3498 105.477 77.8034 105.945 77.1536C106.288 76.6763 106.915 76.0191 107.539 75.4796C108.333 74.7935 108.941 74.4451 109.348 74.4441H109.352C109.851 74.4441 110.303 74.6504 110.594 75.0106C110.729 75.1791 110.825 75.376 110.873 75.5866C110.922 75.7971 110.923 76.016 110.875 76.2269C110.868 76.2673 110.852 76.3058 110.829 76.3401C110.806 76.3744 110.777 76.4037 110.743 76.4264C110.708 76.4491 110.67 76.4647 110.629 76.4723C110.589 76.4799 110.548 76.4793 110.507 76.4706C110.467 76.4618 110.429 76.4452 110.396 76.4215C110.362 76.3978 110.333 76.3676 110.312 76.3327C110.29 76.2978 110.275 76.2589 110.269 76.2183C110.262 76.1776 110.264 76.1361 110.273 76.0961C110.302 75.9754 110.302 75.8498 110.275 75.729C110.247 75.6081 110.193 75.4952 110.115 75.3987C109.942 75.1841 109.664 75.0616 109.352 75.0616H109.35C108.833 75.0616 107.126 76.5694 106.446 77.5148C105.765 78.4601 103.73 79.0378 103.5 79.1006C103.473 79.1082 103.446 79.112 103.418 79.1118Z" fill="#2E2E2E"/>
<path id="Vector_33" d="M59.8767 66.9178C58.7939 66.8458 58.1396 66.3817 57.7645 65.6295C57.4779 65.0546 57.4408 64.7327 57.6858 64.5514C57.9949 64.3196 58.8394 64.5082 60.1114 64.641C61.0406 64.739 62.3683 64.543 62.5253 65.21C62.6608 65.7824 61.5957 67.032 59.8767 66.9178Z" fill="#2E2E2E"/>
<path id="Vector_34" d="M58.3047 65.999C58.8759 65.2639 60.7205 65.0189 61.1196 66.4954C60.0178 66.8595 58.6343 66.4092 58.3047 65.999Z" fill="white"/>
<path id="Vector_35" d="M60.0908 67.129C60.0096 67.129 59.9269 67.1261 59.8414 67.1207C58.7166 67.0457 57.9194 66.5552 57.4744 65.6623C57.3028 65.3193 56.9458 64.6018 57.4866 64.197C57.8226 63.9456 58.3811 64.0152 59.3064 64.1304C59.5509 64.1613 59.8311 64.1961 60.1284 64.2284C60.3509 64.2514 60.6096 64.2573 60.862 64.2632C61.6934 64.2818 62.6411 64.3029 62.8133 65.0336C62.8871 65.3477 62.7507 65.7397 62.4391 66.1082C62.2264 66.3557 61.4611 67.129 60.0908 67.129ZM59.8824 66.5047C60.8674 66.5704 61.6048 66.1362 61.9667 65.7079C62.179 65.4565 62.2293 65.2506 62.2113 65.1737C62.1487 64.9076 61.3955 64.8909 60.8459 64.8797C60.5837 64.8738 60.3123 64.8679 60.0634 64.8419C59.7597 64.8101 59.4765 64.7753 59.2291 64.7439C58.6486 64.6719 57.9908 64.5901 57.8539 64.6949C57.7419 64.7787 57.9126 65.1664 58.0241 65.3898C58.3757 66.0881 58.9655 66.4434 59.8824 66.5027V66.5047Z" fill="#2E2E2E"/>
<path id="Vector_36" d="M61.232 66.9207C61.1561 66.9207 61.0828 66.8925 61.0264 66.8415C60.97 66.7906 60.9343 66.7205 60.9264 66.6448C60.8496 65.9205 60.3513 65.702 60.0608 65.6363C59.4822 65.5055 58.8264 65.7343 58.5672 66.1602C58.5467 66.1959 58.5192 66.2272 58.4864 66.2521C58.4536 66.277 58.4162 66.2951 58.3763 66.3053C58.3364 66.3154 58.2949 66.3175 58.2542 66.3113C58.2135 66.3051 58.1744 66.2909 58.1393 66.2693C58.1042 66.2478 58.0738 66.2194 58.0498 66.1859C58.0259 66.1523 58.0088 66.1143 57.9998 66.0741C57.9907 66.0339 57.9898 65.9922 57.997 65.9516C58.0043 65.911 58.0196 65.8723 58.042 65.8377C58.4367 65.1913 59.3624 64.8459 60.1938 65.034C60.9503 65.2056 61.4526 65.7828 61.5367 66.5797C61.5452 66.6611 61.5211 66.7425 61.4698 66.8062C61.4185 66.8698 61.344 66.9105 61.2628 66.9193C61.254 66.9202 61.2433 66.9207 61.232 66.9207Z" fill="#2E2E2E"/>
<path id="Vector_37" d="M48.3867 60.554C48.3132 60.5541 48.242 60.5279 48.1861 60.48C48.1302 60.4322 48.0932 60.3659 48.0818 60.2931C48.0705 60.2204 48.0854 60.1459 48.124 60.0832C48.1626 60.0205 48.2223 59.9737 48.2923 59.9512C50.1995 59.3367 52.5156 57.6803 54.6537 55.406C56.7918 53.1317 58.4971 50.5021 59.3177 48.2076C59.3419 48.1396 59.3838 48.0792 59.439 48.0328C59.4943 47.9864 59.561 47.9557 59.6321 47.9438C59.7033 47.9319 59.7763 47.9392 59.8436 47.9651C59.9109 47.991 59.9701 48.0345 60.015 48.091C61.2083 49.5768 63.4021 51.049 65.2854 50.9872C65.3264 50.9849 65.3674 50.9909 65.4061 51.0047C65.4448 51.0185 65.4803 51.04 65.5106 51.0678C65.5409 51.0955 65.5653 51.1291 65.5824 51.1665C65.5996 51.2039 65.6091 51.2443 65.6105 51.2854C65.6118 51.3265 65.6049 51.3675 65.5902 51.4059C65.5755 51.4443 65.5533 51.4794 65.5249 51.5091C65.4965 51.5388 65.4625 51.5625 65.4248 51.5789C65.3871 51.5952 65.3465 51.6038 65.3055 51.6042C63.3425 51.6674 61.0997 50.2624 59.7705 48.757C57.8633 53.6693 52.5753 59.2181 48.4811 60.5388C48.4506 60.5489 48.4187 60.554 48.3867 60.554Z" fill="#2E2E2E"/>
<path id="Vector_38" d="M67.8358 79.3955C67.7758 79.3955 67.7172 79.3779 67.6671 79.345C67.617 79.3121 67.5775 79.2653 67.5536 79.2103C67.5296 79.1553 67.5221 79.0944 67.5321 79.0353C67.5421 78.9761 67.5691 78.9211 67.6098 78.877C71.3412 74.8375 70.0193 70.082 68.9571 66.2606C68.472 64.5146 68.0529 63.0067 68.1483 61.7761C68.2461 60.5172 68.6427 59.4651 69.0256 58.4472C69.789 56.4184 70.5783 54.3205 69.3425 50.1742C67.4475 43.8157 60.663 41.3336 55.199 42.6073C55.1202 42.6237 55.0381 42.6086 54.9703 42.5651C54.9025 42.5217 54.8543 42.4534 54.8361 42.3748C54.8179 42.2963 54.8311 42.2137 54.8729 42.1448C54.9146 42.0758 54.9817 42.026 55.0596 42.006C57.8784 41.3488 61.0337 41.6781 63.7156 42.9096C65.1827 43.582 66.4469 44.4954 67.4812 45.6235C68.6119 46.8599 69.4374 48.3315 69.9337 49.9972C71.2287 54.343 70.3651 56.6389 69.6032 58.6648C69.2183 59.687 68.8549 60.6529 68.7635 61.8242C68.6764 62.9459 69.0818 64.4053 69.5518 66.095C70.0941 68.0473 70.7094 70.2604 70.701 72.5249C70.6913 75.1712 69.8281 77.3853 68.0602 79.2965C68.0316 79.3276 67.9969 79.3524 67.9583 79.3694C67.9197 79.3864 67.878 79.3953 67.8358 79.3955Z" fill="#2E2E2E"/>
<path id="Vector_39" d="M83.1987 114.436C82.6838 114.436 82.1375 114.26 81.8162 114.157C81.7551 114.138 81.7028 114.121 81.6695 114.112C81.6293 114.103 81.5914 114.085 81.558 114.061C81.5247 114.036 81.4967 114.005 81.4756 113.97C81.4544 113.934 81.4407 113.895 81.4351 113.853C81.4295 113.812 81.4323 113.771 81.4431 113.731C81.454 113.691 81.4728 113.653 81.4983 113.621C81.5239 113.588 81.5558 113.561 81.592 113.541C81.6282 113.521 81.6681 113.509 81.7092 113.505C81.7503 113.501 81.7919 113.505 81.8314 113.517C81.8754 113.529 81.9316 113.547 82.002 113.569C82.3444 113.679 83.253 113.971 83.6325 113.722C83.6961 113.681 83.7841 113.6 83.8071 113.379C83.9108 112.389 82.6021 111.801 81.2528 111.282C80.8768 111.138 77.4721 109.883 73.8194 110.317C73.7788 110.323 73.7375 110.32 73.6979 110.309C73.6582 110.299 73.6211 110.281 73.5886 110.256C73.5562 110.23 73.529 110.199 73.5088 110.163C73.4886 110.128 73.4757 110.088 73.4709 110.047C73.4661 110.007 73.4694 109.965 73.4808 109.926C73.4921 109.886 73.5112 109.849 73.5369 109.817C73.5626 109.785 73.5945 109.759 73.6306 109.739C73.6666 109.72 73.7063 109.708 73.7471 109.704C77.5454 109.252 81.0827 110.556 81.4739 110.706C82.7116 111.181 84.5822 111.9 84.4203 113.444C84.3714 113.885 84.1494 114.121 83.9695 114.238C83.7504 114.383 83.478 114.436 83.1987 114.436Z" fill="#2E2E2E"/>
</g>
<g id="laptop">
<path id="Vector_40" d="M159.202 110.247H168.06C169.079 110.247 169.98 109.621 170.288 108.7L183.633 68.8369C184.112 67.4059 182.987 65.9456 181.405 65.9456H121.761C120.743 65.9456 119.841 66.5714 119.533 67.4922L106.189 107.356C105.711 108.786 106.836 110.247 108.418 110.247H159.202Z" fill="#C1C7D6"/>
<path id="Vector_41" d="M181.87 65.9465H122.227C121.208 65.9465 120.307 66.5723 119.999 67.4931L119.664 68.4924H177.523C179.105 68.4924 180.23 69.9522 179.751 71.3837L166.743 110.248H168.527C169.545 110.248 170.021 109.494 170.33 108.572L183.631 68.8378C184.109 67.4059 183.451 65.9465 181.87 65.9465Z" fill="white"/>
<path id="Vector_42" d="M168.058 110.505H159.199C159.133 110.502 159.071 110.473 159.025 110.425C158.979 110.377 158.953 110.313 158.953 110.247C158.953 110.181 158.979 110.117 159.025 110.069C159.071 110.021 159.133 109.992 159.199 109.99H168.058C168.97 109.99 169.769 109.439 170.042 108.617L183.386 68.757C183.481 68.4753 183.507 68.1748 183.461 67.881C183.416 67.5871 183.301 67.3085 183.125 67.0688C182.926 66.7985 182.666 66.5794 182.367 66.4294C182.067 66.2794 181.736 66.2027 181.401 66.2058H121.758C120.846 66.2058 120.047 66.7571 119.774 67.5779L106.431 107.439C106.336 107.72 106.31 108.021 106.355 108.315C106.4 108.608 106.516 108.887 106.691 109.127C106.89 109.397 107.15 109.616 107.449 109.766C107.749 109.916 108.08 109.993 108.415 109.99H140.582C140.648 109.992 140.71 110.021 140.756 110.069C140.802 110.117 140.828 110.181 140.828 110.247C140.828 110.313 140.802 110.377 140.756 110.425C140.71 110.473 140.648 110.502 140.582 110.505H108.416C107.999 110.507 107.588 110.411 107.216 110.224C106.844 110.036 106.521 109.763 106.275 109.426C106.052 109.121 105.905 108.765 105.848 108.391C105.79 108.016 105.824 107.634 105.945 107.275L119.288 67.4108C119.631 66.3817 120.626 65.6888 121.759 65.6888H181.403C181.819 65.6861 182.23 65.7824 182.603 65.9698C182.975 66.1572 183.297 66.4304 183.544 66.7669C183.767 67.0728 183.914 67.428 183.971 67.8027C184.028 68.1773 183.995 68.5602 183.874 68.9192L170.53 108.783C170.185 109.812 169.191 110.505 168.058 110.505Z" fill="#2E2E2E"/>
<path id="Vector_43" d="M119.863 123.341V121.272C119.863 120.586 120.45 120.031 121.17 120.03C124.079 120.03 131.188 120.017 135.71 119.926C140.511 119.831 141.774 116.025 140.579 110.032C139.658 105.409 137.107 91.5014 137.107 91.5014C137.024 91.054 137.387 90.6428 137.866 90.6428H154.765C155.138 90.6428 155.458 90.8967 155.523 91.2456L160.075 115.533C160.843 119.633 157.521 123.396 153.133 123.396H143.052L119.863 123.341Z" fill="white"/>
<path id="Vector_44" d="M153.136 123.653H143.055C142.987 123.653 142.922 123.626 142.874 123.578C142.825 123.53 142.798 123.464 142.798 123.396C142.798 123.328 142.825 123.262 142.874 123.214C142.922 123.166 142.987 123.139 143.055 123.139H153.136C155.239 123.139 157.186 122.24 158.483 120.673C159.673 119.236 160.162 117.38 159.825 115.581L155.273 91.2931C155.23 91.0652 155.018 90.9011 154.767 90.9011H137.868C137.79 90.9002 137.714 90.9164 137.643 90.9486C137.573 90.9808 137.51 91.0281 137.46 91.0873C137.417 91.1373 137.386 91.1963 137.37 91.2599C137.353 91.3235 137.35 91.3901 137.362 91.4548C137.388 91.595 139.925 105.414 140.834 109.983C141.611 113.876 141.323 116.701 139.977 118.378C139.047 119.539 137.613 120.147 135.718 120.185C131.185 120.275 124.036 120.288 121.174 120.289C120.595 120.289 120.124 120.73 120.124 121.273V123.342C120.125 123.377 120.12 123.412 120.107 123.444C120.095 123.477 120.076 123.506 120.052 123.532C120.028 123.557 120 123.577 119.968 123.59C119.936 123.604 119.901 123.611 119.867 123.611C119.832 123.611 119.798 123.604 119.766 123.59C119.734 123.577 119.705 123.557 119.681 123.532C119.657 123.506 119.638 123.477 119.626 123.444C119.614 123.412 119.608 123.377 119.61 123.342V121.273C119.61 120.447 120.311 119.774 121.175 119.774C124.036 119.774 131.18 119.761 135.709 119.671C137.445 119.636 138.746 119.093 139.578 118.053C140.823 116.5 141.076 113.818 140.332 110.081C139.421 105.509 136.883 91.6856 136.86 91.5465C136.834 91.4076 136.84 91.2648 136.876 91.1283C136.911 90.9917 136.977 90.8648 137.067 90.7565C137.166 90.639 137.288 90.5447 137.427 90.4803C137.566 90.4159 137.717 90.3831 137.87 90.3841H154.77C155.267 90.3841 155.692 90.7271 155.78 91.1966L160.332 115.484C160.698 117.434 160.169 119.445 158.881 121C157.483 122.687 155.39 123.653 153.136 123.653Z" fill="#2E2E2E"/>
</g>
<g id="leaf">
<path id="Vector_45" d="M12.4035 107.245C7.20499 105.876 1.88913 93.6776 0.335938 88.6889C6.01222 87.9763 14.0858 98.2606 12.4035 107.245Z" fill="white"/>
<path id="Vector_46" d="M12.491 107.87L12.2299 107.801C10.9682 107.471 9.63163 106.491 8.25743 104.897C7.10085 103.555 5.91004 101.773 4.72363 99.6043C2.56844 95.6658 0.88125 91.3053 0.0914516 88.7678L0 88.4738L0.304672 88.4356C2.63641 88.1415 5.49387 89.5627 7.94787 92.2286C9.75689 94.2102 11.1279 96.5523 11.9712 99.1016C12.9146 101.948 13.1136 104.889 12.5463 107.607L12.491 107.87ZM0.677809 88.9163C2.4584 94.4725 7.36151 105.622 12.0983 107.224C13.2231 101.283 10.5143 95.7761 7.57033 92.5755C5.33884 90.1493 2.78899 88.8036 0.677809 88.9163Z" fill="#2E2E2E"/>
<path id="Vector_47" d="M13.2422 115.446L4.07812 90.4536L4.94079 91.373C8.00755 94.6431 9.91236 97.6687 11.1164 101.184C12.1776 104.281 12.7605 107.901 13.1293 113.678L13.2422 115.446ZM5.44695 92.6932L12.4891 111.903C11.8338 103.392 10.486 98.4184 5.44695 92.6932Z" fill="#2E2E2E"/>
<path id="Vector_48" d="M14.6955 107.245C13.4729 105.53 9.7464 98.7942 11.7319 90.1914C12.9286 85.0086 15.7645 81.8036 18.8807 81.2523C19.2475 85.2933 19.493 87.7004 19.2318 93.0993C19.0181 97.523 17.3226 103.671 14.6955 107.245Z" fill="#FFBF31"/>
<path id="Vector_49" d="M12.7634 90.5594C13.8212 85.9769 15.8854 83.3502 18.803 81.7277C18.783 81.5091 18.803 81.4826 18.783 81.2533C15.6668 81.8046 12.8309 85.0095 11.6342 90.1923C9.6487 98.7942 13.3757 105.531 14.5978 107.246C14.7572 107.029 14.7244 107.028 14.8775 106.793C13.3595 104.142 11.0635 97.9224 12.7634 90.5594Z" fill="white"/>
<path id="Vector_50" d="M14.8078 113.699C14.4831 110.775 14.2156 105.523 14.4361 99.5499C14.6 95.1194 15.0939 88.9619 16.518 84.7866L17.1288 82.9965L15.3193 113.685L14.8078 113.699ZM16.3664 87.2021C14.8318 93.6889 14.6968 103.496 15.0288 109.883L16.3664 87.2021Z" fill="#2E2E2E"/>
<path id="Vector_51" d="M14.6906 107.683L14.4852 107.395C14.201 106.997 12.7364 104.836 11.7622 101.371C10.7142 97.647 10.6193 93.8643 11.4805 90.134C12.0634 87.6083 13.0684 85.4256 14.3869 83.8221C15.6682 82.2638 17.2062 81.2881 18.8371 80.9999L19.112 80.9509L19.1746 81.6404C19.5169 85.3981 19.7423 87.8812 19.4895 93.1126C19.2826 97.3922 17.6409 103.673 14.9033 107.398L14.6906 107.683ZM18.6493 81.5635C15.6036 82.2633 13.064 85.5579 11.9808 90.2511C11.1396 93.8957 11.2321 97.5906 12.2566 101.233C13.0606 104.092 14.2001 106.032 14.6994 106.797C17.2492 103.123 18.7755 97.18 18.9741 93.0881C19.2249 87.8935 19.0005 85.4241 18.6606 81.6875L18.6493 81.5635Z" fill="#2E2E2E"/>
<path id="Vector_52" d="M20.1397 111.181H10.0983C10.0425 111.181 9.98735 111.193 9.93665 111.217C9.88595 111.24 9.84088 111.274 9.80452 111.316C9.76816 111.359 9.74137 111.409 9.72598 111.462C9.71058 111.516 9.70695 111.572 9.71533 111.628L10.7399 120.586C10.8427 121.266 11.1855 121.886 11.7059 122.335C12.2264 122.783 12.89 123.029 13.5763 123.029H16.6631C17.3494 123.029 18.013 122.783 18.5334 122.335C19.0538 121.886 19.3966 121.266 19.4995 120.586L20.5236 111.628C20.532 111.572 20.5283 111.516 20.5129 111.462C20.4974 111.408 20.4706 111.358 20.4341 111.316C20.3976 111.274 20.3524 111.24 20.3016 111.216C20.2508 111.193 20.1956 111.181 20.1397 111.181Z" fill="#FFBF31"/>
<path id="Vector_53" d="M11.9351 120.906L10.9111 111.948C10.9027 111.892 10.9063 111.836 10.9217 111.782C10.9371 111.729 10.9639 111.679 11.0003 111.636C11.0366 111.594 11.0817 111.56 11.1324 111.537C11.1831 111.513 11.2382 111.501 11.294 111.501H10.0283C9.97255 111.501 9.91741 111.513 9.8667 111.537C9.81598 111.56 9.77089 111.594 9.73449 111.636C9.69809 111.679 9.67125 111.728 9.6558 111.782C9.64034 111.836 9.63664 111.892 9.64494 111.948L10.6719 120.906C10.7748 121.586 11.1176 122.206 11.638 122.654C12.1585 123.103 12.8221 123.349 13.5084 123.349H14.774C14.0873 123.349 13.4232 123.103 12.9022 122.655C12.3813 122.207 12.0381 121.586 11.9351 120.906Z" fill="white"/>
<path id="Vector_54" d="M16.6615 123.606H13.5747C12.8271 123.606 12.1043 123.338 11.5374 122.849C10.9705 122.361 10.5971 121.685 10.485 120.945V120.935L9.45945 111.98C9.44658 111.888 9.4534 111.795 9.47943 111.707C9.50547 111.618 9.55011 111.537 9.61036 111.467C9.67061 111.397 9.74506 111.341 9.82869 111.303C9.91233 111.265 10.0032 111.245 10.0952 111.245H20.1386C20.2306 111.245 20.3215 111.265 20.4051 111.303C20.4887 111.341 20.5632 111.397 20.6234 111.467C20.6837 111.537 20.7283 111.618 20.7544 111.707C20.7804 111.795 20.7872 111.888 20.7744 111.98L19.7474 120.943C19.6353 121.684 19.2619 122.36 18.695 122.848C18.128 123.336 17.4052 123.605 16.6576 123.605L16.6615 123.606ZM10.9931 120.872C11.0849 121.491 11.3964 122.056 11.8706 122.464C12.3448 122.872 12.9499 123.095 13.5747 123.092H16.6615C17.2863 123.095 17.8913 122.872 18.3654 122.464C18.8395 122.056 19.151 121.491 19.2427 120.872L20.2697 111.909C20.2726 111.89 20.2714 111.871 20.2662 111.853C20.2611 111.835 20.252 111.818 20.2398 111.804C20.2275 111.79 20.2123 111.778 20.1951 111.77C20.178 111.763 20.1594 111.758 20.1406 111.759H10.0972C10.0784 111.759 10.0598 111.763 10.0428 111.771C10.0257 111.779 10.0106 111.79 9.99834 111.804C9.9861 111.819 9.97706 111.835 9.97183 111.853C9.96661 111.871 9.96532 111.89 9.96805 111.909V111.918L10.9931 120.872Z" fill="#2E2E2E"/>
<path id="Vector_55" d="M27.6865 95.995L22.9707 96.8516L19.8125 99.6993L18.296 103.002L17.9414 105.762L18.0373 106.526L21.0659 105.39L24.0197 102.793L26.1313 99.9938L27.6865 95.995Z" fill="white"/>
<path id="Vector_56" d="M17.1641 112.503L17.1704 111.518C17.188 108.696 17.4423 106.964 18.1074 105.131C18.7251 103.428 19.5496 102.063 20.7018 100.836C21.7953 99.671 23.1959 98.6223 25.1134 97.5363L25.9232 97.0771L17.1641 112.503ZM24.5422 98.4684C21.3483 100.42 19.6469 102.393 18.5901 105.306C18.0292 106.853 17.7705 108.332 17.702 110.515L24.5422 98.4684Z" fill="#2E2E2E"/>
<path id="Vector_57" d="M17.7303 106.937L17.7127 106.662C17.4848 103.05 18.814 99.7621 21.3599 97.6417C23.3904 95.95 25.8977 95.2674 28.0666 95.8152L28.3277 95.8814L28.2495 96.1397C27.5991 98.2885 26.1305 100.795 24.3206 102.846C22.2534 105.188 20.0102 106.628 18.0036 106.901L17.7303 106.937ZM26.5432 96.1441C24.9006 96.1441 23.1645 96.8076 21.6881 98.0376C19.3367 99.9978 18.078 103.012 18.2105 106.345C20.0258 105.999 22.0465 104.646 23.9357 102.505C25.6253 100.591 27.0078 98.2753 27.6749 96.2543C27.3022 96.1803 26.9232 96.1434 26.5432 96.1441Z" fill="#2E2E2E"/>
</g>
<g id="man">
<path id="Vector_58" d="M146.477 7.32056H163.211C163.537 7.32056 163.849 7.45005 164.079 7.68054C164.309 7.91103 164.438 8.22364 164.438 8.54961V59.9448C164.438 60.2708 164.309 60.5834 164.079 60.8139C163.849 61.0444 163.537 61.1739 163.211 61.1739H110.297C110.136 61.1739 109.977 61.1422 109.828 61.0805C109.679 61.0187 109.544 60.9282 109.43 60.8141C109.316 60.6999 109.225 60.5644 109.164 60.4153C109.102 60.2661 109.07 60.1063 109.07 59.9448V8.54961C109.07 8.38816 109.102 8.2283 109.164 8.07916C109.225 7.93001 109.316 7.7945 109.43 7.68036C109.544 7.56623 109.679 7.47571 109.828 7.41397C109.977 7.35223 110.136 7.32049 110.297 7.32056H146.476H146.477Z" fill="white"/>
<path id="Vector_59" d="M129.526 28.6218C129.526 28.6218 126.294 30.1409 124.574 31.121C122.854 32.1011 121.199 34.1211 120.417 35.2786C119.634 36.4361 119.068 38.9227 118.58 40.555C118.093 42.1874 116.756 52.2148 116.756 52.2148L115.742 60.9451L116.179 61.1759L158.545 61.1328L158.868 60.7898C158.868 60.7898 158.583 52.8553 158.031 49.0868C157.479 45.3183 156.644 40.435 155.151 37.6961C153.657 34.9572 149.015 30.0179 144.68 28.6218C143.215 28.5159 135.226 33.9506 135.226 33.9506L129.526 28.6218Z" fill="#2E2E2E"/>
<path id="Vector_60" d="M158.326 49.0157C157.774 45.2472 156.939 40.3638 155.446 37.6249C153.952 34.886 149.311 29.9502 144.976 28.5521C144.554 28.5212 143.517 29.0912 143.775 29.1103C148.712 30.9627 152.378 34.886 154.214 38.3385C155.681 41.0926 156.542 45.9607 157.093 49.7292C157.574 53.0126 157.852 59.4602 157.916 61.0637H158.84L159.162 60.7206C159.162 60.7206 158.878 52.7842 158.326 49.0157Z" fill="white"/>
<path id="Vector_61" d="M131.863 27.477L129.667 28.66C129.667 28.66 129.057 34.2245 129.087 37.1428C129.117 40.061 129.383 48.806 130.404 51.1225C130.535 51.6552 130.579 52.1026 130.949 51.8331C131.32 51.5635 131.256 51.6861 131.392 50.9686C131.528 50.2512 134.728 44.1309 136.753 40.8294C138.779 37.528 141.573 33.2361 142.175 32.3618C142.777 31.4876 144.782 28.4688 144.782 28.4688L141.629 26.9227C141.629 26.9227 138.729 29.3426 135.719 29.202C132.708 29.0613 131.863 27.477 131.863 27.477Z" fill="white"/>
<path id="Vector_62" d="M127.971 6.29688C127.971 6.42184 127.839 11.7997 128.048 15.134C128.256 18.4683 128.365 20.0031 128.891 21.4606C129.416 22.918 130.26 23.262 130.898 23.262C131.536 23.262 132.491 23.9912 132.491 23.9912L132.344 26.6546L132.166 27.7886C132.166 27.7886 133.197 29.4479 136.023 29.3244C138.849 29.2009 139.134 28.4389 139.909 28.0429C140.685 27.647 141.426 26.7595 141.426 26.7595C141.426 26.7595 140.793 21.9526 140.73 20.8049C140.666 19.6572 140.681 16.9599 140.681 16.9599C140.681 16.9599 142.17 16.71 142.393 15.5054C142.615 14.3009 142.866 13.1949 140.388 12.8621C138.556 10.7573 138.41 7.45977 138.452 6.89964C134.335 8.02676 127.971 6.29688 127.971 6.29688Z" fill="white"/>
<path id="Vector_63" d="M142.067 13.5967C145.062 10.9078 144.648 5.17169 141.915 4.79631C141.614 -0.455584 135.328 -0.158612 131.367 1.41985C130.096 1.92656 128.34 2.37349 127.03 2.59254C126.706 2.64645 127.532 3.6883 127.262 3.84021C126.48 4.27734 125.743 4.62969 125.019 4.8262C125.002 4.83052 124.987 4.8381 124.973 4.84849C124.959 4.85889 124.948 4.87189 124.939 4.88675C124.931 4.90161 124.925 4.91802 124.923 4.93505C124.921 4.95208 124.922 4.96938 124.926 4.98596C125.325 6.39633 126.303 7.01477 127.014 7.38084C128.948 8.37565 131.923 8.50796 138.328 6.9888C138.328 6.9888 138.827 11.6757 140.484 13.0512L142.067 13.5967Z" fill="#FFBF31"/>
<path id="Vector_64" d="M141.719 4.79631C141.419 -0.455584 135.133 -0.158612 131.172 1.41985C129.9 1.92656 128.144 2.37349 126.834 2.59254C126.699 2.61508 126.765 2.81012 126.867 3.04045C128.092 2.80081 129.56 2.40632 130.663 1.96674C134.624 0.387795 140.91 0.0908244 141.21 5.34321C143.746 5.69114 144.283 10.6539 141.955 13.5158C144.855 10.7955 144.426 5.16777 141.719 4.79631Z" fill="white"/>
<path id="Vector_65" d="M132.899 23.8647C131.041 23.8647 129.752 23.3164 128.962 22.1922C128.117 20.9916 127.963 19.2519 127.924 17.8689C127.914 17.7259 127.749 15.4368 127.618 13.0914C127.343 8.15562 127.481 7.79347 127.54 7.63862C127.57 7.56403 127.629 7.50428 127.702 7.47211C127.776 7.43994 127.859 7.4379 127.934 7.46641C128.01 7.49493 128.071 7.55175 128.105 7.62476C128.139 7.69776 128.143 7.78117 128.116 7.85718C127.937 8.40898 128.28 14.2671 128.539 17.8312V17.8449C128.593 19.7723 128.879 21.0033 129.465 21.8364C130.167 22.8342 131.376 23.2943 133.163 23.2434H133.217C133.619 23.2321 134.293 23.2135 135.481 22.9954C135.521 22.9873 135.562 22.9872 135.602 22.9953C135.642 23.0033 135.68 23.0193 135.714 23.0422C135.748 23.0652 135.777 23.0947 135.8 23.129C135.822 23.1633 135.837 23.2018 135.845 23.2421C135.852 23.2824 135.851 23.3238 135.843 23.3639C135.834 23.404 135.817 23.4419 135.794 23.4754C135.77 23.509 135.74 23.5375 135.706 23.5593C135.671 23.5812 135.632 23.5959 135.592 23.6026C134.356 23.8295 133.654 23.8476 133.234 23.8603H133.181C133.086 23.8633 132.991 23.8647 132.899 23.8647Z" fill="#2E2E2E"/>
<path id="Vector_66" d="M140.458 17.3854C140.137 17.3863 139.819 17.3195 139.525 17.1894C139.488 17.173 139.455 17.1495 139.427 17.1201C139.399 17.0908 139.377 17.0563 139.362 17.0184C139.333 16.9421 139.335 16.8571 139.368 16.7821C139.401 16.7072 139.462 16.6485 139.538 16.6189C139.614 16.5893 139.699 16.5913 139.774 16.6243C140.034 16.7391 140.319 16.7867 140.603 16.7626C140.886 16.7386 141.159 16.6437 141.396 16.4867C141.634 16.3297 141.828 16.1156 141.961 15.8639C142.095 15.6122 142.163 15.331 142.16 15.046C142.157 14.761 142.083 14.4814 141.944 14.2326C141.805 13.9839 141.606 13.774 141.366 13.6221C141.125 13.4702 140.85 13.3812 140.566 13.3633C140.282 13.3453 139.999 13.399 139.741 13.5194C139.704 13.5375 139.664 13.548 139.623 13.5505C139.582 13.5529 139.541 13.5471 139.503 13.5335C139.464 13.5199 139.429 13.4987 139.398 13.4712C139.368 13.4436 139.343 13.4103 139.326 13.3731C139.309 13.336 139.299 13.2957 139.297 13.2547C139.295 13.2137 139.302 13.1728 139.316 13.1343C139.331 13.0959 139.352 13.0607 139.38 13.0308C139.409 13.0009 139.442 12.9769 139.48 12.9602C139.792 12.8141 140.132 12.7394 140.476 12.7416C140.821 12.7439 141.16 12.823 141.47 12.9732C141.78 13.1234 142.053 13.3409 142.269 13.61C142.484 13.8791 142.637 14.1929 142.717 14.5286C142.796 14.8644 142.8 15.2137 142.727 15.551C142.655 15.8884 142.509 16.2054 142.299 16.479C142.089 16.7526 141.821 16.9759 141.514 17.1327C141.208 17.2895 140.87 17.3758 140.526 17.3854C140.503 17.3854 140.481 17.3854 140.458 17.3854Z" fill="#2E2E2E"/>
<path id="Vector_67" d="M129.531 13.7295C129.543 14.1524 129.352 14.5013 129.104 14.5082C128.855 14.5151 128.645 14.1779 128.633 13.7545C128.622 13.3311 128.813 12.9827 129.06 12.9758C129.308 12.969 129.519 13.3061 129.531 13.7295Z" fill="#2E2E2E"/>
<path id="Vector_68" d="M135.02 13.5771C135.032 14.0005 135.242 14.3377 135.49 14.3308C135.738 14.324 135.93 13.9751 135.917 13.5521C135.904 13.1292 135.695 12.7916 135.447 12.7984C135.199 12.8053 135.01 13.1523 135.02 13.5771Z" fill="#2E2E2E"/>
<path id="Vector_69" d="M137.405 11.8477C137.339 11.8477 137.274 11.8264 137.221 11.787C136.399 11.1754 135.109 11.0377 134.085 11.4523C134.048 11.4684 134.007 11.4768 133.966 11.477C133.925 11.4773 133.885 11.4693 133.847 11.4536C133.809 11.438 133.775 11.4149 133.746 11.3858C133.717 11.3566 133.694 11.322 133.679 11.284C133.663 11.2459 133.656 11.2052 133.656 11.1641C133.657 11.1231 133.666 11.0826 133.682 11.0449C133.698 11.0073 133.722 10.9733 133.752 10.945C133.781 10.9167 133.816 10.8945 133.854 10.8799C135.067 10.3898 136.603 10.5579 137.589 11.291C137.641 11.3297 137.679 11.3839 137.699 11.4458C137.718 11.5078 137.718 11.5743 137.698 11.636C137.677 11.6977 137.638 11.7513 137.585 11.7894C137.533 11.8274 137.47 11.8478 137.405 11.8477Z" fill="#2E2E2E"/>
<path id="Vector_70" d="M133.554 20.434C134.318 20.2379 134.709 19.8337 134.854 19.273C134.963 18.8447 134.936 18.6218 134.73 18.5311C134.47 18.4164 133.897 18.6595 133.007 18.9231C132.357 19.1157 131.373 19.1652 131.371 19.6381C131.367 20.0458 132.338 20.7461 133.554 20.434Z" fill="#2E2E2E"/>
<path id="Vector_71" d="M134.735 19.5101C134.189 19.1431 132.515 19.1965 132.492 20.3922C133.32 20.4265 134.601 19.8346 134.735 19.5101Z" fill="white"/>
<path id="Vector_72" d="M132.94 20.7471C132.324 20.7471 131.809 20.5309 131.489 20.281C131.208 20.062 131.054 19.8071 131.055 19.5636C131.055 18.9613 131.77 18.8094 132.399 18.6756C132.583 18.6364 132.759 18.5992 132.911 18.5536C133.118 18.4923 133.312 18.4311 133.483 18.3767C134.142 18.1674 134.541 18.041 134.846 18.1753C135.367 18.4046 135.205 19.0382 135.143 19.2769C134.963 19.9811 134.451 20.4462 133.622 20.6598C133.399 20.7174 133.17 20.7467 132.94 20.7471ZM131.669 19.5646C131.676 19.5949 131.737 19.7116 131.942 19.8493C132.096 19.9512 132.662 20.2688 133.466 20.0615C134.077 19.9042 134.42 19.6057 134.542 19.123C134.609 18.8633 134.598 18.7677 134.591 18.7398C134.477 18.707 134.046 18.8442 133.664 18.9652C133.491 19.0206 133.294 19.0828 133.081 19.1461C132.905 19.198 132.71 19.2397 132.522 19.2798C132.268 19.3347 131.733 19.4484 131.671 19.5646H131.669Z" fill="#2E2E2E"/>
<path id="Vector_73" d="M131.419 17.2711C131.061 17.2711 130.778 17.182 130.575 17.0051C130.438 16.8855 130.271 16.662 130.255 16.2793C130.235 15.8118 130.563 15.4374 130.852 15.1066C130.93 15.0169 131.004 14.9326 131.067 14.8513L131.093 14.8165C131.441 14.3671 131.631 14.1191 131.595 13.1327C131.56 12.1854 130.931 11.4586 129.993 11.2812C129.102 11.1132 128.195 11.3969 127.441 12.0805C127.38 12.1354 127.3 12.164 127.218 12.1598C127.137 12.1557 127.06 12.1192 127.005 12.0585C126.951 11.9977 126.922 11.9176 126.926 11.8358C126.93 11.754 126.967 11.6772 127.027 11.6223C127.929 10.8059 129.023 10.4697 130.108 10.6746C131.321 10.9034 132.166 11.882 132.211 13.1096C132.256 14.3201 131.958 14.7057 131.581 15.1943L131.554 15.2291C131.48 15.3271 131.396 15.4207 131.315 15.5133C131.092 15.7686 130.861 16.0328 130.871 16.2533C130.879 16.4493 130.955 16.5179 130.98 16.54C131.057 16.6071 131.225 16.6797 131.593 16.6449C131.634 16.641 131.674 16.6452 131.713 16.6571C131.752 16.669 131.788 16.6885 131.819 16.7143C131.85 16.7402 131.876 16.7719 131.895 16.8078C131.914 16.8436 131.926 16.8828 131.929 16.9232C131.933 16.9636 131.929 17.0043 131.917 17.0431C131.905 17.0819 131.886 17.1179 131.86 17.1492C131.834 17.1805 131.803 17.2063 131.767 17.2253C131.731 17.2443 131.692 17.256 131.652 17.2599C131.571 17.2672 131.493 17.2711 131.419 17.2711Z" fill="#2E2E2E"/>
<path id="Vector_74" d="M132.113 27.9675C132.067 27.9675 132.022 27.9571 131.98 27.9371C131.938 27.9171 131.902 27.8881 131.873 27.8521C131.844 27.8161 131.823 27.774 131.813 27.729C131.802 27.6841 131.802 27.6373 131.812 27.5921C132.081 26.3743 132.061 24.7743 131.997 23.6472C131.996 23.5673 132.025 23.4899 132.08 23.4313C132.134 23.3726 132.209 23.3373 132.288 23.3328C132.368 23.3282 132.446 23.3547 132.507 23.4068C132.568 23.4588 132.606 23.5323 132.613 23.6119C132.679 24.7782 132.698 26.4385 132.414 27.7254C132.399 27.794 132.361 27.8554 132.306 27.8994C132.251 27.9434 132.183 27.9674 132.113 27.9675Z" fill="#2E2E2E"/>
<path id="Vector_75" d="M141.525 26.9635C141.464 26.9635 141.404 26.9452 141.353 26.911C141.302 26.8768 141.262 26.8282 141.239 26.7714C140.567 25.1223 140.363 19.9969 140.253 17.2438L140.242 16.9934C140.239 16.9115 140.268 16.8318 140.324 16.7716C140.379 16.7114 140.456 16.6757 140.538 16.6724C140.62 16.6691 140.699 16.6984 140.759 16.7539C140.82 16.8094 140.855 16.8865 140.858 16.9684L140.869 17.2193C140.967 19.7411 141.178 24.9895 141.809 26.5381C141.828 26.585 141.835 26.6358 141.83 26.6862C141.825 26.7365 141.807 26.7849 141.779 26.8269C141.751 26.8689 141.713 26.9033 141.668 26.9272C141.624 26.951 141.574 26.9634 141.523 26.9635H141.525Z" fill="#2E2E2E"/>
<path id="Vector_76" d="M135.805 29.6352C135.259 29.6362 134.715 29.5689 134.186 29.4348C132.901 29.1069 132.12 28.2488 131.808 27.8372L129.705 28.7521C129.668 28.7705 129.627 28.7811 129.586 28.7832C129.544 28.7854 129.502 28.7791 129.463 28.7646C129.424 28.7502 129.388 28.7279 129.358 28.6992C129.328 28.6705 129.304 28.6359 129.287 28.5976C129.271 28.5592 129.262 28.5179 129.262 28.4761C129.262 28.4344 129.27 28.393 129.286 28.3545C129.302 28.3161 129.326 28.2813 129.356 28.2523C129.386 28.2234 129.422 28.2009 129.461 28.1861L132.042 27.0624L132.181 27.2942C132.188 27.305 132.911 28.4703 134.338 28.8364C136.319 29.3416 138.179 28.6967 139.39 28.067C140.188 27.6539 140.93 27.1395 141.597 26.5366L141.76 26.3793L141.958 26.4881L145.077 28.1983C145.14 28.2417 145.184 28.3067 145.202 28.3809C145.22 28.4551 145.209 28.5332 145.173 28.6001C145.136 28.6671 145.076 28.7182 145.005 28.7435C144.933 28.7688 144.854 28.7667 144.784 28.7374L141.858 27.133C141.195 27.7048 140.468 28.1981 139.693 28.6031C138.384 29.2887 137.066 29.6352 135.805 29.6352Z" fill="#2E2E2E"/>
<path id="Vector_77" d="M122.004 61.4827H121.984C121.943 61.4801 121.904 61.4696 121.867 61.4517C121.831 61.4338 121.799 61.409 121.772 61.3785C121.745 61.3481 121.725 61.3126 121.712 61.2742C121.699 61.2358 121.693 61.1953 121.696 61.1548C122.177 53.6884 122.815 45.3261 123.122 41.3077C123.171 40.6589 123.212 40.1316 123.241 39.7503C123.244 39.7097 123.255 39.6701 123.273 39.6337C123.291 39.5974 123.317 39.565 123.347 39.5385C123.378 39.512 123.414 39.4919 123.453 39.4793C123.491 39.4667 123.532 39.4619 123.573 39.4651C123.613 39.4683 123.653 39.4795 123.689 39.4981C123.725 39.5167 123.757 39.5422 123.783 39.5733C123.809 39.6044 123.829 39.6403 123.842 39.6791C123.854 39.7179 123.859 39.7587 123.855 39.7993C123.827 40.1806 123.786 40.7079 123.737 41.3572C123.43 45.3756 122.792 53.7325 122.311 61.1955C122.305 61.2734 122.27 61.3462 122.213 61.3995C122.156 61.4528 122.081 61.4825 122.004 61.4827Z" fill="#2E2E2E"/>
<path id="Vector_78" d="M147.918 61.4826C147.839 61.4826 147.763 61.452 147.706 61.3973C147.648 61.3425 147.614 61.2678 147.61 61.1886L146.872 47.1471C146.867 47.0653 146.896 46.9851 146.95 46.9242C147.005 46.8633 147.082 46.8267 147.163 46.8224C147.245 46.8182 147.325 46.8465 147.386 46.9014C147.447 46.9562 147.483 47.0329 147.488 47.1148L148.226 61.1577C148.228 61.1984 148.222 61.2391 148.209 61.2775C148.195 61.3158 148.174 61.3511 148.147 61.3813C148.119 61.4115 148.086 61.4359 148.05 61.4532C148.013 61.4706 147.973 61.4804 147.932 61.4821L147.918 61.4826Z" fill="#2E2E2E"/>
<path id="Vector_79" d="M115.527 61.4827C115.513 61.4834 115.5 61.4834 115.486 61.4827C115.446 61.4773 115.407 61.4641 115.372 61.4437C115.337 61.4234 115.307 61.3963 115.282 61.3641C115.257 61.3319 115.239 61.2952 115.229 61.256C115.219 61.2168 115.216 61.1759 115.221 61.1357C116.319 52.8999 117.793 42.379 118.583 39.0251C119.191 36.4415 120.315 34.4279 122.12 32.6872C123.777 31.0896 126.096 29.6602 129.418 28.189L129.91 27.9709L129.849 28.5066C129.845 28.5399 129.468 31.8737 129.402 36.368C129.342 40.4893 129.539 46.4533 130.814 51.5106C133.335 45.7373 136.961 39.7435 139.564 35.7255C142.394 31.3572 144.659 28.3159 144.682 28.2856L144.834 28.0812L145.063 28.1929C150.501 30.8456 154.013 34.2652 156.115 38.9545C157.676 42.4383 158.805 50.3237 159.3 61.1617C159.301 61.2022 159.295 61.2427 159.281 61.2808C159.268 61.319 159.247 61.354 159.219 61.3839C159.192 61.4139 159.159 61.4381 159.122 61.4553C159.086 61.4725 159.046 61.4823 159.006 61.4842C158.965 61.486 158.925 61.4798 158.887 61.466C158.849 61.4522 158.814 61.431 158.784 61.4037C158.754 61.3763 158.73 61.3434 158.713 61.3066C158.695 61.2699 158.686 61.2301 158.684 61.1896C158.202 50.5849 157.061 42.5726 155.554 39.2074C153.545 34.7239 150.196 31.4312 145.026 28.8614C143.821 30.4991 135.801 41.5983 131.351 51.8228C131.301 51.9357 131.218 52.0304 131.112 52.0936C131.007 52.1568 130.884 52.1854 130.761 52.1754C130.638 52.1654 130.522 52.1172 130.428 52.0377C130.334 51.9581 130.267 51.8511 130.236 51.7316C128.927 46.591 128.726 40.5295 128.787 36.3494C128.836 32.8783 129.074 30.0924 129.182 28.9697C122.99 31.7889 120.262 34.5862 119.184 39.1628C118.401 42.4922 116.929 52.9916 115.833 61.2151C115.823 61.2893 115.787 61.3573 115.73 61.4065C115.674 61.4557 115.602 61.4828 115.527 61.4827Z" fill="#2E2E2E"/>
<path id="Vector_80" d="M163.211 61.4826H110.297C109.89 61.4822 109.5 61.3201 109.212 61.0318C108.924 60.7435 108.762 60.3526 108.762 59.9448V13.7692C108.762 13.6873 108.794 13.6088 108.852 13.5509C108.91 13.493 108.988 13.4604 109.07 13.4604C109.152 13.4604 109.23 13.493 109.288 13.5509C109.345 13.6088 109.378 13.6873 109.378 13.7692V59.9448C109.378 60.1889 109.475 60.4229 109.647 60.5955C109.82 60.768 110.053 60.865 110.297 60.8652H163.211C163.454 60.8649 163.688 60.7679 163.86 60.5953C164.032 60.4228 164.129 60.1889 164.129 59.9448V8.54962C164.129 8.30562 164.032 8.07168 163.86 7.89915C163.688 7.72661 163.454 7.62957 163.211 7.62931H146.476C146.395 7.62931 146.316 7.59678 146.259 7.53888C146.201 7.48098 146.168 7.40245 146.168 7.32057C146.168 7.23869 146.201 7.16016 146.259 7.10227C146.316 7.04437 146.395 7.01184 146.476 7.01184H163.211C163.618 7.01223 164.008 7.17437 164.296 7.46267C164.583 7.75098 164.745 8.1419 164.745 8.54962V59.9448C164.745 60.3526 164.583 60.7435 164.296 61.0318C164.008 61.3201 163.618 61.4822 163.211 61.4826Z" fill="#2E2E2E"/>
<path id="Vector_81" d="M142.067 13.8011C142.005 13.8011 141.944 13.7821 141.892 13.7467C141.841 13.7112 141.801 13.6609 141.779 13.6024C141.757 13.544 141.753 13.4801 141.768 13.4193C141.782 13.3585 141.815 13.3037 141.862 13.262C143.752 11.5649 144.17 8.67903 143.604 6.82565C143.414 6.20573 142.937 5.14379 141.873 4.99776L141.622 4.96296L141.608 4.7096C141.524 3.237 140.937 2.14026 139.861 1.45419C137.736 0.0967414 134.121 0.55053 131.481 1.6012C130.351 2.05205 128.742 2.49457 127.318 2.74989C127.347 2.81849 127.382 2.89347 127.408 2.94934C127.48 3.09505 127.541 3.24591 127.591 3.40067C127.699 3.77801 127.525 3.93973 127.412 4.00393C126.567 4.47781 125.896 4.78017 125.276 4.96786C125.653 6.09498 126.433 6.62914 127.155 7.0006C128.157 7.51564 129.376 7.74205 130.989 7.71216C132.811 7.67883 135.188 7.30884 138.257 6.58111L138.599 6.50026L138.637 6.84868C138.642 6.89426 139.142 11.4268 140.682 12.7068C140.716 12.7315 140.745 12.7629 140.767 12.7992C140.788 12.8355 140.802 12.8758 140.808 12.9177C140.813 12.9596 140.81 13.0022 140.798 13.0427C140.786 13.0833 140.767 13.1211 140.74 13.1536C140.713 13.1862 140.68 13.2129 140.642 13.2322C140.605 13.2514 140.564 13.2627 140.522 13.2653C140.48 13.268 140.437 13.262 140.398 13.2477C140.358 13.2334 140.322 13.2111 140.291 13.1821C138.811 11.9526 138.222 8.39578 138.069 7.26033C132.326 8.5967 129.071 8.67805 126.877 7.54995C126.053 7.12605 125.054 6.4488 124.634 4.96492C124.618 4.90935 124.613 4.85115 124.62 4.79375C124.627 4.73634 124.645 4.6809 124.674 4.63071C124.732 4.52845 124.829 4.45354 124.942 4.42243C125.535 4.2617 126.172 3.98629 126.992 3.53397C126.959 3.43841 126.894 3.30119 126.853 3.20906C126.699 2.87632 126.577 2.61316 126.697 2.3848C126.725 2.33111 126.766 2.28486 126.816 2.24973C126.866 2.2146 126.923 2.19155 126.983 2.1824C128.163 1.98638 129.942 1.55171 131.257 1.02735C134.045 -0.0831073 137.887 -0.540817 140.196 0.931791C141.387 1.69235 142.063 2.86946 142.208 4.43322C143.116 4.66354 143.833 5.45498 144.197 6.64384C144.819 8.68001 144.357 11.8526 142.277 13.7212C142.219 13.773 142.145 13.8015 142.067 13.8011Z" fill="#2E2E2E"/>
</g>
<g id="icon">
<path id="Vector_82" d="M67.1159 31.7878C70.502 28.3947 70.502 22.8934 67.1159 19.5003C63.7298 16.1071 58.2398 16.1071 54.8537 19.5003C51.4676 22.8934 51.4676 28.3947 54.8537 31.7878C58.2399 35.181 63.7298 35.181 67.1159 31.7878Z" fill="#FFBF31"/>
<path id="Vector_83" d="M63.0272 31.0112C62.1088 31.0112 61.3674 30.4163 60.7399 29.8513C60.0822 29.2598 57.9211 25.7525 57.4086 24.6293C56.8961 23.5061 56.7851 22.4441 57.1069 21.7247C57.344 21.1955 58.2018 20.6314 58.6923 20.3423C58.7979 20.2795 58.9238 20.2605 59.0431 20.2895C59.1625 20.3184 59.2658 20.3929 59.331 20.4972L60.6069 22.5118C60.6703 22.6129 60.6935 22.7342 60.6718 22.8517C60.6502 22.9691 60.5853 23.0741 60.49 23.1459L60.112 23.4272C60.023 23.4931 59.9568 23.5851 59.9225 23.6905C59.8882 23.796 59.8876 23.9095 59.9208 24.0152C60.1795 24.8194 61.3551 26.8967 62.0119 27.4456C62.0955 27.5139 62.1978 27.5551 62.3053 27.5639C62.4128 27.5726 62.5204 27.5485 62.6139 27.4946C62.7465 27.4187 62.8873 27.3412 62.9822 27.2893C63.0856 27.2319 63.2069 27.2157 63.3217 27.244C63.4366 27.2722 63.5366 27.3428 63.6018 27.4417L64.9657 29.4867C65.0269 29.5783 65.0542 29.6884 65.043 29.7981C65.0319 29.9078 64.9829 30.0101 64.9046 30.0875C64.5808 30.407 63.9265 30.9514 63.1778 31.0044C63.1269 31.0098 63.0771 31.0112 63.0272 31.0112ZM58.9192 20.8059C58.214 21.2259 57.7006 21.6571 57.5758 21.933C57.3142 22.5176 57.4238 23.4213 57.8761 24.4127C58.4102 25.5829 60.5135 28.953 61.0832 29.4661C61.6931 30.0149 62.3547 30.5442 63.1421 30.4903C63.7289 30.4491 64.285 29.9723 64.5207 29.744L63.1959 27.7583C63.1049 27.8073 62.9832 27.8754 62.8682 27.941C62.6841 28.0469 62.4722 28.0942 62.2606 28.0767C62.049 28.0592 61.8476 27.9777 61.6833 27.843C60.8959 27.1844 59.6909 24.9792 59.4337 24.1745C59.3675 23.9663 59.3679 23.7425 59.4349 23.5345C59.5019 23.3265 59.6321 23.1447 59.8073 23.0146L60.155 22.7553L58.9192 20.8059Z" fill="#2E2E2E"/>
<path id="Vector_84" d="M60.9821 34.5901C56.0594 34.5901 52.0547 30.577 52.0547 25.6441C52.0547 20.7113 56.0594 16.6982 60.9821 16.6982C65.9048 16.6982 69.9095 20.7113 69.9095 25.6441C69.9114 27.3356 69.4333 28.9927 68.5309 30.4222C68.5134 30.4518 68.4902 30.4776 68.4625 30.4981C68.4349 30.5186 68.4035 30.5333 68.37 30.5414C68.3366 30.5495 68.3019 30.5507 68.268 30.5451C68.2341 30.5395 68.2017 30.5271 68.1726 30.5087C68.1436 30.4903 68.1185 30.4662 68.0989 30.4379C68.0793 30.4096 68.0656 30.3777 68.0586 30.344C68.0515 30.3103 68.0513 30.2755 68.0579 30.2417C68.0646 30.2079 68.0779 30.1758 68.0971 30.1472C68.9475 28.8 69.3979 27.2382 69.396 25.6441C69.396 20.995 65.6216 17.2152 60.9821 17.2152C56.3426 17.2152 52.5706 20.9975 52.5706 25.6441C52.5706 30.2908 56.345 34.073 60.9821 34.073C62.437 34.0737 63.8673 33.6961 65.1331 32.9773C65.1624 32.9606 65.1947 32.9498 65.2282 32.9457C65.2616 32.9415 65.2956 32.9439 65.3281 32.9529C65.3606 32.9619 65.391 32.9771 65.4177 32.9979C65.4443 33.0187 65.4666 33.0445 65.4832 33.0738C65.4999 33.1032 65.5106 33.1356 65.5148 33.1691C65.519 33.2027 65.5165 33.2367 65.5076 33.2693C65.4986 33.3018 65.4834 33.3323 65.4626 33.359C65.4419 33.3857 65.4162 33.408 65.3869 33.4247C64.0439 34.1884 62.5262 34.5899 60.9821 34.5901Z" fill="#2E2E2E"/>
<path id="Vector_85" d="M82.0849 77.8318C81.7983 76.7076 82.15 76.0187 83.1398 75.7652C83.6181 75.6427 84.0241 75.6927 84.358 75.9152C84.6918 76.1377 84.9282 76.5219 85.0671 77.0678C85.2021 77.597 85.175 78.0422 84.9859 78.4032C84.7968 78.7642 84.4672 79.0048 83.9971 79.125C83.5677 79.2348 83.1797 79.1954 82.8331 79.0069C82.4866 78.8184 82.2372 78.4267 82.0849 77.8318ZM83.2987 73.5977L81.9998 73.9305L78.0195 60.9617L80.5806 60.306L83.2987 73.5977Z" fill="white"/>
<path id="Vector_86" d="M80.2974 33.3517H77.3744C76.7271 33.3518 76.1063 33.6095 75.6486 34.0682C75.1909 34.5269 74.9337 35.1489 74.9336 35.7975V42.1427C74.9337 42.7914 75.1909 43.4134 75.6486 43.8721C76.1063 44.3307 76.7271 44.5885 77.3744 44.5886H78.8968L77.5871 50.0487L84.1476 44.5886H101.023C101.671 44.5885 102.291 44.3307 102.749 43.872C103.207 43.4134 103.464 42.7913 103.464 42.1427V35.7975C103.464 35.1489 103.207 34.5269 102.749 34.0682C102.291 33.6096 101.671 33.3518 101.023 33.3517H80.2974Z" fill="#C1C7D6"/>
<path id="Vector_87" d="M75.95 43.1856V36.0583C75.95 35.6168 76.1248 35.1934 76.4361 34.881C76.7474 34.5686 77.1697 34.3927 77.6103 34.3921H102.039C102.412 34.3921 102.781 34.4785 103.115 34.6445C102.914 34.2341 102.603 33.8883 102.216 33.6464C101.829 33.4044 101.382 33.276 100.926 33.2758H77.2762C75.9285 33.2758 74.8359 34.3269 74.8359 35.677V42.0688C74.836 42.5258 74.9641 42.9737 75.2056 43.3614C75.447 43.7492 75.7922 44.0613 76.2018 44.2622C76.0364 43.9275 75.9502 43.5591 75.95 43.1856Z" fill="white"/>
<path id="Vector_88" d="M77.7406 50.4781C77.6828 50.4779 77.6258 50.4656 77.573 50.442C77.5203 50.4184 77.4731 50.3839 77.4345 50.3409C77.3959 50.2979 77.3667 50.2472 77.3489 50.1922C77.331 50.1371 77.3248 50.079 77.3308 50.0214L77.3362 49.99L78.5392 44.8445H77.3733C76.6582 44.8436 75.9726 44.5585 75.4669 44.0517C74.9612 43.545 74.6767 42.858 74.6758 42.1413V35.7976C74.6767 35.081 74.9612 34.3939 75.4669 33.8872C75.9726 33.3805 76.6582 33.0954 77.3733 33.0945H101.022C101.737 33.0954 102.423 33.3805 102.929 33.8872C103.434 34.394 103.719 35.081 103.719 35.7976V42.1428C103.719 42.8594 103.434 43.5464 102.929 44.0532C102.423 44.5599 101.737 44.845 101.022 44.8459H84.2438L78.013 50.3742C77.9379 50.441 77.841 50.478 77.7406 50.4781ZM77.3733 33.6095C76.7944 33.6102 76.2394 33.8409 75.83 34.2511C75.4207 34.6613 75.1904 35.2175 75.1898 35.7976V42.1428C75.1904 42.723 75.4207 43.2792 75.83 43.6895C76.2393 44.0998 76.7944 44.3306 77.3733 44.3314H79.1867L77.9152 49.7744L84.0507 44.3314H101.024C101.603 44.3306 102.158 44.0998 102.567 43.6895C102.976 43.2792 103.207 42.723 103.207 42.1428V35.7976C103.207 35.2175 102.976 34.6613 102.567 34.2511C102.158 33.8409 101.603 33.6102 101.024 33.6095H77.3733Z" fill="#2E2E2E"/>
<path id="Vector_89" d="M99.7181 37.3035H79.0586V37.818H99.7181V37.3035Z" fill="#2E2E2E"/>
<path id="Vector_90" d="M88.8966 40.089H79.0586V40.6035H88.8966V40.089Z" fill="#2E2E2E"/>
<path id="Vector_91" d="M99.7193 40.089H91.168V40.6035H99.7193V40.089Z" fill="#2E2E2E"/>
<path id="Vector_92" d="M23.3172 63.439C23.1875 63.439 23.0631 63.3874 22.9714 63.2955C22.8796 63.2035 22.8281 63.0789 22.8281 62.9489V58.7516C22.8283 58.6657 22.851 58.5813 22.894 58.507C22.937 58.4326 22.9988 58.3709 23.0731 58.328C23.1474 58.2851 23.2317 58.2625 23.3174 58.2626C23.4032 58.2626 23.4874 58.2853 23.5617 58.3282L27.1879 60.4261C27.2617 60.4693 27.3229 60.5311 27.3654 60.6053C27.4079 60.6796 27.4303 60.7637 27.4303 60.8493C27.4303 60.9349 27.4079 61.019 27.3654 61.0933C27.3229 61.1675 27.2617 61.2293 27.1879 61.2725L23.5602 63.3714C23.4865 63.4148 23.4027 63.4381 23.3172 63.439ZM23.3436 58.7972V62.9043L26.893 60.8505L23.3436 58.7972Z" fill="white"/>
<path id="Vector_93" d="M6.62255 75.06L6.80643 74.5744C7.07247 73.8733 7.39849 73.3377 7.78451 72.9675C8.17053 72.5974 8.75346 72.272 9.53332 71.9913C10.6092 71.6117 11.3188 71.2886 11.6621 71.022C12.0054 70.7554 12.2703 70.3765 12.4568 69.8851C12.6886 69.2745 12.6723 68.7279 12.4079 68.2454C12.1435 67.7628 11.6417 67.3822 10.9026 67.1036C10.4378 66.9257 9.95323 66.8048 9.45947 66.7434C8.97043 66.6841 8.37723 66.6895 7.68621 66.7635L7.61677 65.3472C8.97271 65.1861 10.2664 65.3399 11.4978 65.8083C12.6389 66.2435 13.4199 66.8633 13.8408 67.6676C14.2617 68.4719 14.278 69.3867 13.8897 70.4119C13.7234 70.8495 13.52 71.2126 13.2759 71.5003C13.0265 71.7943 12.7318 72.0466 12.403 72.2476C12.0633 72.4577 11.3918 72.7488 10.3886 73.1209C9.58858 73.4064 9.02683 73.6827 8.70342 73.9496C8.38 74.2165 8.10989 74.635 7.89308 75.2051L7.7806 75.4991L6.62255 75.06ZM5.16962 77.5618C5.47869 76.7466 5.99218 76.4756 6.71009 76.7488C7.05731 76.8811 7.28471 77.0874 7.39475 77.3702C7.50478 77.6529 7.48375 77.9896 7.33362 78.3855C7.18691 78.7683 6.97906 79.0304 6.70716 79.1696C6.43525 79.3088 6.12862 79.3166 5.78776 79.1853C5.47673 79.0667 5.25536 78.8741 5.12365 78.6075C4.99193 78.3409 5.00726 77.9924 5.16962 77.5618Z" fill="white"/>
<path id="Vector_94" d="M0.389723 51.5562H0.379453C0.35247 51.5549 0.326 51.5484 0.301557 51.5368C0.277115 51.5253 0.25518 51.5091 0.23701 51.489C0.218839 51.469 0.204789 51.4456 0.195665 51.4201C0.186541 51.3946 0.182522 51.3676 0.183837 51.3406C0.322725 48.5091 1.09687 45.779 2.42217 43.4448C2.4351 43.4206 2.45274 43.3992 2.47405 43.3819C2.49536 43.3646 2.51991 43.3518 2.54626 43.3442C2.5726 43.3365 2.6002 43.3343 2.62743 43.3375C2.65466 43.3407 2.68097 43.3494 2.70481 43.363C2.72865 43.3765 2.74953 43.3948 2.76623 43.4166C2.78293 43.4384 2.7951 43.4633 2.80203 43.4899C2.80896 43.5165 2.81051 43.5442 2.80658 43.5714C2.80266 43.5986 2.79333 43.6247 2.77917 43.6482C1.48566 45.927 0.730095 48.5938 0.594142 51.3607C0.591514 51.4133 0.568851 51.4629 0.530823 51.4993C0.492795 51.5356 0.442295 51.556 0.389723 51.5562ZM16.0072 47.1766C15.9652 47.1765 15.9242 47.1635 15.8898 47.1394C15.7328 47.0297 15.5837 46.909 15.4438 46.7782C13.6833 45.1316 12.7923 43.0768 12.7923 40.6707C12.7923 40.3546 12.8084 40.0302 12.8412 39.7058C12.8464 39.6514 12.873 39.6013 12.9151 39.5665C12.9572 39.5318 13.0113 39.5152 13.0656 39.5205C13.1199 39.5258 13.1699 39.5524 13.2045 39.5946C13.2392 39.6368 13.2557 39.6911 13.2505 39.7454C13.2202 40.0566 13.2045 40.3683 13.2045 40.6707C13.2045 42.9582 14.053 44.9121 15.7255 46.4773C15.8512 46.5947 15.9851 46.7031 16.126 46.8017C16.162 46.8267 16.189 46.8626 16.2032 46.9041C16.2174 46.9456 16.218 46.9905 16.2049 47.0324C16.1918 47.0742 16.1657 47.1108 16.1304 47.1367C16.0951 47.1627 16.0524 47.1766 16.0087 47.1766H16.0072ZM23.2773 45.4305C23.2386 45.4305 23.2006 45.4195 23.1679 45.3988C23.1352 45.3781 23.1089 45.3486 23.0922 45.3136C23.0755 45.2786 23.069 45.2396 23.0734 45.2011C23.0779 45.1626 23.0931 45.1261 23.1173 45.0958C23.915 44.1025 24.3365 42.9474 24.3365 41.7547C24.3365 40.9882 24.1629 40.2105 23.8206 39.4426C23.5653 38.8645 23.2414 38.3193 22.8557 37.8191C22.8391 37.7977 22.8269 37.7733 22.8198 37.7473C22.8126 37.7212 22.8106 37.694 22.814 37.6671C22.8207 37.613 22.8487 37.5637 22.8916 37.5302C22.9346 37.4966 22.9892 37.4816 23.0432 37.4883C23.0973 37.4951 23.1465 37.5231 23.1799 37.5662C23.5859 38.0926 23.9269 38.6662 24.1957 39.2745C24.5615 40.0958 24.7473 40.9304 24.7473 41.7547C24.7473 43.042 24.2945 44.2868 23.4377 45.3536C23.4184 45.3776 23.3939 45.397 23.3662 45.4103C23.3384 45.4236 23.308 45.4305 23.2773 45.4305ZM8.15029 37.8347C8.10637 37.8348 8.0636 37.8207 8.02825 37.7946C7.9929 37.7685 7.96683 37.7317 7.95387 37.6897C7.9409 37.6476 7.94172 37.6025 7.95622 37.561C7.97071 37.5194 7.99811 37.4837 8.03439 37.4589C10.4571 35.8123 13.1845 34.8042 15.7123 34.62C15.7667 34.616 15.8203 34.6339 15.8616 34.6696C15.9028 34.7053 15.9282 34.7559 15.9321 34.8104C15.9361 34.8648 15.9183 34.9186 15.8827 34.9599C15.847 35.0013 15.7965 35.0267 15.7421 35.0307C13.2832 35.2095 10.6273 36.1931 8.26326 37.7994C8.2302 37.823 8.19086 37.8362 8.15029 37.8372V37.8347ZM16.2097 32.4878C16.1716 32.4876 16.1343 32.4768 16.102 32.4567C16.0696 32.4366 16.0435 32.4078 16.0265 32.3737C16.0095 32.3396 16.0022 32.3014 16.0055 32.2634C16.0089 32.2254 16.0226 32.1891 16.0453 32.1585C17.6724 29.9767 19.8193 28.0043 22.0904 26.6042C22.1366 26.5777 22.1914 26.5703 22.243 26.5836C22.2947 26.5968 22.3391 26.6296 22.3671 26.6751C22.395 26.7206 22.4042 26.7752 22.3927 26.8273C22.3812 26.8795 22.35 26.9251 22.3055 26.9546C20.0775 28.3267 17.9712 30.2639 16.3745 32.4049C16.3556 32.4312 16.3309 32.4526 16.3023 32.4674C16.2736 32.4822 16.2419 32.49 16.2097 32.4902V32.4878Z" fill="#2E2E2E"/>
<path id="Vector_95" d="M32.8341 20.1454L19.1914 22.0002L23.9097 25.2243L24.6779 30.978L33.4009 20.4615L32.8341 20.1454Z" fill="#FFBF31"/>
<path id="Vector_96" d="M21.068 23.2821L34.1297 20.6113L19.7461 22.4363L21.068 23.2821Z" fill="white"/>
<path id="Vector_97" d="M24.5502 31.7478C24.4848 31.7479 24.4217 31.7239 24.3729 31.6805C24.324 31.637 24.2928 31.5771 24.2851 31.5121V31.5067L23.7403 25.6814L19.0509 22.2854C19.0048 22.2553 18.9692 22.2117 18.9488 22.1605C18.9284 22.1094 18.9242 22.0531 18.9369 21.9995C18.9496 21.9459 18.9785 21.8975 19.0196 21.861C19.0608 21.8244 19.1122 21.8015 19.1668 21.7953L33.5519 19.84C33.6041 19.8332 33.6572 19.842 33.7044 19.8653C33.7516 19.8886 33.7909 19.9253 33.8174 19.9709C33.8438 20.0165 33.8562 20.069 33.853 20.1216C33.8498 20.1743 33.8311 20.2248 33.7994 20.2669L31.7112 23.0954C31.6787 23.1394 31.6302 23.1686 31.5763 23.1767C31.5224 23.1848 31.4675 23.1711 31.4236 23.1386C31.3798 23.1061 31.3506 23.0575 31.3425 23.0034C31.3345 22.9494 31.3482 22.8943 31.3806 22.8504L33.2678 20.2938L19.5747 22.156L24.0249 25.381C24.0573 25.4025 24.0846 25.4308 24.105 25.4639C24.1255 25.4969 24.1385 25.5341 24.1433 25.5727V25.578L24.6622 31.1289L29.0293 26.0372C29.0466 26.0158 29.0679 25.9981 29.0922 25.9851C29.1164 25.9721 29.143 25.9641 29.1704 25.9616C29.1978 25.9591 29.2254 25.9622 29.2515 25.9706C29.2777 25.979 29.302 25.9925 29.3228 26.0105C29.3437 26.0284 29.3607 26.0504 29.3729 26.075C29.3852 26.0997 29.3923 26.1266 29.394 26.1541C29.3957 26.1816 29.3918 26.2091 29.3827 26.2351C29.3736 26.2611 29.3593 26.2849 29.3408 26.3053L24.757 31.6498C24.732 31.6805 24.7004 31.7052 24.6646 31.7222C24.6288 31.7391 24.5897 31.7479 24.5502 31.7478ZM19.2231 22.2021H19.2177H19.2231Z" fill="#2E2E2E"/>
<path id="Vector_98" d="M23.936 25.7725C23.8906 25.7725 23.8466 25.7575 23.8106 25.7298C23.7747 25.7021 23.7489 25.6633 23.7373 25.6194C23.7257 25.5755 23.7289 25.5289 23.7465 25.4871C23.764 25.4452 23.7949 25.4103 23.8342 25.3878L28.931 22.4906C28.9784 22.4637 29.0346 22.4568 29.0871 22.4713C29.1396 22.4859 29.1841 22.5208 29.211 22.5683C29.2378 22.6158 29.2448 22.672 29.2302 22.7246C29.2157 22.7772 29.1809 22.8219 29.1335 22.8488L24.0372 25.746C24.0063 25.7634 23.9714 25.7725 23.936 25.7725Z" fill="#2E2E2E"/>
<path id="Vector_99" d="M114.752 1.57568H117.056C118.117 1.57568 118.979 2.56608 118.979 3.78827V9.52776C118.979 10.75 118.117 11.7403 117.056 11.7403H115.856L116.888 16.6796L111.719 11.7403H98.4229C97.3607 11.7403 96.5 10.75 96.5 9.52776V3.78827C96.5 2.56608 97.3607 1.57568 98.4229 1.57568H114.752Z" fill="#C1C7D6"/>
<path id="Vector_100" d="M118.176 10.4711V4.02398C118.176 3.19089 117.589 2.51903 116.868 2.51903H97.62C97.3229 2.52021 97.0311 2.59873 96.7734 2.74691C97.0864 2.01428 97.7403 1.50903 98.4978 1.50903H117.13C118.192 1.50903 119.053 2.45974 119.053 3.68144V9.46062C119.053 10.3324 118.613 11.0842 117.977 11.4448C118.108 11.1371 118.176 10.8058 118.176 10.4711Z" fill="white"/>
<path id="Vector_101" d="M116.766 17.0928C116.716 17.0925 116.668 17.0824 116.623 17.0631C116.577 17.0437 116.536 17.0155 116.502 16.9801L111.612 11.9977H98.4223C97.2203 11.9977 96.2422 10.8897 96.2422 9.52784V3.78835C96.2422 2.42649 97.2203 1.31848 98.4223 1.31848H117.055C118.256 1.31848 119.234 2.42649 119.234 3.78835V9.52784C119.234 10.8897 118.256 11.9977 117.055 11.9977H116.195L117.141 16.6419V16.6557C117.15 16.7376 117.133 16.8202 117.093 16.8922C117.053 16.9642 116.992 17.0221 116.918 17.058C116.87 17.0806 116.818 17.0924 116.766 17.0928ZM98.4223 1.83304C97.5034 1.83304 96.7562 2.71023 96.7562 3.78835V9.52784C96.7562 10.606 97.5034 11.4831 98.4223 11.4831H111.826L116.546 16.2911L115.568 11.4831H117.056C117.975 11.4831 118.722 10.606 118.722 9.52784V3.78835C118.722 2.71023 117.975 1.83304 117.056 1.83304H98.4223Z" fill="#2E2E2E"/>
<path id="Vector_102" d="M115.731 5.12561H99.4531V5.64016H115.731V5.12561Z" fill="#2E2E2E"/>
<path id="Vector_103" d="M115.728 7.64551H107.977V8.16006H115.728V7.64551Z" fill="#2E2E2E"/>
<path id="Vector_104" d="M106.191 7.64551H99.4531V8.16006H106.191V7.64551Z" fill="#2E2E2E"/>
</g>
<g id="line">
<path id="Vector_105" d="M173.333 123.632H5.30362C5.23553 123.632 5.17022 123.605 5.12207 123.557C5.07392 123.508 5.04688 123.443 5.04688 123.375C5.04688 123.306 5.07392 123.241 5.12207 123.193C5.17022 123.145 5.23553 123.117 5.30362 123.117H173.333C173.401 123.117 173.466 123.145 173.514 123.193C173.562 123.241 173.589 123.306 173.589 123.375C173.589 123.443 173.562 123.508 173.514 123.557C173.466 123.605 173.401 123.632 173.333 123.632Z" fill="#2E2E2E"/>
</g>
</g>
</g>
</svg>
