<svg width="70" height="71" viewBox="0 0 70 71" fill="none" xmlns="http://www.w3.org/2000/svg">
<rect width="70" height="71" rx="10" fill="#FFE0BA"/>
<path d="M50.8125 18.625C49.6562 18.6264 48.5391 19.0535 47.6655 19.8282C46.7919 20.6029 46.2202 21.6733 46.055 22.8438H37.75V24.25H46V51.6719C46 51.8584 46.0724 52.0372 46.2014 52.1691C46.3303 52.3009 46.5052 52.375 46.6875 52.375C46.8698 52.375 47.0447 52.3009 47.1736 52.1691C47.3026 52.0372 47.375 51.8584 47.375 51.6719C47.375 50.7395 47.7372 49.8453 48.3818 49.186C49.0265 48.5266 49.9008 48.1562 50.8125 48.1562C51.7242 48.1562 52.5985 48.5266 53.2432 49.186C53.8878 49.8453 54.25 50.7395 54.25 51.6719V51.8195C54.2482 52.7122 53.9006 53.5678 53.2835 54.199C52.6663 54.8302 51.8297 55.1856 50.9569 55.1875H15.75V40.6448C17.3128 43.7454 19.6778 46.3478 22.5874 48.1683C25.4969 49.9887 28.8392 50.9574 32.25 50.9688C32.4323 50.9688 32.6072 50.8947 32.7361 50.7628C32.8651 50.6309 32.9375 50.4521 32.9375 50.2656C32.9375 50.0791 32.8651 49.9003 32.7361 49.7684C32.6072 49.6366 32.4323 49.5625 32.25 49.5625C29.67 49.5574 27.1246 48.9545 24.8051 47.7991L25.232 46.1706C25.6571 46.1436 26.0629 45.9793 26.3908 45.7013C26.7187 45.4233 26.9519 45.046 27.0566 44.6238L29.3199 35.9922C29.8338 36.0894 30.3532 36.153 30.875 36.1827V36.9062C30.875 37.0927 30.9474 37.2716 31.0764 37.4034C31.2053 37.5353 31.3802 37.6094 31.5625 37.6094C31.7448 37.6094 31.9197 37.5353 32.0486 37.4034C32.1776 37.2716 32.25 37.0927 32.25 36.9062V36.1827C32.7718 36.1535 33.2912 36.0903 33.8051 35.9936L36.0677 44.6216C36.1721 45.0442 36.4052 45.4218 36.7334 45.6999C37.0615 45.978 37.4676 46.1421 37.893 46.1685L38.4609 48.337C38.4998 48.4867 38.586 48.6191 38.7061 48.7136C38.8262 48.8081 38.9735 48.8593 39.125 48.8594C39.1851 48.8593 39.245 48.8513 39.3031 48.8355C39.3903 48.8116 39.472 48.7703 39.5437 48.7141C39.6153 48.6579 39.6754 48.5878 39.7205 48.5078C39.7657 48.4278 39.795 48.3395 39.8067 48.2479C39.8185 48.1564 39.8125 48.0633 39.7891 47.9741L39.2219 45.8106C39.5708 45.564 39.837 45.2136 39.9846 44.8069C40.1322 44.4003 40.1539 43.9571 40.0469 43.5374L35.5356 26.3193C36.2518 25.2497 36.5251 23.9337 36.296 22.6586C36.0668 21.3836 35.3538 20.253 34.3125 19.5138V17.2188C34.3125 16.4728 34.0228 15.7575 33.507 15.23C32.9913 14.7026 32.2918 14.4062 31.5625 14.4062C30.8332 14.4062 30.1337 14.7026 29.618 15.23C29.1022 15.7575 28.8125 16.4728 28.8125 17.2188V19.5138C27.7712 20.253 27.0582 21.3836 26.829 22.6586C26.5999 23.9337 26.8732 25.2497 27.5894 26.3193L23.0739 43.5402C22.9673 43.9598 22.9897 44.4028 23.1381 44.809C23.2864 45.2151 23.5536 45.5646 23.9031 45.8099L23.5593 47.1177C19.774 44.8527 16.9798 41.1919 15.75 36.8866V24.25H25.375V22.8438H14.375V56.5938H50.9569C52.1949 56.5919 53.3816 56.0879 54.2567 55.1924C55.1318 54.2968 55.6239 53.0828 55.625 51.8167V23.5469C55.6235 22.242 55.116 20.9909 54.2138 20.0682C53.3116 19.1455 52.0884 18.6265 50.8125 18.625ZM32.25 34.7547V34.0938C32.25 33.9073 32.1776 33.7284 32.0486 33.5966C31.9197 33.4647 31.7448 33.3906 31.5625 33.3906C31.3802 33.3906 31.2053 33.4647 31.0764 33.5966C30.9474 33.7284 30.875 33.9073 30.875 34.0938V34.7547C30.4752 34.7302 30.077 34.6832 29.6822 34.6141L31.2964 28.4561C31.3851 28.461 31.4724 28.4702 31.5625 28.4702C31.6526 28.4702 31.7399 28.461 31.8286 28.4561L33.4428 34.6141C33.048 34.6832 32.6498 34.7302 32.25 34.7547ZM38.7214 43.8988C38.7672 44.0782 38.7424 44.2688 38.6525 44.4298C38.5625 44.5908 38.4145 44.7094 38.2402 44.7602H38.2361C38.0607 44.8077 37.8742 44.7824 37.717 44.6898C37.6392 44.6436 37.5713 44.582 37.5171 44.5086C37.4629 44.4352 37.4236 44.3515 37.4014 44.2623L33.1788 28.177C33.6234 28.0141 34.042 27.785 34.4211 27.497L38.7214 43.8988ZM30.1875 17.2188C30.1875 16.8458 30.3324 16.4881 30.5902 16.2244C30.8481 15.9607 31.1978 15.8125 31.5625 15.8125C31.9272 15.8125 32.2769 15.9607 32.5348 16.2244C32.7926 16.4881 32.9375 16.8458 32.9375 17.2188V18.8359C32.0408 18.5594 31.0842 18.5594 30.1875 18.8359V17.2188ZM31.5625 20.0312C32.2424 20.0312 32.907 20.2374 33.4723 20.6237C34.0376 21.01 34.4782 21.5591 34.7383 22.2015C34.9985 22.8439 35.0666 23.5508 34.934 24.2327C34.8013 24.9147 34.4739 25.5411 33.9932 26.0328C33.5124 26.5245 32.8999 26.8593 32.2331 26.9949C31.5663 27.1306 30.8751 27.061 30.247 26.7949C29.6189 26.5288 29.082 26.0782 28.7043 25.5001C28.3266 24.9219 28.125 24.2422 28.125 23.5469C28.1261 22.6148 28.4886 21.7213 29.133 21.0622C29.7774 20.4031 30.6512 20.0324 31.5625 20.0312ZM24.4029 43.9016L28.7039 27.497C29.083 27.785 29.5016 28.0141 29.9462 28.177L25.7277 44.2659C25.6805 44.4438 25.5669 44.5957 25.4113 44.6888C25.2557 44.7819 25.0706 44.8088 24.8958 44.7637H24.8896C24.7141 44.7141 24.5647 44.5959 24.4736 44.4346C24.3825 44.2733 24.3571 44.0819 24.4029 43.9016ZM54.25 48.2301C53.8023 47.7616 53.2677 47.3893 52.6773 47.1352C52.087 46.881 51.453 46.7501 50.8125 46.7501C50.172 46.7501 49.538 46.881 48.9477 47.1352C48.3573 47.3893 47.8227 47.7616 47.375 48.2301V23.5469C47.375 22.6145 47.7372 21.7203 48.3818 21.061C49.0265 20.4016 49.9008 20.0312 50.8125 20.0312C51.7242 20.0312 52.5985 20.4016 53.2432 21.061C53.8878 21.7203 54.25 22.6145 54.25 23.5469V48.2301Z" fill="black"/>
<path d="M31.5625 25.6563C31.9704 25.6563 32.3692 25.5325 32.7084 25.3008C33.0475 25.069 33.3119 24.7395 33.468 24.3541C33.6241 23.9687 33.665 23.5445 33.5854 23.1354C33.5058 22.7262 33.3094 22.3503 33.0209 22.0553C32.7325 21.7603 32.365 21.5594 31.9649 21.478C31.5648 21.3966 31.1501 21.4384 30.7732 21.5981C30.3963 21.7577 30.0742 22.0281 29.8476 22.375C29.621 22.7219 29.5 23.1297 29.5 23.5469C29.5 24.1063 29.7173 24.6428 30.1041 25.0384C30.4909 25.434 31.0155 25.6563 31.5625 25.6563ZM31.5625 22.8438C31.6985 22.8438 31.8314 22.885 31.9445 22.9622C32.0575 23.0395 32.1456 23.1493 32.1977 23.2778C32.2497 23.4063 32.2633 23.5477 32.2368 23.684C32.2103 23.8204 32.1448 23.9457 32.0486 24.0441C31.9525 24.1424 31.83 24.2094 31.6966 24.2365C31.5633 24.2636 31.425 24.2497 31.2994 24.1965C31.1738 24.1433 31.0664 24.0531 30.9909 23.9375C30.9153 23.8219 30.875 23.6859 30.875 23.5469C30.875 23.3604 30.9474 23.1816 31.0764 23.0497C31.2053 22.9178 31.3802 22.8438 31.5625 22.8438Z" fill="black"/>
</svg>
