<svg width="19" height="19" viewBox="0 0 19 19" fill="none" xmlns="http://www.w3.org/2000/svg">
<circle cx="9.5" cy="9.5" r="8.5" stroke="#1976D2"/>
<g clip-path="url(#clip0_3679_11406)">
<path d="M10.2741 14.7652C10.2742 14.765 10.2744 14.7649 10.2745 14.7648L12.6511 12.3767C12.8291 12.1978 12.8285 11.9084 12.6495 11.7303C12.4706 11.5523 12.1813 11.553 12.0032 11.7319L10.4076 13.3352V3.65625C10.4076 3.40383 10.203 3.19922 9.95059 3.19922C9.69817 3.19922 9.49356 3.40383 9.49356 3.65625V13.3352L7.89797 11.7319C7.71991 11.553 7.43054 11.5523 7.25163 11.7303C7.07268 11.9084 7.07207 12.1978 7.25008 12.3767L9.62664 14.7648C9.62678 14.7649 9.62694 14.765 9.62708 14.7652C9.80573 14.9442 10.096 14.9436 10.2741 14.7652Z" fill="#1976D2"/>
</g>
<defs>
<clipPath id="clip0_3679_11406">
<rect width="11.7" height="11.7" fill="white" transform="matrix(0 1 -1 0 15.8008 3.19922)"/>
</clipPath>
</defs>
</svg>
