<svg width="70" height="71" viewBox="0 0 70 71" fill="none" xmlns="http://www.w3.org/2000/svg">
<rect width="70" height="71" rx="10" fill="#E1E3FF"/>
<g clip-path="url(#clip0_3333_2423)">
<path d="M53.2188 35.2363H39.8984C39.7617 35.2363 39.6305 35.2919 39.5338 35.3908C39.4371 35.4897 39.3828 35.6238 39.3828 35.7637V38.8398C39.3828 38.9797 39.4371 39.1138 39.5338 39.2127C39.6305 39.3116 39.7617 39.3672 39.8984 39.3672H53.2188C53.3555 39.3672 53.4867 39.3116 53.5834 39.2127C53.6801 39.1138 53.7344 38.9797 53.7344 38.8398V35.7637C53.7344 35.6238 53.6801 35.4897 53.5834 35.3908C53.4867 35.2919 53.3555 35.2363 53.2188 35.2363ZM52.6172 38.3125H40.4141V36.291H52.6172V38.3125Z" fill="black"/>
<path d="M41.6656 55.3985C42.0736 55.3985 42.4724 55.2748 42.8117 55.0429C43.151 54.8111 43.4154 54.4816 43.5715 54.096C43.7277 53.7105 43.7685 53.2862 43.6889 52.877C43.6093 52.4677 43.4128 52.0917 43.1243 51.7967C42.8358 51.5016 42.4682 51.3006 42.068 51.2192C41.6678 51.1378 41.253 51.1796 40.876 51.3393C40.499 51.4991 40.1769 51.7695 39.9502 52.1165C39.7235 52.4635 39.6025 52.8714 39.6025 53.2887C39.6032 53.8481 39.8207 54.3843 40.2075 54.7799C40.5942 55.1754 41.1186 55.3979 41.6656 55.3985ZM41.6656 52.2335C41.8696 52.2335 42.0691 52.2954 42.2388 52.4113C42.4084 52.5273 42.5407 52.6921 42.6188 52.8849C42.6969 53.0777 42.7173 53.2899 42.6775 53.4946C42.6377 53.6993 42.5394 53.8873 42.3951 54.0349C42.2508 54.1824 42.067 54.2829 41.8668 54.3236C41.6667 54.3644 41.4592 54.3435 41.2707 54.2636C41.0822 54.1837 40.921 54.0485 40.8077 53.8749C40.6943 53.7014 40.6338 53.4974 40.6338 53.2887C40.634 53.0089 40.7428 52.7406 40.9363 52.5428C41.1297 52.3449 41.392 52.2336 41.6656 52.2333V52.2335Z" fill="black"/>
<path d="M46.5601 55.3985C46.9681 55.3985 47.367 55.2748 47.7062 55.0429C48.0455 54.8111 48.3099 54.4816 48.4661 54.096C48.6222 53.7105 48.6631 53.2862 48.5835 52.877C48.5038 52.4677 48.3074 52.0917 48.0188 51.7967C47.7303 51.5016 47.3627 51.3006 46.9625 51.2192C46.5623 51.1378 46.1475 51.1796 45.7705 51.3393C45.3936 51.4991 45.0714 51.7695 44.8447 52.1165C44.618 52.4635 44.4971 52.8714 44.4971 53.2887C44.4977 53.8481 44.7153 54.3843 45.102 54.7799C45.4888 55.1754 46.0131 55.3979 46.5601 55.3985ZM46.5601 52.2335C46.7642 52.2335 46.9636 52.2954 47.1333 52.4113C47.303 52.5273 47.4352 52.6921 47.5133 52.8849C47.5914 53.0777 47.6118 53.2899 47.572 53.4946C47.5322 53.6993 47.434 53.8873 47.2897 54.0349C47.1454 54.1824 46.9615 54.2829 46.7614 54.3236C46.5612 54.3644 46.3538 54.3435 46.1652 54.2636C45.9767 54.1837 45.8156 54.0485 45.7022 53.8749C45.5888 53.7014 45.5283 53.4974 45.5283 53.2887C45.5286 53.0089 45.6374 52.7406 45.8308 52.5428C46.0242 52.3449 46.2865 52.2336 46.5601 52.2333V52.2335Z" fill="black"/>
<path d="M51.4536 55.3985C51.8617 55.3985 52.2605 55.2748 52.5998 55.0429C52.9391 54.8111 53.2035 54.4816 53.3596 54.096C53.5158 53.7105 53.5566 53.2862 53.477 52.877C53.3974 52.4677 53.2009 52.0917 52.9124 51.7967C52.6239 51.5016 52.2563 51.3006 51.8561 51.2192C51.4559 51.1378 51.0411 51.1796 50.6641 51.3393C50.2871 51.4991 49.9649 51.7695 49.7383 52.1165C49.5116 52.4635 49.3906 52.8714 49.3906 53.2887C49.3913 53.8481 49.6088 54.3843 49.9956 54.7799C50.3823 55.1754 50.9067 55.3979 51.4536 55.3985ZM51.4536 52.2335C51.6577 52.2335 51.8572 52.2954 52.0269 52.4113C52.1965 52.5273 52.3288 52.6921 52.4069 52.8849C52.485 53.0777 52.5054 53.2899 52.4656 53.4946C52.4258 53.6993 52.3275 53.8873 52.1832 54.0349C52.0389 54.1824 51.8551 54.2829 51.6549 54.3236C51.4548 54.3644 51.2473 54.3435 51.0588 54.2636C50.8703 54.1837 50.7091 54.0485 50.5958 53.8749C50.4824 53.7014 50.4219 53.4974 50.4219 53.2887C50.4221 53.0089 50.5309 52.7406 50.7243 52.5427C50.9178 52.3449 51.1801 52.2336 51.4536 52.2333V52.2335Z" fill="black"/>
<path d="M41.6656 50.7425C42.0736 50.7425 42.4724 50.6188 42.8117 50.3869C43.151 50.1551 43.4154 49.8256 43.5715 49.44C43.7277 49.0545 43.7685 48.6303 43.6889 48.221C43.6093 47.8117 43.4128 47.4358 43.1243 47.1407C42.8358 46.8456 42.4682 46.6447 42.068 46.5632C41.6678 46.4818 41.253 46.5236 40.8761 46.6833C40.4991 46.843 40.1769 47.1134 39.9502 47.4604C39.7235 47.8074 39.6025 48.2153 39.6025 48.6326C39.6032 49.192 39.8207 49.7283 40.2075 50.1238C40.5942 50.5194 41.1186 50.7419 41.6656 50.7425ZM41.6656 47.5775C41.8696 47.5775 42.0691 47.6394 42.2388 47.7554C42.4085 47.8713 42.5408 48.0362 42.6188 48.229C42.6969 48.4219 42.7173 48.634 42.6775 48.8388C42.6376 49.0435 42.5393 49.2315 42.3949 49.379C42.2506 49.5266 42.0667 49.627 41.8665 49.6677C41.6663 49.7084 41.4589 49.6874 41.2704 49.6074C41.0818 49.5275 40.9207 49.3922 40.8074 49.2186C40.6941 49.045 40.6337 48.8409 40.6338 48.6322C40.6342 48.3525 40.7431 48.0844 40.9365 47.8867C41.1299 47.689 41.3921 47.5778 41.6656 47.5775Z" fill="black"/>
<path d="M46.5601 50.7425C46.9681 50.7425 47.367 50.6188 47.7062 50.3869C48.0455 50.1551 48.3099 49.8256 48.4661 49.44C48.6222 49.0545 48.6631 48.6303 48.5835 48.221C48.5039 47.8117 48.3074 47.4358 48.0189 47.1407C47.7303 46.8456 47.3627 46.6447 46.9626 46.5632C46.5624 46.4818 46.1476 46.5236 45.7706 46.6833C45.3936 46.843 45.0714 47.1134 44.8448 47.4604C44.6181 47.8074 44.4971 48.2153 44.4971 48.6326C44.4977 49.192 44.7152 49.7283 45.102 50.1238C45.4887 50.5194 46.0131 50.7419 46.5601 50.7425ZM46.5601 47.5775C46.7642 47.5775 46.9637 47.6394 47.1334 47.7554C47.303 47.8713 47.4353 48.0362 47.5134 48.229C47.5914 48.4219 47.6118 48.634 47.572 48.8388C47.5321 49.0435 47.4338 49.2315 47.2895 49.379C47.1451 49.5266 46.9612 49.627 46.7611 49.6677C46.5609 49.7084 46.3534 49.6874 46.1649 49.6074C45.9764 49.5275 45.8153 49.3922 45.702 49.2186C45.5886 49.045 45.5282 48.8409 45.5283 48.6322C45.5288 48.3525 45.6376 48.0844 45.831 47.8867C46.0244 47.689 46.2866 47.5778 46.5601 47.5775Z" fill="black"/>
<path d="M51.4536 50.7425C51.8617 50.7425 52.2605 50.6188 52.5998 50.3869C52.9391 50.1551 53.2035 49.8256 53.3596 49.44C53.5158 49.0545 53.5566 48.6303 53.477 48.221C53.3974 47.8117 53.2009 47.4358 52.9124 47.1407C52.6239 46.8456 52.2563 46.6447 51.8561 46.5632C51.4559 46.4818 51.0411 46.5236 50.6642 46.6833C50.2872 46.843 49.965 47.1134 49.7383 47.4604C49.5116 47.8074 49.3906 48.2153 49.3906 48.6326C49.3912 49.192 49.6088 49.7283 49.9955 50.1238C50.3823 50.5194 50.9067 50.7419 51.4536 50.7425ZM51.4536 47.5775C51.6577 47.5775 51.8572 47.6394 52.0269 47.7554C52.1966 47.8713 52.3288 48.0362 52.4069 48.229C52.485 48.4219 52.5054 48.634 52.4655 48.8388C52.4257 49.0435 52.3274 49.2315 52.183 49.379C52.0387 49.5266 51.8548 49.627 51.6546 49.6677C51.4544 49.7084 51.247 49.6874 51.0584 49.6074C50.8699 49.5275 50.7088 49.3922 50.5955 49.2186C50.4822 49.045 50.4218 48.8409 50.4219 48.6322C50.4223 48.3525 50.5311 48.0844 50.7246 47.8867C50.918 47.689 51.1802 47.5778 51.4536 47.5775Z" fill="black"/>
<path d="M41.6656 46.0867C42.0736 46.0867 42.4724 45.963 42.8117 45.7312C43.151 45.4993 43.4154 45.1698 43.5715 44.7843C43.7277 44.3987 43.7685 43.9745 43.6889 43.5652C43.6093 43.1559 43.4128 42.78 43.1243 42.4849C42.8358 42.1898 42.4682 41.9889 42.068 41.9075C41.6678 41.8261 41.253 41.8679 40.8761 42.0275C40.4991 42.1872 40.1769 42.4577 39.9502 42.8046C39.7235 43.1516 39.6025 43.5595 39.6025 43.9768C39.6032 44.5362 39.8207 45.0725 40.2075 45.4681C40.5942 45.8636 41.1186 46.0861 41.6656 46.0867ZM41.6656 42.9216C41.8696 42.9216 42.0691 42.9835 42.2388 43.0995C42.4084 43.2154 42.5407 43.3802 42.6188 43.573C42.6969 43.7658 42.7173 43.978 42.6775 44.1827C42.6377 44.3874 42.5394 44.5754 42.3951 44.723C42.2508 44.8706 42.067 44.9711 41.8668 45.0118C41.6667 45.0525 41.4592 45.0316 41.2707 44.9517C41.0822 44.8719 40.921 44.7366 40.8077 44.5631C40.6943 44.3896 40.6338 44.1855 40.6338 43.9768C40.6341 43.6971 40.7429 43.4289 40.9363 43.2311C41.1298 43.0332 41.392 42.922 41.6656 42.9216Z" fill="black"/>
<path d="M46.5601 46.0867C46.9681 46.0867 47.367 45.963 47.7062 45.7312C48.0455 45.4993 48.3099 45.1698 48.4661 44.7843C48.6222 44.3987 48.6631 43.9745 48.5835 43.5652C48.5039 43.1559 48.3074 42.78 48.0189 42.4849C47.7303 42.1898 47.3627 41.9889 46.9626 41.9075C46.5624 41.8261 46.1476 41.8679 45.7706 42.0275C45.3936 42.1872 45.0714 42.4577 44.8448 42.8046C44.6181 43.1516 44.4971 43.5595 44.4971 43.9768C44.4977 44.5362 44.7152 45.0725 45.102 45.4681C45.4887 45.8636 46.0131 46.0861 46.5601 46.0867ZM46.5601 42.9216C46.7642 42.9216 46.9636 42.9835 47.1333 43.0995C47.303 43.2154 47.4352 43.3802 47.5133 43.573C47.5914 43.7658 47.6118 43.978 47.572 44.1827C47.5322 44.3874 47.434 44.5754 47.2897 44.723C47.1454 44.8706 46.9615 44.9711 46.7614 45.0118C46.5612 45.0525 46.3538 45.0316 46.1652 44.9517C45.9767 44.8719 45.8156 44.7366 45.7022 44.5631C45.5888 44.3896 45.5283 44.1855 45.5283 43.9768C45.5286 43.6971 45.6374 43.4289 45.8309 43.2311C46.0243 43.0332 46.2865 42.922 46.5601 42.9216Z" fill="black"/>
<path d="M51.4536 46.0867C51.8617 46.0867 52.2605 45.963 52.5998 45.7312C52.9391 45.4993 53.2035 45.1698 53.3596 44.7843C53.5158 44.3987 53.5566 43.9745 53.477 43.5652C53.3974 43.1559 53.2009 42.78 52.9124 42.4849C52.6239 42.1898 52.2563 41.9889 51.8561 41.9075C51.4559 41.8261 51.0411 41.8679 50.6642 42.0275C50.2872 42.1872 49.965 42.4577 49.7383 42.8046C49.5116 43.1516 49.3906 43.5595 49.3906 43.9768C49.3912 44.5362 49.6088 45.0725 49.9955 45.4681C50.3823 45.8636 50.9067 46.0861 51.4536 46.0867ZM51.4536 42.9216C51.6577 42.9216 51.8572 42.9835 52.0269 43.0995C52.1965 43.2154 52.3288 43.3802 52.4069 43.573C52.485 43.7658 52.5054 43.978 52.4656 44.1827C52.4258 44.3874 52.3275 44.5754 52.1832 44.723C52.0389 44.8706 51.8551 44.9711 51.6549 45.0118C51.4548 45.0525 51.2473 45.0316 51.0588 44.9517C50.8703 44.8719 50.7091 44.7366 50.5958 44.5631C50.4824 44.3896 50.4219 44.1855 50.4219 43.9768C50.4222 43.6971 50.531 43.4289 50.7244 43.231C50.9178 43.0332 51.1801 42.9219 51.4536 42.9216Z" fill="black"/>
<path d="M32.082 40.1582H26.7109C26.5742 40.1582 26.443 40.2138 26.3463 40.3127C26.2496 40.4116 26.1953 40.5457 26.1953 40.6855C26.1953 40.8254 26.2496 40.9595 26.3463 41.0584C26.443 41.1573 26.5742 41.2129 26.7109 41.2129H32.082C32.2188 41.2129 32.3499 41.1573 32.4466 41.0584C32.5433 40.9595 32.5977 40.8254 32.5977 40.6855C32.5977 40.5457 32.5433 40.4116 32.4466 40.3127C32.3499 40.2138 32.2188 40.1582 32.082 40.1582Z" fill="black"/>
<path d="M24.2568 41.2129H24.7811C24.9178 41.2129 25.049 41.1573 25.1457 41.0584C25.2424 40.9595 25.2967 40.8254 25.2967 40.6855C25.2967 40.5457 25.2424 40.4116 25.1457 40.3127C25.049 40.2138 24.9178 40.1582 24.7811 40.1582H24.2568C24.1201 40.1582 23.9889 40.2138 23.8922 40.3127C23.7955 40.4116 23.7412 40.5457 23.7412 40.6855C23.7412 40.8254 23.7955 40.9595 23.8922 41.0584C23.9889 41.1573 24.1201 41.2129 24.2568 41.2129Z" fill="black"/>
<path d="M31.3175 44.6406H28.5127C28.3759 44.6406 28.2448 44.6962 28.1481 44.7951C28.0514 44.894 27.9971 45.0281 27.9971 45.168C27.9971 45.3078 28.0514 45.442 28.1481 45.5409C28.2448 45.6398 28.3759 45.6953 28.5127 45.6953H31.3175C31.4543 45.6953 31.5854 45.6398 31.6821 45.5409C31.7788 45.442 31.8331 45.3078 31.8331 45.168C31.8331 45.0281 31.7788 44.894 31.6821 44.7951C31.5854 44.6962 31.4543 44.6406 31.3175 44.6406Z" fill="black"/>
<path d="M26.4982 44.6406H24.2568C24.1201 44.6406 23.9889 44.6962 23.8922 44.7951C23.7955 44.894 23.7412 45.0281 23.7412 45.168C23.7412 45.3078 23.7955 45.442 23.8922 45.5409C23.9889 45.6398 24.1201 45.6953 24.2568 45.6953H26.4982C26.6349 45.6953 26.7661 45.6398 26.8628 45.5409C26.9595 45.442 27.0138 45.3078 27.0138 45.168C27.0138 45.0281 26.9595 44.894 26.8628 44.7951C26.7661 44.6962 26.6349 44.6406 26.4982 44.6406Z" fill="black"/>
<path d="M22.1953 17.1138C22.0586 17.1138 21.9274 17.1693 21.8307 17.2682C21.734 17.3671 21.6797 17.5013 21.6797 17.6411V17.8532C21.6797 17.9931 21.734 18.1272 21.8307 18.2261C21.9274 18.325 22.0586 18.3805 22.1953 18.3805C22.3321 18.3805 22.4632 18.325 22.5599 18.2261C22.6566 18.1272 22.7109 17.9931 22.7109 17.8532V17.6411C22.7109 17.5013 22.6566 17.3671 22.5599 17.2682C22.4632 17.1693 22.3321 17.1138 22.1953 17.1138Z" fill="black"/>
<path d="M22.1953 19.3853C22.0586 19.3853 21.9274 19.4408 21.8307 19.5397C21.734 19.6386 21.6797 19.7727 21.6797 19.9126V26.898C21.6797 27.0378 21.734 27.172 21.8307 27.2709C21.9274 27.3698 22.0586 27.4253 22.1953 27.4253C22.3321 27.4253 22.4632 27.3698 22.5599 27.2709C22.6566 27.172 22.7109 27.0378 22.7109 26.898V19.9126C22.7109 19.7727 22.6566 19.6386 22.5599 19.5397C22.4632 19.4408 22.3321 19.3853 22.1953 19.3853Z" fill="black"/>
<path d="M32.8176 18.7C31.3127 18.7 29.8417 19.1563 28.5905 20.0114C27.3392 20.8664 26.364 22.0817 25.7882 23.5036C25.2123 24.9255 25.0616 26.4901 25.3552 27.9995C25.6488 29.509 26.3734 30.8955 27.4375 31.9838C28.5016 33.072 29.8573 33.8132 31.3332 34.1134C32.8091 34.4137 34.3389 34.2596 35.7292 33.6706C37.1195 33.0816 38.3078 32.0843 39.1438 30.8046C39.9799 29.5249 40.4261 28.0205 40.4261 26.4814C40.4238 24.4184 39.6215 22.4405 38.1951 20.9817C36.7687 19.5229 34.8348 18.7023 32.8176 18.7ZM39.3832 26.0956H33.924L37.8154 22.1157C38.7508 23.2305 39.3016 24.629 39.3832 26.0956ZM32.8176 19.7546C34.3835 19.7536 35.898 20.3268 37.0862 21.37L32.82 25.7331L29.4626 20.6991C30.4769 20.08 31.6363 19.7536 32.8176 19.7546ZM32.8176 33.2081C31.4646 33.2088 30.1444 32.7826 29.0371 31.9876C27.9297 31.1926 27.0892 30.0675 26.6301 28.7659C26.1711 27.4643 26.1158 26.0495 26.472 24.7146C26.8281 23.3797 27.5783 22.1897 28.6201 21.307L32.3633 26.9201C32.4106 26.991 32.4741 27.0491 32.5484 27.0892C32.6226 27.1293 32.7053 27.1503 32.7893 27.1503H39.3622C39.198 28.8095 38.4379 30.3474 37.229 31.4664C36.02 32.5855 34.4481 33.2061 32.8176 33.2081Z" fill="black"/>
<path d="M53.443 33.0391H46.5156V21.6782C46.5182 21.2929 46.3724 20.9221 46.1097 20.6459L39.6625 13.8854C39.5284 13.7448 39.3682 13.6329 39.1913 13.5563C39.0144 13.4798 38.8244 13.44 38.6323 13.4395H20.5979C20.4101 13.4406 20.2244 13.4799 20.0515 13.5549C19.8787 13.63 19.7221 13.7395 19.5909 13.8769C19.4597 14.0143 19.3565 14.1771 19.2873 14.3556C19.218 14.5341 19.1841 14.7249 19.1875 14.917V16.3398H17.8158C17.6257 16.3358 17.4367 16.3703 17.2597 16.4414C17.0827 16.5125 16.9212 16.6187 16.7845 16.7539C16.6491 16.8864 16.541 17.0453 16.4667 17.2213C16.3923 17.3972 16.3532 17.5866 16.3516 17.7783V18.625H15.3117C15.1224 18.6213 14.9342 18.6562 14.7581 18.7276C14.5821 18.799 14.4216 18.9056 14.2862 19.041C14.1516 19.1742 14.0445 19.3336 13.9712 19.5099C13.8978 19.6861 13.8598 19.8756 13.8594 20.0672V55.0984C13.8608 55.493 14.014 55.8712 14.2861 56.151C14.5581 56.4309 14.9269 56.59 15.3128 56.5938H37.4914C37.7362 56.8965 38.0435 57.1402 38.3911 57.3073C38.7387 57.4744 39.1182 57.5609 39.5023 57.5605H53.443C54.1356 57.5605 54.7999 57.2791 55.2897 56.7782C55.7795 56.2773 56.0547 55.5979 56.0547 54.8895V35.7101C56.0547 35.0017 55.7795 34.3224 55.2897 33.8214C54.7999 33.3205 54.1356 33.0391 53.443 33.0391ZM39.3828 15.1014L44.8049 20.8223H41.9932C41.6488 20.8195 41.3084 20.7471 40.9915 20.6092C40.6746 20.4713 40.3875 20.2707 40.1467 20.0189C39.6552 19.511 39.3805 18.8245 39.3828 18.1099V15.1014ZM17.3828 17.7776C17.3848 17.7244 17.3975 17.6722 17.4202 17.6242C17.4428 17.5763 17.4749 17.5336 17.5144 17.4989C17.5978 17.4247 17.7064 17.3872 17.8167 17.3945H19.1875V50.0434C19.1843 50.2343 19.2185 50.424 19.2882 50.6011C19.3579 50.7782 19.4616 50.9392 19.5932 51.0747C19.7248 51.2101 19.8816 51.3172 20.0543 51.3896C20.2271 51.4619 20.4123 51.4982 20.5989 51.4961H36.8906V53.166H17.8171C17.7024 53.16 17.5942 53.1102 17.5137 53.0264C17.4333 52.9427 17.3866 52.8311 17.3828 52.7137V17.7776ZM15.313 55.5391C15.201 55.536 15.0946 55.4884 15.0164 55.4063C14.937 55.3241 14.8919 55.2136 14.8906 55.0981V20.0664C14.8915 20.0133 14.9031 19.9609 14.9247 19.9126C14.9463 19.8643 14.9775 19.8211 15.0162 19.7857C15.0563 19.7488 15.1031 19.7204 15.154 19.7022C15.205 19.684 15.2589 19.6764 15.3128 19.6797H16.3516V52.7139C16.3557 53.1108 16.5111 53.4904 16.7847 53.7718C17.0584 54.0532 17.4287 54.2143 17.8167 54.2207H36.8906V54.8895C36.8906 55.1085 36.9168 55.3266 36.9688 55.5391H15.313ZM36.8906 35.7101V40.4003C36.844 40.326 36.7799 40.265 36.7042 40.2227C36.6285 40.1804 36.5437 40.1582 36.4574 40.1582H34.5279C34.3912 40.1582 34.26 40.2138 34.1633 40.3127C34.0666 40.4116 34.0123 40.5457 34.0123 40.6855C34.0123 40.8254 34.0666 40.9595 34.1633 41.0584C34.26 41.1573 34.3912 41.2129 34.5279 41.2129H36.4574C36.5437 41.2129 36.6285 41.1907 36.7042 41.1484C36.7799 41.1061 36.844 41.0451 36.8906 40.9708V44.6406H33.2998C33.1631 44.6406 33.0319 44.6962 32.9352 44.7951C32.8385 44.894 32.7842 45.0281 32.7842 45.168C32.7842 45.3078 32.8385 45.442 32.9352 45.5409C33.0319 45.6398 33.1631 45.6953 33.2998 45.6953H36.8906V50.4414H20.5992C20.5482 50.4437 20.4972 50.435 20.4497 50.4158C20.4022 50.3966 20.3592 50.3674 20.3235 50.33C20.2875 50.2924 20.2595 50.2474 20.2415 50.198C20.2234 50.1486 20.2157 50.0959 20.2188 50.0433V14.916C20.2153 14.8625 20.2226 14.8088 20.24 14.7582C20.2575 14.7076 20.2849 14.6612 20.3204 14.6217C20.356 14.5823 20.399 14.5506 20.4469 14.5287C20.4947 14.5068 20.5465 14.495 20.5989 14.4941H38.3516V18.1096C38.3496 19.1019 38.7312 20.0547 39.4133 20.7604C40.0953 21.4661 41.0225 21.8674 41.9926 21.877H45.4844V33.0391H39.5023C38.8097 33.0391 38.1454 33.3205 37.6556 33.8214C37.1658 34.3224 36.8906 35.0017 36.8906 35.7101ZM55.1094 54.8895C55.1066 55.3191 54.9377 55.7302 54.6397 56.033C54.3417 56.3358 53.9387 56.5058 53.5186 56.5059H39.5439C38.6724 56.5059 37.9219 55.7808 37.9219 54.8895V41.2129H55.1094V54.8895ZM55.1094 40.1582H37.9219V35.712C37.9219 34.8207 38.6724 34.0938 39.5439 34.0938H53.5186C53.9389 34.0943 54.3419 34.2646 54.6399 34.5678C54.9379 34.8709 55.1066 35.2822 55.1094 35.712V40.1582Z" fill="black"/>
</g>
<defs>
<clipPath id="clip0_3333_2423">
<rect width="44" height="45" fill="white" transform="translate(13 13)"/>
</clipPath>
</defs>
</svg>
