<svg width="21" height="21" viewBox="0 0 21 21" fill="none" xmlns="http://www.w3.org/2000/svg">
<path d="M6.5625 2.1875C6.5625 1.70425 6.17075 1.3125 5.6875 1.3125C5.20425 1.3125 4.8125 1.70425 4.8125 2.1875V3.0625C4.8125 3.54575 5.20425 3.9375 5.6875 3.9375C6.17075 3.9375 6.5625 3.54575 6.5625 3.0625V2.1875Z" fill="#565EFF"/>
<path d="M16.1875 2.1875C16.1875 1.70425 15.7957 1.3125 15.3125 1.3125C14.8293 1.3125 14.4375 1.70425 14.4375 2.1875V3.0625C14.4375 3.54575 14.8293 3.9375 15.3125 3.9375C15.7957 3.9375 16.1875 3.54575 16.1875 3.0625V2.1875Z" fill="#565EFF"/>
<path d="M1.75 7.875V17.9375C1.75 18.9039 2.53356 19.6875 3.5 19.6875H17.5C18.4664 19.6875 19.25 18.9039 19.25 17.9375V7.875H1.75ZM7 16.625C7 17.1084 6.60844 17.5 6.125 17.5H5.25C4.76656 17.5 4.375 17.1084 4.375 16.625V15.75C4.375 15.2666 4.76656 14.875 5.25 14.875H6.125C6.60844 14.875 7 15.2666 7 15.75V16.625ZM7 11.8125C7 12.2959 6.60844 12.6875 6.125 12.6875H5.25C4.76656 12.6875 4.375 12.2959 4.375 11.8125V10.9375C4.375 10.4541 4.76656 10.0625 5.25 10.0625H6.125C6.60844 10.0625 7 10.4541 7 10.9375V11.8125ZM11.8125 16.625C11.8125 17.1084 11.4209 17.5 10.9375 17.5H10.0625C9.57906 17.5 9.1875 17.1084 9.1875 16.625V15.75C9.1875 15.2666 9.57906 14.875 10.0625 14.875H10.9375C11.4209 14.875 11.8125 15.2666 11.8125 15.75V16.625ZM11.8125 11.8125C11.8125 12.2959 11.4209 12.6875 10.9375 12.6875H10.0625C9.57906 12.6875 9.1875 12.2959 9.1875 11.8125V10.9375C9.1875 10.4541 9.57906 10.0625 10.0625 10.0625H10.9375C11.4209 10.0625 11.8125 10.4541 11.8125 10.9375V11.8125ZM16.625 16.625C16.625 17.1084 16.2334 17.5 15.75 17.5H14.875C14.3916 17.5 14 17.1084 14 16.625V15.75C14 15.2666 14.3916 14.875 14.875 14.875H15.75C16.2334 14.875 16.625 15.2666 16.625 15.75V16.625ZM16.625 11.8125C16.625 12.2959 16.2334 12.6875 15.75 12.6875H14.875C14.3916 12.6875 14 12.2959 14 11.8125V10.9375C14 10.4541 14.3916 10.0625 14.875 10.0625H15.75C16.2334 10.0625 16.625 10.4541 16.625 10.9375V11.8125Z" fill="#565EFF"/>
<path d="M19.25 7V4.375C19.25 3.40856 18.4664 2.625 17.5 2.625H17.0625V3.0625C17.0625 4.02763 16.2776 4.8125 15.3125 4.8125C14.3474 4.8125 13.5625 4.02763 13.5625 3.0625V2.625H7.4375V3.0625C7.4375 4.02763 6.65263 4.8125 5.6875 4.8125C4.72237 4.8125 3.9375 4.02763 3.9375 3.0625V2.625H3.5C2.53356 2.625 1.75 3.40856 1.75 4.375V7H19.25Z" fill="#565EFF"/>
</svg>
