<svg width="36" height="36" viewBox="0 0 36 36" fill="none" xmlns="http://www.w3.org/2000/svg">
<g clip-path="url(#clip0_3601_1536)">
<mask id="path-1-inside-1_3601_1536" fill="white">
<path d="M28.5 6H26.85C26.5019 4.30712 25.5807 2.78602 24.2419 1.69308C22.903 0.600135 21.2283 0.00218179 19.5 0L16.5 0C14.7717 0.00218179 13.097 0.600135 11.7581 1.69308C10.4193 2.78602 9.49814 4.30712 9.15 6H7.5C5.51161 6.00238 3.60534 6.79332 2.19933 8.19933C0.793323 9.60534 0.00238179 11.5116 0 13.5L0 28.5C0.00238179 30.4884 0.793323 32.3947 2.19933 33.8007C3.60534 35.2067 5.51161 35.9976 7.5 36H28.5C30.4884 35.9976 32.3947 35.2067 33.8007 33.8007C35.2067 32.3947 35.9976 30.4884 36 28.5V13.5C35.9976 11.5116 35.2067 9.60534 33.8007 8.19933C32.3947 6.79332 30.4884 6.00238 28.5 6ZM16.5 3H19.5C20.4274 3.00384 21.3309 3.29413 22.087 3.83113C22.8432 4.36814 23.4149 5.12564 23.724 6H12.276C12.5851 5.12564 13.1568 4.36814 13.913 3.83113C14.6691 3.29413 15.5726 3.00384 16.5 3ZM7.5 9H28.5C29.6935 9 30.8381 9.47411 31.682 10.318C32.5259 11.1619 33 12.3065 33 13.5V18H3V13.5C3 12.3065 3.47411 11.1619 4.31802 10.318C5.16193 9.47411 6.30653 9 7.5 9ZM28.5 33H7.5C6.30653 33 5.16193 32.5259 4.31802 31.682C3.47411 30.8381 3 29.6935 3 28.5V21H16.5V22.5C16.5 22.8978 16.658 23.2794 16.9393 23.5607C17.2206 23.842 17.6022 24 18 24C18.3978 24 18.7794 23.842 19.0607 23.5607C19.342 23.2794 19.5 22.8978 19.5 22.5V21H33V28.5C33 29.6935 32.5259 30.8381 31.682 31.682C30.8381 32.5259 29.6935 33 28.5 33Z"/>
</mask>
<path d="M28.5 6L28.5256 -15.3333L28.5128 -15.3333H28.5V6ZM26.85 6L5.95397 10.2973L9.45746 27.3333H26.85V6ZM19.5 0L19.5269 -21.3333L19.5135 -21.3333H19.5V0ZM16.5 0V-21.3333H16.4865L16.4731 -21.3333L16.5 0ZM9.15 6V27.3333H26.5425L30.046 10.2973L9.15 6ZM7.5 6V-15.3333H7.48722L7.47445 -15.3333L7.5 6ZM0 13.5L-21.3333 13.4744L-21.3333 13.4872V13.5H0ZM0 28.5H-21.3333V28.5128L-21.3333 28.5256L0 28.5ZM7.5 36L7.47445 57.3333L7.48722 57.3333H7.5V36ZM28.5 36V57.3333H28.5128L28.5256 57.3333L28.5 36ZM36 28.5L57.3333 28.5256L57.3333 28.5128V28.5H36ZM36 13.5H57.3333V13.4872L57.3333 13.4744L36 13.5ZM16.5 3V-18.3333H16.4558L16.4116 -18.3332L16.5 3ZM19.5 3L19.5884 -18.3332L19.5442 -18.3333H19.5V3ZM23.724 6V27.3333H53.8936L43.8373 -1.11093L23.724 6ZM12.276 6L-7.83733 -1.11093L-17.8936 27.3333H12.276V6ZM7.5 9V-12.3333V9ZM33 13.5H54.3333H33ZM33 18V39.3333H54.3333V18H33ZM3 18H-18.3333V39.3333H3V18ZM3 13.5H-18.3333H3ZM28.5 33V54.3333V33ZM7.5 33V54.3333V33ZM3 28.5H-18.3333H3ZM3 21V-0.333334H-18.3333V21H3ZM16.5 21H37.8333V-0.333334H16.5V21ZM19.5 21V-0.333334H-1.83333V21H19.5ZM33 21H54.3333V-0.333334H33V21ZM33 28.5H54.3333H33ZM28.5 -15.3333H26.85V27.3333H28.5V-15.3333ZM47.746 1.70269C46.4094 -4.79684 42.8729 -10.6369 37.7326 -14.833L10.7512 18.2192C8.28857 16.2089 6.59432 13.4111 5.95397 10.2973L47.746 1.70269ZM37.7326 -14.833C32.5923 -19.0292 26.1625 -21.3249 19.5269 -21.3333L19.4731 21.3333C16.2941 21.3293 13.2138 20.2295 10.7512 18.2192L37.7326 -14.833ZM19.5 -21.3333H16.5V21.3333H19.5V-21.3333ZM16.4731 -21.3333C9.83752 -21.3249 3.40773 -19.0292 -1.73258 -14.833L25.2488 18.2192C22.7862 20.2295 19.7059 21.3293 16.5269 21.3333L16.4731 -21.3333ZM-1.73258 -14.833C-6.87288 -10.6369 -10.4094 -4.79685 -11.746 1.70269L30.046 10.2973C29.4057 13.4111 27.7114 16.2089 25.2488 18.2192L-1.73258 -14.833ZM9.15 -15.3333H7.5V27.3333H9.15V-15.3333ZM7.47445 -15.3333C-0.16304 -15.3242 -7.48509 -12.2861 -12.8856 -6.88562L17.2843 23.2843C14.6958 25.8728 11.1863 27.3289 7.52555 27.3333L7.47445 -15.3333ZM-12.8856 -6.88562C-18.2861 -1.48509 -21.3242 5.83696 -21.3333 13.4744L21.3333 13.5256C21.3289 17.1863 19.8728 20.6958 17.2843 23.2843L-12.8856 -6.88562ZM-21.3333 13.5V28.5H21.3333V13.5H-21.3333ZM-21.3333 28.5256C-21.3242 36.163 -18.2861 43.4851 -12.8856 48.8856L17.2843 18.7157C19.8728 21.3042 21.3289 24.8137 21.3333 28.4744L-21.3333 28.5256ZM-12.8856 48.8856C-7.48509 54.2861 -0.16303 57.3242 7.47445 57.3333L7.52555 14.6667C11.1862 14.6711 14.6958 16.1272 17.2843 18.7157L-12.8856 48.8856ZM7.5 57.3333H28.5V14.6667H7.5V57.3333ZM28.5256 57.3333C36.163 57.3242 43.4851 54.2861 48.8856 48.8856L18.7157 18.7157C21.3042 16.1272 24.8138 14.6711 28.4744 14.6667L28.5256 57.3333ZM48.8856 48.8856C54.2861 43.4851 57.3242 36.163 57.3333 28.5256L14.6667 28.4744C14.6711 24.8138 16.1272 21.3042 18.7157 18.7157L48.8856 48.8856ZM57.3333 28.5V13.5H14.6667V28.5H57.3333ZM57.3333 13.4744C57.3242 5.83697 54.2861 -1.48509 48.8856 -6.88562L18.7157 23.2843C16.1272 20.6958 14.6711 17.1862 14.6667 13.5256L57.3333 13.4744ZM48.8856 -6.88562C43.4851 -12.2861 36.163 -15.3242 28.5256 -15.3333L28.4744 27.3333C24.8137 27.3289 21.3042 25.8728 18.7157 23.2843L48.8856 -6.88562ZM16.5 24.3333H19.5V-18.3333H16.5V24.3333ZM19.4116 24.3332C15.9424 24.3188 12.5625 23.2329 9.73409 21.2241L34.44 -13.5618C30.0994 -16.6447 24.9123 -18.3111 19.5884 -18.3332L19.4116 24.3332ZM9.73409 21.2241C6.9057 19.2153 4.76703 16.3817 3.61068 13.1109L43.8373 -1.11093C42.0627 -6.13042 38.7806 -10.479 34.44 -13.5618L9.73409 21.2241ZM23.724 -15.3333H12.276V27.3333H23.724V-15.3333ZM32.3893 13.1109C31.233 16.3817 29.0943 19.2153 26.2659 21.2241L1.55999 -13.5618C-2.78061 -10.479 -6.06272 -6.13042 -7.83733 -1.11093L32.3893 13.1109ZM26.2659 21.2241C23.4375 23.2329 20.0576 24.3188 16.5884 24.3332L16.4116 -18.3332C11.0877 -18.3111 5.90059 -16.6447 1.55999 -13.5618L26.2659 21.2241ZM7.5 30.3333H28.5V-12.3333H7.5V30.3333ZM28.5 30.3333C24.0355 30.3333 19.7539 28.5598 16.597 25.403L46.7669 -4.76693C41.9222 -9.61162 35.3514 -12.3333 28.5 -12.3333V30.3333ZM16.597 25.403C13.4402 22.2461 11.6667 17.9645 11.6667 13.5H54.3333C54.3333 6.64858 51.6116 0.0777688 46.7669 -4.76693L16.597 25.403ZM11.6667 13.5V18H54.3333V13.5H11.6667ZM33 -3.33333H3V39.3333H33V-3.33333ZM24.3333 18V13.5H-18.3333V18H24.3333ZM24.3333 13.5C24.3333 17.9645 22.5598 22.2461 19.403 25.403L-10.7669 -4.76693C-15.6116 0.0777627 -18.3333 6.64857 -18.3333 13.5H24.3333ZM19.403 25.403C16.2461 28.5598 11.9645 30.3333 7.5 30.3333V-12.3333C0.648571 -12.3333 -5.92224 -9.61161 -10.7669 -4.76693L19.403 25.403ZM28.5 11.6667H7.5V54.3333H28.5V11.6667ZM7.5 11.6667C11.9645 11.6667 16.2461 13.4402 19.403 16.597L-10.7669 46.7669C-5.92223 51.6116 0.64858 54.3333 7.5 54.3333V11.6667ZM19.403 16.597C22.5598 19.7539 24.3333 24.0355 24.3333 28.5H-18.3333C-18.3333 35.3514 -15.6116 41.9222 -10.7669 46.7669L19.403 16.597ZM24.3333 28.5V21H-18.3333V28.5H24.3333ZM3 42.3333H16.5V-0.333334H3V42.3333ZM-4.83333 21V22.5H37.8333V21H-4.83333ZM-4.83333 22.5C-4.83333 28.5558 -2.42768 34.3635 1.8544 38.6456L32.0243 8.47571C35.7437 12.1952 37.8333 17.2399 37.8333 22.5H-4.83333ZM1.8544 38.6456C6.13647 42.9277 11.9442 45.3333 18 45.3333V2.66667C23.2601 2.66667 28.3048 4.75625 32.0243 8.47571L1.8544 38.6456ZM18 45.3333C24.0558 45.3333 29.8635 42.9277 34.1456 38.6456L3.97571 8.47571C7.69518 4.75625 12.7399 2.66667 18 2.66667V45.3333ZM34.1456 38.6456C38.4277 34.3635 40.8333 28.5558 40.8333 22.5H-1.83333C-1.83333 17.2399 0.256254 12.1952 3.97571 8.47571L34.1456 38.6456ZM40.8333 22.5V21H-1.83333V22.5H40.8333ZM19.5 42.3333H33V-0.333334H19.5V42.3333ZM11.6667 21V28.5H54.3333V21H11.6667ZM11.6667 28.5C11.6667 24.0355 13.4402 19.7539 16.597 16.597L46.7669 46.7669C51.6116 41.9222 54.3333 35.3514 54.3333 28.5H11.6667ZM16.597 16.597C19.7539 13.4402 24.0355 11.6667 28.5 11.6667V54.3333C35.3514 54.3333 41.9222 51.6116 46.7669 46.7669L16.597 16.597Z" fill="#565EFF" mask="url(#path-1-inside-1_3601_1536)"/>
</g>
<defs>
<clipPath id="clip0_3601_1536">
<rect width="36" height="36" fill="white"/>
</clipPath>
</defs>
</svg>
