<svg width="19" height="20" viewBox="0 0 19 20" fill="none" xmlns="http://www.w3.org/2000/svg">
<g id="down 2">
<g id="16">
<path id="Vector" d="M9.49998 13.1667C9.3958 13.1673 9.29251 13.1473 9.19606 13.1079C9.0996 13.0685 9.01187 13.0104 8.9379 12.9371L4.1879 8.18707C4.03883 8.03799 3.95508 7.83581 3.95508 7.62498C3.95508 7.41416 4.03883 7.21197 4.1879 7.0629C4.33697 6.91383 4.53916 6.83008 4.74998 6.83008C4.96081 6.83008 5.16299 6.91383 5.31207 7.0629L9.49998 11.2587L13.6879 7.07082C13.8393 6.94112 14.0342 6.87335 14.2334 6.88105C14.4326 6.88874 14.6216 6.97134 14.7626 7.11233C14.9036 7.25332 14.9862 7.44232 14.9939 7.64157C15.0016 7.84081 14.9338 8.03562 14.8042 8.18707L10.0542 12.9371C9.90669 13.0833 9.70767 13.1658 9.49998 13.1667Z" fill="#9196FF"/>
</g>
</g>
</svg>
