<svg width="22" height="22" viewBox="0 0 22 22" fill="none" xmlns="http://www.w3.org/2000/svg">
<g id="comment (3) 1">
<g id="_x31_4_comment">
<path id="Vector" d="M19.25 1.375H2.75C1.61287 1.375 0.6875 2.30037 0.6875 3.4375V14.4375C0.6875 15.5746 1.61287 16.5 2.75 16.5H4.8125V19.9375C4.8125 20.2022 4.96444 20.4421 5.20162 20.5569C5.29719 20.6023 5.39894 20.625 5.5 20.625C5.65331 20.625 5.80525 20.5741 5.92969 20.4744L10.8976 16.5H19.25C20.3871 16.5 21.3125 15.5746 21.3125 14.4375V3.4375C21.3125 2.30037 20.3871 1.375 19.25 1.375ZM11 11H5.5C5.11981 11 4.8125 10.692 4.8125 10.3125C4.8125 9.933 5.11981 9.625 5.5 9.625H11C11.3802 9.625 11.6875 9.933 11.6875 10.3125C11.6875 10.692 11.3802 11 11 11ZM16.5 8.25H5.5C5.11981 8.25 4.8125 7.942 4.8125 7.5625C4.8125 7.183 5.11981 6.875 5.5 6.875H16.5C16.8802 6.875 17.1875 7.183 17.1875 7.5625C17.1875 7.942 16.8802 8.25 16.5 8.25Z" fill="#565EFF"/>
</g>
</g>
</svg>
