<svg width="44" height="45" viewBox="0 0 44 45" fill="none" xmlns="http://www.w3.org/2000/svg">
<g id="curve 1" clip-path="url(#clip0_3614_5486)">
<path id="Vector" d="M43.6184 32.7411L39.1084 30.4348L36.2381 22.7989C36.2043 22.7086 36.1527 22.6264 36.0864 22.5575C36.0202 22.4885 35.9407 22.4343 35.8531 22.3981L18.0434 15.1172C17.9189 15.0665 17.7826 15.0542 17.6512 15.0817C17.5199 15.1091 17.3994 15.1753 17.3043 15.2719L14.929 17.7012C14.8357 17.7985 14.7721 17.9214 14.7459 18.055C14.7197 18.1885 14.7319 18.327 14.7812 18.4536L21.9003 36.668C21.9356 36.7577 21.9886 36.8389 22.0561 36.9067C22.1235 36.9744 22.2039 37.0272 22.2921 37.0618L29.7584 39.9973L32.0134 44.6098C32.0609 44.7115 32.1316 44.8001 32.2195 44.868C32.3074 44.9359 32.41 44.9812 32.5187 45.0001C32.5553 45.0035 32.5921 45.0035 32.6287 45.0001C32.8107 44.9993 32.985 44.9247 33.1134 44.7926L43.7971 33.8661C43.8758 33.7885 43.9352 33.6928 43.9704 33.5871C44.0057 33.4813 44.0158 33.3684 43.9999 33.2579C43.9815 33.1468 43.9372 33.0418 43.8708 32.9519C43.8044 32.8619 43.7178 32.7896 43.6184 32.7411ZM16.2215 18.3622L16.6031 17.9755L25.4684 27.0422C24.8841 27.889 24.6318 28.9291 24.7613 29.9569C24.8908 30.9847 25.3926 31.9254 26.1677 32.593C26.9427 33.2606 27.9344 33.6065 28.9468 33.5622C29.9592 33.518 30.9184 33.0868 31.635 32.354C32.3515 31.6213 32.773 30.6402 32.8163 29.6048C32.8596 28.5694 32.5214 27.5551 31.8686 26.7625C31.2159 25.9699 30.296 25.4566 29.2911 25.3242C28.2861 25.1917 27.2691 25.4498 26.4412 26.0473L17.5759 16.9805L17.954 16.5903L35.0624 23.5899L37.7609 30.7688L30.0849 38.6192L23.0656 35.8594L16.2215 18.3622ZM28.7718 26.6942C29.3897 26.6951 29.9882 26.9151 30.4652 27.3167C30.9423 27.7183 31.2685 28.2767 31.3882 28.8966C31.5079 29.5166 31.4137 30.1598 31.1217 30.7167C30.8297 31.2736 30.358 31.7098 29.7868 31.9509C29.2157 32.192 28.5805 32.2231 27.9894 32.0389C27.3983 31.8547 26.888 31.4667 26.5453 30.9408C26.2026 30.415 26.0488 29.7839 26.1101 29.1551C26.1713 28.5263 26.4438 27.9386 26.8812 27.4922C27.3831 26.9805 28.0631 26.6935 28.7718 26.6942ZM32.8178 43.1087L31.099 39.593L38.7062 31.813L42.1437 33.5708L32.8178 43.1087Z" fill="black"/>
<path id="Vector_2" d="M13.1488 37.6171C13.0174 37.49 12.8433 37.4192 12.6624 37.4192C12.4815 37.4192 12.3075 37.49 12.176 37.6171L11.3029 38.5101C8.9729 35.2759 7.68751 31.3788 7.62589 27.362C7.56427 23.3452 8.72949 19.4088 10.9592 16.1015C11.6272 16.4774 12.3963 16.6218 13.1513 16.5131C13.9063 16.4043 14.6065 16.0483 15.147 15.4982C15.6875 14.9482 16.0392 14.2339 16.1493 13.4623C16.2594 12.6907 16.1221 11.9034 15.7579 11.2183C18.9918 8.93795 22.8407 7.74625 26.7682 7.80927C30.6957 7.87228 34.5062 9.18688 37.6685 11.5698L36.7817 12.4523C36.6538 12.5841 36.5821 12.7623 36.5823 12.948C36.5818 13.0405 36.5991 13.1322 36.6333 13.2179C36.6675 13.3036 36.7179 13.3815 36.7817 13.4472L39.8135 16.5234C39.9423 16.6543 40.1166 16.7278 40.2982 16.7278C40.4798 16.7278 40.6541 16.6543 40.7829 16.5234L43.7976 13.4402C43.8615 13.3749 43.9122 13.2973 43.9468 13.212C43.9814 13.1266 43.9992 13.0351 43.9992 12.9427C43.9992 12.8503 43.9814 12.7588 43.9468 12.6734C43.9122 12.5881 43.8615 12.5105 43.7976 12.4452L40.7829 9.36203C40.6541 9.23108 40.4798 9.15757 40.2982 9.15757C40.1166 9.15757 39.9423 9.23108 39.8135 9.36203L38.6482 10.5468C35.7762 8.33651 32.3807 6.94784 28.8104 6.52339C25.2402 6.09893 21.6238 6.65399 18.3326 8.13156L22.296 4.0886C22.7454 4.30821 23.2564 4.35792 23.7382 4.22891C24.22 4.0999 24.6416 3.80051 24.9281 3.38385C25.2146 2.96719 25.3476 2.46021 25.3034 1.95283C25.2592 1.44546 25.0407 0.970497 24.6866 0.612211C24.3326 0.253926 23.8659 0.0354784 23.3694 -0.00437679C22.8728 -0.044232 22.3786 0.0970815 21.9742 0.394494C21.5698 0.691906 21.2816 1.12619 21.1605 1.6203C21.0395 2.11441 21.0934 2.6364 21.3129 3.09367L14.6235 9.94563C13.9443 9.47967 13.128 9.26934 12.314 9.35058C11.5 9.43181 10.7389 9.79956 10.1606 10.391C9.58227 10.9825 9.22269 11.7609 9.14326 12.5934C9.06384 13.4259 9.26949 14.2608 9.72509 14.9554L3.02541 21.7968C2.57655 21.5731 2.06468 21.5194 1.58076 21.6452C1.09685 21.7711 0.672224 22.0683 0.382346 22.4841C0.0924676 22.8999 -0.0438903 23.4073 -0.00249758 23.9162C0.0388951 24.4251 0.255358 24.9025 0.608425 25.2636C0.961493 25.6247 1.4283 25.8461 1.92589 25.8884C2.42349 25.9308 2.91964 25.7913 3.32619 25.4949C3.73275 25.1984 4.02336 24.7641 4.1464 24.2692C4.26944 23.7743 4.21694 23.2508 3.99822 22.7917L7.96166 18.7488C6.51547 22.1138 5.97104 25.8119 6.38424 29.4633C6.79745 33.1147 8.15341 36.5878 10.3129 39.5261L9.15103 40.7179C9.02298 40.8496 8.95111 41.0278 8.95111 41.2136C8.95111 41.3994 9.02298 41.5776 9.15103 41.7093L12.1657 44.7925C12.2941 44.9245 12.4684 44.9991 12.6504 44.9999C12.7411 45 12.831 44.9817 12.9147 44.9461C12.9985 44.9105 13.0746 44.8583 13.1385 44.7925L16.1567 41.7093C16.2847 41.5776 16.3566 41.3994 16.3566 41.2136C16.3566 41.0278 16.2847 40.8496 16.1567 40.7179L13.1488 37.6171ZM40.3051 10.8456L42.347 12.9339L40.3051 15.0222L38.2632 12.9339L40.3051 10.8456ZM22.6879 1.62766C22.7901 1.52232 22.9205 1.4504 23.0627 1.42101C23.2049 1.39162 23.3524 1.4061 23.4866 1.46259C23.6207 1.51909 23.7354 1.61507 23.8161 1.73834C23.8968 1.86162 23.9399 2.00664 23.9399 2.155C23.9399 2.30337 23.8968 2.44839 23.8161 2.57166C23.7354 2.69494 23.6207 2.79091 23.4866 2.84741C23.3524 2.90391 23.2049 2.91838 23.0627 2.88899C22.9205 2.8596 22.7901 2.78768 22.6879 2.68235C22.6201 2.61313 22.5664 2.53092 22.5297 2.44044C22.493 2.34995 22.4741 2.25296 22.4741 2.155C22.4741 2.05705 22.493 1.96005 22.5297 1.86957C22.5664 1.77908 22.6201 1.69688 22.6879 1.62766ZM11.1379 11.3905C11.3375 11.1854 11.5748 11.0226 11.8362 10.9115C12.0975 10.8004 12.3777 10.7433 12.6607 10.7433C12.9437 10.7433 13.2239 10.8004 13.4853 10.9115C13.7466 11.0226 13.9839 11.1854 14.1835 11.3905C14.4853 11.6987 14.6909 12.0914 14.7744 12.5191C14.8578 12.9468 14.8153 13.3902 14.6523 13.7932C14.4893 14.1962 14.213 14.5407 13.8585 14.783C13.504 15.0254 13.0871 15.1548 12.6607 15.1548C12.2343 15.1548 11.8174 15.0254 11.4629 14.783C11.1084 14.5407 10.8322 14.1962 10.6691 13.7932C10.5061 13.3902 10.4636 12.9468 10.5471 12.5191C10.6305 12.0914 10.8361 11.6987 11.1379 11.3905ZM2.62666 24.2577C2.4863 24.3774 2.30724 24.4391 2.12467 24.4307C1.9421 24.4223 1.76922 24.3443 1.63999 24.2121C1.51076 24.08 1.43453 23.9032 1.42628 23.7164C1.41803 23.5297 1.47836 23.3466 1.59541 23.2031C1.73298 23.0648 1.91815 22.9873 2.11103 22.9873C2.30392 22.9873 2.48908 23.0648 2.62666 23.2031C2.69442 23.2723 2.74818 23.3545 2.78486 23.445C2.82154 23.5354 2.84042 23.6324 2.84042 23.7304C2.84042 23.8283 2.82154 23.9253 2.78486 24.0158C2.74818 24.1063 2.69442 24.1885 2.62666 24.2577ZM12.6607 43.2878L10.6188 41.1995L12.6607 39.1113L14.7026 41.1995L12.6607 43.2878Z" fill="black"/>
</g>
<defs>
<clipPath id="clip0_3614_5486">
<rect width="44" height="45" fill="white"/>
</clipPath>
</defs>
</svg>
