<svg width="36" height="36" viewBox="0 0 36 36" fill="none" xmlns="http://www.w3.org/2000/svg">
<g clip-path="url(#clip0_3601_1520)">
<path d="M34.7202 14.2065L33.5397 12.6C32.7217 11.4869 31.6539 10.5813 30.4221 9.95604C29.1903 9.33078 27.829 9.00332 26.4477 9H9.57419C8.22122 9.00353 6.88713 9.31764 5.67472 9.91813C4.46231 10.5186 3.40394 11.3894 2.58119 12.4635L1.34969 14.0745C0.349913 15.3935 -0.120147 17.0388 0.0319715 18.6868C0.18409 20.3349 0.947376 21.8663 2.17169 22.98L14.1567 34.5405C15.2093 35.4793 16.5713 35.9968 17.9817 35.994C19.422 35.9912 20.8107 35.4571 21.8817 34.494L33.7857 23.0445C35.017 21.9542 35.7958 20.4425 35.9687 18.8069C36.1417 17.1713 35.6963 15.5302 34.7202 14.2065ZM31.1202 14.367L32.3007 15.978C32.4193 16.1428 32.5237 16.3175 32.6127 16.5H25.4262C25.3176 15.7817 25.1305 15.0775 24.8682 14.4L23.9082 12H26.4477C27.3574 12.0017 28.2539 12.2168 29.0654 12.6278C29.8769 13.0389 30.5807 13.6346 31.1202 14.367ZM17.9847 30.132L13.8312 20.727C13.681 20.3292 13.5675 19.9185 13.4922 19.5H22.4202C22.3573 19.8298 22.269 20.1543 22.1562 20.4705L17.9847 30.132ZM13.6497 16.5C13.7124 16.2311 13.7911 15.9661 13.8852 15.7065L15.3612 12H20.6772L22.0827 15.5145C22.2061 15.8354 22.3064 16.1648 22.3827 16.5H13.6497ZM4.96619 14.2815C5.50853 13.574 6.20599 13.0004 7.00488 12.6049C7.80376 12.2093 8.68275 12.0024 9.57419 12H12.1242L11.0997 14.5935C10.8525 15.2089 10.6681 15.8476 10.5492 16.5H3.36719C3.47007 16.288 3.59421 16.087 3.73769 15.9L4.96619 14.2815ZM4.21619 20.781C3.82488 20.4261 3.51745 19.9885 3.31619 19.5H10.4742C10.5737 20.3082 10.7685 21.1017 11.0547 21.864L15.2952 31.464L4.21619 20.781ZM20.6562 31.521L24.9372 21.6C25.1857 20.921 25.3587 20.2168 25.4532 19.5H32.6997C32.4874 20.0149 32.163 20.4761 31.7502 20.85L20.6562 31.521Z" fill="#565EFF"/>
<path d="M18 6C18.3978 6 18.7794 5.84196 19.0607 5.56066C19.342 5.27936 19.5 4.89782 19.5 4.5V1.5C19.5 1.10218 19.342 0.720644 19.0607 0.43934C18.7794 0.158035 18.3978 0 18 0C17.6022 0 17.2206 0.158035 16.9393 0.43934C16.658 0.720644 16.5 1.10218 16.5 1.5V4.5C16.5 4.89782 16.658 5.27936 16.9393 5.56066C17.2206 5.84196 17.6022 6 18 6Z" fill="#565EFF"/>
<path d="M24.8293 5.85063C25.0064 5.93967 25.1994 5.99273 25.3971 6.00674C25.5949 6.02075 25.7934 5.99543 25.9813 5.93224C26.1692 5.86906 26.3427 5.76926 26.4917 5.63862C26.6408 5.50798 26.7625 5.34909 26.8498 5.17113L28.3498 2.17113C28.5276 1.81507 28.5568 1.40296 28.4307 1.02545C28.3047 0.64794 28.0339 0.335954 27.6778 0.158127C27.3218 -0.019701 26.9097 -0.0488037 26.5321 0.0772207C26.1546 0.203245 25.8427 0.474073 25.6648 0.830127L24.1648 3.83013C24.0753 4.00632 24.0214 4.19848 24.0063 4.39556C23.9913 4.59264 24.0153 4.79076 24.077 4.97852C24.1388 5.16628 24.237 5.33999 24.3661 5.48965C24.4952 5.63932 24.6527 5.76199 24.8293 5.85063Z" fill="#565EFF"/>
<path d="M9.15844 5.17113C9.33627 5.52817 9.64865 5.79996 10.0269 5.92668C10.4051 6.05341 10.8181 6.0247 11.1752 5.84688C11.5322 5.66905 11.804 5.35667 11.9307 4.97845C12.0575 4.60024 12.0288 4.18717 11.8509 3.83013L10.3509 0.830127C10.2629 0.653827 10.141 0.496597 9.99216 0.367413C9.84334 0.238229 9.67054 0.139622 9.48362 0.0772207C9.1061 -0.0488037 8.69399 -0.019701 8.33794 0.158127C7.98189 0.335954 7.71106 0.64794 7.58503 1.02545C7.45901 1.40296 7.48811 1.81507 7.66594 2.17113L9.15844 5.17113Z" fill="#565EFF"/>
</g>
<defs>
<clipPath id="clip0_3601_1520">
<rect width="36" height="36" fill="white"/>
</clipPath>
</defs>
</svg>
