<svg width="70" height="71" viewBox="0 0 70 71" fill="none" xmlns="http://www.w3.org/2000/svg">
<rect width="70" height="71" rx="10" fill="#FFCED2"/>
<path d="M42.7043 34.164C42.7013 34.164 42.6983 34.164 42.6953 34.164H39.0105V30.3862C39.0155 29.6243 38.4156 29.0024 37.6706 28.9973C37.6675 28.9973 37.6645 28.9973 37.6615 28.9973H32.3381C31.5931 28.9973 30.9891 29.615 30.9891 30.3769V34.1547H27.3043C26.5593 34.1496 25.9513 34.7631 25.9463 35.525C25.9463 35.5312 25.9463 35.5374 25.9463 35.5436V40.9788C25.9463 41.7407 26.5503 42.3584 27.2953 42.3584H30.9891V46.1269C30.9841 46.8889 31.584 47.5107 32.329 47.5158C32.3321 47.5158 32.3351 47.5158 32.3381 47.5158H37.6525C38.3975 47.5158 39.0014 46.8981 39.0014 46.1362V42.3584H42.6953C43.4403 42.3635 44.0483 41.75 44.0533 40.9881C44.0533 40.9849 44.0533 40.9818 44.0533 40.9788V35.5436C44.0533 34.7817 43.4494 34.164 42.7043 34.164ZM42.2426 40.5066H38.1051C37.6052 40.5066 37.1998 40.9212 37.1998 41.4325V45.664H32.7998V41.4325C32.7998 40.9212 32.3944 40.5066 31.8944 40.5066H27.757V36.0158H31.8944C32.3944 36.0158 32.7998 35.6012 32.7998 35.0899V30.8492H37.1907V35.0806C37.1907 35.592 37.5961 36.0066 38.0961 36.0066H42.2426V40.5066Z" fill="black"/>
<path d="M50.7531 22.0713H43.293V18.812C43.34 17.3247 42.1991 16.0801 40.7449 16.032C40.6708 16.0296 40.5966 16.0303 40.5226 16.0342H29.4774C28.0243 15.9568 26.785 17.0987 26.7091 18.5847C26.7053 18.6604 26.7045 18.7362 26.707 18.812V22.0528H19.2469C16.3679 22.0528 13 23.7287 13 28.4416V48.5805C13 53.2935 16.3679 54.9694 19.2469 54.9694H50.7531C53.6321 54.9694 57 53.2935 57 48.5805V28.4602C57 23.7472 53.6412 22.0713 50.7531 22.0713ZM28.5177 18.812C28.5177 18.5435 28.5177 17.8213 29.4864 17.8213H40.5226C41.4914 17.8213 41.4914 18.5342 41.4914 18.812V22.0528H28.5177V18.812ZM55.1893 48.5805C55.1893 52.6731 52.093 53.1176 50.7531 53.1176H19.2469C17.916 53.1176 14.8107 52.6731 14.8107 48.5805V28.4602C14.8107 24.3676 17.907 23.9231 19.2469 23.9231H50.7531C52.084 23.9231 55.1893 24.3676 55.1893 28.4602V48.5805Z" fill="black"/>
</svg>
