<svg width="44" height="45" viewBox="0 0 44 45" fill="none" xmlns="http://www.w3.org/2000/svg">
<g id="first-aid-kit 1">
<g id="Group">
<g id="Group_2">
<path id="Vector" d="M29.7043 21.164C29.7013 21.164 29.6983 21.164 29.6953 21.164H26.0105V17.3862C26.0155 16.6243 25.4156 16.0024 24.6706 15.9973C24.6675 15.9973 24.6645 15.9973 24.6615 15.9973H19.3381C18.5931 15.9973 17.9891 16.615 17.9891 17.3769V21.1547H14.3043C13.5593 21.1496 12.9513 21.7631 12.9463 22.525C12.9463 22.5312 12.9463 22.5374 12.9463 22.5436V27.9788C12.9463 28.7407 13.5503 29.3584 14.2953 29.3584H17.9891V33.1269C17.9841 33.8889 18.584 34.5107 19.329 34.5158C19.3321 34.5158 19.3351 34.5158 19.3381 34.5158H24.6525C25.3975 34.5158 26.0014 33.8981 26.0014 33.1362V29.3584H29.6953C30.4403 29.3635 31.0483 28.75 31.0533 27.9881C31.0533 27.9849 31.0533 27.9818 31.0533 27.9788V22.5436C31.0533 21.7817 30.4494 21.164 29.7043 21.164ZM29.2426 27.5066H25.1051C24.6052 27.5066 24.1998 27.9212 24.1998 28.4325V32.664H19.7998V28.4325C19.7998 27.9212 19.3944 27.5066 18.8944 27.5066H14.757V23.0158H18.8944C19.3944 23.0158 19.7998 22.6012 19.7998 22.0899V17.8492H24.1907V22.0806C24.1907 22.592 24.5961 23.0066 25.0961 23.0066H29.2426V27.5066Z" fill="black"/>
</g>
</g>
<g id="Group_3">
<g id="Group_4">
<path id="Vector_2" d="M37.7531 9.07127H30.293V5.81201C30.34 4.32474 29.1991 3.08007 27.7449 3.03203C27.6708 3.0296 27.5966 3.0303 27.5226 3.03423H16.4774C15.0243 2.9568 13.785 4.0987 13.7091 5.5847C13.7053 5.66039 13.7045 5.7362 13.707 5.81201V9.05275H6.24691C3.3679 9.05275 0 10.7287 0 15.4416V35.5805C0 40.2935 3.3679 41.9694 6.24691 41.9694H37.7531C40.6321 41.9694 44 40.2935 44 35.5805V15.4602C44 10.7472 40.6412 9.07127 37.7531 9.07127ZM15.5177 5.81201C15.5177 5.54349 15.5177 4.82127 16.4864 4.82127H27.5226C28.4914 4.82127 28.4914 5.53423 28.4914 5.81201V9.05275H15.5177V5.81201ZM42.1893 35.5805C42.1893 39.6731 39.093 40.1176 37.7531 40.1176H6.24691C4.91605 40.1176 1.8107 39.6731 1.8107 35.5805V15.4602C1.8107 11.3676 4.907 10.9231 6.24691 10.9231H37.7531C39.084 10.9231 42.1893 11.3676 42.1893 15.4602V35.5805Z" fill="black"/>
</g>
</g>
</g>
</svg>
