<svg width="24" height="25" viewBox="0 0 24 25" fill="none" xmlns="http://www.w3.org/2000/svg">
<g id="home (2) 1" clip-path="url(#clip0_2224_88618)">
<g id="Group">
<g id="Group_2">
<path id="Vector" d="M19.7795 10.4277V21.609H15.5578V16.7732C15.5578 16.3492 15.2141 16.0056 14.7902 16.0056H9.39147C8.96748 16.0056 8.62389 16.3492 8.62389 16.7732V21.609H4.42773V10.4277H2.89258V22.3765C2.89258 22.8005 3.23622 23.1441 3.66016 23.1441H9.39152C9.8155 23.1441 10.1591 22.8005 10.1591 22.3765V17.5408H14.0226V22.3766C14.0226 22.8006 14.3663 23.1442 14.7902 23.1442H20.5472C20.9711 23.1442 21.3147 22.8005 21.3147 22.3766V10.4277H19.7795Z" fill="#565EFF"/>
</g>
</g>
<g id="Group_3">
<g id="Group_4">
<path id="Vector_2" d="M23.7569 12.4763L12.6269 2.06266C12.3339 1.78812 11.8784 1.78634 11.5829 2.05779L0.248199 12.4714C-0.0639416 12.7583 -0.084426 13.2437 0.202402 13.5558C0.353621 13.7209 0.56034 13.8042 0.767855 13.8042C0.95334 13.8042 1.13962 13.7372 1.287 13.6018L12.0977 3.66973L22.7081 13.5972C23.0182 13.8871 23.5034 13.8705 23.793 13.5611C24.0824 13.2515 24.0665 12.7659 23.7569 12.4763Z" fill="#565EFF"/>
</g>
</g>
</g>
<defs>
<clipPath id="clip0_2224_88618">
<rect width="24" height="24" fill="white" transform="translate(0 0.5)"/>
</clipPath>
</defs>
</svg>
