<svg width="22" height="22" viewBox="0 0 22 22" fill="none" xmlns="http://www.w3.org/2000/svg">
<g clip-path="url(#clip0_3312_8390)">
<path d="M7.33832 11C7.33832 8.97503 8.98042 7.33304 11.0066 7.33304C13.0328 7.33304 14.6758 8.97503 14.6758 11C14.6758 13.025 13.0328 14.667 11.0066 14.667C8.98042 14.667 7.33832 13.025 7.33832 11ZM5.35484 11C5.35484 14.1196 7.88513 16.6484 11.0066 16.6484C14.1281 16.6484 16.6584 14.1196 16.6584 11C16.6584 7.8804 14.1281 5.35163 11.0066 5.35163C7.88513 5.35163 5.35484 7.8804 5.35484 11ZM15.5613 5.12767C15.5612 5.38874 15.6386 5.64398 15.7836 5.86111C15.9287 6.07824 16.1349 6.24751 16.3762 6.34752C16.6175 6.44752 16.883 6.47377 17.1393 6.42294C17.3955 6.37211 17.6309 6.24649 17.8157 6.06195C18.0005 5.87742 18.1263 5.64227 18.1774 5.38624C18.2285 5.1302 18.2024 4.86478 18.1026 4.62355C18.0027 4.38231 17.8335 4.17608 17.6163 4.03095C17.3992 3.88582 17.1439 3.8083 16.8826 3.8082H16.8821C16.5319 3.80836 16.1962 3.94741 15.9485 4.19481C15.7009 4.44221 15.5616 4.77773 15.5613 5.12767ZM6.55993 19.9537C5.48683 19.9049 4.90357 19.7263 4.51596 19.5753C4.00209 19.3754 3.63544 19.1373 3.24994 18.7525C2.86445 18.3678 2.62582 18.0017 2.42665 17.4882C2.27555 17.101 2.0968 16.5179 2.04802 15.4454C1.99466 14.2859 1.98401 13.9376 1.98401 11.0001C1.98401 8.06256 1.99554 7.71522 2.04802 6.55477C2.09689 5.48231 2.27696 4.90037 2.42665 4.51202C2.6267 3.99846 2.86497 3.63202 3.24994 3.24676C3.63491 2.8615 4.00121 2.62302 4.51596 2.42396C4.9034 2.27295 5.48683 2.09431 6.55993 2.04556C7.72012 1.99223 8.06863 1.98158 11.0066 1.98158C13.9446 1.98158 14.2934 1.99311 15.4546 2.04556C16.5277 2.0944 17.11 2.27436 17.4986 2.42396C18.0124 2.62302 18.3791 2.86202 18.7646 3.24676C19.1501 3.6315 19.3878 3.99846 19.5879 4.51202C19.739 4.89922 19.9177 5.48231 19.9665 6.55477C20.0199 7.71522 20.0305 8.06256 20.0305 11.0001C20.0305 13.9376 20.0199 14.285 19.9665 15.4454C19.9176 16.5179 19.738 17.1008 19.5879 17.4882C19.3878 18.0017 19.1495 18.3682 18.7646 18.7525C18.3796 19.1369 18.0124 19.3754 17.4986 19.5753C17.1111 19.7263 16.5277 19.905 15.4546 19.9537C14.2944 20.0071 13.9459 20.0177 11.0066 20.0177C8.06731 20.0177 7.71977 20.0071 6.55993 19.9537ZM6.4688 0.066616C5.29708 0.119944 4.49642 0.305624 3.79719 0.577544C3.07304 0.858352 2.46002 1.23508 1.84744 1.84633C1.23485 2.45758 0.858867 3.0712 0.577891 3.79491C0.305807 4.49416 0.120016 5.2939 0.066656 6.46492C0.0124154 7.63778 0 8.01275 0 11C0 13.9872 0.0124154 14.3622 0.066656 15.5351C0.120016 16.7062 0.305807 17.5058 0.577891 18.2051C0.858867 18.9284 1.23494 19.5427 1.84744 20.1537C2.45993 20.7647 3.07304 21.1409 3.79719 21.4225C4.49774 21.6944 5.29708 21.8801 6.4688 21.9334C7.64298 21.9867 8.01756 22 11.0066 22C13.9956 22 14.3708 21.9876 15.5444 21.9334C16.7162 21.8801 17.5163 21.6944 18.216 21.4225C18.9397 21.1409 19.5532 20.7649 20.1658 20.1537C20.7783 19.5424 21.1535 18.9284 21.4353 18.2051C21.7074 17.5058 21.8941 16.7061 21.9465 15.5351C21.9999 14.3613 22.0123 13.9872 22.0123 11C22.0123 8.01275 21.9999 7.63778 21.9465 6.46492C21.8932 5.29382 21.7074 4.49372 21.4353 3.79491C21.1535 3.07164 20.7774 2.45854 20.1658 1.84633C19.5541 1.23411 18.9397 0.858352 18.2169 0.577544C17.5163 0.305624 16.7161 0.119064 15.5453 0.066616C14.3717 0.013288 13.9965 0 11.0075 0C8.01844 0 7.64298 0.012408 6.4688 0.066616Z" fill="url(#paint0_radial_3312_8390)"/>
<path d="M7.33832 11C7.33832 8.97503 8.98042 7.33304 11.0066 7.33304C13.0328 7.33304 14.6758 8.97503 14.6758 11C14.6758 13.025 13.0328 14.667 11.0066 14.667C8.98042 14.667 7.33832 13.025 7.33832 11ZM5.35484 11C5.35484 14.1196 7.88513 16.6484 11.0066 16.6484C14.1281 16.6484 16.6584 14.1196 16.6584 11C16.6584 7.8804 14.1281 5.35163 11.0066 5.35163C7.88513 5.35163 5.35484 7.8804 5.35484 11ZM15.5613 5.12767C15.5612 5.38874 15.6386 5.64398 15.7836 5.86111C15.9287 6.07824 16.1349 6.24751 16.3762 6.34752C16.6175 6.44752 16.883 6.47377 17.1393 6.42294C17.3955 6.37211 17.6309 6.24649 17.8157 6.06195C18.0005 5.87742 18.1263 5.64227 18.1774 5.38624C18.2285 5.1302 18.2024 4.86478 18.1026 4.62355C18.0027 4.38231 17.8335 4.17608 17.6163 4.03095C17.3992 3.88582 17.1439 3.8083 16.8826 3.8082H16.8821C16.5319 3.80836 16.1962 3.94741 15.9485 4.19481C15.7009 4.44221 15.5616 4.77773 15.5613 5.12767ZM6.55993 19.9537C5.48683 19.9049 4.90357 19.7263 4.51596 19.5753C4.00209 19.3754 3.63544 19.1373 3.24994 18.7525C2.86445 18.3678 2.62582 18.0017 2.42665 17.4882C2.27555 17.101 2.0968 16.5179 2.04802 15.4454C1.99466 14.2859 1.98401 13.9376 1.98401 11.0001C1.98401 8.06256 1.99554 7.71522 2.04802 6.55477C2.09689 5.48231 2.27696 4.90037 2.42665 4.51202C2.6267 3.99846 2.86497 3.63202 3.24994 3.24676C3.63491 2.8615 4.00121 2.62302 4.51596 2.42396C4.9034 2.27295 5.48683 2.09431 6.55993 2.04556C7.72012 1.99223 8.06863 1.98158 11.0066 1.98158C13.9446 1.98158 14.2934 1.99311 15.4546 2.04556C16.5277 2.0944 17.11 2.27436 17.4986 2.42396C18.0124 2.62302 18.3791 2.86202 18.7646 3.24676C19.1501 3.6315 19.3878 3.99846 19.5879 4.51202C19.739 4.89922 19.9177 5.48231 19.9665 6.55477C20.0199 7.71522 20.0305 8.06256 20.0305 11.0001C20.0305 13.9376 20.0199 14.285 19.9665 15.4454C19.9176 16.5179 19.738 17.1008 19.5879 17.4882C19.3878 18.0017 19.1495 18.3682 18.7646 18.7525C18.3796 19.1369 18.0124 19.3754 17.4986 19.5753C17.1111 19.7263 16.5277 19.905 15.4546 19.9537C14.2944 20.0071 13.9459 20.0177 11.0066 20.0177C8.06731 20.0177 7.71977 20.0071 6.55993 19.9537ZM6.4688 0.066616C5.29708 0.119944 4.49642 0.305624 3.79719 0.577544C3.07304 0.858352 2.46002 1.23508 1.84744 1.84633C1.23485 2.45758 0.858867 3.0712 0.577891 3.79491C0.305807 4.49416 0.120016 5.2939 0.066656 6.46492C0.0124154 7.63778 0 8.01275 0 11C0 13.9872 0.0124154 14.3622 0.066656 15.5351C0.120016 16.7062 0.305807 17.5058 0.577891 18.2051C0.858867 18.9284 1.23494 19.5427 1.84744 20.1537C2.45993 20.7647 3.07304 21.1409 3.79719 21.4225C4.49774 21.6944 5.29708 21.8801 6.4688 21.9334C7.64298 21.9867 8.01756 22 11.0066 22C13.9956 22 14.3708 21.9876 15.5444 21.9334C16.7162 21.8801 17.5163 21.6944 18.216 21.4225C18.9397 21.1409 19.5532 20.7649 20.1658 20.1537C20.7783 19.5424 21.1535 18.9284 21.4353 18.2051C21.7074 17.5058 21.8941 16.7061 21.9465 15.5351C21.9999 14.3613 22.0123 13.9872 22.0123 11C22.0123 8.01275 21.9999 7.63778 21.9465 6.46492C21.8932 5.29382 21.7074 4.49372 21.4353 3.79491C21.1535 3.07164 20.7774 2.45854 20.1658 1.84633C19.5541 1.23411 18.9397 0.858352 18.2169 0.577544C17.5163 0.305624 16.7161 0.119064 15.5453 0.066616C14.3717 0.013288 13.9965 0 11.0075 0C8.01844 0 7.64298 0.012408 6.4688 0.066616Z" fill="white"/>
</g>
<defs>
<radialGradient id="paint0_radial_3312_8390" cx="0" cy="0" r="1" gradientUnits="userSpaceOnUse" gradientTransform="translate(2.92459 22.1039) scale(28.7364 28.7192)">
<stop offset="0.09" stop-color="#FA8F21"/>
<stop offset="0.78" stop-color="#D82D7E"/>
</radialGradient>
<clipPath id="clip0_3312_8390">
<rect width="22" height="22" fill="white"/>
</clipPath>
</defs>
</svg>
