<svg width="66" height="66" viewBox="0 0 66 66" fill="none" xmlns="http://www.w3.org/2000/svg">
<g clip-path="url(#clip0_3333_959)">
<path d="M59.4 0H6.6C2.95647 0.00360938 0.00360938 2.95647 0 6.6V55C0.00360938 58.6436 2.95647 61.5964 6.6 61.6H46.9117L50.0906 64.7802C50.9105 65.6001 52.0351 66.0411 53.1938 65.997C54.3525 65.9529 55.4404 65.4279 56.1956 64.548C56.8906 63.7298 57.2341 62.6702 57.1515 61.6H59.4C63.0435 61.5964 65.9964 58.6436 66 55V6.6C65.9964 2.95647 63.0435 0.00360938 59.4 0V0ZM6.6 2.20004H59.4C61.83 2.20004 63.8 4.16999 63.8 6.6V13.2H2.20004V6.6C2.20004 4.16999 4.16999 2.20004 6.6 2.20004ZM42.4919 52.4865C42.9231 52.1201 43.3443 51.7418 43.7437 51.3403L46.0537 53.6503C45.5775 53.9633 45.1706 54.3706 44.858 54.847L42.4919 52.4865ZM29.7 55C19.9798 55 12.1 47.1203 12.1 37.4001C12.1 27.6799 19.9798 19.8 29.7 19.8C39.4202 19.8 47.3 27.6798 47.3 37.4C47.2885 47.1155 39.4154 54.9884 29.7 55ZM54.5281 63.1125C54.1637 63.5143 53.6528 63.7524 53.1108 63.7731C52.5687 63.7939 52.0413 63.5954 51.6472 63.2226L46.9447 58.5201C46.2208 57.7468 46.2407 56.5388 46.9897 55.7897C47.7386 55.0408 48.9467 55.0208 49.72 55.7447L54.3049 60.3295C55.0788 61.0642 55.1751 62.2639 54.5281 63.1125ZM59.4 59.4H56.3827C56.2285 59.1761 56.0544 58.9665 55.8624 58.7742L51.2776 54.1894C50.5354 53.4496 49.5398 53.0194 48.4925 52.986L45.199 49.686C51.5735 41.5969 50.6504 29.9648 43.0798 22.9823C35.5093 15.9998 23.8407 16.018 16.2922 23.0243C8.74371 30.0306 7.85697 41.6655 14.2566 49.7346C20.6563 57.8038 32.1875 59.59 40.7286 53.8354L44.1836 57.2904C44.2076 58.0411 44.4358 58.7708 44.8436 59.4013H6.6C4.16999 59.4013 2.20004 57.4313 2.20004 55.0013V15.4H63.8001V55C63.8 57.4301 61.83 59.4 59.4 59.4Z" fill="white"/>
<path d="M7.70039 10.9999C9.52287 10.9999 11.0004 9.52238 11.0004 7.6999C11.0004 5.87743 9.52287 4.3999 7.70039 4.3999C5.87791 4.3999 4.40039 5.87743 4.40039 7.6999C4.40039 9.52238 5.87791 10.9999 7.70039 10.9999ZM7.70039 6.59995C8.30793 6.59995 8.80035 7.0925 8.80035 7.6999C8.80035 8.30731 8.3078 8.79986 7.70039 8.79986C7.09298 8.79986 6.60043 8.30744 6.60043 7.6999C6.60043 7.09237 7.09298 6.59995 7.70039 6.59995Z" fill="white"/>
<path d="M16.5002 10.9999C18.3228 10.9999 19.8002 9.52238 19.8002 7.6999C19.8002 5.87743 18.3227 4.3999 16.5002 4.3999C14.6777 4.3999 13.2002 5.87743 13.2002 7.6999C13.2002 9.52238 14.6777 10.9999 16.5002 10.9999ZM16.5002 6.59995C17.1077 6.59995 17.6002 7.0925 17.6002 7.6999C17.6002 8.30731 17.1076 8.79986 16.5002 8.79986C15.8927 8.79986 15.4002 8.30731 15.4002 7.6999C15.4002 7.0925 15.8927 6.59995 16.5002 6.59995Z" fill="white"/>
<path d="M25.3 10.9999C27.1225 10.9999 28.6 9.52238 28.6 7.6999C28.6 5.87743 27.1225 4.3999 25.3 4.3999C23.4775 4.3999 22 5.87743 22 7.6999C22 9.52238 23.4774 10.9999 25.3 10.9999ZM25.3 6.59995C25.9075 6.59995 26.4 7.0925 26.4 7.6999C26.4 8.30731 25.9075 8.79986 25.3 8.79986C24.6925 8.79986 24.2 8.30731 24.2 7.6999C24.2 7.0925 24.6925 6.59995 25.3 6.59995Z" fill="white"/>
<path d="M47.3 10.9999H58.3C60.1224 10.9999 61.6 9.52238 61.6 7.6999C61.6 5.87743 60.1224 4.3999 58.3 4.3999H47.3C45.4775 4.3999 44 5.87743 44 7.6999C44 9.52238 45.4775 10.9999 47.3 10.9999ZM47.3 6.59995H58.3C58.9075 6.59995 59.3999 7.0925 59.3999 7.6999C59.3999 8.30731 58.9075 8.79986 58.3 8.79986H47.3C46.6925 8.79986 46.2 8.30731 46.2 7.6999C46.2 7.0925 46.6926 6.59995 47.3 6.59995Z" fill="white"/>
<path d="M29.7 24.1999C30.3075 24.1999 30.8 23.7075 30.8 23.1C30.8 22.4925 30.3074 22 29.7 22C24.9582 21.99 20.4791 24.1765 17.5703 27.9213C17.1955 28.3995 17.2792 29.0909 17.7574 29.4658C18.2355 29.8406 18.9269 29.7568 19.3018 29.2787C21.7951 26.0679 25.6348 24.1926 29.7 24.1999Z" fill="white"/>
<path d="M22.0001 31.9001C21.3925 31.9001 20.9001 32.3927 20.9001 33.0001V39.6001C20.9001 40.2076 20.4076 40.7001 19.8002 40.7001C19.1927 40.7001 18.7002 41.1926 18.7002 41.8C18.7002 42.4074 19.1927 42.9 19.8002 42.9C21.6226 42.9 23.1002 41.4225 23.1002 39.6V33.0001C23.1 32.3926 22.6076 31.9001 22.0001 31.9001Z" fill="white"/>
<path d="M28.5998 31.9001C26.7772 31.9001 25.2998 33.3777 25.2998 35.2001V39.6001C25.2998 41.4226 26.7773 42.9001 28.5998 42.9001C30.4223 42.9001 31.8998 41.4226 31.8998 39.6001V35.2001C31.8998 33.3775 30.4223 31.9001 28.5998 31.9001ZM29.6998 39.6001C29.6998 40.2076 29.2072 40.7001 28.5998 40.7001C27.9923 40.7001 27.4998 40.2076 27.4998 39.6001V35.2001C27.4998 34.5926 27.9924 34.1002 28.5998 34.1002C29.2073 34.1002 29.6998 34.5926 29.6998 35.2001V39.6001Z" fill="white"/>
<path d="M37.3996 31.8999H35.1996C34.592 31.8999 34.0996 32.3925 34.0996 32.9999V41.7999C34.0996 42.4075 34.592 42.8999 35.1996 42.8999H37.3996C38.7038 42.9057 39.8879 42.1396 40.4172 40.9476C40.9465 39.7556 40.7206 38.3634 39.8416 37.4C40.7205 36.4364 40.9463 35.0443 40.4172 33.8524C39.888 32.6602 38.7039 31.8941 37.3996 31.8999ZM36.2997 34.0998H37.3996C38.0071 34.0998 38.4996 34.5923 38.4996 35.1998C38.4996 35.8073 38.007 36.2998 37.3996 36.2998H36.2997V34.0998ZM37.3996 40.6999H36.2997V38.4998H37.3996C38.0071 38.4998 38.4996 38.9922 38.4996 39.5998C38.4996 40.2073 38.0071 40.6999 37.3996 40.6999Z" fill="white"/>
<path d="M16.5003 33C17.1078 33 17.6003 32.5075 17.6003 31.9C17.6003 31.2925 17.1078 30.8 16.5003 30.8C15.8929 30.8 15.4004 31.2925 15.4004 31.9C15.4004 32.5075 15.8929 33 16.5003 33Z" fill="white"/>
</g>
<defs>
<clipPath id="clip0_3333_959">
<rect width="66" height="66" fill="white"/>
</clipPath>
</defs>
</svg>
