<svg width="24" height="24" viewBox="0 0 24 24" fill="none" xmlns="http://www.w3.org/2000/svg">
<g id="link (2) 1" clip-path="url(#clip0_2242_77084)">
<g id="Group">
<g id="Group_2">
<path id="Vector" d="M14.6418 9.35457C14.3575 9.06859 14.0423 8.81509 13.702 8.59871C12.8006 8.02155 11.7528 7.71485 10.6825 7.71485C9.19696 7.71209 7.77179 8.30233 6.7232 9.35457L1.63611 14.4456C0.589302 15.4945 0.000938491 16.9155 1.15921e-06 18.3973C-0.00196724 21.4896 2.50315 23.9979 5.5954 23.9999C7.07864 24.0051 8.50249 23.4176 9.55071 22.3682L13.75 18.169C13.8263 18.0933 13.8689 17.9901 13.8682 17.8827C13.867 17.6618 13.6869 17.4838 13.466 17.4851H13.306C12.4287 17.4882 11.5592 17.3197 10.7465 16.9892C10.5968 16.9276 10.4247 16.9623 10.3106 17.0772L7.29113 20.1006C6.35352 21.0382 4.83335 21.0382 3.89574 20.1006C2.95813 19.163 2.95813 17.6428 3.89574 16.7052L9.00284 11.6022C9.9397 10.6665 11.4574 10.6665 12.3942 11.6022C13.0256 12.1964 14.0105 12.1964 14.6418 11.6022C14.9135 11.3303 15.0782 10.9697 15.1058 10.5863C15.135 10.1282 14.966 9.67955 14.6418 9.35457Z" fill="#565EFF"/>
</g>
</g>
<g id="Group_3">
<g id="Group_4">
<path id="Vector_2" d="M22.3597 1.63999C20.1731 -0.546664 16.6278 -0.546664 14.4412 1.63999L10.2459 5.83122C10.1307 5.94698 10.0975 6.12109 10.1619 6.27116C10.2256 6.42165 10.3745 6.51824 10.5378 6.5151H10.6858C11.5621 6.51351 12.4302 6.6833 13.2413 7.01503C13.3911 7.07666 13.5632 7.04188 13.6772 6.92706L16.6887 3.91958C17.6263 2.98197 19.1465 2.98197 20.0841 3.91958C21.0217 4.85719 21.0217 6.37736 20.0841 7.31497L16.3327 11.0623L16.3007 11.0983L14.989 12.4021C14.0521 13.3377 12.5344 13.3377 11.5976 12.4021C10.9662 11.8078 9.98134 11.8078 9.35 12.4021C9.07663 12.676 8.9118 13.0397 8.88607 13.4259C8.85682 13.884 9.02578 14.3326 9.35 14.6577C9.8129 15.1225 10.3545 15.5016 10.9497 15.7774C11.0337 15.8174 11.1177 15.8494 11.2017 15.8854C11.2856 15.9214 11.3736 15.9494 11.4576 15.9814C11.5416 16.0134 11.6295 16.0414 11.7135 16.0654L11.9495 16.1294C12.1095 16.1693 12.2695 16.2013 12.4334 16.2293C12.6309 16.2587 12.8298 16.2774 13.0293 16.2853H13.3092H13.3332L13.5732 16.2574C13.6612 16.2534 13.7532 16.2334 13.8572 16.2334H13.9931L14.2691 16.1934L14.3971 16.1694L14.629 16.1214H14.673C15.6554 15.8746 16.5524 15.366 17.2685 14.6496L22.3596 9.55857C24.5464 7.37191 24.5464 3.82665 22.3597 1.63999Z" fill="#565EFF"/>
</g>
</g>
</g>
<defs>
<clipPath id="clip0_2242_77084">
<rect width="24" height="24" fill="white"/>
</clipPath>
</defs>
</svg>
