<?xml version="1.0" encoding="UTF-8" standalone="no"?>
<svg xmlns="http://www.w3.org/2000/svg" version="1.2" baseProfile="tiny" viewBox="0.00 0.00 166.00 44.00">
<circle fill="#ffffff" cx="107.09" cy="4.40" r="3.94"/>
<path fill="#ffffff" d="
  M 81.64 32.11
  L 82.21 33.91
  A 0.65 0.65 0.0 0 1 81.59 34.75
  L 75.79 34.75
  Q 75.27 34.75 75.26 34.23
  L 75.07 2.46
  Q 75.07 2.00 75.54 2.00
  L 81.38 2.00
  Q 82.02 2.00 82.02 2.63
  L 81.96 13.49
  Q 81.96 14.10 82.45 13.73
  Q 89.42 8.52 94.98 13.18
  C 103.09 19.98 98.50 38.45 85.81 34.41
  C 84.32 33.94 83.42 32.63 82.03 31.80
  A 0.27 0.27 0.0 0 0 81.64 32.11
  Z
  M 87.1707 29.3692
  A 6.41 5.18 89.1 0 0 92.2494 22.8786
  A 6.41 5.18 89.1 0 0 86.9693 16.5508
  A 6.41 5.18 89.1 0 0 81.8906 23.0414
  A 6.41 5.18 89.1 0 0 87.1707 29.3692
  Z"
/>
<rect fill="#ffffff" x="0.73" y="3.50" width="7.20" height="31.24" rx="0.26"/>
<path fill="#ffffff" d="
  M 16.55 19.29
  L 27.19 34.21
  A 0.34 0.34 0.0 0 1 26.91 34.75
  L 18.84 34.75
  A 0.34 0.34 0.0 0 1 18.56 34.60
  L 8.27 19.37
  A 0.34 0.34 0.0 0 1 8.26 18.99
  L 18.14 3.66
  A 0.34 0.34 0.0 0 1 18.43 3.50
  L 26.15 3.50
  A 0.34 0.34 0.0 0 1 26.43 4.03
  L 16.54 18.91
  A 0.34 0.34 0.0 0 0 16.55 19.29
  Z"
/>
<path fill="#ffffff" d="
  M 42.31 32.96
  C 37.72 36.96 30.21 34.78 30.05 28.00
  C 29.90 21.57 37.28 20.42 42.12 21.12
  A 0.68 0.67 87.3 0 0 42.87 20.29
  L 42.18 17.46
  A 0.87 0.86 0.6 0 0 41.55 16.82
  Q 36.80 15.62 32.63 17.98
  A 0.59 0.59 0.0 0 1 31.75 17.47
  L 31.75 13.01
  A 0.87 0.87 0.0 0 1 32.32 12.19
  C 36.92 10.41 44.92 9.63 48.22 14.25
  C 50.77 17.81 49.84 29.68 49.68 34.16
  Q 49.65 34.75 49.06 34.75
  L 43.97 34.75
  Q 43.37 34.75 43.20 34.18
  L 42.89 33.13
  Q 42.74 32.59 42.31 32.96
  Z
  M 42.62 29.36
  L 42.21 25.22
  A 0.30 0.30 0.0 0 0 41.88 24.95
  L 39.42 25.20
  A 2.67 2.18 -5.7 0 0 36.98 27.63
  L 37.02 28.03
  A 2.67 2.18 -5.7 0 0 39.90 29.93
  L 42.35 29.69
  A 0.30 0.30 0.0 0 0 42.62 29.36
  Z"
/>
<path fill="#ffffff" d="
  M 64.03 27.71
  A 1.40 1.38 -84.5 0 0 63.12 26.59
  C 47.36 20.98 56.21 7.26 69.24 11.80
  Q 69.75 11.98 69.75 12.53
  L 69.75 16.77
  Q 69.75 17.40 69.14 17.25
  C 66.74 16.69 63.37 15.42 61.64 17.78
  A 0.92 0.92 0.0 0 0 61.92 19.13
  C 66.55 21.78 74.05 24.22 69.98 31.26
  C 67.25 35.99 59.52 35.10 55.44 33.97
  A 0.81 0.79 6.0 0 1 54.84 33.24
  L 54.51 28.24
  Q 54.47 27.51 55.11 27.85
  Q 58.29 29.52 61.72 29.70
  Q 64.32 29.83 64.03 27.71
  Z"
/>
<path fill="#ffffff" d="
  M 123.59 14.28
  L 125.57 12.31
  A 2.06 2.05 -77.4 0 1 126.37 11.80
  C 141.26 6.49 137.74 27.15 137.75 34.23
  Q 137.75 34.76 137.22 34.75
  L 131.60 34.74
  A 0.58 0.58 0.0 0 1 131.02 34.12
  C 131.42 27.96 132.42 17.52 128.44 16.61
  C 120.94 14.89 122.93 29.88 123.15 34.11
  Q 123.19 34.75 122.54 34.75
  L 117.12 34.75
  Q 116.48 34.75 116.48 34.12
  L 116.47 11.89
  Q 116.47 11.24 117.11 11.25
  L 122.35 11.26
  A 0.65 0.65 0.0 0 1 123.00 11.91
  L 123.00 14.04
  Q 123.00 14.87 123.59 14.28
  Z"
/>
<path fill="#ffffff" d="
  M 144.99 35.81
  C 148.93 37.62 158.77 40.12 158.24 32.23
  Q 158.20 31.64 157.66 31.89
  C 156.09 32.61 154.71 33.87 152.97 33.94
  C 141.14 34.35 139.02 18.92 146.40 12.91
  Q 151.84 8.50 157.45 13.52
  A 0.43 0.43 0.0 0 0 158.16 13.24
  L 158.30 11.83
  A 0.67 0.66 -86.7 0 1 158.97 11.23
  L 164.42 11.31
  Q 164.96 11.32 164.97 11.86
  Q 165.07 22.21 164.99 32.50
  C 164.90 43.72 153.49 45.63 145.13 42.47
  Q 144.63 42.28 144.61 41.76
  L 144.37 36.23
  Q 144.34 35.51 144.99 35.81
  Z
  M 153.6045 28.7092
  A 6.08 4.55 90.9 0 0 158.2494 22.7015
  A 6.08 4.55 90.9 0 0 153.7955 16.5508
  A 6.08 4.55 90.9 0 0 149.1506 22.5585
  A 6.08 4.55 90.9 0 0 153.6045 28.7092
  Z"
/>
<rect fill="#ffffff" x="-3.32" y="-11.70" transform="translate(107.07,23.04) rotate(-0.4)" width="6.64" height="23.40" rx="0.46"/>
</svg>
