<svg width="70" height="71" viewBox="0 0 70 71" fill="none" xmlns="http://www.w3.org/2000/svg">
<rect width="70" height="71" rx="10" fill="#FCCFF2"/>
<path d="M45.3125 17.2188C44.5834 17.2196 43.8844 17.5162 43.3689 18.0434C42.8533 18.5707 42.5633 19.2856 42.5625 20.0312V20.4994C39.6265 23.6777 35.6541 25.8539 32.7981 27.1322C29.2906 28.702 26.0629 29.5234 24.6875 29.5234H16.4375C15.6173 29.5244 14.8309 29.858 14.2509 30.4512C13.6709 31.0444 13.3447 31.8486 13.3438 32.6875V38.3125C13.3447 39.1514 13.6709 39.9556 14.2509 40.5488C14.8309 41.142 15.6173 41.4756 16.4375 41.4766H18.1562V48.8594C18.1562 49.1391 18.2649 49.4074 18.4583 49.6052C18.6517 49.8029 18.914 49.9141 19.1875 49.9141H22.625C22.855 49.9141 23.0784 49.8355 23.2596 49.6907C23.4409 49.546 23.5697 49.3434 23.6255 49.1152L25.4775 41.5391C27.0961 41.757 29.8479 42.5478 32.7981 43.8682C35.6541 45.1464 39.6265 47.3227 42.5625 50.5009V50.9688C42.5625 51.7147 42.8522 52.43 43.368 52.9575C43.8837 53.4849 44.5832 53.7812 45.3125 53.7812C46.0418 53.7812 46.7413 53.4849 47.257 52.9575C47.7728 52.43 48.0625 51.7147 48.0625 50.9688V20.0312C48.0617 19.2856 47.7717 18.5707 47.2561 18.0434C46.7406 17.5162 46.0416 17.2196 45.3125 17.2188ZM23.6562 39.3672H20.2188V31.6328H23.6562V39.3672ZM15.4062 38.3125V32.6875C15.4065 32.4079 15.5153 32.1398 15.7086 31.9421C15.902 31.7443 16.1641 31.6331 16.4375 31.6328H18.1562V39.3672H16.4375C16.1641 39.3669 15.902 39.2557 15.7086 39.0579C15.5153 38.8602 15.4065 38.5921 15.4062 38.3125ZM21.8199 47.8047H20.2188V41.4766H23.3667L21.8199 47.8047ZM25.7188 39.4488V31.5513C29.3435 31.0576 37.1429 28.3116 42.5625 23.425V47.575C37.1429 42.6884 29.3435 39.9424 25.7188 39.4488ZM46 50.9688C46 51.1552 45.9276 51.3341 45.7986 51.4659C45.6697 51.5978 45.4948 51.6719 45.3125 51.6719C45.1302 51.6719 44.9553 51.5978 44.8264 51.4659C44.6974 51.3341 44.625 51.1552 44.625 50.9688V20.0312C44.625 19.8448 44.6974 19.6659 44.8264 19.5341C44.9553 19.4022 45.1302 19.3281 45.3125 19.3281C45.4948 19.3281 45.6697 19.4022 45.7986 19.5341C45.9276 19.6659 46 19.8448 46 20.0312V50.9688Z" fill="black"/>
<path d="M55.625 34.4453H52.1875C51.914 34.4453 51.6517 34.5564 51.4583 34.7542C51.2649 34.952 51.1562 35.2203 51.1562 35.5C51.1562 35.7797 51.2649 36.048 51.4583 36.2458C51.6517 36.4436 51.914 36.5547 52.1875 36.5547H55.625C55.8985 36.5547 56.1608 36.4436 56.3542 36.2458C56.5476 36.048 56.6562 35.7797 56.6562 35.5C56.6562 35.2203 56.5476 34.952 56.3542 34.7542C56.1608 34.5564 55.8985 34.4453 55.625 34.4453Z" fill="black"/>
<path d="M50.4911 28.9378C50.6455 28.9377 50.798 28.902 50.9372 28.8333L54.0355 27.3099C54.282 27.1887 54.4713 26.9723 54.5618 26.7084C54.6523 26.4444 54.6365 26.1545 54.518 25.9024C54.3995 25.6503 54.1879 25.4566 53.9298 25.3641C53.6717 25.2715 53.3882 25.2876 53.1417 25.4089L50.0438 26.9323C49.833 27.0359 49.6629 27.2096 49.5613 27.425C49.4598 27.6404 49.4328 27.8847 49.4849 28.1178C49.5369 28.3509 49.6648 28.5591 49.8477 28.708C50.0306 28.857 50.2576 28.938 50.4914 28.9378H50.4911Z" fill="black"/>
<path d="M54.0356 43.6902L50.9377 42.1668C50.6915 42.0478 50.4093 42.0332 50.1526 42.1263C49.8959 42.2193 49.6857 42.4123 49.5677 42.6633C49.4497 42.9143 49.4335 43.2028 49.5227 43.4659C49.612 43.729 49.7993 43.9454 50.0439 44.0678L53.1419 45.5913C53.3884 45.7125 53.6718 45.7286 53.93 45.636C54.1881 45.5435 54.3996 45.3499 54.5182 45.0978C54.6367 44.8457 54.6524 44.5557 54.5619 44.2918C54.4714 44.0278 54.2821 43.8114 54.0356 43.6902Z" fill="black"/>
</svg>
