<svg width="44" height="45" viewBox="0 0 44 45" fill="none" xmlns="http://www.w3.org/2000/svg">
<g id="public-relation 1">
<g id="10-awareness">
<g id="linear color">
<path id="Vector" d="M32.3125 4.21875C31.5834 4.21959 30.8844 4.51617 30.3689 5.04344C29.8533 5.5707 29.5633 6.28559 29.5625 7.03125V7.49944C26.6265 10.6777 22.6541 12.8539 19.7981 14.1322C16.2906 15.702 13.0629 16.5234 11.6875 16.5234H3.4375C2.61727 16.5244 1.83089 16.858 1.25089 17.4512C0.6709 18.0444 0.34466 18.8486 0.34375 19.6875V25.3125C0.34466 26.1514 0.6709 26.9556 1.25089 27.5488C1.83089 28.142 2.61727 28.4756 3.4375 28.4766H5.15625V35.8594C5.15625 36.1391 5.2649 36.4074 5.4583 36.6052C5.65169 36.8029 5.914 36.9141 6.1875 36.9141H9.625C9.85498 36.9141 10.0784 36.8355 10.2596 36.6907C10.4409 36.546 10.5697 36.3434 10.6255 36.1152L12.4775 28.5391C14.0961 28.757 16.8479 29.5478 19.7981 30.8682C22.6541 32.1464 26.6265 34.3227 29.5625 37.5009V37.9688C29.5625 38.7147 29.8522 39.43 30.368 39.9575C30.8837 40.4849 31.5832 40.7812 32.3125 40.7812C33.0418 40.7812 33.7413 40.4849 34.257 39.9575C34.7728 39.43 35.0625 38.7147 35.0625 37.9688V7.03125C35.0617 6.28559 34.7717 5.5707 34.2561 5.04344C33.7406 4.51617 33.0416 4.21959 32.3125 4.21875ZM10.6562 26.3672H7.21875V18.6328H10.6562V26.3672ZM2.40625 25.3125V19.6875C2.40655 19.4079 2.51529 19.1398 2.70862 18.9421C2.90196 18.7443 3.16409 18.6331 3.4375 18.6328H5.15625V26.3672H3.4375C3.16409 26.3669 2.90196 26.2557 2.70862 26.0579C2.51529 25.8602 2.40655 25.5921 2.40625 25.3125ZM8.81985 34.8047H7.21875V28.4766H10.3667L8.81985 34.8047ZM12.7188 26.4488V18.5513C16.3435 18.0576 24.1429 15.3116 29.5625 10.425V34.575C24.1429 29.6884 16.3435 26.9424 12.7188 26.4488ZM33 37.9688C33 38.1552 32.9276 38.3341 32.7986 38.4659C32.6697 38.5978 32.4948 38.6719 32.3125 38.6719C32.1302 38.6719 31.9553 38.5978 31.8264 38.4659C31.6974 38.3341 31.625 38.1552 31.625 37.9688V7.03125C31.625 6.84477 31.6974 6.66593 31.8264 6.53407C31.9553 6.4022 32.1302 6.32812 32.3125 6.32812C32.4948 6.32812 32.6697 6.4022 32.7986 6.53407C32.9276 6.66593 33 6.84477 33 7.03125V37.9688Z" fill="black"/>
<path id="Vector_2" d="M42.625 21.4453H39.1875C38.914 21.4453 38.6517 21.5564 38.4583 21.7542C38.2649 21.952 38.1562 22.2203 38.1562 22.5C38.1562 22.7797 38.2649 23.048 38.4583 23.2458C38.6517 23.4436 38.914 23.5547 39.1875 23.5547H42.625C42.8985 23.5547 43.1608 23.4436 43.3542 23.2458C43.5476 23.048 43.6562 22.7797 43.6562 22.5C43.6562 22.2203 43.5476 21.952 43.3542 21.7542C43.1608 21.5564 42.8985 21.4453 42.625 21.4453Z" fill="black"/>
<path id="Vector_3" d="M37.4911 15.9378C37.6455 15.9377 37.798 15.902 37.9372 15.8333L41.0355 14.3099C41.282 14.1887 41.4713 13.9723 41.5618 13.7084C41.6523 13.4444 41.6365 13.1545 41.518 12.9024C41.3995 12.6503 41.1879 12.4566 40.9298 12.3641C40.6717 12.2715 40.3882 12.2876 40.1417 12.4089L37.0438 13.9323C36.833 14.0359 36.6629 14.2096 36.5613 14.425C36.4598 14.6404 36.4328 14.8847 36.4849 15.1178C36.5369 15.3509 36.6648 15.5591 36.8477 15.708C37.0306 15.857 37.2576 15.938 37.4914 15.9378H37.4911Z" fill="black"/>
<path id="Vector_4" d="M41.0356 30.6902L37.9377 29.1668C37.6915 29.0478 37.4093 29.0332 37.1526 29.1263C36.8959 29.2193 36.6857 29.4123 36.5677 29.6633C36.4497 29.9143 36.4335 30.2028 36.5227 30.4659C36.612 30.729 36.7993 30.9454 37.0439 31.0678L40.1419 32.5913C40.3884 32.7125 40.6718 32.7286 40.93 32.636C41.1881 32.5435 41.3996 32.3499 41.5182 32.0978C41.6367 31.8457 41.6524 31.5557 41.5619 31.2918C41.4714 31.0278 41.2821 30.8114 41.0356 30.6902Z" fill="black"/>
</g>
</g>
</g>
</svg>
