<svg width="20" height="20" viewBox="0 0 20 20" fill="none" xmlns="http://www.w3.org/2000/svg">
<g clip-path="url(#clip0_2335_82988)">
<path d="M6.44531 7.10938C9.99926 7.10938 12.8906 10.0007 12.8906 13.5547C12.8906 17.1086 9.99926 20 6.44531 20C2.89137 20 0 17.1086 0 13.5547C0 10.0007 2.89137 7.10938 6.44531 7.10938ZM6.44531 12.9688C5.47602 12.9688 4.6875 13.7573 4.6875 14.7266C4.6875 15.4895 5.17883 16.1337 5.85938 16.3764V17.6562H7.03125V16.3764C7.7118 16.1337 8.20312 15.4895 8.20312 14.7266H7.03125C7.03125 15.0498 6.76859 15.3125 6.44531 15.3125C6.12203 15.3125 5.85938 15.0498 5.85938 14.7266C5.85938 14.4033 6.12203 14.1406 6.44531 14.1406C7.41461 14.1406 8.20312 13.3521 8.20312 12.3828C8.20312 11.6199 7.7118 10.9756 7.03125 10.7329V9.45312H5.85938V10.7329C5.17883 10.9756 4.6875 11.6199 4.6875 12.3828H5.85938C5.85938 12.0595 6.12203 11.7969 6.44531 11.7969C6.76859 11.7969 7.03125 12.0595 7.03125 12.3828C7.03125 12.7061 6.76859 12.9688 6.44531 12.9688Z" fill="#565EFF"/>
<path d="M13.4766 7.10938C9.8625 7.10938 7.03125 5.565 7.03125 3.59375C7.03125 1.6225 9.8625 0 13.4766 0C17.0906 0 20 1.6225 20 3.59375C20 5.565 17.0906 7.10938 13.4766 7.10938Z" fill="#565EFF"/>
<path d="M20 13.1875V14.1422C20 16.1135 17.0906 17.6579 13.4766 17.6579C13.2716 17.6579 13.0729 17.639 12.8711 17.6291C13.3205 16.9224 13.6557 16.1383 13.8531 15.3C16.4666 15.2279 18.7359 14.4248 20 13.1875Z" fill="#565EFF"/>
<path d="M14.0343 14.1124C14.0478 13.9281 14.0625 13.744 14.0625 13.5563C14.0625 12.9455 13.9825 12.3543 13.846 11.7847C16.4627 11.7138 18.7347 10.9103 20 9.67188V10.6266C20 12.4933 17.3726 13.9603 14.0343 14.1124Z" fill="#565EFF"/>
<path d="M13.4766 10.6266C13.4759 10.6266 13.4754 10.6265 13.4748 10.6265C13.0883 9.70293 12.5266 8.87035 11.8289 8.17277C12.3581 8.23965 12.905 8.28285 13.4766 8.28285C16.2585 8.28285 18.6748 7.45328 20 6.15625V7.11098C20 9.08223 17.0906 10.6266 13.4766 10.6266Z" fill="#565EFF"/>
</g>
<defs>
<clipPath id="clip0_2335_82988">
<rect width="20" height="20" fill="white" transform="matrix(-1 0 0 1 20 0)"/>
</clipPath>
</defs>
</svg>
