<svg width="66" height="66" viewBox="0 0 66 66" fill="none" xmlns="http://www.w3.org/2000/svg">
<g clip-path="url(#clip0_3333_5180)">
<path d="M8.97468 18.6074C9.43423 18.6074 9.90822 18.4063 9.90822 18.0186V12.245L12.996 18.0186C13.2402 18.4637 13.6279 18.6074 14.0732 18.6074C14.5329 18.6074 15.0069 18.4063 15.0069 18.0186V8.68318C15.0069 8.28112 14.5329 8.10864 14.0732 8.10864C13.5993 8.10864 13.1396 8.28099 13.1396 8.68318V14.4568L10.3676 9.0998C9.92253 8.25237 9.64964 8.10877 8.97455 8.10877C8.50057 8.10877 8.04102 8.29556 8.04102 8.69762V18.0186C8.04114 18.4062 8.5007 18.6074 8.97468 18.6074Z" fill="white"/>
<path d="M18.8846 11.6992C17.865 11.6992 16.5866 12.1445 16.5866 12.7333C16.5866 13.1498 16.8022 13.6524 17.2185 13.6524C17.5634 13.6524 17.75 13.2072 18.8559 13.2072C19.8037 13.2072 20.1197 13.9109 20.1197 14.5285V14.7152H19.5308C17.5488 14.7152 16.1846 15.1749 16.1846 16.8265C16.1846 18.1333 17.032 18.7366 18.0516 18.7366C19.0426 18.7366 19.7178 18.1908 20.2347 17.602V18.0186C20.2347 18.3488 20.5937 18.6074 21.0677 18.6074C21.5847 18.6074 21.9725 18.3488 21.9725 18.0186V14.4998C21.9725 13.0494 21.125 11.6992 18.8846 11.6992ZM20.1197 15.979C20.1197 16.6827 19.3871 17.3578 18.7984 17.3578C18.3675 17.3578 18.0372 17.1137 18.0372 16.5822C18.0372 15.7779 18.942 15.6774 19.9043 15.6774H20.1198V15.979H20.1197Z" fill="white"/>
<path d="M11.9186 46.473L14.4896 43.2559C14.5901 43.1266 14.6044 42.9973 14.6044 42.8969C14.6044 42.4229 14.0013 41.9346 13.5273 41.9346C13.3262 41.9346 13.1538 42.0064 13.0102 42.2075L9.90809 46.4299V42.5091C9.90809 42.107 9.43411 41.9346 8.97456 41.9346C8.50057 41.9346 8.04102 42.1069 8.04102 42.5091V51.8444C8.04102 52.2321 8.50057 52.4332 8.97456 52.4332C9.43411 52.4332 9.90809 52.2321 9.90809 51.8444V49.0294L10.6836 48.0528L13.3837 52.146C13.5417 52.4046 13.7859 52.505 14.03 52.505C14.5758 52.505 15.1503 52.031 15.1503 51.5715C15.1503 51.4566 15.1216 51.3418 15.0498 51.2412L11.9186 46.473Z" fill="white"/>
<path d="M45.8127 43.5718C47.177 43.5718 47.2774 44.5484 47.3062 44.9936C47.3205 45.4244 47.7083 45.5825 48.2397 45.5825C48.8716 45.5825 49.1732 45.4101 49.1732 44.6634C49.1732 42.9974 47.7515 41.9346 45.7552 41.9346C43.9456 41.9346 42.4375 42.8251 42.4375 45.2235V49.2304C42.4375 51.6288 43.9311 52.5193 45.7407 52.5193C47.7514 52.5193 49.1732 51.4134 49.1732 49.6756C49.1732 48.9432 48.8716 48.7565 48.2254 48.7565C47.7372 48.7565 47.3349 48.9001 47.3063 49.3454C47.2632 49.9485 47.1484 50.8821 45.8415 50.8821C44.8505 50.8821 44.3048 50.3506 44.3048 49.2304V45.2235C44.3046 44.1033 44.8502 43.5718 45.8127 43.5718Z" fill="white"/>
<path d="M52.5917 45.5251C51.572 45.5251 50.2937 45.9704 50.2937 46.5592C50.2937 46.9757 50.5092 47.4783 50.9256 47.4783C51.2704 47.4783 51.457 47.0331 52.5629 47.0331C53.5108 47.0331 53.8267 47.7368 53.8267 48.3544V48.5412H53.2379C51.2558 48.5412 49.8916 49.0007 49.8916 50.6524C49.8916 51.9594 50.739 52.5625 51.7587 52.5625C52.7496 52.5625 53.4248 52.0167 53.9417 51.4279V51.8444C53.9417 52.1746 54.3007 52.4332 54.7747 52.4332C55.2917 52.4332 55.6795 52.1746 55.6795 51.8444V48.3258C55.6795 46.8752 54.8321 45.5251 52.5917 45.5251ZM53.8267 49.805C53.8267 50.5087 53.0941 51.1837 52.5054 51.1837C52.0745 51.1837 51.7442 50.9396 51.7442 50.4082C51.7442 49.604 52.649 49.5035 53.6113 49.5035H53.8268V49.805H53.8267Z" fill="white"/>
<path d="M25.9109 0.0568848H6.14934C2.75859 0.0568848 0 2.81548 0 6.20623V25.9678C0 29.3586 2.75859 32.1172 6.14934 32.1172H8.84297C9.37716 32.1172 9.81015 31.6842 9.81015 31.15C9.81015 30.6158 9.37716 30.1828 8.84297 30.1828H6.14934C3.82516 30.1828 1.93424 28.2919 1.93424 25.9677V6.20623C1.93424 3.88205 3.82516 1.99112 6.14934 1.99112H25.9109C28.2351 1.99112 30.126 3.88192 30.126 6.20623V25.9678C30.126 28.292 28.2351 30.1829 25.9109 30.1829H13.2704C12.7362 30.1829 12.3032 30.6159 12.3032 31.1501C12.3032 31.6843 12.7362 32.1173 13.2704 32.1173H25.9109C29.3017 32.1173 32.0603 29.3587 32.0603 25.9679V6.20623C32.0603 2.81548 29.3018 0.0568848 25.9109 0.0568848Z" fill="white"/>
<path d="M25.9109 33.8826H6.14934C2.75859 33.8826 0 36.6412 0 40.0319V59.7935C0 63.1842 2.75859 65.9428 6.14934 65.9428H25.9109C29.3017 65.9428 32.0603 63.1842 32.0603 59.7935V40.0319C32.0603 36.6412 29.3018 33.8826 25.9109 33.8826ZM30.126 59.7935C30.126 62.1177 28.2351 64.0086 25.9109 64.0086H6.14934C3.82516 64.0086 1.93424 62.1178 1.93424 59.7935V40.0319C1.93424 37.7077 3.82516 35.8168 6.14934 35.8168H25.9109C28.2351 35.8168 30.126 37.7077 30.126 40.0319V59.7935Z" fill="white"/>
<path d="M59.8505 33.8826H40.0889C36.6982 33.8826 33.9396 36.6412 33.9396 40.0319V50.4943C33.9396 51.0285 34.3726 51.4615 34.9068 51.4615C35.441 51.4615 35.8739 51.0285 35.8739 50.4943V40.0319C35.8739 37.7077 37.7647 35.8168 40.0891 35.8168H59.8506C62.1748 35.8168 64.0657 37.7077 64.0657 40.0319V59.7935C64.0657 62.1177 62.1748 64.0086 59.8506 64.0086H40.0889C37.7647 64.0086 35.8738 62.1178 35.8738 59.7935V54.9862C35.8738 54.452 35.4408 54.019 34.9066 54.019C34.3724 54.019 33.9395 54.452 33.9395 54.9862V59.7935C33.9395 63.1842 36.698 65.9428 40.0888 65.9428H59.8504C63.2411 65.9428 65.9997 63.1842 65.9997 59.7935V40.0319C65.9999 36.6412 63.2413 33.8826 59.8505 33.8826Z" fill="white"/>
<path d="M8.29336 23.2244H14.741C15.2752 23.2244 15.7082 22.7914 15.7082 22.2572C15.7082 21.723 15.2752 21.29 14.741 21.29H8.29336C7.75917 21.29 7.32617 21.723 7.32617 22.2572C7.32617 22.7914 7.75917 23.2244 8.29336 23.2244Z" fill="white"/>
<path d="M8.29336 26.9642H23.7676C24.3018 26.9642 24.7348 26.5312 24.7348 25.997C24.7348 25.4628 24.3018 25.0298 23.7676 25.0298H8.29336C7.75917 25.0298 7.32617 25.4628 7.32617 25.997C7.32617 26.531 7.75917 26.9642 8.29336 26.9642Z" fill="white"/>
<path d="M8.29336 57.0503H14.741C15.2752 57.0503 15.7082 56.6173 15.7082 56.0832C15.7082 55.549 15.2752 55.116 14.741 55.116H8.29336C7.75917 55.116 7.32617 55.549 7.32617 56.0832C7.32617 56.6173 7.75917 57.0503 8.29336 57.0503Z" fill="white"/>
<path d="M23.7676 58.8557H8.29336C7.75917 58.8557 7.32617 59.2887 7.32617 59.8229C7.32617 60.3571 7.75917 60.7901 8.29336 60.7901H23.7676C24.3018 60.7901 24.7348 60.3571 24.7348 59.8229C24.7347 59.2887 24.3017 58.8557 23.7676 58.8557Z" fill="white"/>
<path d="M42.7894 57.0503H49.2371C49.7713 57.0503 50.2043 56.6173 50.2043 56.0832C50.2043 55.549 49.7713 55.116 49.2371 55.116H42.7894C42.2553 55.116 41.8223 55.549 41.8223 56.0832C41.8223 56.6173 42.2554 57.0503 42.7894 57.0503Z" fill="white"/>
<path d="M42.7894 60.7898H58.2637C58.7979 60.7898 59.2309 60.3568 59.2309 59.8227C59.2309 59.2885 58.7979 58.8555 58.2637 58.8555H42.7894C42.2553 58.8555 41.8223 59.2885 41.8223 59.8227C41.8224 60.3568 42.2554 60.7898 42.7894 60.7898Z" fill="white"/>
</g>
<defs>
<clipPath id="clip0_3333_5180">
<rect width="66" height="66" fill="white"/>
</clipPath>
</defs>
</svg>
