<svg width="39" height="39" viewBox="0 0 39 39" fill="none" xmlns="http://www.w3.org/2000/svg">
<g id="arrow-right (3) 2" clip-path="url(#clip0_2239_76586)">
<path id="Vector" d="M19.5001 0C30.2696 0 39 8.73037 39 19.4999C39 30.2694 30.2696 39.0001 19.5001 39.0001C8.73061 39.0001 -0.000118256 30.2694 -0.000118256 19.4999C0.0120201 8.73537 8.73525 0.0121398 19.5001 0V0ZM19.5001 37.0499C29.1928 37.0499 37.0501 29.1925 37.0501 19.4999C37.0501 9.80725 29.1928 1.94988 19.5001 1.94988C9.80749 1.94988 1.95012 9.80725 1.95012 19.4999C1.96119 29.1879 9.81213 37.0388 19.5001 37.0499Z" fill="#A0A0A0"/>
<path id="Vector_2" d="M21.785 11.9403C22.1906 11.5857 22.8065 11.6271 23.1611 12.0324C23.5153 12.438 23.4739 13.0539 23.0686 13.4085L16.1075 19.4992L23.069 25.5902C23.4746 25.9447 23.5157 26.5606 23.1615 26.9659C22.8069 27.3715 22.191 27.4129 21.7854 27.0584L13.9855 20.2333C13.7737 20.0483 13.6523 19.7805 13.6523 19.4992C13.6523 19.2178 13.7737 18.9504 13.9855 18.765L21.785 11.9403Z" fill="#A0A0A0"/>
</g>
<defs>
<clipPath id="clip0_2239_76586">
<rect width="39" height="39" fill="white" transform="matrix(-1 0 0 1 39 0)"/>
</clipPath>
</defs>
</svg>
