<svg width="39" height="39" viewBox="0 0 39 39" fill="none" xmlns="http://www.w3.org/2000/svg">
<g id="arrow-right (3) 1" clip-path="url(#clip0_2239_76589)">
<path id="Vector" d="M19.4999 0C8.73037 0 0 8.73037 0 19.4999C0 30.2694 8.73037 39.0001 19.4999 39.0001C30.2694 39.0001 39.0001 30.2694 39.0001 19.4999C38.988 8.73537 30.2648 0.0121398 19.4999 0V0ZM19.4999 37.0499C9.80725 37.0499 1.94988 29.1925 1.94988 19.4999C1.94988 9.80725 9.80725 1.94988 19.4999 1.94988C29.1925 1.94988 37.0499 9.80725 37.0499 19.4999C37.0388 29.1879 29.1879 37.0388 19.4999 37.0499Z" fill="#A0A0A0"/>
<path id="Vector_2" d="M17.215 11.9403C16.8094 11.5857 16.1935 11.6271 15.8389 12.0324C15.4847 12.438 15.5261 13.0539 15.9314 13.4085L22.8925 19.4992L15.931 25.5902C15.5254 25.9447 15.4843 26.5606 15.8385 26.9659C16.1931 27.3715 16.809 27.4129 17.2146 27.0584L25.0145 20.2333C25.2263 20.0483 25.3477 19.7805 25.3477 19.4992C25.3477 19.2178 25.2263 18.9504 25.0145 18.765L17.215 11.9403Z" fill="#A0A0A0"/>
</g>
<defs>
<clipPath id="clip0_2239_76589">
<rect width="39" height="39" fill="white"/>
</clipPath>
</defs>
</svg>
