<svg width="70" height="71" viewBox="0 0 70 71" fill="none" xmlns="http://www.w3.org/2000/svg">
<rect width="70" height="71" rx="10" fill="#A2DDFF"/>
<path d="M38.4375 50.9688H37.0625V44.0781C37.0625 43.8916 36.9901 43.7128 36.8611 43.5809C36.7322 43.4491 36.5573 43.375 36.375 43.375C36.1927 43.375 36.0178 43.4491 35.8889 43.5809C35.7599 43.7128 35.6875 43.8916 35.6875 44.0781V50.9688H17.8125V36.9062H23.5325C23.7148 36.9062 23.8897 36.8322 24.0186 36.7003C24.1476 36.5684 24.22 36.3896 24.22 36.2031C24.22 36.0166 24.1476 35.8378 24.0186 35.7059C23.8897 35.5741 23.7148 35.5 23.5325 35.5H17.125C16.9427 35.5 16.7678 35.5741 16.6389 35.7059C16.5099 35.8378 16.4375 36.0166 16.4375 36.2031V50.9688H15.0625C14.8802 50.9688 14.7053 51.0428 14.5764 51.1747C14.4474 51.3066 14.375 51.4854 14.375 51.6719V53.0781C14.375 54.0105 14.7372 54.9047 15.3818 55.564C16.0265 56.2234 16.9008 56.5938 17.8125 56.5938H35.6875C36.5992 56.5938 37.4735 56.2234 38.1182 55.564C38.7628 54.9047 39.125 54.0105 39.125 53.0781V51.6719C39.125 51.4854 39.0526 51.3066 38.9236 51.1747C38.7947 51.0428 38.6198 50.9688 38.4375 50.9688ZM37.75 53.0781C37.75 53.6376 37.5327 54.1741 37.1459 54.5697C36.7591 54.9653 36.2345 55.1875 35.6875 55.1875H34.3125V54.4844C34.3125 54.2979 34.2401 54.1191 34.1111 53.9872C33.9822 53.8553 33.8073 53.7812 33.625 53.7812C33.4427 53.7812 33.2678 53.8553 33.1389 53.9872C33.0099 54.1191 32.9375 54.2979 32.9375 54.4844V55.1875H20.5625V54.4844C20.5625 54.2979 20.4901 54.1191 20.3611 53.9872C20.2322 53.8553 20.0573 53.7812 19.875 53.7812C19.6927 53.7812 19.5178 53.8553 19.3889 53.9872C19.2599 54.1191 19.1875 54.2979 19.1875 54.4844V55.1875H17.8125C17.2655 55.1875 16.7409 54.9653 16.3541 54.5697C15.9673 54.1741 15.75 53.6376 15.75 53.0781V52.375H37.75V53.0781Z" fill="black"/>
<path d="M50.125 18.625H51.5C51.6823 18.625 51.8572 18.5509 51.9861 18.4191C52.1151 18.2872 52.1875 18.1084 52.1875 17.9219C52.1875 17.7354 52.1151 17.5566 51.9861 17.4247C51.8572 17.2928 51.6823 17.2188 51.5 17.2188H50.125C49.578 17.2188 49.0534 17.441 48.6666 17.8366C48.2798 18.2322 48.0625 18.7687 48.0625 19.3281V20.0312H47.375C47.1927 20.0312 47.0178 20.1053 46.8889 20.2372C46.7599 20.3691 46.6875 20.5479 46.6875 20.7344C46.6875 20.9209 46.7599 21.0997 46.8889 21.2316C47.0178 21.3634 47.1927 21.4375 47.375 21.4375H48.0625V23.5469C48.0625 23.7334 48.1349 23.9122 48.2639 24.0441C48.3928 24.1759 48.5677 24.25 48.75 24.25C48.9323 24.25 49.1072 24.1759 49.2361 24.0441C49.3651 23.9122 49.4375 23.7334 49.4375 23.5469V21.4375H50.125C50.3073 21.4375 50.4822 21.3634 50.6111 21.2316C50.7401 21.0997 50.8125 20.9209 50.8125 20.7344C50.8125 20.5479 50.7401 20.3691 50.6111 20.2372C50.4822 20.1053 50.3073 20.0312 50.125 20.0312H49.4375V19.3281C49.4375 19.1416 49.5099 18.9628 49.6389 18.8309C49.7678 18.6991 49.9427 18.625 50.125 18.625Z" fill="black"/>
<path d="M53.5625 14.4062H45.3125C44.7655 14.4062 44.2409 14.6285 43.8541 15.0241C43.4673 15.4197 43.25 15.9562 43.25 16.5156V17.9219C43.25 18.1084 43.3224 18.2872 43.4514 18.4191C43.5803 18.5509 43.7552 18.625 43.9375 18.625C44.1198 18.625 44.2947 18.5509 44.4236 18.4191C44.5526 18.2872 44.625 18.1084 44.625 17.9219V16.5156C44.625 16.3291 44.6974 16.1503 44.8264 16.0184C44.9553 15.8866 45.1302 15.8125 45.3125 15.8125H53.5625C53.7448 15.8125 53.9197 15.8866 54.0486 16.0184C54.1776 16.1503 54.25 16.3291 54.25 16.5156V24.9531C54.25 25.1396 54.1776 25.3184 54.0486 25.4503C53.9197 25.5822 53.7448 25.6562 53.5625 25.6562H45.3125C45.1302 25.6562 44.9553 25.5822 44.8264 25.4503C44.6974 25.3184 44.625 25.1396 44.625 24.9531V20.7344C44.625 20.5479 44.5526 20.3691 44.4236 20.2372C44.2947 20.1053 44.1198 20.0312 43.9375 20.0312C43.7552 20.0312 43.5803 20.1053 43.4514 20.2372C43.3224 20.3691 43.25 20.5479 43.25 20.7344V24.9531C43.25 25.5126 43.4673 26.0491 43.8541 26.4447C44.2409 26.8403 44.7655 27.0625 45.3125 27.0625H53.5625C54.1095 27.0625 54.6341 26.8403 55.0209 26.4447C55.4077 26.0491 55.625 25.5126 55.625 24.9531V16.5156C55.625 15.9562 55.4077 15.4197 55.0209 15.0241C54.6341 14.6285 54.1095 14.4062 53.5625 14.4062Z" fill="black"/>
<path d="M46.6875 42.5312C46.6875 43.0875 46.8488 43.6313 47.151 44.0938C47.4531 44.5563 47.8826 44.9168 48.3851 45.1297C48.8876 45.3425 49.4406 45.3982 49.974 45.2897C50.5074 45.1812 50.9974 44.9133 51.382 44.52C51.7666 44.1267 52.0286 43.6255 52.1347 43.0799C52.2408 42.5344 52.1863 41.9689 51.9782 41.455C51.77 40.941 51.4176 40.5018 50.9653 40.1927C50.5131 39.8837 49.9814 39.7188 49.4375 39.7188C48.7082 39.7188 48.0087 40.0151 47.493 40.5425C46.9772 41.07 46.6875 41.7853 46.6875 42.5312ZM50.8125 42.5312C50.8125 42.8094 50.7319 43.0813 50.5808 43.3125C50.4297 43.5438 50.2149 43.724 49.9637 43.8305C49.7124 43.9369 49.436 43.9647 49.1692 43.9105C48.9025 43.8562 48.6575 43.7223 48.4652 43.5256C48.2729 43.329 48.142 43.0784 48.0889 42.8056C48.0359 42.5328 48.0631 42.2501 48.1672 41.9931C48.2712 41.7361 48.4475 41.5165 48.6736 41.362C48.8997 41.2075 49.1656 41.125 49.4375 41.125C49.8022 41.125 50.1519 41.2732 50.4098 41.5369C50.6676 41.8006 50.8125 42.1583 50.8125 42.5312Z" fill="black"/>
<path d="M53.5625 36.2031H45.3125C44.7655 36.2031 44.2409 36.4254 43.8541 36.8209C43.4673 37.2165 43.25 37.7531 43.25 38.3125V46.75C43.25 47.3094 43.4673 47.846 43.8541 48.2416C44.2409 48.6371 44.7655 48.8594 45.3125 48.8594H53.5625C54.1095 48.8594 54.6341 48.6371 55.0209 48.2416C55.4077 47.846 55.625 47.3094 55.625 46.75V45.3438C55.625 45.1573 55.5526 44.9784 55.4236 44.8466C55.2947 44.7147 55.1198 44.6406 54.9375 44.6406C54.7552 44.6406 54.5803 44.7147 54.4514 44.8466C54.3224 44.9784 54.25 45.1573 54.25 45.3438V46.75C54.25 46.9365 54.1776 47.1153 54.0486 47.2472C53.9197 47.379 53.7448 47.4531 53.5625 47.4531H45.3125C45.1302 47.4531 44.9553 47.379 44.8264 47.2472C44.6974 47.1153 44.625 46.9365 44.625 46.75V38.3125C44.625 38.126 44.6974 37.9472 44.8264 37.8153C44.9553 37.6835 45.1302 37.6094 45.3125 37.6094H53.5625C53.7448 37.6094 53.9197 37.6835 54.0486 37.8153C54.1776 37.9472 54.25 38.126 54.25 38.3125V42.5312C54.25 42.7177 54.3224 42.8966 54.4514 43.0284C54.5803 43.1603 54.7552 43.2344 54.9375 43.2344C55.1198 43.2344 55.2947 43.1603 55.4236 43.0284C55.5526 42.8966 55.625 42.7177 55.625 42.5312V38.3125C55.625 37.7531 55.4077 37.2165 55.0209 36.8209C54.6341 36.4254 54.1095 36.2031 53.5625 36.2031Z" fill="black"/>
<path d="M29.8231 22.7384C29.9325 22.8077 30.0588 22.8442 30.1875 22.8438C30.2951 22.8432 30.4011 22.8167 30.4969 22.7665L34.6219 20.6571C34.7345 20.5981 34.829 20.5085 34.895 20.398C34.961 20.2876 34.9959 20.1607 34.9959 20.0313C34.9959 19.9019 34.961 19.775 34.895 19.6646C34.829 19.5542 34.7345 19.4645 34.6219 19.4055L30.4969 17.2962C30.3922 17.2422 30.2758 17.2165 30.1587 17.2216C30.0416 17.2266 29.9277 17.2621 29.8279 17.3248C29.728 17.3875 29.6454 17.4753 29.588 17.5798C29.5307 17.6843 29.5004 17.8021 29.5 17.9219V22.1407C29.4998 22.2602 29.5293 22.3778 29.5858 22.4823C29.6424 22.5869 29.724 22.675 29.8231 22.7384ZM30.875 19.061L32.7725 20.0313L30.875 21.0016V19.061Z" fill="black"/>
<path d="M31.5625 26.3594C32.7863 26.3594 33.9826 25.9882 35.0001 25.2929C36.0176 24.5976 36.8107 23.6092 37.279 22.4529C37.7473 21.2966 37.8699 20.0242 37.6311 18.7967C37.3924 17.5692 36.8031 16.4416 35.9377 15.5566C35.0724 14.6716 33.9699 14.0689 32.7696 13.8247C31.5694 13.5805 30.3253 13.7059 29.1946 14.1848C28.064 14.6638 27.0977 15.4749 26.4178 16.5155C25.7379 17.5562 25.375 18.7797 25.375 20.0313C25.375 21.7096 26.0269 23.3192 27.1873 24.5059C28.3477 25.6927 29.9215 26.3594 31.5625 26.3594ZM31.5625 15.1094C32.5143 15.1094 33.4448 15.398 34.2362 15.9389C35.0276 16.4797 35.6444 17.2484 36.0087 18.1477C36.3729 19.0471 36.4682 20.0367 36.2825 20.9915C36.0968 21.9462 35.6385 22.8232 34.9655 23.5115C34.2924 24.1999 33.4349 24.6686 32.5014 24.8586C31.5678 25.0485 30.6002 24.951 29.7208 24.5785C28.8415 24.2059 28.0899 23.5751 27.5611 22.7657C27.0322 21.9563 26.75 21.0047 26.75 20.0313C26.75 18.7259 27.257 17.474 28.1595 16.551C29.0621 15.6279 30.2861 15.1094 31.5625 15.1094Z" fill="black"/>
<path d="M38.4375 29.1719C38.5442 29.1719 38.6495 29.1465 38.745 29.0976C38.8404 29.0488 38.9235 28.978 38.9875 28.8906L41.05 26.0781C41.1594 25.9289 41.2064 25.7414 41.1806 25.5568C41.1548 25.3722 41.0584 25.2056 40.9125 25.0938C40.7666 24.9819 40.5833 24.9338 40.4028 24.9602C40.2223 24.9866 40.0594 25.0852 39.95 25.2344L37.8875 28.0469C37.7781 28.1961 37.7311 28.3836 37.7569 28.5682C37.7827 28.7528 37.8791 28.9194 38.025 29.0313C38.144 29.1225 38.2887 29.1719 38.4375 29.1719Z" fill="black"/>
<path d="M39.95 31.7031C40.014 31.7905 40.0971 31.8613 40.1925 31.9101C40.288 31.959 40.3933 31.9844 40.5 31.9844C40.6488 31.9844 40.7935 31.935 40.9125 31.8438L43.6625 29.7344C43.8084 29.6225 43.9048 29.4559 43.9306 29.2713C43.9564 29.0867 43.9094 28.8992 43.8 28.75C43.6906 28.6008 43.5277 28.5022 43.3472 28.4758C43.1667 28.4494 42.9834 28.4975 42.8375 28.6094L40.0875 30.7188C39.9416 30.8306 39.8452 30.9972 39.8194 31.1818C39.7936 31.3664 39.8406 31.5539 39.95 31.7031Z" fill="black"/>
<path d="M46.6874 33.2499C46.6711 33.1567 46.6365 33.0679 46.5857 32.9886C46.535 32.9094 46.4691 32.8415 46.3921 32.789C46.315 32.7365 46.2284 32.7004 46.1374 32.6829C46.0464 32.6655 45.9528 32.667 45.8624 32.6874L42.4249 33.3906C42.3346 33.3998 42.247 33.4271 42.1671 33.471C42.0871 33.5149 42.0164 33.5744 41.9589 33.6462C41.8429 33.7913 41.7879 33.9775 41.8062 34.164C41.8244 34.3505 41.9143 34.5219 42.0561 34.6406C42.198 34.7593 42.3801 34.8155 42.5624 34.7968H42.6999L46.1374 34.0937C46.2286 34.077 46.3155 34.0416 46.3929 33.9897C46.4704 33.9378 46.5368 33.8704 46.5881 33.7916C46.6395 33.7128 46.6748 33.6242 46.6918 33.5312C46.7089 33.4381 46.7074 33.3424 46.6874 33.2499Z" fill="black"/>
<path d="M15.0625 33.3906H23.3125C23.4948 33.3906 23.6697 33.3165 23.7986 33.1847C23.9276 33.0528 24 32.874 24 32.6875V21.4375C24 21.251 23.9276 21.0722 23.7986 20.9403C23.6697 20.8085 23.4948 20.7344 23.3125 20.7344H15.0625C14.8802 20.7344 14.7053 20.8085 14.5764 20.9403C14.4474 21.0722 14.375 21.251 14.375 21.4375V32.6875C14.375 32.874 14.4474 33.0528 14.5764 33.1847C14.7053 33.3165 14.8802 33.3906 15.0625 33.3906ZM15.75 22.1406H22.625V31.9844H15.75V22.1406Z" fill="black"/>
<path d="M20.5625 23.5469H19.1875C19.0052 23.5469 18.8303 23.621 18.7014 23.7528C18.5724 23.8847 18.5 24.0635 18.5 24.25C18.5 24.4365 18.5724 24.6153 18.7014 24.7472C18.8303 24.879 19.0052 24.9531 19.1875 24.9531H20.5625C20.7448 24.9531 20.9197 24.879 21.0486 24.7472C21.1776 24.6153 21.25 24.4365 21.25 24.25C21.25 24.0635 21.1776 23.8847 21.0486 23.7528C20.9197 23.621 20.7448 23.5469 20.5625 23.5469Z" fill="black"/>
<path d="M20.5625 26.3594H17.8125C17.6302 26.3594 17.4553 26.4335 17.3264 26.5653C17.1974 26.6972 17.125 26.876 17.125 27.0625C17.125 27.249 17.1974 27.4278 17.3264 27.5597C17.4553 27.6915 17.6302 27.7656 17.8125 27.7656H20.5625C20.7448 27.7656 20.9197 27.6915 21.0486 27.5597C21.1776 27.4278 21.25 27.249 21.25 27.0625C21.25 26.876 21.1776 26.6972 21.0486 26.5653C20.9197 26.4335 20.7448 26.3594 20.5625 26.3594Z" fill="black"/>
<path d="M20.5625 29.1719H17.8125C17.6302 29.1719 17.4553 29.246 17.3264 29.3778C17.1974 29.5097 17.125 29.6885 17.125 29.875C17.125 30.0615 17.1974 30.2403 17.3264 30.3722C17.4553 30.504 17.6302 30.5781 17.8125 30.5781H20.5625C20.7448 30.5781 20.9197 30.504 21.0486 30.3722C21.1776 30.2403 21.25 30.0615 21.25 29.875C21.25 29.6885 21.1776 29.5097 21.0486 29.3778C20.9197 29.246 20.7448 29.1719 20.5625 29.1719Z" fill="black"/>
<path d="M37.8326 33.1797C37.7874 33.0994 37.7273 33.029 37.6555 32.9724C37.5838 32.9159 37.5018 32.8743 37.4143 32.8502C37.3269 32.826 37.2356 32.8197 37.1458 32.8316C37.0559 32.8435 36.9693 32.8734 36.8907 32.9196C36.8122 32.9658 36.7433 33.0273 36.688 33.1007C36.6327 33.1741 36.5921 33.2579 36.5685 33.3473C36.5448 33.4368 36.5387 33.5301 36.5503 33.622C36.562 33.7139 36.5912 33.8025 36.6363 33.8829L39.6682 39.2477L28.6682 43.4665C28.6682 43.4665 28.6682 43.4665 28.6201 43.4665H28.5651L26.7776 44.5212L25.5882 45.2243C25.4316 45.3169 25.2587 45.3769 25.0794 45.4011C24.9001 45.4252 24.7179 45.4129 24.5432 45.3649C24.1923 45.2679 23.8932 45.0328 23.7113 44.711L22.3363 42.2782C22.1746 41.9599 22.1379 41.5904 22.2337 41.2453C22.3296 40.9003 22.5507 40.6057 22.852 40.4219L25.2307 39.0157L26.9495 42.0602C27.01 42.1675 27.0973 42.2565 27.2023 42.3183C27.3073 42.38 27.4264 42.4123 27.5476 42.4118C27.6685 42.4123 27.7874 42.3801 27.8923 42.3186C27.9972 42.2571 28.0844 42.1684 28.145 42.0614C28.2057 41.9545 28.2377 41.833 28.2378 41.7094C28.2379 41.5857 28.2062 41.4642 28.1457 41.3571L26.372 38.2211L35.0001 30.9438L35.282 31.443C35.3271 31.5234 35.3873 31.5938 35.459 31.6504C35.5308 31.7069 35.6128 31.7484 35.7002 31.7726C35.7877 31.7968 35.8789 31.8031 35.9688 31.7912C36.0586 31.7792 36.1453 31.7493 36.2238 31.7032C36.3024 31.657 36.3713 31.5955 36.4266 31.5221C36.4819 31.4487 36.5225 31.3649 36.5461 31.2754C36.5697 31.186 36.5759 31.0926 36.5642 31.0008C36.5526 30.9089 36.5234 30.8202 36.4782 30.7399L35.7907 29.5235C35.7403 29.4354 35.6718 29.3596 35.5899 29.3013C35.508 29.243 35.4146 29.2037 35.3163 29.186C35.2175 29.1669 35.1158 29.1703 35.0184 29.1958C34.921 29.2213 34.8303 29.2684 34.7526 29.3337L25.1276 37.4477L22.1988 39.1774C21.6733 39.4905 21.264 39.973 21.0351 40.5493C20.8062 41.1256 20.7706 41.7633 20.9338 42.3626L20.2463 42.7633C19.8921 42.9714 19.6063 43.2823 19.425 43.6567C19.2438 44.0311 19.1754 44.4521 19.2284 44.8664C19.2814 45.2806 19.4535 45.6694 19.7229 45.9835C19.9922 46.2975 20.3467 46.5227 20.7413 46.6305C20.9163 46.6779 21.0966 46.7016 21.2776 46.7008C21.6393 46.6993 21.9944 46.6024 22.3088 46.4196L22.9963 46.0188C23.3266 46.3677 23.7419 46.6202 24.1995 46.7501C24.4344 46.8173 24.6774 46.8504 24.9213 46.8485C25.4046 46.8496 25.8793 46.7185 26.2963 46.4688L26.8945 46.1172L28.2695 48.5571C28.5427 49.0403 28.9921 49.393 29.5192 49.538C30.0462 49.6829 30.608 49.6083 31.0813 49.3305C31.3162 49.1921 31.5221 49.0078 31.6872 48.7879C31.8523 48.5681 31.9735 48.3172 32.0437 48.0494C32.1139 47.7817 32.1319 47.5024 32.0965 47.2276C32.0612 46.9528 31.9732 46.6877 31.8376 46.4477L30.5863 44.2188L40.8988 40.2602C40.9924 40.2243 41.0771 40.1679 41.1472 40.095C41.2172 40.0222 41.2709 39.9346 41.3045 39.8383C41.3379 39.7432 41.351 39.6419 41.3426 39.5412C41.3343 39.4405 41.3049 39.3428 41.2563 39.2547L37.8326 33.1797ZM21.5938 45.1961C21.5156 45.2424 21.4291 45.2725 21.3394 45.2845C21.2498 45.2966 21.1587 45.2905 21.0713 45.2665C20.8952 45.2197 20.7444 45.1034 20.652 44.943C20.6067 44.863 20.5773 44.7745 20.5655 44.6828C20.5537 44.5911 20.5597 44.498 20.5832 44.4086C20.6067 44.3189 20.6473 44.2347 20.7028 44.1611C20.7583 44.0875 20.8274 44.0258 20.9063 43.9797L21.5045 43.6282L22.192 44.8446L21.5938 45.1961ZM30.6413 47.1649C30.6866 47.245 30.716 47.3334 30.7278 47.4251C30.7396 47.5168 30.7336 47.61 30.7101 47.6993C30.6611 47.878 30.5449 48.0297 30.387 48.1211C30.2299 48.2134 30.0437 48.2386 29.8686 48.1912C29.6935 48.1438 29.5438 48.0277 29.452 47.868L28.077 45.4282L29.2182 44.7602H29.2732L30.6413 47.1649Z" fill="black"/>
</svg>
