<svg width="22" height="22" viewBox="0 0 22 22" fill="none" xmlns="http://www.w3.org/2000/svg">
<path d="M21.5415 5.4906C21.2895 4.54324 20.5441 3.79587 19.5956 3.53973C17.8807 3.08008 11 3.08008 11 3.08008C11 3.08008 4.12281 3.08008 2.40439 3.53973C1.45943 3.79236 0.713968 4.53973 0.458479 5.4906C0 7.2099 0 10.7994 0 10.7994C0 10.7994 0 14.3888 0.458479 16.1081C0.710468 17.0555 1.45593 17.8029 2.40439 18.059C4.12281 18.5187 11 18.5187 11 18.5187C11 18.5187 17.8807 18.5187 19.5956 18.059C20.5406 17.8064 21.286 17.059 21.5415 16.1081C22 14.3888 22 10.7994 22 10.7994C22 10.7994 22 7.2099 21.5415 5.4906Z" fill="white"/>
<path d="M8.8021 14.1081L14.5173 10.7994L8.8021 7.4906V14.1081Z" fill="#001329"/>
</svg>
