<svg width="22" height="16" viewBox="0 0 22 16" fill="none" xmlns="http://www.w3.org/2000/svg">
<g id="view_svg 1" clip-path="url(#clip0_2242_76967)">
<g id="&#208;&#161;&#208;&#187;&#208;&#190;&#208;&#185;_x0020_1">
<g id="_2033499645792">
<path id="Vector" fill-rule="evenodd" clip-rule="evenodd" d="M6.43719 8.21869C6.43719 6.79186 6.78261 5.69471 7.76043 4.69831C8.1033 4.34888 8.56925 4.0131 9.01883 3.7875C11.1572 2.71436 13.9711 3.57592 15.1333 5.98066C15.7063 7.16637 15.7112 8.7922 15.1475 9.98878C14.4402 11.4901 12.8725 12.6489 11.2152 12.6489C9.81494 12.6489 8.73824 12.2969 7.76043 11.3005C7.41751 10.9511 7.088 10.4763 6.8666 10.0182C6.66405 9.59909 6.43719 8.84458 6.43719 8.21873V8.21869ZM10.9999 15.4999C14.8225 15.4999 18.1088 13.4831 20.2055 10.8443L21.1758 9.50836C21.3119 9.30124 21.9999 8.15861 21.9999 7.99941C21.9999 7.84632 21.3225 6.71337 21.1931 6.51673C20.7875 5.90072 19.8384 4.59835 19.2776 4.12617C18.809 3.73157 18.6729 3.48591 17.8753 2.87955C12.5821 -1.14435 5.77251 0.147947 1.79435 5.15452L0.824056 6.49047C0.687954 6.69758 0 7.84022 0 7.99941C0 8.15251 0.677367 9.28546 0.806809 9.48209C0.964722 9.722 1.10617 9.92244 1.26326 10.1574C1.60472 10.6681 2.01661 11.1103 2.42368 11.5628C2.49132 11.638 2.50531 11.6758 2.55705 11.7339L4.12458 13.1193C5.77767 14.376 8.13461 15.4999 10.9999 15.4999Z" fill="#565EFF"/>
<path id="Vector_2" fill-rule="evenodd" clip-rule="evenodd" d="M8.25 7.82418V8.17505C8.25 9.4996 9.53283 10.8068 10.8327 10.8068H11.1771C12.4769 10.8068 13.7598 9.49964 13.7598 8.17505V7.82418C13.7598 6.49963 12.4769 5.19238 11.1771 5.19238H10.8327C9.53287 5.19238 8.25 6.49959 8.25 7.82418Z" fill="#565EFF"/>
</g>
</g>
</g>
<defs>
<clipPath id="clip0_2242_76967">
<rect width="22" height="15" fill="white" transform="translate(0 0.5)"/>
</clipPath>
</defs>
</svg>
