<svg width="16" height="12" viewBox="0 0 16 12" fill="none" xmlns="http://www.w3.org/2000/svg">
<g clip-path="url(#clip0_3443_3894)">
<path fill-rule="evenodd" clip-rule="evenodd" d="M4.68159 6.16037C4.68159 5.11403 4.93281 4.30945 5.64395 3.57876C5.89331 3.32251 6.23218 3.07628 6.55914 2.91083C8.11436 2.12387 10.1608 2.75568 11.006 4.51915C11.4228 5.38867 11.4263 6.58095 11.0164 7.45844C10.502 8.55941 9.36183 9.40916 8.15648 9.40916C7.13813 9.40916 6.35508 9.15104 5.64395 8.42035C5.39456 8.16413 5.15491 7.81594 4.99389 7.47999C4.84658 7.17267 4.68159 6.61936 4.68159 6.1604V6.16037ZM7.99995 11.4999C10.78 11.4999 13.17 10.0209 14.6949 8.08583L15.4006 7.10613C15.4996 6.95425 15.9999 6.11632 15.9999 5.99957C15.9999 5.8873 15.5073 5.05647 15.4131 4.91227C15.1182 4.46053 14.4279 3.50546 14.0201 3.15919C13.6792 2.86982 13.5803 2.68967 13.0002 2.245C9.15064 -0.705859 4.19819 0.241827 1.30498 3.91331L0.599313 4.89301C0.50033 5.04489 0 5.88283 0 5.99957C0 6.11184 0.49263 6.94267 0.58677 7.08687C0.701616 7.2628 0.80449 7.40979 0.918737 7.58209C1.16707 7.95659 1.46663 8.28088 1.76268 8.61272C1.81187 8.66788 1.82205 8.69555 1.85968 8.73821L2.9997 9.75414C4.20194 10.6757 5.91608 11.4999 7.99995 11.4999Z" fill="white"/>
<path fill-rule="evenodd" clip-rule="evenodd" d="M6 5.87041V6.12772C6 7.09906 6.93297 8.0577 7.87834 8.0577H8.12877C9.07411 8.0577 10.0071 7.09909 10.0071 6.12772V5.87041C10.0071 4.89907 9.07414 3.94043 8.12877 3.94043H7.87834C6.93299 3.94043 6 4.89905 6 5.87041Z" fill="white"/>
</g>
<defs>
<clipPath id="clip0_3443_3894">
<rect width="16" height="11" fill="white" transform="translate(0 0.5)"/>
</clipPath>
</defs>
</svg>
