<svg width="44" height="45" viewBox="0 0 44 45" fill="none" xmlns="http://www.w3.org/2000/svg">
<g id="blueprint 1">
<g id="Compass">
<path id="Vector" d="M37.8125 5.625C36.6562 5.62639 35.5391 6.05349 34.6655 6.82817C33.7919 7.60286 33.2202 8.67333 33.055 9.84375H24.75V11.25H33V38.6719C33 38.8584 33.0724 39.0372 33.2014 39.1691C33.3303 39.3009 33.5052 39.375 33.6875 39.375C33.8698 39.375 34.0447 39.3009 34.1736 39.1691C34.3026 39.0372 34.375 38.8584 34.375 38.6719C34.375 37.7395 34.7372 36.8453 35.3818 36.186C36.0265 35.5266 36.9008 35.1562 37.8125 35.1562C38.7242 35.1562 39.5985 35.5266 40.2432 36.186C40.8878 36.8453 41.25 37.7395 41.25 38.6719V38.8195C41.2482 39.7122 40.9006 40.5678 40.2835 41.199C39.6663 41.8302 38.8297 42.1856 37.9569 42.1875H2.75V27.6448C4.31279 30.7454 6.67785 33.3478 9.58736 35.1683C12.4969 36.9887 15.8392 37.9574 19.25 37.9688C19.4323 37.9688 19.6072 37.8947 19.7361 37.7628C19.8651 37.6309 19.9375 37.4521 19.9375 37.2656C19.9375 37.0791 19.8651 36.9003 19.7361 36.7684C19.6072 36.6366 19.4323 36.5625 19.25 36.5625C16.67 36.5574 14.1246 35.9545 11.8051 34.7991L12.232 33.1706C12.6571 33.1436 13.0629 32.9793 13.3908 32.7013C13.7187 32.4233 13.9519 32.046 14.0566 31.6238L16.3199 22.9922C16.8338 23.0894 17.3532 23.153 17.875 23.1827V23.9062C17.875 24.0927 17.9474 24.2716 18.0764 24.4034C18.2053 24.5353 18.3802 24.6094 18.5625 24.6094C18.7448 24.6094 18.9197 24.5353 19.0486 24.4034C19.1776 24.2716 19.25 24.0927 19.25 23.9062V23.1827C19.7718 23.1535 20.2912 23.0903 20.8051 22.9936L23.0677 31.6216C23.1721 32.0442 23.4052 32.4218 23.7334 32.6999C24.0615 32.978 24.4676 33.1421 24.893 33.1685L25.4609 35.337C25.4998 35.4867 25.586 35.6191 25.7061 35.7136C25.8262 35.8081 25.9735 35.8593 26.125 35.8594C26.1851 35.8593 26.245 35.8513 26.3031 35.8355C26.3903 35.8116 26.472 35.7703 26.5437 35.7141C26.6153 35.6579 26.6754 35.5878 26.7205 35.5078C26.7657 35.4278 26.795 35.3395 26.8067 35.2479C26.8185 35.1564 26.8125 35.0633 26.7891 34.9741L26.2219 32.8106C26.5708 32.564 26.837 32.2136 26.9846 31.8069C27.1322 31.4003 27.1539 30.9571 27.0469 30.5374L22.5356 13.3193C23.2518 12.2497 23.5251 10.9337 23.296 9.65863C23.0668 8.38358 22.3538 7.25303 21.3125 6.51375V4.21875C21.3125 3.47283 21.0228 2.75746 20.507 2.23001C19.9913 1.70257 19.2918 1.40625 18.5625 1.40625C17.8332 1.40625 17.1337 1.70257 16.618 2.23001C16.1022 2.75746 15.8125 3.47283 15.8125 4.21875V6.51375C14.7712 7.25303 14.0582 8.38358 13.829 9.65863C13.5999 10.9337 13.8732 12.2497 14.5894 13.3193L10.0739 30.5402C9.96733 30.9598 9.98972 31.4028 10.1381 31.809C10.2864 32.2151 10.5536 32.5646 10.9031 32.8099L10.5593 34.1177C6.77398 31.8527 3.97976 28.1919 2.75 23.8866V11.25H12.375V9.84375H1.375V43.5938H37.9569C39.1949 43.5919 40.3816 43.0879 41.2567 42.1924C42.1318 41.2968 42.6239 40.0828 42.625 38.8167V10.5469C42.6235 9.24197 42.116 7.99094 41.2138 7.06823C40.3116 6.14552 39.0884 5.62649 37.8125 5.625ZM19.25 21.7547V21.0938C19.25 20.9073 19.1776 20.7284 19.0486 20.5966C18.9197 20.4647 18.7448 20.3906 18.5625 20.3906C18.3802 20.3906 18.2053 20.4647 18.0764 20.5966C17.9474 20.7284 17.875 20.9073 17.875 21.0938V21.7547C17.4752 21.7302 17.077 21.6832 16.6822 21.6141L18.2964 15.4561C18.3851 15.461 18.4724 15.4702 18.5625 15.4702C18.6526 15.4702 18.7399 15.461 18.8286 15.4561L20.4428 21.6141C20.048 21.6832 19.6498 21.7302 19.25 21.7547ZM25.7214 30.8988C25.7672 31.0782 25.7424 31.2688 25.6525 31.4298C25.5625 31.5908 25.4145 31.7094 25.2402 31.7602H25.2361C25.0607 31.8077 24.8742 31.7824 24.717 31.6898C24.6392 31.6436 24.5713 31.582 24.5171 31.5086C24.4629 31.4352 24.4236 31.3515 24.4014 31.2623L20.1788 15.177C20.6234 15.0141 21.042 14.785 21.4211 14.497L25.7214 30.8988ZM17.1875 4.21875C17.1875 3.84579 17.3324 3.4881 17.5902 3.22438C17.8481 2.96066 18.1978 2.8125 18.5625 2.8125C18.9272 2.8125 19.2769 2.96066 19.5348 3.22438C19.7926 3.4881 19.9375 3.84579 19.9375 4.21875V5.83594C19.0408 5.55937 18.0842 5.55937 17.1875 5.83594V4.21875ZM18.5625 7.03125C19.2424 7.03125 19.907 7.23744 20.4723 7.62374C21.0376 8.01004 21.4782 8.55911 21.7383 9.2015C21.9985 9.8439 22.0666 10.5508 21.934 11.2327C21.8013 11.9147 21.4739 12.5411 20.9932 13.0328C20.5124 13.5245 19.8999 13.8593 19.2331 13.9949C18.5663 14.1306 17.8751 14.061 17.247 13.7949C16.6189 13.5288 16.082 13.0782 15.7043 12.5001C15.3266 11.9219 15.125 11.2422 15.125 10.5469C15.1261 9.61482 15.4886 8.72125 16.133 8.06219C16.7774 7.40312 17.6512 7.03237 18.5625 7.03125ZM11.4029 30.9016L15.7039 14.497C16.083 14.785 16.5016 15.0141 16.9462 15.177L12.7277 31.2659C12.6805 31.4438 12.5669 31.5957 12.4113 31.6888C12.2557 31.7819 12.0706 31.8088 11.8958 31.7637H11.8896C11.7141 31.7141 11.5647 31.5959 11.4736 31.4346C11.3825 31.2733 11.3571 31.0819 11.4029 30.9016ZM41.25 35.2301C40.8023 34.7616 40.2677 34.3893 39.6773 34.1352C39.087 33.881 38.453 33.7501 37.8125 33.7501C37.172 33.7501 36.538 33.881 35.9477 34.1352C35.3573 34.3893 34.8227 34.7616 34.375 35.2301V10.5469C34.375 9.61447 34.7372 8.72026 35.3818 8.06095C36.0265 7.40165 36.9008 7.03125 37.8125 7.03125C38.7242 7.03125 39.5985 7.40165 40.2432 8.06095C40.8878 8.72026 41.25 9.61447 41.25 10.5469V35.2301Z" fill="black"/>
<path id="Vector_2" d="M18.5625 12.6563C18.9704 12.6563 19.3692 12.5325 19.7084 12.3008C20.0475 12.069 20.3119 11.7395 20.468 11.3541C20.6241 10.9687 20.665 10.5445 20.5854 10.1354C20.5058 9.72618 20.3094 9.35032 20.0209 9.05532C19.7325 8.76032 19.365 8.55942 18.9649 8.47803C18.5648 8.39664 18.1501 8.43841 17.7732 8.59807C17.3963 8.75772 17.0742 9.02809 16.8476 9.37497C16.621 9.72186 16.5 10.1297 16.5 10.5469C16.5 11.1063 16.7173 11.6428 17.1041 12.0384C17.4909 12.434 18.0155 12.6563 18.5625 12.6563ZM18.5625 9.84375C18.6985 9.84375 18.8314 9.88499 18.9445 9.96225C19.0575 10.0395 19.1456 10.1493 19.1977 10.2778C19.2497 10.4063 19.2633 10.5477 19.2368 10.684C19.2103 10.8204 19.1448 10.9457 19.0486 11.0441C18.9525 11.1424 18.83 11.2094 18.6966 11.2365C18.5633 11.2636 18.425 11.2497 18.2994 11.1965C18.1738 11.1433 18.0664 11.0531 17.9909 10.9375C17.9153 10.8219 17.875 10.6859 17.875 10.5469C17.875 10.3604 17.9474 10.1816 18.0764 10.0497C18.2053 9.91783 18.3802 9.84375 18.5625 9.84375Z" fill="black"/>
</g>
</g>
</svg>
