<svg width="36" height="36" viewBox="0 0 36 36" fill="none" xmlns="http://www.w3.org/2000/svg">
<g clip-path="url(#clip0_3509_1531)">
<path d="M25.5 18C25.5 18.8295 24.828 19.5 24 19.5H19.5V24C19.5 24.8295 18.828 25.5 18 25.5C17.172 25.5 16.5 24.8295 16.5 24V19.5H12C11.172 19.5 10.5 18.8295 10.5 18C10.5 17.1705 11.172 16.5 12 16.5H16.5V12C16.5 11.1705 17.172 10.5 18 10.5C18.828 10.5 19.5 11.1705 19.5 12V16.5H24C24.828 16.5 25.5 17.1705 25.5 18ZM36 7.5V28.5C36 32.6355 32.6355 36 28.5 36H7.5C3.3645 36 0 32.6355 0 28.5V7.5C0 3.3645 3.3645 0 7.5 0H28.5C32.6355 0 36 3.3645 36 7.5ZM33 7.5C33 5.019 30.981 3 28.5 3H7.5C5.019 3 3 5.019 3 7.5V28.5C3 30.981 5.019 33 7.5 33H28.5C30.981 33 33 30.981 33 28.5V7.5Z" fill="#C0C3FF"/>
<rect x="10.5469" y="26.9297" width="15.0469" height="2.46094" rx="1.23047" fill="#C0C3FF"/>
</g>
<defs>
<clipPath id="clip0_3509_1531">
<rect width="36" height="36" fill="white"/>
</clipPath>
</defs>
</svg>
