<svg width="66" height="66" viewBox="0 0 66 66" fill="none" xmlns="http://www.w3.org/2000/svg">
<g clip-path="url(#clip0_3333_979)">
<path d="M37.5189 31.2997C37.7136 31.6803 38.1008 31.9002 38.5012 31.9002C38.6684 31.9002 38.8399 31.8617 38.9995 31.7803C39.0644 31.7473 45.539 28.4583 48.7323 27.4496C49.3109 27.266 49.632 26.6477 49.4483 26.0692C49.2657 25.4905 48.652 25.1683 48.0679 25.3509C44.7041 26.4147 38.2735 29.6816 38.0008 29.8202C37.4595 30.0952 37.244 30.7575 37.5189 31.2997Z" fill="white"/>
<path d="M38.5012 18.7005C38.6683 18.7005 38.8399 18.662 38.9995 18.5806C39.0643 18.5476 45.539 15.2586 48.7322 14.2499C49.3109 14.0663 49.632 13.448 49.4483 12.8695C49.2656 12.2908 48.6519 11.9686 48.0679 12.1512C44.7041 13.215 38.2735 16.4819 38.0007 16.6205C37.4596 16.8955 37.2439 17.5577 37.5189 18.1C37.7135 18.4805 38.1008 18.7005 38.5012 18.7005Z" fill="white"/>
<path d="M64.8995 16.5004C64.2912 16.5004 63.7996 16.9932 63.7996 17.6003V60.5C63.7996 62.3194 62.319 63.8 60.4996 63.8H34.0998V61.2689C35.7037 60.7079 39.8813 59.4001 43.9997 59.4001C53.5818 59.4001 60.0883 61.522 60.1531 61.5439C60.4841 61.6538 60.8538 61.5989 61.1431 61.392C61.4302 61.1853 61.5996 60.8531 61.5996 60.4999V12.1005C61.5996 11.5846 61.2421 11.1379 60.7382 11.0268C60.7382 11.0268 59.8758 10.8344 58.4018 10.5637C57.8067 10.4537 57.2315 10.8497 57.1214 11.4459C57.0114 12.0443 57.4063 12.6174 58.0036 12.7273C58.5658 12.8307 59.0365 12.922 59.3995 12.9947V59.0381C56.9069 58.3847 51.3718 57.2 43.9996 57.2C39.2069 57.2 34.499 58.7741 33.0425 59.3076C31.7478 58.7357 27.8341 57.2 23.0997 57.2C15.5229 57.2 9.28156 58.4496 6.59982 59.0844V12.9518C8.79649 12.4116 15.2843 11.0004 23.0997 11.0004C27.1103 11.0004 30.5499 12.2488 31.8997 12.8132V56.1001C31.8997 56.4961 32.113 56.8624 32.4573 57.0571C32.8016 57.2529 33.2262 57.2473 33.5662 57.0428C33.6751 56.9779 44.5738 50.4681 54.2471 47.244C54.6969 47.0933 54.9995 46.6743 54.9995 46.2002V1.10047C54.9995 0.739666 54.8224 0.401935 54.5254 0.196331C54.2306 -0.00940182 53.8522 -0.05671 53.5123 0.0698749C44.7113 3.37088 35.8059 8.91265 35.7167 8.96769C35.2018 9.28995 35.0446 9.96864 35.3668 10.4835C35.6881 10.9983 36.3667 11.1556 36.8826 10.8333C36.964 10.7816 44.7113 5.96149 52.7995 2.70882V45.4127C45.2909 48.0219 37.4512 52.2822 34.0996 54.1894V12.1005C34.0996 11.6836 33.8642 11.3029 33.4913 11.116C33.302 11.0226 28.7943 8.8005 23.0997 8.8005C13.1602 8.8005 5.51856 10.951 5.19733 11.0433C4.72541 11.1775 4.39979 11.6099 4.39979 12.1005V60.5001C4.39979 60.8444 4.5626 61.1701 4.83652 61.378C5.03014 61.5243 5.26333 61.6002 5.49987 61.6002C5.60106 61.6002 5.70225 61.5859 5.80125 61.5573C5.87718 61.5364 13.4836 59.4002 23.0997 59.4002C27.1213 59.4002 30.5576 60.652 31.8997 61.214V63.8001H5.49987C3.6805 63.8001 2.1999 62.3195 2.1999 60.5001V17.6005C2.1999 16.9933 1.70709 16.5005 1.09995 16.5005C0.492805 16.5005 0 16.9933 0 17.6005V60.5001C0 63.5328 2.46725 66.0001 5.5 66.0001H60.4996C63.5322 66.0001 65.9996 63.5329 65.9996 60.5001V17.6005C65.9995 16.9932 65.5078 16.5004 64.8995 16.5004Z" fill="white"/>
<path d="M37.5189 24.6996C37.7136 25.0802 38.1008 25.3001 38.5012 25.3001C38.6684 25.3001 38.8399 25.2616 38.9995 25.1803C39.0644 25.1473 45.539 21.8582 48.7323 20.8496C49.3109 20.6659 49.632 20.0476 49.4483 19.4691C49.2657 18.8904 48.652 18.5682 48.0679 18.7508C44.7041 19.8146 38.2735 23.0815 38.0008 23.2201C37.4595 23.4951 37.244 24.1574 37.5189 24.6996Z" fill="white"/>
<path d="M37.5189 37.8995C37.7136 38.2802 38.1008 38.5001 38.5012 38.5001C38.6684 38.5001 38.8399 38.4615 38.9995 38.3802C39.0644 38.3472 45.539 35.0582 48.7323 34.0495C49.3109 33.8658 49.632 33.2476 49.4483 32.6691C49.2657 32.0904 48.652 31.7681 48.0679 31.9508C44.7041 33.0145 38.2735 36.2815 38.0008 36.4201C37.4595 36.695 37.244 37.3573 37.5189 37.8995Z" fill="white"/>
<path d="M26.651 20.4143C19.8586 18.8204 12.1399 20.851 11.8154 20.9379C11.2292 21.0952 10.8805 21.6979 11.0377 22.2854C11.1697 22.777 11.6141 23.1004 12.0993 23.1004C12.1939 23.1004 12.2895 23.0883 12.3853 23.063C12.459 23.0422 19.8906 21.0874 26.1496 22.5559C26.738 22.6935 27.3332 22.3271 27.4717 21.7353C27.6102 21.1447 27.2428 20.5529 26.651 20.4143Z" fill="white"/>
<path d="M26.651 27.0141C19.8586 25.4214 12.1399 27.4509 11.8154 27.5377C11.2292 27.695 10.8805 28.2979 11.0377 28.8852C11.1697 29.3768 11.6141 29.7003 12.0993 29.7003C12.1939 29.7003 12.2895 29.6881 12.3853 29.6629C12.459 29.642 19.8906 27.6873 26.1496 29.1558C26.738 29.2933 27.3332 28.927 27.4717 28.3351C27.6102 27.7445 27.2428 27.1527 26.651 27.0141Z" fill="white"/>
<path d="M37.5189 44.4996C37.7136 44.8803 38.1008 45.1002 38.5012 45.1002C38.6684 45.1002 38.8399 45.0616 38.9995 44.9803C39.0644 44.9473 45.539 41.6583 48.7323 40.6496C49.3109 40.4659 49.632 39.8477 49.4483 39.2691C49.2657 38.6906 48.652 38.3682 48.0679 38.5509C44.7041 39.6146 38.2735 42.8816 38.0008 43.0202C37.4595 43.2951 37.244 43.9574 37.5189 44.4996Z" fill="white"/>
<path d="M26.651 33.6142C19.8586 32.0214 12.1399 34.0497 11.8154 34.1378C11.2292 34.2951 10.8805 34.8979 11.0377 35.4852C11.1697 35.9769 11.6141 36.3015 12.0993 36.3015C12.1939 36.3015 12.2895 36.2883 12.3853 36.2629C12.459 36.242 19.8906 34.2873 26.1496 35.7558C26.738 35.8934 27.3332 35.527 27.4717 34.9352C27.6102 34.3446 27.2428 33.7528 26.651 33.6142Z" fill="white"/>
<path d="M26.651 46.8139C19.8586 45.22 12.1399 47.2507 11.8154 47.3376C11.2292 47.4948 10.8805 48.0977 11.0377 48.685C11.1697 49.1767 11.6141 49.5012 12.0993 49.5012C12.1939 49.5012 12.2895 49.4881 12.3853 49.4627C12.459 49.4418 19.8906 47.4871 26.1496 48.9556C26.738 49.092 27.3332 48.7268 27.4717 48.135C27.6102 47.5443 27.2428 46.9525 26.651 46.8139Z" fill="white"/>
<path d="M26.651 40.214C19.8586 38.6201 12.1399 40.6496 11.8154 40.7377C11.2292 40.8949 10.8805 41.4978 11.0377 42.0851C11.1697 42.5768 11.6141 42.9013 12.0993 42.9013C12.1939 42.9013 12.2895 42.8882 12.3853 42.8628C12.459 42.8419 19.8906 40.8872 26.1496 42.3557C26.738 42.4932 27.3332 42.1269 27.4717 41.5351C27.6102 40.9444 27.2428 40.3526 26.651 40.214Z" fill="white"/>
</g>
<defs>
<clipPath id="clip0_3333_979">
<rect width="66" height="66" fill="white"/>
</clipPath>
</defs>
</svg>
