<svg width="70" height="71" viewBox="0 0 70 71" fill="none" xmlns="http://www.w3.org/2000/svg">
<rect width="70" height="71" rx="10" fill="#E0F7FF"/>
<g clip-path="url(#clip0_3333_2126)">
<path d="M18.0669 29.4835C18.1925 29.6119 18.3573 29.6765 18.5221 29.6765C18.6869 29.6765 18.8518 29.6123 18.9776 29.4835C19.2291 29.2264 19.2291 28.8093 18.9776 28.5521L17.414 26.9529L18.9776 25.354C19.2291 25.0965 19.2291 24.6797 18.9776 24.4226C18.7262 24.1654 18.3183 24.1654 18.0669 24.4226L16.048 26.4873C15.9272 26.6109 15.8594 26.7785 15.8594 26.9529C15.8594 27.1276 15.9272 27.2952 16.048 27.4188L18.0669 29.4835Z" fill="black"/>
<path d="M24.4573 26.953L22.8936 28.5522C22.6422 28.8093 22.6422 29.2265 22.8939 29.4836C23.0195 29.612 23.1843 29.6766 23.3492 29.6766C23.514 29.6766 23.6788 29.612 23.8044 29.4836L25.8236 27.4185C26.075 27.1614 26.075 26.7443 25.8236 26.4874L23.8044 24.4224C23.5529 24.1652 23.1454 24.1652 22.8939 24.4224C22.6422 24.6798 22.6422 25.0966 22.8939 25.3538L24.4573 26.953Z" fill="black"/>
<path d="M19.976 29.6308C20.0532 29.6617 20.1331 29.6765 20.2113 29.6765C20.4684 29.6765 20.7112 29.5179 20.8109 29.2587L22.397 25.1288C22.5273 24.7903 22.3641 24.4082 22.0331 24.275C21.7025 24.1421 21.3285 24.3086 21.1986 24.6471L19.6121 28.777C19.4822 29.1155 19.645 29.498 19.976 29.6308Z" fill="black"/>
<path d="M16.8675 33.5402H21.2057C21.5612 33.5402 21.8495 33.2453 21.8495 32.8814C21.8495 32.5178 21.5612 32.2229 21.2057 32.2229H16.8675C16.5117 32.2229 16.2236 32.5178 16.2236 32.8814C16.2236 33.2453 16.5117 33.5402 16.8675 33.5402Z" fill="black"/>
<path d="M31.1976 32.2229H23.5706C23.2151 32.2229 22.9268 32.5178 22.9268 32.8814C22.9268 33.2453 23.2151 33.5402 23.5706 33.5402H31.1976C31.5534 33.5402 31.8418 33.2453 31.8418 32.8814C31.8418 32.5178 31.5534 32.2229 31.1976 32.2229Z" fill="black"/>
<path d="M16.8675 36.3181H18.7155C19.071 36.3181 19.3594 36.0232 19.3594 35.6592C19.3594 35.2956 19.071 35.0007 18.7155 35.0007H16.8675C16.5117 35.0007 16.2236 35.2956 16.2236 35.6592C16.2236 36.0232 16.5117 36.3181 16.8675 36.3181Z" fill="black"/>
<path d="M28.8421 35.0007C28.4863 35.0007 28.1982 35.2956 28.1982 35.6592C28.1982 36.0232 28.4863 36.3181 28.8421 36.3181H29.9674C30.3232 36.3181 30.6116 36.0232 30.6116 35.6592C30.6116 35.2956 30.3232 35.0007 29.9674 35.0007H28.8421Z" fill="black"/>
<path d="M27.1473 35.6592C27.1473 35.2956 26.8589 35.0007 26.5034 35.0007H20.9759C20.6201 35.0007 20.332 35.2956 20.332 35.6592C20.332 36.0232 20.6201 36.3181 20.9759 36.3181H26.5034C26.8589 36.3181 27.1473 36.0232 27.1473 35.6592Z" fill="black"/>
<path d="M31.3652 35.6592C31.3652 36.0232 31.6536 36.3181 32.0091 36.3181H34.1169C34.4728 36.3181 34.7611 36.0232 34.7611 35.6592C34.7611 35.2956 34.4728 35.0007 34.1169 35.0007H32.0091C31.6536 35.0007 31.3652 35.2956 31.3652 35.6592Z" fill="black"/>
<path d="M27.8581 27.4814H30.0814C30.4372 27.4814 30.7256 27.1865 30.7256 26.8226C30.7256 26.459 30.4372 26.1641 30.0814 26.1641H27.8581C27.5022 26.1641 27.2139 26.459 27.2139 26.8226C27.2139 27.1865 27.5022 27.4814 27.8581 27.4814Z" fill="black"/>
<path d="M32.5719 27.4814H46.1377C46.4935 27.4814 46.7816 27.1865 46.7816 26.8226C46.7816 26.459 46.4935 26.1641 46.1377 26.1641H32.5719C32.2161 26.1641 31.9277 26.459 31.9277 26.8226C31.9277 27.1865 32.2161 27.4814 32.5719 27.4814Z" fill="black"/>
<path d="M44.0767 29.0615H38.5814C38.2259 29.0615 37.9375 29.3564 37.9375 29.7204C37.9375 30.0839 38.2259 30.3789 38.5814 30.3789H44.0767C44.4322 30.3789 44.7205 30.0839 44.7205 29.7204C44.7205 29.3564 44.4322 29.0615 44.0767 29.0615Z" fill="black"/>
<path d="M36.5211 29.0615H34.6321C34.2763 29.0615 33.9883 29.3564 33.9883 29.7204C33.9883 30.0839 34.2763 30.3789 34.6321 30.3789H36.5211C36.8769 30.3789 37.165 30.0839 37.165 29.7204C37.165 29.3564 36.8769 29.0615 36.5211 29.0615Z" fill="black"/>
<path d="M27.8581 30.3789H32.4856C32.8411 30.3789 33.1295 30.0839 33.1295 29.7204C33.1295 29.3564 32.8411 29.0615 32.4856 29.0615H27.8581C27.5022 29.0615 27.2139 29.3564 27.2139 29.7204C27.2139 30.0839 27.5022 30.3789 27.8581 30.3789Z" fill="black"/>
<path d="M26.5113 37.7554H22.1735C21.8177 37.7554 21.5293 38.0503 21.5293 38.4139C21.5293 38.7774 21.8177 39.0724 22.1735 39.0724H26.5113C26.8668 39.0724 27.1552 38.7774 27.1552 38.4139C27.1552 38.0503 26.8668 37.7554 26.5113 37.7554Z" fill="black"/>
<path d="M20.2003 37.7554H16.8675C16.5117 37.7554 16.2236 38.0503 16.2236 38.4139C16.2236 38.7774 16.5117 39.0724 16.8675 39.0724H20.2003C20.5561 39.0724 20.8441 38.7774 20.8441 38.4139C20.8441 38.0503 20.5561 37.7554 20.2003 37.7554Z" fill="black"/>
<path d="M34.3742 37.7554H28.7073C28.3515 37.7554 28.0635 38.0503 28.0635 38.4139C28.0635 38.7774 28.3515 39.0724 28.7073 39.0724H34.3742C34.7297 39.0724 35.0181 38.7774 35.0181 38.4139C35.0181 38.0503 34.7297 37.7554 34.3742 37.7554Z" fill="black"/>
<path d="M42.0386 34.3721H38.9398C38.5843 34.3721 38.2959 34.667 38.2959 35.0306C38.2959 35.3945 38.5843 35.6894 38.9398 35.6894H42.0386C42.3944 35.6894 42.6824 35.3945 42.6824 35.0306C42.6824 34.667 42.3944 34.3721 42.0386 34.3721Z" fill="black"/>
<path d="M47.4153 35.6894H51.7898C52.1456 35.6894 52.434 35.3945 52.434 35.0306C52.434 34.667 52.1456 34.3721 51.7898 34.3721H47.4153C47.0595 34.3721 46.7715 34.667 46.7715 35.0306C46.7715 35.3945 47.0598 35.6894 47.4153 35.6894Z" fill="black"/>
<path d="M45.2276 34.3721H44.2253C43.8694 34.3721 43.5811 34.667 43.5811 35.0306C43.5811 35.3945 43.8694 35.6894 44.2253 35.6894H45.2276C45.5835 35.6894 45.8715 35.3945 45.8715 35.0306C45.8715 34.667 45.5835 34.3721 45.2276 34.3721Z" fill="black"/>
<path d="M38.9398 42.8663H42.0386C42.3944 42.8663 42.6824 42.5717 42.6824 42.2078C42.6824 41.8442 42.3944 41.5493 42.0386 41.5493H38.9398C38.5843 41.5493 38.2959 41.8442 38.2959 42.2078C38.2959 42.5717 38.5843 42.8663 38.9398 42.8663Z" fill="black"/>
<path d="M47.4153 42.8663H51.7898C52.1456 42.8663 52.434 42.5717 52.434 42.2078C52.434 41.8442 52.1456 41.5493 51.7898 41.5493H47.4153C47.0595 41.5493 46.7715 41.8442 46.7715 42.2078C46.7715 42.5717 47.0598 42.8663 47.4153 42.8663Z" fill="black"/>
<path d="M44.2259 42.8663H45.2283C45.5841 42.8663 45.8725 42.5717 45.8725 42.2078C45.8725 41.8442 45.5841 41.5493 45.2283 41.5493H44.2259C43.8701 41.5493 43.582 41.8442 43.582 42.2078C43.582 42.5717 43.8701 42.8663 44.2259 42.8663Z" fill="black"/>
<path d="M42.0386 48.7266H38.9398C38.5843 48.7266 38.2959 49.0215 38.2959 49.3851C38.2959 49.7486 38.5843 50.0436 38.9398 50.0436H42.0386C42.3944 50.0436 42.6824 49.7486 42.6824 49.3851C42.6824 49.0215 42.3944 48.7266 42.0386 48.7266Z" fill="black"/>
<path d="M51.7898 48.7266H47.4153C47.0595 48.7266 46.7715 49.0215 46.7715 49.3851C46.7715 49.7486 47.0595 50.0436 47.4153 50.0436H51.7898C52.1456 50.0436 52.434 49.7486 52.434 49.3851C52.434 49.0215 52.1456 48.7266 51.7898 48.7266Z" fill="black"/>
<path d="M45.2276 48.7266H44.2253C43.8694 48.7266 43.5811 49.0215 43.5811 49.3851C43.5811 49.7486 43.8694 50.0436 44.2253 50.0436H45.2276C45.5835 50.0436 45.8715 49.7486 45.8715 49.3851C45.8715 49.0215 45.5835 48.7266 45.2276 48.7266Z" fill="black"/>
<path d="M54.1662 13.0879H15.8343C14.2716 13.0879 13 14.3881 13 15.9866V47.8529C13 49.4511 14.2716 50.7512 15.8343 50.7512H18.2577C18.6132 50.7512 18.9015 50.4567 18.9015 50.0927C18.9015 49.7292 18.6132 49.4342 18.2577 49.4342H15.8343C14.9816 49.4342 14.2881 48.7249 14.2881 47.8529V45.3545H37.7488V46.4895H37.2382C36.5396 46.4895 35.9716 47.0705 35.9716 47.7849V49.4342H22.1729C21.8174 49.4342 21.529 49.7292 21.529 50.0927C21.529 50.4567 21.8174 50.7512 22.1729 50.7512H28.3644V53.1133H26.4201C25.1229 53.1133 24.0679 54.1927 24.0679 55.519V56.9417C24.0679 57.547 24.5492 58.0393 25.1411 58.0393H44.8101C45.4019 58.0393 45.8833 57.547 45.8833 56.9417V55.519C45.8833 54.1927 44.8282 53.1133 43.5311 53.1133H41.5868V52.2807H53.4915C54.1897 52.2807 54.7577 51.6998 54.7577 50.9854V50.6754C56.0129 50.3773 56.9512 49.2255 56.9512 47.8529L56.9998 15.9862C57.0002 14.3881 55.7289 13.0879 54.1662 13.0879ZM37.2596 43.7866V40.6297H53.47V43.7866H37.2596ZM39.0365 39.3124V37.9267H51.6928V39.3124H39.0365ZM51.6928 45.1035V46.4895H39.0365V45.1035H51.6928ZM29.6521 50.7512H35.9716V50.9857C35.9716 51.6998 36.5396 52.2807 37.2382 52.2807H40.299V53.1133H29.6521V50.7512ZM43.5314 54.4306C44.1182 54.4306 44.5956 54.9188 44.5956 55.519V56.7223H25.3556V55.519C25.3556 54.9188 25.8333 54.4306 26.4201 54.4306H43.5314ZM53.47 50.9634H37.2596V47.8069H53.47V50.9634ZM55.6634 47.8529C55.6634 48.4908 55.2915 49.0404 54.7581 49.29V47.7846C54.7581 47.0705 54.1897 46.4895 53.4915 46.4895H52.9809V45.3545H55.6634V47.8529ZM55.6634 44.0375H54.7369C54.75 43.963 54.7581 40.6077 54.7581 40.6077C54.7581 39.8933 54.1897 39.3124 53.4915 39.3124H52.9809V37.9267H53.4915C54.1897 37.9267 54.7581 37.3455 54.7581 36.6313V33.4305C54.7581 32.7164 54.1897 32.1352 53.4915 32.1352H49.8542C49.4984 32.1352 49.2104 32.4301 49.2104 32.794C49.2104 33.1576 49.4984 33.4525 49.8542 33.4525H53.47V36.6094H37.2596V33.4525H45.8474C46.2032 33.4525 46.4913 33.1576 46.4913 32.794C46.4913 32.4301 46.2032 32.1352 45.8474 32.1352H37.2382C36.5396 32.1352 35.9716 32.7164 35.9716 33.4305V36.6313C35.9716 37.3455 36.5396 37.9267 37.2382 37.9267H37.7488V39.3124H37.2382C36.5396 39.3124 35.9716 39.8936 35.9716 40.6077C35.9716 40.6077 35.9796 43.963 35.9927 44.0375H14.2881V22.0466H55.6634V44.0375ZM55.6634 20.7293H14.3354V15.9862C14.3354 15.1145 15.0289 14.4052 15.8816 14.4052H54.1172C54.9699 14.4052 55.6634 15.1145 55.6634 15.9866V20.7293Z" fill="black"/>
<path d="M17.749 15.6157C16.707 15.6157 15.8594 16.4826 15.8594 17.5483C15.8594 18.614 16.707 19.4812 17.749 19.4812C18.791 19.4812 19.639 18.614 19.639 17.5483C19.639 16.4826 18.791 15.6157 17.749 15.6157ZM17.749 18.1639C17.4173 18.1639 17.1471 17.8878 17.1471 17.5483C17.1471 17.2091 17.4173 16.9327 17.749 16.9327C18.081 16.9327 18.3509 17.2091 18.3509 17.5483C18.3509 17.8878 18.081 18.1639 17.749 18.1639Z" fill="black"/>
<path d="M22.5609 15.6157C21.5189 15.6157 20.6709 16.4826 20.6709 17.5483C20.6709 18.614 21.5189 19.4812 22.5609 19.4812C23.6029 19.4812 24.4505 18.614 24.4505 17.5483C24.4505 16.4826 23.6025 15.6157 22.5609 15.6157ZM22.5609 18.1639C22.2289 18.1639 21.959 17.8878 21.959 17.5483C21.959 17.2091 22.2289 16.9327 22.5609 16.9327C22.8925 16.9327 23.1628 17.2091 23.1628 17.5483C23.1628 17.8878 22.8925 18.1639 22.5609 18.1639Z" fill="black"/>
<path d="M27.372 15.6157C26.3301 15.6157 25.4824 16.4826 25.4824 17.5483C25.4824 18.614 26.3301 19.4812 27.372 19.4812C28.414 19.4812 29.262 18.614 29.262 17.5483C29.262 16.4826 28.414 15.6157 27.372 15.6157ZM27.372 18.1639C27.0404 18.1639 26.7701 17.8878 26.7701 17.5483C26.7701 17.2091 27.0404 16.9327 27.372 16.9327C27.704 16.9327 27.9739 17.2091 27.9739 17.5483C27.9739 17.8878 27.704 18.1639 27.372 18.1639Z" fill="black"/>
</g>
<defs>
<clipPath id="clip0_3333_2126">
<rect width="44" height="45" fill="white" transform="translate(13 13)"/>
</clipPath>
</defs>
</svg>
