<svg width="44" height="45" viewBox="0 0 44 45" fill="none" xmlns="http://www.w3.org/2000/svg">
<g id="video 1" clip-path="url(#clip0_3614_1501)">
<g id="Group">
<path id="Vector" fill-rule="evenodd" clip-rule="evenodd" d="M40.5272 18.1649H11.2078L39.3694 9.82143C39.5883 9.75655 39.7729 9.60514 39.883 9.40121C39.9931 9.19693 40.0193 8.9566 39.9559 8.73276L38.4822 3.5297C37.8934 1.45157 36.0014 0 33.8812 0C33.4344 0 32.9892 0.064888 32.5575 0.192604L6.11665 8.0262C4.89372 8.3884 3.88026 9.21993 3.26225 10.367C2.64458 11.514 2.49956 12.8348 2.85371 14.0852L4.2935 19.1684V40.1087C4.2935 42.8058 6.43892 45 9.07579 45H19.4024C19.8771 45 20.2618 44.6066 20.2618 44.1211C20.2618 43.6356 19.8771 43.2422 19.4024 43.2422H9.07613C7.38658 43.2422 6.01225 41.8366 6.01225 40.1087V28.148H10.4149H10.4169H10.4186H17.1485H17.1506H17.1526H23.8826H23.8846H23.8866H30.6166H30.6186H30.6203H39.6679V40.1087C39.6679 41.8366 38.2935 43.2422 36.604 43.2422H26.2774C25.8031 43.2422 25.418 43.6356 25.418 44.1211C25.418 44.6066 25.8031 45 26.2774 45H36.604C39.2412 45 41.3866 42.8058 41.3866 40.1087V19.0438C41.3866 18.5583 41.0019 18.1649 40.5272 18.1649ZM25.3737 26.3902L29.025 19.9227H33.7741L30.1231 26.3902H25.3737ZM18.6397 26.3902L22.291 19.9227H27.0401L23.3891 26.3902H18.6397ZM11.906 26.3902L15.557 19.9227H20.3064L16.6551 26.3902H11.906ZM15.1012 15.0121L8.98683 9.00604L13.568 7.64889C13.6003 7.69695 13.6379 7.74227 13.6808 7.7845L19.7952 13.7906L15.2139 15.1477C15.1817 15.0997 15.1438 15.054 15.1012 15.0121ZM26.6168 3.95199L32.7311 9.95808L28.1499 11.3152C28.1177 11.2672 28.0801 11.2215 28.0371 11.1796L21.9228 5.17353L26.504 3.81638C26.5362 3.86444 26.5738 3.90976 26.6168 3.95199ZM20.1486 5.86842L26.263 11.8742L21.6817 13.2317C21.6495 13.1836 21.6119 13.1379 21.569 13.096L15.4546 7.08996L20.0358 5.7328C20.0684 5.78053 20.106 5.82619 20.1486 5.86842ZM33.0359 1.88107C33.3118 1.79935 33.5962 1.75781 33.8812 1.75781C35.2411 1.75781 36.4539 2.68753 36.8313 4.01894L38.0659 8.37742L34.618 9.3988C34.5855 9.35074 34.5479 9.30542 34.5049 9.26319L28.3909 3.25745L33.0359 1.88107ZM4.76784 11.215C5.16396 10.4792 5.81285 9.9464 6.59502 9.71466L7.0999 9.56497C7.13246 9.61304 7.17006 9.6587 7.21269 9.70058L13.327 15.7067L5.73933 17.9548L4.50465 13.5963C4.27806 12.7967 4.37172 11.9511 4.76784 11.215ZM6.01225 19.9227H13.5724L9.9214 26.3902H6.01225V19.9227ZM32.1077 26.3902L35.7587 19.9227H39.6679V26.3902H32.1077Z" fill="black"/>
<path id="Vector_2" fill-rule="evenodd" clip-rule="evenodd" d="M28.7825 35.6057C28.7825 35.2915 28.6187 35.0014 28.3528 34.8445L20.8027 30.3865C20.5369 30.2296 20.2092 30.2296 19.9434 30.3865C19.6775 30.5434 19.5137 30.8335 19.5137 31.1476V40.0637C19.5137 40.3775 19.6775 40.6676 19.9434 40.8245C20.0763 40.9031 20.2247 40.9426 20.373 40.9426C20.5214 40.9426 20.6698 40.9031 20.8027 40.8245L28.3528 36.3668C28.6187 36.2099 28.7825 35.9198 28.7825 35.6057ZM21.2324 38.5414V32.6699L26.2044 35.6057L21.2324 38.5414Z" fill="black"/>
<path id="Vector_3" fill-rule="evenodd" clip-rule="evenodd" d="M22.8398 43.2422C22.3665 43.2422 21.9805 43.637 21.9805 44.1211C21.9805 44.6052 22.3665 45 22.8398 45C23.3135 45 23.6992 44.6052 23.6992 44.1211C23.6992 43.637 23.3135 43.2422 22.8398 43.2422Z" fill="black"/>
</g>
</g>
<defs>
<clipPath id="clip0_3614_1501">
<rect width="44" height="45" fill="white"/>
</clipPath>
</defs>
</svg>
