<svg width="70" height="71" viewBox="0 0 70 71" fill="none" xmlns="http://www.w3.org/2000/svg">
<rect width="70" height="71" rx="10" fill="#CDFCF0"/>
<g clip-path="url(#clip0_3333_1500)">
<path fill-rule="evenodd" clip-rule="evenodd" d="M53.5272 31.1649H24.2078L52.3694 22.8214C52.5883 22.7565 52.7729 22.6051 52.883 22.4012C52.9931 22.1969 53.0193 21.9566 52.9559 21.7328L51.4822 16.5297C50.8934 14.4516 49.0014 13 46.8812 13C46.4344 13 45.9892 13.0649 45.5575 13.1926L19.1167 21.0262C17.8937 21.3884 16.8803 22.2199 16.2623 23.367C15.6446 24.514 15.4996 25.8348 15.8537 27.0852L17.2935 32.1684V53.1087C17.2935 55.8058 19.4389 58 22.0758 58H32.4024C32.8771 58 33.2618 57.6066 33.2618 57.1211C33.2618 56.6356 32.8771 56.2422 32.4024 56.2422H22.0761C20.3866 56.2422 19.0123 54.8366 19.0123 53.1087V41.148H23.4149H23.4169H23.4186H30.1485H30.1506H30.1526H36.8826H36.8846H36.8866H43.6166H43.6186H43.6203H52.6679V53.1087C52.6679 54.8366 51.2935 56.2422 49.604 56.2422H39.2774C38.8031 56.2422 38.418 56.6356 38.418 57.1211C38.418 57.6066 38.8031 58 39.2774 58H49.604C52.2412 58 54.3866 55.8058 54.3866 53.1087V32.0438C54.3866 31.5583 54.0019 31.1649 53.5272 31.1649ZM38.3737 39.3902L42.025 32.9227H46.7741L43.1231 39.3902H38.3737ZM31.6397 39.3902L35.291 32.9227H40.0401L36.3891 39.3902H31.6397ZM24.906 39.3902L28.557 32.9227H33.3064L29.6551 39.3902H24.906ZM28.1012 28.0121L21.9868 22.006L26.568 20.6489C26.6003 20.697 26.6379 20.7423 26.6808 20.7845L32.7952 26.7906L28.2139 28.1477C28.1817 28.0997 28.1438 28.054 28.1012 28.0121ZM39.6168 16.952L45.7311 22.9581L41.1499 24.3152C41.1177 24.2672 41.0801 24.2215 41.0371 24.1796L34.9228 18.1735L39.504 16.8164C39.5362 16.8644 39.5738 16.9098 39.6168 16.952ZM33.1486 18.8684L39.263 24.8742L34.6817 26.2317C34.6495 26.1836 34.6119 26.1379 34.569 26.096L28.4546 20.09L33.0358 18.7328C33.0684 18.7805 33.106 18.8262 33.1486 18.8684ZM46.0359 14.8811C46.3118 14.7994 46.5962 14.7578 46.8812 14.7578C48.2411 14.7578 49.4539 15.6875 49.8313 17.0189L51.0659 21.3774L47.618 22.3988C47.5855 22.3507 47.5479 22.3054 47.5049 22.2632L41.3909 16.2574L46.0359 14.8811ZM17.7678 24.215C18.164 23.4792 18.8129 22.9464 19.595 22.7147L20.0999 22.565C20.1325 22.613 20.1701 22.6587 20.2127 22.7006L26.327 28.7067L18.7393 30.9548L17.5047 26.5963C17.2781 25.7967 17.3717 24.9511 17.7678 24.215ZM19.0123 32.9227H26.5724L22.9214 39.3902H19.0123V32.9227ZM45.1077 39.3902L48.7587 32.9227H52.6679V39.3902H45.1077Z" fill="black"/>
<path fill-rule="evenodd" clip-rule="evenodd" d="M41.7825 48.6057C41.7825 48.2915 41.6187 48.0014 41.3528 47.8445L33.8027 43.3865C33.5369 43.2296 33.2092 43.2296 32.9434 43.3865C32.6775 43.5434 32.5137 43.8335 32.5137 44.1476V53.0637C32.5137 53.3775 32.6775 53.6676 32.9434 53.8245C33.0763 53.9031 33.2247 53.9426 33.373 53.9426C33.5214 53.9426 33.6698 53.9031 33.8027 53.8245L41.3528 49.3668C41.6187 49.2099 41.7825 48.9198 41.7825 48.6057ZM34.2324 51.5414V45.6699L39.2044 48.6057L34.2324 51.5414Z" fill="black"/>
<path fill-rule="evenodd" clip-rule="evenodd" d="M35.8398 56.2422C35.3665 56.2422 34.9805 56.637 34.9805 57.1211C34.9805 57.6052 35.3665 58 35.8398 58C36.3135 58 36.6992 57.6052 36.6992 57.1211C36.6992 56.637 36.3135 56.2422 35.8398 56.2422Z" fill="black"/>
</g>
<defs>
<clipPath id="clip0_3333_1500">
<rect width="44" height="45" fill="white" transform="translate(13 13)"/>
</clipPath>
</defs>
</svg>
