<svg width="34" height="34" viewBox="0 0 34 34" fill="none" xmlns="http://www.w3.org/2000/svg">
<path d="M1.06247 10.625H32.9374C33.524 10.625 33.9999 10.149 33.9999 9.56253C33.9999 8.97601 33.5239 8.50006 32.9374 8.50006H1.06247C0.475949 8.50006 0 8.9761 0 9.56253C0 10.149 0.476037 10.625 1.06247 10.625Z" fill="#020313"/>
<path d="M32.9374 15.9376H1.06247C0.475949 15.9376 0 16.4136 0 17C0 17.5865 0.476037 18.0625 1.06247 18.0625H32.9374C33.524 18.0625 33.9999 17.5865 33.9999 17C33.9999 16.4136 33.524 15.9376 32.9374 15.9376Z" fill="#020313"/>
<path d="M32.9374 23.375H11.6875C11.1009 23.375 10.625 23.851 10.625 24.4375C10.625 25.024 11.101 25.4999 11.6875 25.4999H32.9374C33.524 25.4999 33.9999 25.0239 33.9999 24.4375C34 23.8509 33.524 23.375 32.9374 23.375Z" fill="#020313"/>
</svg>
