<?xml version="1.0" encoding="UTF-8" standalone="no"?>
<svg xmlns="http://www.w3.org/2000/svg" version="1.2" baseProfile="tiny" viewBox="0.00 0.00 50.00 50.00">
<path fill="#fdfdfe" d="
  M 42.82 38.58
  Q 45.33 41.24 47.95 43.81
  C 51.14 46.94 47.24 51.08 44.16 48.24
  Q 41.22 45.52 38.78 42.89
  A 1.18 1.18 0.0 0 0 36.73 43.70
  L 36.75 48.50
  A 0.75 0.74 0.0 0 1 36.00 49.24
  L 1.50 49.25
  Q 0.75 49.25 0.75 48.50
  L 0.75 1.50
  A 0.75 0.75 0.0 0 1 1.50 0.75
  L 36.00 0.75
  A 0.75 0.74 -90.0 0 1 36.74 1.50
  L 36.75 22.05
  Q 36.75 22.50 37.14 22.72
  Q 46.22 27.60 42.65 37.82
  Q 42.50 38.25 42.82 38.58
  Z
  M 6.02 36.75
  L 21.89 36.75
  Q 22.50 36.75 22.39 36.16
  L 22.04 34.18
  A 0.76 0.76 0.0 0 0 21.30 33.55
  L 6.27 33.54
  A 0.77 0.77 0.0 0 1 5.50 32.77
  L 5.50 17.28
  A 0.84 0.84 0.0 0 1 6.34 16.44
  L 31.48 16.46
  Q 31.99 16.46 31.99 16.98
  L 32.00 21.20
  A 0.74 0.74 0.0 0 0 32.70 21.94
  L 34.81 22.05
  Q 35.20 22.08 35.20 21.69
  L 35.19 2.87
  Q 35.19 2.30 34.62 2.30
  L 3.00 2.31
  A 0.69 0.69 0.0 0 0 2.31 3.00
  L 2.30 47.11
  A 0.57 0.57 0.0 0 0 2.87 47.68
  L 34.47 47.68
  Q 35.13 47.68 35.15 47.03
  L 35.23 44.07
  Q 35.25 43.50 34.69 43.57
  Q 27.58 44.46 23.63 38.70
  Q 23.34 38.27 22.81 38.27
  Q 14.57 38.18 6.36 38.27
  Q 5.92 38.28 5.71 38.06
  Q 5.36 37.72 5.56 37.10
  A 0.48 0.48 0.0 0 1 6.02 36.75
  Z
  M 10.53 22.85
  Q 22.67 22.14 26.01 22.67
  Q 28.36 23.04 29.92 22.38
  Q 30.50 22.14 30.50 21.51
  L 30.51 18.63
  Q 30.51 18.00 29.88 18.00
  L 7.50 18.00
  Q 7.00 18.00 7.00 18.50
  L 7.00 31.50
  Q 7.00 32.01 7.50 32.01
  L 21.50 32.00
  Q 22.02 32.00 22.02 31.49
  Q 22.02 31.35 22.06 31.21
  Q 22.24 30.50 21.50 30.50
  L 10.68 30.50
  Q 10.11 30.50 10.12 29.93
  L 10.12 29.42
  A 0.58 0.58 0.0 0 1 10.70 28.85
  Q 16.40 28.91 22.09 28.84
  Q 22.58 28.84 22.85 28.62
  Q 23.18 28.35 23.23 27.92
  Q 23.29 27.38 22.74 27.38
  L 10.74 27.36
  Q 10.12 27.36 10.12 26.74
  L 10.12 26.44
  Q 10.13 25.75 10.82 25.75
  Q 17.41 25.77 23.99 25.72
  C 24.58 25.72 25.15 25.32 25.41 24.84
  Q 25.74 24.23 25.05 24.23
  L 10.71 24.24
  Q 10.19 24.24 10.15 23.72
  L 10.12 23.32
  Q 10.09 22.88 10.53 22.85
  Z
  M 42.22 32.82
  A 9.39 9.39 0.0 0 0 32.83 23.43
  A 9.39 9.39 0.0 0 0 23.44 32.82
  A 9.39 9.39 0.0 0 0 32.83 42.21
  A 9.39 9.39 0.0 0 0 42.22 32.82
  Z
  M 47.5294 46.8217
  A 0.99 0.99 0.0 0 0 47.5196 45.4217
  L 42.1367 40.1134
  A 0.99 0.99 0.0 0 0 40.7366 40.1232
  L 40.0906 40.7783
  A 0.99 0.99 0.0 0 0 40.1004 42.1783
  L 45.4833 47.4866
  A 0.99 0.99 0.0 0 0 46.8834 47.4768
  L 47.5294 46.8217
  Z"
/>
<path fill="#fdfdfe" d="
  M 13.25 12.61
  L 13.26 6.23
  A 0.78 0.77 85.7 0 1 13.91 5.46
  Q 14.39 5.39 14.66 5.67
  Q 14.85 5.89 14.86 6.35
  C 14.91 8.26 15.28 12.11 14.37 13.76
  C 13.19 15.90 7.89 15.30 8.65 11.42
  A 0.74 0.74 0.0 0 1 10.12 11.55
  L 10.14 12.71
  Q 10.15 13.27 10.71 13.26
  L 12.64 13.23
  A 0.62 0.62 0.0 0 0 13.25 12.61
  Z"
/>
<path fill="#fdfdfe" d="
  M 21.8258 12.5654
  A 2.26 2.26 0.0 0 1 19.5619 14.8214
  L 17.9219 14.8186
  A 2.26 2.26 0.0 0 1 15.6658 12.5546
  L 15.6742 7.7746
  A 2.26 2.26 0.0 0 1 17.9381 5.5186
  L 19.5781 5.5214
  A 2.26 2.26 0.0 0 1 21.8342 7.7854
  L 21.8258 12.5654
  Z
  M 20.38 7.65
  A 0.65 0.65 0.0 0 0 19.73 7.00
  L 17.89 7.00
  A 0.65 0.65 0.0 0 0 17.24 7.65
  L 17.24 12.59
  A 0.65 0.65 0.0 0 0 17.89 13.24
  L 19.73 13.24
  A 0.65 0.65 0.0 0 0 20.38 12.59
  L 20.38 7.65
  Z"
/>
<path fill="#fdfdfe" d="
  M 28.43 10.70
  C 30.26 14.52 26.07 15.31 23.13 14.62
  Q 22.66 14.51 22.66 14.03
  L 22.65 6.14
  Q 22.65 5.42 23.36 5.46
  L 27.28 5.66
  A 0.96 0.95 71.9 0 1 27.98 6.02
  Q 29.34 7.81 28.43 9.73
  A 1.14 1.12 45.6 0 0 28.43 10.70
  Z
  M 27.2994 7.8573
  A 0.85 0.85 0.0 0 0 26.4479 7.0087
  L 25.0079 7.0113
  A 0.85 0.85 0.0 0 0 24.1594 7.8627
  L 24.1606 8.5627
  A 0.85 0.85 0.0 0 0 25.0121 9.4113
  L 26.4521 9.4087
  A 0.85 0.85 0.0 0 0 27.3006 8.5573
  L 27.2994 7.8573
  Z
  M 27.2668 11.7161
  A 0.77 0.77 0.0 0 0 26.4704 10.9735
  L 24.9114 11.0279
  A 0.77 0.77 0.0 0 0 24.1687 11.8243
  L 24.1932 12.5239
  A 0.77 0.77 0.0 0 0 24.9896 13.2665
  L 26.5486 13.2121
  A 0.77 0.77 0.0 0 0 27.2913 12.4157
  L 27.2668 11.7161
  Z"
/>
<rect fill="#fdfdfe" x="11.76" y="19.50" width="15.54" height="1.60" rx="0.47"/>
<path fill="#fdfdfe" d="
  M 40.58 32.80
  A 7.77 7.77 0.0 0 1 32.81 40.57
  A 7.77 7.77 0.0 0 1 25.04 32.80
  A 7.77 7.77 0.0 0 1 32.81 25.03
  A 7.77 7.77 0.0 0 1 40.58 32.80
  Z
  M 31.37 33.51
  L 27.13 33.61
  Q 26.48 33.62 26.68 34.24
  Q 28.34 39.43 33.85 39.11
  A 1.39 1.38 88.7 0 0 35.16 37.73
  L 35.22 27.51
  Q 35.22 26.81 34.52 26.73
  L 32.65 26.53
  Q 32.00 26.46 32.00 27.11
  L 31.99 32.88
  A 0.63 0.63 0.0 0 1 31.37 33.51
  Z
  M 26.73 31.28
  Q 26.51 32.00 27.26 32.00
  L 29.99 32.00
  Q 30.49 32.00 30.49 31.50
  L 30.53 27.56
  Q 30.53 26.87 29.94 27.22
  Q 27.54 28.62 26.73 31.28
  Z
  M 36.72 28.35
  L 36.76 37.11
  A 0.11 0.11 0.0 0 0 36.87 37.22
  L 36.90 37.21
  A 4.34 2.06 89.7 0 0 38.94 32.86
  L 38.94 32.56
  A 4.34 2.06 89.7 0 0 36.86 28.24
  L 36.83 28.24
  A 0.11 0.11 0.0 0 0 36.72 28.35
  Z"
/>
<rect fill="#fdfdfe" x="5.53" y="39.87" width="10.84" height="1.44" rx="0.39"/>
<rect fill="#fdfdfe" x="-2.31" y="-0.74" transform="translate(20.32,40.62) rotate(0.8)" width="4.62" height="1.48" rx="0.42"/>
</svg>
