<svg width="20" height="20" viewBox="0 0 20 20" fill="none" xmlns="http://www.w3.org/2000/svg">
<g clip-path="url(#clip0_2335_82975)">
<path d="M7.13203 2.63672C7.22578 2.75547 7.27891 2.90234 7.27891 3.06484V3.45547C7.27891 3.79922 7.03203 4.08672 6.69141 4.13984L6.13516 4.22734C6.08516 4.33672 6.04766 4.42422 6.00391 4.51172L6.34453 4.99922C6.54766 5.27109 6.51641 5.64922 6.27891 5.89297L6.01328 6.16484C5.77578 6.40547 5.37578 6.43359 5.10703 6.23047L4.65703 5.89609C4.54766 5.93672 4.46016 5.96797 4.36953 6.00234L4.26641 6.58984C4.21641 6.93359 3.92891 7.18047 3.58203 7.18047H3.20391C2.86016 7.18047 2.56953 6.93359 2.51953 6.58984L2.43203 6.02422C2.32891 5.97109 2.24141 5.93672 2.16016 5.89297L1.67891 6.23047C1.41016 6.43359 1.01016 6.40234 0.772656 6.16484L0.507031 5.89297C0.500781 5.88672 0.494531 5.88047 0.488281 5.87422V13.2273H19.8258V3.63672C19.8258 3.08672 19.3789 2.63672 18.8258 2.63672H7.13203ZM14.5789 8.1586C14.5789 8.52734 14.3133 8.84297 13.9445 8.89609L13.3039 8.9961C13.2727 8.99922 13.2508 9.02422 13.2414 9.04922C13.2039 9.15234 13.1633 9.25235 13.1195 9.35234C13.107 9.38047 13.107 9.41172 13.1258 9.43672L13.5164 9.97109C13.732 10.268 13.7039 10.6742 13.4445 10.9367L13.1352 11.2461C12.882 11.5055 12.4508 11.5367 12.157 11.318L11.6414 10.9336C11.607 10.9055 11.582 10.9148 11.557 10.9273C11.4602 10.9711 11.3633 11.0148 11.2633 11.0492C11.2352 11.0586 11.2164 11.0836 11.2102 11.1117L11.1133 11.7617C11.057 12.1305 10.7477 12.3992 10.3727 12.3992H9.94141C9.56953 12.3992 9.25703 12.1336 9.20078 11.7617L9.10391 11.1086C9.10078 11.0805 9.08203 11.0586 9.05078 11.0492C8.95078 11.0117 8.85391 10.968 8.76016 10.9273C8.73828 10.918 8.71016 10.9086 8.67266 10.9336L8.15703 11.318C7.86641 11.5336 7.43828 11.5055 7.17891 11.2461L6.86953 10.9367C6.61328 10.6742 6.58203 10.268 6.80078 9.97109L7.19141 9.43672C7.20703 9.41484 7.21016 9.38047 7.19766 9.35234C7.15078 9.25547 7.10703 9.15234 7.06953 9.04922C7.06016 9.02109 7.03516 8.99922 7.01016 8.9961L6.36953 8.89609C6.00391 8.84297 5.73516 8.53047 5.73516 8.1586V7.71172C5.73516 7.33984 6.00078 7.02734 6.36953 6.97109L7.01016 6.87422C7.04141 6.87109 7.06328 6.85234 7.07266 6.82109C7.11016 6.71797 7.15391 6.61797 7.20078 6.51797C7.21328 6.48984 7.21016 6.45859 7.19453 6.43672L6.80391 5.89922C6.58828 5.60234 6.61641 5.19609 6.87266 4.93672L7.18203 4.62422C7.43828 4.36797 7.86953 4.33359 8.16016 4.55234L8.67891 4.93672C8.71328 4.96484 8.73828 4.95547 8.76328 4.94297C8.85703 4.89922 8.95391 4.85547 9.05391 4.82422C9.08516 4.81172 9.10391 4.78672 9.10703 4.76172L9.20703 4.10859C9.26016 3.74609 9.57578 3.47109 9.94453 3.47109H10.3758C10.7414 3.47109 11.0633 3.74297 11.1164 4.10859L11.2133 4.76172C11.2195 4.78984 11.2414 4.81172 11.2695 4.82422C11.3664 4.85859 11.4633 4.90234 11.5602 4.94297C11.582 4.95547 11.607 4.96172 11.6445 4.93672L12.1602 4.55234C12.4539 4.33672 12.8852 4.36797 13.1383 4.62422L13.4477 4.93672C13.707 5.19609 13.7383 5.60234 13.5195 5.89922L13.1258 6.43359C13.1102 6.45547 13.107 6.48984 13.1195 6.51797C13.1664 6.61797 13.207 6.71797 13.2414 6.82109C13.2508 6.85234 13.2758 6.87109 13.3039 6.87422L13.9445 6.97109C14.3102 7.02734 14.5789 7.33672 14.5789 7.71172V8.1586Z" fill="#565EFF"/>
<path d="M13.843 7.62969L13.2055 7.53281C12.9336 7.48906 12.7055 7.30156 12.6148 7.04219C12.5836 6.95781 12.5523 6.87969 12.5148 6.80156C12.3992 6.55156 12.4242 6.26094 12.5836 6.04219L12.9742 5.50469C12.9961 5.47344 12.993 5.43281 12.968 5.40156L12.6586 5.09219C12.618 5.04844 12.5898 5.05469 12.5555 5.08281L12.0367 5.47031C11.8211 5.63281 11.5148 5.66094 11.268 5.53906C11.1961 5.50469 11.118 5.47344 11.0367 5.44531C10.7805 5.34844 10.593 5.12656 10.5523 4.85156L10.4523 4.19844C10.4461 4.16094 10.4117 4.13281 10.3711 4.13281H9.93984C9.89922 4.13281 9.86797 4.16406 9.85859 4.19844L9.76172 4.85156C9.72109 5.12344 9.53359 5.34844 9.27422 5.44531C9.19609 5.47344 9.12109 5.50469 9.04297 5.53906C8.79609 5.65781 8.49297 5.63281 8.27422 5.47031L7.75859 5.08281C7.72109 5.05469 7.69297 5.04844 7.65234 5.08906L7.34609 5.40156C7.31484 5.43281 7.31172 5.47344 7.33672 5.50469L7.72734 6.04219C7.88984 6.26094 7.91797 6.55156 7.79922 6.79844C7.75859 6.87969 7.73047 6.95781 7.69922 7.04219C7.60547 7.30156 7.38047 7.48906 7.10859 7.53281L6.46797 7.62969C6.42734 7.63594 6.40234 7.67031 6.40234 7.71094V8.15781C6.40234 8.19844 6.43047 8.22969 6.46797 8.23906L7.10859 8.33594C7.37734 8.37969 7.60547 8.56719 7.69922 8.82656C7.73047 8.91094 7.76172 8.98906 7.79922 9.07031C7.91484 9.31719 7.88984 9.61094 7.72734 9.82969L7.33672 10.3641C7.31484 10.3953 7.31797 10.4422 7.34609 10.4672L7.65234 10.7797C7.69297 10.8203 7.72109 10.8141 7.75859 10.7859L8.27422 10.3984C8.40234 10.3016 8.55859 10.2516 8.71797 10.2516C8.83047 10.2516 8.94609 10.2797 9.04609 10.3234C9.12422 10.3609 9.19922 10.3922 9.27734 10.4234C9.53672 10.5172 9.72422 10.7422 9.76484 11.0141L9.86172 11.6641C9.86797 11.7047 9.90234 11.7328 9.94297 11.7328H10.3742C10.4148 11.7328 10.4461 11.7016 10.4555 11.6641L10.5555 11.0141C10.5961 10.7453 10.7836 10.5172 11.0398 10.4234C11.1211 10.3922 11.1961 10.3609 11.2711 10.3266C11.5211 10.2078 11.8242 10.2328 12.0461 10.3953L12.5617 10.7828C12.5992 10.8109 12.6242 10.8172 12.6648 10.7766L12.9742 10.4641C13.0023 10.4359 13.0055 10.3922 12.9805 10.3609L12.5898 9.82656C12.4305 9.60781 12.4023 9.31406 12.5211 9.06719C12.5586 8.98594 12.5898 8.90781 12.6211 8.82344C12.7117 8.56406 12.9367 8.37656 13.2117 8.33281L13.8492 8.23594C13.8898 8.22969 13.918 8.19531 13.918 8.15469V7.70781C13.9117 7.67031 13.8805 7.63594 13.843 7.62969ZM10.1586 9.80781C9.12422 9.80781 8.28359 8.96719 8.28359 7.93281C8.28359 6.89844 9.12422 6.05781 10.1586 6.05781C11.193 6.05781 12.0336 6.89844 12.0336 7.93281C12.0336 8.96719 11.1898 9.80781 10.1586 9.80781Z" fill="#565EFF"/>
<path d="M10.1594 15.0234C9.975 15.0234 9.82812 15.1734 9.82812 15.3547C9.82812 15.5359 9.975 15.6828 10.1594 15.6828C10.3406 15.6828 10.4875 15.5359 10.4875 15.3547C10.4875 15.1734 10.3375 15.0234 10.1594 15.0234Z" fill="#565EFF"/>
<path d="M7.78125 17.4766V19.3297H5.77187C5.5875 19.3297 5.4375 19.4797 5.4375 19.6641C5.4375 19.8484 5.5875 19.9984 5.77187 19.9984H14.225C14.4094 19.9984 14.5594 19.8484 14.5594 19.6641C14.5594 19.4797 14.4094 19.3297 14.225 19.3297H12.5344V17.4766H7.78125Z" fill="#565EFF"/>
<path d="M0.66875 4.24141L0.484375 4.20703V4.93516L0.778125 4.53516C0.740625 4.42266 0.703125 4.33516 0.66875 4.24141Z" fill="#565EFF"/>
<path d="M19.8277 13.8984H0.490234V15.8141C0.490234 16.3672 0.937109 16.8141 1.49023 16.8141H18.8277C19.3777 16.8141 19.8277 16.3672 19.8277 15.8141V13.8984ZM10.159 16.3516C9.60898 16.3516 9.16211 15.9078 9.16211 15.3578C9.16211 14.8078 9.60898 14.3609 10.159 14.3609C10.7059 14.3609 11.1527 14.8078 11.1527 15.3578C11.1527 15.9078 10.7059 16.3516 10.159 16.3516Z" fill="#565EFF"/>
<path d="M10.1594 9.13906C10.8256 9.13906 11.3656 8.59901 11.3656 7.93281C11.3656 7.26662 10.8256 6.72656 10.1594 6.72656C9.49318 6.72656 8.95312 7.26662 8.95312 7.93281C8.95312 8.59901 9.49318 9.13906 10.1594 9.13906Z" fill="#565EFF"/>
<path d="M0.75 3.5625C1.00313 3.60312 1.2125 3.775 1.3 4.01562C1.32188 4.08437 1.35 4.15625 1.38438 4.22188C1.49375 4.45312 1.46875 4.72188 1.31875 4.925L0.98125 5.39062V5.425L1.25 5.69687L1.28438 5.7L1.73438 5.36562C1.85313 5.275 1.99688 5.22812 2.14375 5.22812C2.25 5.22812 2.35313 5.25 2.44688 5.29375C2.50938 5.325 2.57813 5.35312 2.64375 5.37812C2.88438 5.46562 3.05625 5.675 3.09375 5.925L3.18125 6.49063C3.18125 6.50313 3.19375 6.5125 3.20313 6.5125H3.58125C3.59375 6.5125 3.60313 6.50313 3.60938 6.49063L3.69375 5.925C3.73438 5.675 3.90313 5.46562 4.14375 5.37812C4.20938 5.35625 4.27813 5.325 4.34063 5.29375C4.57188 5.18438 4.85313 5.20937 5.05625 5.3625L5.50313 5.69687L5.775 5.93125L5.5375 5.69375L5.80313 5.425C5.8125 5.41563 5.8125 5.40312 5.80625 5.39062L5.46563 4.925C5.31563 4.72188 5.29375 4.45312 5.4 4.22188C5.43438 4.15625 5.45938 4.08437 5.4875 4.01562C5.57188 3.775 5.78125 3.60312 6.03438 3.5625L6.59063 3.475C6.6 3.475 6.60938 3.46563 6.60938 3.45312V3.0625C6.60938 3.05 6.60313 3.04063 6.59063 3.03437L6.03438 2.95C5.78125 2.90937 5.57188 2.7375 5.4875 2.49375C5.45938 2.425 5.43438 2.35625 5.4 2.29063C5.29375 2.05938 5.31563 1.79062 5.46563 1.5875L5.80625 1.12187C5.8125 1.1125 5.8125 1.1 5.80313 1.0875L5.5375 0.81875L5.30313 0.55L5.5 0.815625L5.05 1.15C4.84688 1.30313 4.56563 1.33125 4.3375 1.21875C4.275 1.18438 4.20625 1.15938 4.14063 1.13438C3.9 1.04688 3.73125 0.8375 3.69063 0.5875L3.60625 0.01875C3.60313 0.00625 3.59375 0 3.58125 0H3.20313C3.19375 0 3.18125 0.00625 3.18125 0.01875L3.09375 0.590625C3.05625 0.840625 2.88438 1.05 2.64375 1.1375C2.57813 1.15938 2.5125 1.1875 2.44688 1.21875C2.22188 1.33125 1.9375 1.30313 1.73438 1.15L1.28438 0.815625L1.0125 0.584375L1.25 0.81875L0.98125 1.09063C0.975 1.1 0.971875 1.1125 0.98125 1.125L1.31875 1.59063C1.46563 1.79375 1.49063 2.0625 1.38438 2.29375C1.35 2.35938 1.325 2.42812 1.3 2.5C1.2125 2.74062 1.00313 2.9125 0.75 2.95312L0.196875 3.0375C0.184375 3.04063 0.171875 3.05 0.171875 3.0625V3.45312C0.171875 3.46563 0.18125 3.475 0.19375 3.475L0.75 3.5625ZM3.39375 1.5875C4.3125 1.5875 5.0625 2.3375 5.0625 3.25625C5.0625 4.18125 4.3125 4.93125 3.39375 4.93125C2.46875 4.93125 1.71875 4.18125 1.71875 3.25625C1.71875 2.3375 2.47187 1.5875 3.39375 1.5875Z" fill="#565EFF"/>
<path d="M3.39297 4.26328C3.94609 4.26328 4.39609 3.81328 4.39609 3.25703C4.39609 2.70391 3.94609 2.25391 3.39297 2.25391C2.83672 2.25391 2.38672 2.70391 2.38672 3.25703C2.38672 3.81328 2.83672 4.26328 3.39297 4.26328Z" fill="#565EFF"/>
</g>
<defs>
<clipPath id="clip0_2335_82975">
<rect width="20" height="20" fill="white"/>
</clipPath>
</defs>
</svg>
