<svg width="24" height="25" viewBox="0 0 24 25" fill="none" xmlns="http://www.w3.org/2000/svg">
<g id="group 1">
<g id="Group">
<g id="Group_2">
<path id="Vector" d="M20.4844 13.069H18.1351C17.8154 13.069 17.5058 13.1127 17.2112 13.193C16.63 12.0506 15.4435 11.2656 14.0763 11.2656H9.92367C8.55647 11.2656 7.36997 12.0506 6.78881 13.193C6.4942 13.1127 6.18464 13.069 5.86491 13.069H3.51562C1.57711 13.069 0 14.6461 0 16.5846V20.3402C0 21.5033 0.946266 22.4495 2.10938 22.4495H21.8906C23.0537 22.4495 24 21.5033 24 20.3402V16.5846C24 14.6461 22.4229 13.069 20.4844 13.069ZM6.40805 14.7813V21.0433H2.10938C1.72167 21.0433 1.40625 20.7279 1.40625 20.3402V16.5847C1.40625 15.4216 2.35252 14.4753 3.51562 14.4753H5.86491C6.05578 14.4753 6.24061 14.5012 6.41658 14.549C6.41152 14.6259 6.40805 14.7033 6.40805 14.7813ZM16.1857 21.0433H7.8143V14.7813C7.8143 13.6182 8.76056 12.6719 9.92367 12.6719H14.0763C15.2394 12.6719 16.1857 13.6182 16.1857 14.7813V21.0433ZM22.5938 20.3402C22.5938 20.7279 22.2783 21.0433 21.8906 21.0433H17.592V14.7813C17.592 14.7032 17.5885 14.6258 17.5834 14.5489C17.7594 14.5012 17.9442 14.4753 18.1351 14.4753H20.4844C21.6475 14.4753 22.5938 15.4215 22.5938 16.5846V20.3402Z" fill="#565EFF"/>
</g>
</g>
<g id="Group_3">
<g id="Group_4">
<path id="Vector_2" d="M4.69044 6.42969C2.96783 6.42969 1.56641 7.83111 1.56641 9.55372C1.56636 11.2763 2.96783 12.6777 4.69044 12.6777C6.413 12.6777 7.81447 11.2763 7.81447 9.55372C7.81447 7.83111 6.41305 6.42969 4.69044 6.42969ZM4.69039 11.2715C3.74319 11.2715 2.97261 10.5009 2.97261 9.55372C2.97261 8.60652 3.74319 7.83594 4.69039 7.83594C5.63759 7.83594 6.40817 8.60652 6.40817 9.55372C6.40817 10.5009 5.63759 11.2715 4.69039 11.2715Z" fill="#565EFF"/>
</g>
</g>
<g id="Group_5">
<g id="Group_6">
<path id="Vector_3" d="M11.9998 2.54883C9.69845 2.54883 7.82617 4.42111 7.82617 6.72248C7.82617 9.02386 9.69845 10.8961 11.9998 10.8961C14.3012 10.8961 16.1735 9.02386 16.1735 6.72248C16.1735 4.42116 14.3012 2.54883 11.9998 2.54883ZM11.9998 9.48989C10.4739 9.48989 9.23242 8.24845 9.23242 6.72248C9.23242 5.19656 10.4739 3.95508 11.9998 3.95508C13.5258 3.95508 14.7672 5.19652 14.7672 6.72248C14.7672 8.24845 13.5258 9.48989 11.9998 9.48989Z" fill="#565EFF"/>
</g>
</g>
<g id="Group_7">
<g id="Group_8">
<path id="Vector_4" d="M19.3076 6.42969C17.5851 6.42969 16.1836 7.83111 16.1836 9.55372C16.1836 11.2763 17.5851 12.6777 19.3076 12.6777C21.0302 12.6777 22.4317 11.2763 22.4317 9.55372C22.4317 7.83111 21.0302 6.42969 19.3076 6.42969ZM19.3076 11.2715C18.3605 11.2715 17.5898 10.5009 17.5898 9.55372C17.5899 8.60652 18.3605 7.83594 19.3076 7.83594C20.2548 7.83594 21.0254 8.60652 21.0254 9.55372C21.0254 10.5009 20.2548 11.2715 19.3076 11.2715Z" fill="#565EFF"/>
</g>
</g>
</g>
</svg>
