<?xml version="1.0" encoding="UTF-8" standalone="no"?>
<svg xmlns="http://www.w3.org/2000/svg" version="1.2" baseProfile="tiny" viewBox="0.00 0.00 50.00 50.00">
<path fill="#fcfefd" d="
  M 43.56 30.98
  C 45.97 30.90 47.09 32.25 47.12 34.64
  C 47.17 38.27 48.59 44.45 43.58 44.88
  Q 43.06 44.92 43.00 45.44
  C 42.60 48.50 40.70 49.25 37.76 49.25
  Q 24.84 49.29 11.93 49.24
  C 9.14 49.22 7.39 48.18 7.01 45.40
  Q 6.93 44.83 6.35 44.82
  C 3.99 44.77 2.95 43.49 2.89 41.13
  C 2.82 38.08 1.49 30.77 6.44 30.97
  Q 6.99 31.00 6.99 30.45
  C 6.99 24.92 5.93 15.58 8.44 11.13
  Q 11.02 6.54 17.11 5.93
  Q 17.61 5.88 17.82 5.43
  C 20.89 -0.91 29.05 -0.74 32.14 5.45
  Q 32.36 5.89 32.85 5.94
  Q 39.04 6.54 41.59 11.15
  C 44.05 15.60 43.00 24.84 43.02 30.45
  Q 43.02 31.00 43.56 30.98
  Z
  M 19.51 6.00
  L 30.37 5.98
  A 0.12 0.12 0.0 0 0 30.49 5.86
  L 30.49 5.83
  A 5.45 3.47 -0.1 0 0 25.04 2.37
  L 24.84 2.37
  A 5.45 3.47 -0.1 0 0 19.39 5.85
  L 19.39 5.88
  A 0.12 0.12 0.0 0 0 19.51 6.00
  Z
  M 31.71 19.88
  L 35.19 19.87
  A 0.72 0.72 0.0 0 1 35.92 20.54
  L 36.04 22.08
  Q 36.08 22.61 36.60 22.71
  Q 38.96 23.16 40.80 21.89
  A 1.29 1.29 0.0 0 0 41.35 20.98
  C 42.24 13.84 40.40 7.55 32.23 7.46
  Q 25.49 7.39 18.59 7.39
  C 11.21 7.39 7.17 12.47 8.55 19.90
  C 9.06 22.65 10.93 23.38 13.44 22.63
  Q 13.85 22.50 13.92 22.08
  L 14.18 20.53
  Q 14.29 19.88 14.96 19.87
  L 18.04 19.85
  Q 18.74 19.84 18.83 20.53
  L 19.06 22.30
  Q 19.12 22.74 19.56 22.74
  L 30.42 22.74
  Q 30.86 22.74 30.93 22.31
  L 31.24 20.28
  Q 31.31 19.88 31.71 19.88
  Z
  M 17.6396 21.7619
  A 0.55 0.55 0.0 0 0 17.0858 21.2157
  L 15.8458 21.2244
  A 0.55 0.55 0.0 0 0 15.2997 21.7782
  L 15.3204 24.7381
  A 0.55 0.55 0.0 0 0 15.8742 25.2843
  L 17.1142 25.2756
  A 0.55 0.55 0.0 0 0 17.6603 24.7218
  L 17.6396 21.7619
  Z
  M 34.6618 21.6641
  A 0.46 0.46 0.0 0 0 34.1994 21.2065
  L 32.8394 21.2136
  A 0.46 0.46 0.0 0 0 32.3818 21.6760
  L 32.3982 24.8159
  A 0.46 0.46 0.0 0 0 32.8606 25.2735
  L 34.2206 25.2664
  A 0.46 0.46 0.0 0 0 34.6782 24.8040
  L 34.6618 21.6641
  Z
  M 14.87 26.63
  Q 13.79 26.32 14.05 24.65
  A 0.47 0.47 0.0 0 0 13.50 24.11
  Q 11.16 24.54 9.03 23.60
  Q 8.45 23.35 8.45 23.98
  L 8.45 45.26
  A 2.56 2.55 -0.0 0 0 11.01 47.81
  L 39.24 47.81
  A 2.30 2.30 0.0 0 0 41.54 45.51
  L 41.55 24.12
  Q 41.55 23.69 41.11 23.75
  L 36.53 24.38
  Q 36.11 24.44 36.06 24.87
  L 35.95 25.87
  Q 35.86 26.61 35.12 26.60
  L 31.82 26.58
  Q 31.20 26.58 31.12 25.95
  L 30.98 24.81
  Q 30.91 24.21 30.31 24.21
  L 19.94 24.21
  Q 19.40 24.21 19.26 24.73
  Q 18.44 27.64 14.87 26.63
  Z
  M 7.0178 33.4124
  A 1.07 1.07 0.0 0 0 5.9497 32.3405
  L 5.3897 32.3395
  A 1.07 1.07 0.0 0 0 4.3178 33.4077
  L 4.3022 42.3476
  A 1.07 1.07 0.0 0 0 5.3703 43.4195
  L 5.9303 43.4205
  A 1.07 1.07 0.0 0 0 7.0022 42.3523
  L 7.0178 33.4124
  Z
  M 43.00 32.73
  L 43.02 43.03
  A 0.45 0.45 0.0 0 0 43.47 43.48
  L 43.61 43.48
  A 2.20 2.17 89.9 0 0 45.78 41.28
  L 45.76 34.48
  A 2.20 2.17 89.9 0 0 43.59 32.28
  L 43.45 32.28
  A 0.45 0.45 0.0 0 0 43.00 32.73
  Z"
/>
<path fill="#fcfefd" d="
  M 35.9829 42.4519
  A 3.19 3.19 0.0 0 1 32.8041 45.6530
  L 17.3442 45.7069
  A 3.19 3.19 0.0 0 1 14.1431 42.5281
  L 14.1171 35.0881
  A 3.19 3.19 0.0 0 1 17.2959 31.8870
  L 32.7558 31.8331
  A 3.19 3.19 0.0 0 1 35.9569 35.0119
  L 35.9829 42.4519
  Z
  M 34.4701 34.3165
  A 0.98 0.98 0.0 0 0 33.4918 33.3348
  L 16.5519 33.3052
  A 0.98 0.98 0.0 0 0 15.5702 34.2835
  L 15.5699 34.4435
  A 0.98 0.98 0.0 0 0 16.5482 35.4252
  L 33.4881 35.4548
  A 0.98 0.98 0.0 0 0 34.4698 34.4765
  L 34.4701 34.3165
  Z
  M 17.25 38.85
  L 17.05 37.34
  A 0.64 0.63 86.2 0 0 16.44 36.80
  L 16.12 36.78
  Q 15.49 36.76 15.49 37.39
  L 15.50 42.62
  A 1.63 1.62 89.8 0 0 17.12 44.24
  L 32.76 44.24
  A 1.75 1.74 90.0 0 0 34.50 42.49
  L 34.50 37.31
  Q 34.50 36.86 34.06 36.86
  L 19.08 36.86
  Q 18.52 36.86 18.50 37.42
  L 18.47 38.78
  A 0.61 0.61 0.0 0 1 17.25 38.85
  Z"
/>
<ellipse fill="#fcfefd" cx="0.00" cy="0.00" transform="translate(39.29,36.01) rotate(88.2)" rx="0.93" ry="0.74"/>
<path fill="#fcfefd" d="
  M 38.40 42.95
  L 38.59 38.73
  Q 38.61 38.28 39.05 38.16
  L 39.32 38.10
  Q 39.71 37.99 39.81 38.39
  Q 40.72 42.05 38.75 44.94
  A 0.74 0.74 0.0 0 1 37.73 45.14
  Q 36.45 44.30 37.78 43.80
  Q 38.37 43.57 38.40 42.95
  Z"
/>
</svg>
