<svg width="22" height="22" viewBox="0 0 22 22" fill="none" xmlns="http://www.w3.org/2000/svg">
<g clip-path="url(#clip0_3312_8400)">
<path fill-rule="evenodd" clip-rule="evenodd" d="M15.7437 7.94989C17.2163 8.99677 18.9799 9.5561 20.7867 9.54931V5.96852C20.4315 5.9695 20.0772 5.93148 19.7303 5.85513V8.70783C17.9195 8.71104 16.1533 8.1453 14.6814 7.0905V14.455C14.6769 15.6635 14.3455 16.8482 13.7223 17.8835C13.0991 18.9189 12.2074 19.7663 11.1416 20.3359C10.0758 20.9055 8.87569 21.1761 7.66859 21.1189C6.46148 21.0618 5.29235 20.679 4.28516 20.0112C5.21678 20.9538 6.40717 21.5988 7.70559 21.8644C9.00401 22.13 10.352 22.0044 11.579 21.5034C12.806 21.0024 13.8567 20.1485 14.598 19.05C15.3394 17.9514 15.7381 16.6576 15.7437 15.3323V7.94989ZM17.0507 4.29748C16.3018 3.48578 15.8423 2.44927 15.7437 1.34929V0.883789H14.7411C14.865 1.58299 15.1347 2.24827 15.5326 2.83641C15.9305 3.42454 16.4478 3.92235 17.0507 4.29748ZM6.60671 17.1764C6.2592 16.722 6.04624 16.1791 5.99206 15.6096C5.93788 15.0401 6.04466 14.4669 6.30025 13.9551C6.55584 13.4433 6.94997 13.0135 7.43778 12.7147C7.9256 12.4158 8.4875 12.26 9.05955 12.2648C9.37538 12.2647 9.68936 12.313 9.99056 12.408V8.70783C9.63847 8.6612 9.28335 8.64125 8.92825 8.64815V11.5247C8.19486 11.2929 7.40107 11.3456 6.70478 11.6724C6.00848 11.9992 5.46069 12.5761 5.17037 13.2883C4.88005 14.0006 4.86846 14.796 5.13792 15.5165C5.40737 16.2369 5.93813 16.8295 6.62461 17.1764H6.60671Z" fill="#747474"/>
<path fill-rule="evenodd" clip-rule="evenodd" d="M14.6834 7.06663C16.1554 8.12142 17.9215 8.68716 19.7324 8.68396V5.83126C18.7006 5.61311 17.7634 5.07664 17.0527 4.29748C16.4498 3.92235 15.9326 3.42454 15.5347 2.83641C15.1367 2.24827 14.8671 1.58299 14.7431 0.883789H12.1053V15.3323C12.1028 15.9718 11.9001 16.5946 11.5257 17.113C11.1513 17.6315 10.6239 18.0197 10.0175 18.2231C9.4112 18.4265 8.75639 18.435 8.14502 18.2473C7.53365 18.0595 6.99642 17.6851 6.60874 17.1764C5.99435 16.8664 5.50232 16.3585 5.21204 15.7345C4.92175 15.1106 4.85014 14.407 5.00876 13.7374C5.16737 13.0678 5.54696 12.4711 6.08629 12.0437C6.62561 11.6162 7.29322 11.383 7.98138 11.3815C8.29712 11.3825 8.61094 11.4308 8.91238 11.5247V8.64815C7.60993 8.67941 6.34493 9.09029 5.2727 9.83035C4.20046 10.5704 3.36764 11.6074 2.87647 12.8141C2.38529 14.0208 2.25714 15.3447 2.50775 16.6232C2.75835 17.9017 3.37681 19.0792 4.28719 20.0112C5.29459 20.6838 6.46556 21.0705 7.67538 21.1302C8.8852 21.1899 10.0885 20.9202 11.1572 20.3501C12.2259 19.7799 13.12 18.9305 13.7441 17.8924C14.3682 16.8543 14.699 15.6663 14.7013 14.455L14.6834 7.06663Z" fill="white"/>
<path fill-rule="evenodd" clip-rule="evenodd" d="M19.731 5.83073V5.06086C18.7835 5.06489 17.8543 4.79999 17.0513 4.29695C17.7602 5.07836 18.6982 5.61527 19.731 5.83073ZM14.7417 0.883263C14.7417 0.745999 14.6999 0.602767 14.682 0.465503V0H11.0416V14.4545C11.0384 15.2638 10.7143 16.0389 10.1403 16.6095C9.56629 17.1801 8.78936 17.4997 7.97999 17.4982C7.50342 17.5005 7.03306 17.3901 6.60735 17.1759C6.99503 17.6845 7.53226 18.059 8.14363 18.2467C8.755 18.4345 9.40981 18.426 10.0161 18.2226C10.6225 18.0192 11.1499 17.631 11.5243 17.1125C11.8987 16.594 12.1014 15.9713 12.1039 15.3318V0.883263H14.7417ZM8.91099 8.64165V7.82404C7.41296 7.62053 5.89017 7.93041 4.59079 8.70316C3.29142 9.47591 2.29208 10.666 1.75564 12.0794C1.21921 13.4928 1.17731 15.0462 1.63677 16.4865C2.09623 17.9268 3.02997 19.169 4.2858 20.0107C3.38231 19.0765 2.77044 17.8995 2.52495 16.6233C2.27946 15.3471 2.41098 14.0271 2.90344 12.8244C3.39589 11.6218 4.22797 10.5886 5.29801 9.85108C6.36804 9.11357 7.62972 8.70369 8.9289 8.67149L8.91099 8.64165Z" fill="#BCBCBC"/>
</g>
<defs>
<clipPath id="clip0_3312_8400">
<rect width="22" height="22" fill="white"/>
</clipPath>
</defs>
</svg>
