<?xml version="1.0" encoding="UTF-8" standalone="no"?>
<svg xmlns="http://www.w3.org/2000/svg" version="1.2" baseProfile="tiny" viewBox="0.00 0.00 50.00 50.00">
<path fill="#fdfefe" d="
  M 50.00 14.60
  L 50.00 16.71
  Q 46.78 19.39 42.49 20.59
  A 1.16 1.15 81.9 0 0 41.65 21.72
  C 41.73 25.54 42.94 35.25 38.81 37.38
  Q 26.68 43.64 13.90 38.74
  Q 13.39 38.54 13.26 39.07
  Q 13.19 39.33 13.26 39.59
  Q 13.35 39.94 13.88 40.26
  C 16.36 41.78 16.54 45.02 13.90 46.37
  C 10.88 47.90 7.88 44.30 9.96 41.32
  Q 10.20 40.96 10.58 40.74
  Q 12.55 39.59 11.49 37.43
  A 1.36 1.34 4.0 0 0 11.03 36.91
  Q 8.19 35.02 8.26 32.01
  Q 8.38 26.84 8.26 21.57
  A 0.86 0.86 0.0 0 0 7.79 20.84
  L 0.00 16.92
  L 0.00 14.57
  L 23.37 3.72
  A 3.89 3.87 44.8 0 1 26.66 3.72
  L 50.00 14.60
  Z
  M 29.42 17.40
  C 27.48 19.58 24.74 19.27 22.13 18.56
  Q 21.62 18.43 21.14 18.66
  L 14.98 21.76
  A 0.38 0.38 0.0 0 0 15.00 22.45
  L 24.53 26.72
  A 1.25 1.23 44.1 0 0 25.54 26.71
  L 48.02 16.48
  A 0.70 0.70 0.0 0 0 48.02 15.20
  L 26.03 5.15
  Q 25.01 4.69 23.99 5.15
  L 1.86 15.25
  A 0.64 0.64 0.0 0 0 1.86 16.41
  L 12.03 21.05
  Q 12.53 21.28 13.02 21.03
  L 19.79 17.57
  Q 20.28 17.32 20.17 16.77
  C 19.18 11.81 26.60 11.86 29.18 14.02
  A 2.37 2.36 -49.2 0 1 29.42 17.40
  Z
  M 28.3499 15.8534
  A 3.35 1.67 0.4 0 0 25.0117 14.1600
  A 3.35 1.67 0.4 0 0 21.6501 15.8066
  A 3.35 1.67 0.4 0 0 24.9883 17.5000
  A 3.35 1.67 0.4 0 0 28.3499 15.8534
  Z
  M 11.38 22.17
  L 10.18 22.19
  A 0.27 0.27 0.0 0 0 9.91 22.47
  L 10.03 29.01
  A 6.07 0.34 89.0 0 0 10.47 35.07
  L 11.53 35.05
  A 6.07 0.34 89.0 0 0 11.77 28.97
  L 11.65 22.44
  A 0.27 0.27 0.0 0 0 11.38 22.17
  Z
  M 13.96 37.02
  C 21.42 40.13 33.35 40.43 39.59 34.49
  A 1.29 1.28 -22.4 0 0 39.98 33.57
  L 40.01 22.51
  Q 40.01 21.90 39.45 22.15
  L 26.52 28.04
  A 3.62 3.60 -44.8 0 1 23.51 28.04
  L 13.92 23.68
  A 0.46 0.45 12.5 0 0 13.27 24.09
  L 13.26 35.98
  A 1.13 1.12 11.4 0 0 13.96 37.02
  Z
  M 14.19 43.31
  A 1.67 1.67 0.0 0 0 12.52 41.64
  A 1.67 1.67 0.0 0 0 10.85 43.31
  A 1.67 1.67 0.0 0 0 12.52 44.98
  A 1.67 1.67 0.0 0 0 14.19 43.31
  Z"
/>
</svg>
