<svg width="66" height="66" viewBox="0 0 66 66" fill="none" xmlns="http://www.w3.org/2000/svg">
<g clip-path="url(#clip0_3333_6321)">
<g filter="url(#filter0_d_3333_6321)">
<path d="M34.0314 2.06519C32.6982 2.06519 31.5628 2.93123 31.133 4.12367H5.15639C3.46028 4.12367 2.06264 5.52126 2.06264 7.21735V17.5299C2.04284 18.9246 4.14499 18.9246 4.12514 17.5299V7.21735C4.12514 6.62822 4.56723 6.1862 5.15639 6.1862H30.9417V8.24862H7.21889C6.64937 8.2487 6.1877 8.71036 6.18764 9.27988V38.1549C6.18769 38.7244 6.64937 39.1861 7.21889 39.1861H54.6564C55.2259 39.1861 55.6876 38.7244 55.6876 38.1549V24.7507H57.7501V40.2174C57.7501 40.8065 57.3081 41.2486 56.7189 41.2486H5.15639C4.56723 41.2486 4.12514 40.8065 4.12514 40.2174V26.8112C4.14494 25.4165 2.04279 25.4165 2.06264 26.8112V40.2174C2.06264 41.9135 3.46028 43.3112 5.15639 43.3112H56.7189C58.415 43.3112 59.8126 41.9135 59.8126 40.2174V24.7507H60.8419C62.538 24.7507 63.9417 23.3469 63.9417 21.6508V5.15482C63.9417 3.45872 62.538 2.06519 60.8419 2.06519H34.0314ZM34.0314 4.11963H60.8419C61.431 4.11963 61.8792 4.56569 61.8792 5.15482V21.6508C61.8792 22.24 61.431 22.6881 60.8419 22.6881H43.3106C43.0661 22.6871 42.8291 22.7727 42.6419 22.9298L37.1211 27.6651V23.7153C37.119 23.149 36.6603 22.6904 36.0939 22.6881H34.0314C33.4423 22.6881 33.0042 22.2399 33.0042 21.6508V5.15482C33.0042 4.56569 33.4423 4.11963 34.0314 4.11963ZM42.2834 8.2466V18.5612C42.2836 19.3696 43.1715 19.8635 43.8585 19.4373L52.1105 14.283C52.758 13.8793 52.758 12.9365 52.1105 12.5327L43.8585 7.37044C43.24 6.9834 42.2834 7.32952 42.2834 8.2466ZM44.3459 10.1117L49.6149 13.407L44.3459 16.6961V10.1117ZM8.25014 10.3113H30.9417V21.651C30.9417 23.3471 32.3353 24.7508 34.0314 24.7508H35.0586V29.9031C35.0535 30.7889 36.0946 31.268 36.7646 30.6886L43.6913 24.7508H53.6251V37.1238H33.0001C33.0001 33.7138 30.2206 30.9423 26.8106 30.9423H25.7834V28.3158C27.0462 27.1815 27.8479 25.5426 27.8479 23.7175V22.6904C28.4174 22.6883 28.8773 22.2246 28.8751 21.6551V18.5633C28.8751 15.1533 26.0956 12.3738 22.6856 12.3738H20.6231C17.2131 12.3738 14.4417 15.1533 14.4417 18.5633V21.6551C14.4396 22.2246 14.8994 22.6881 15.4689 22.6904V23.7175C15.4689 25.5424 16.2669 27.1816 17.5294 28.3158V30.9423H16.4961C13.0861 30.9423 10.3147 33.7138 10.3147 37.1238H8.25014V10.3113ZM20.6231 14.4384H22.6856C24.9887 14.4384 26.8106 16.2602 26.8106 18.5633V20.2008L25.4773 18.8673C25.1297 18.5197 24.5871 18.4658 24.1781 18.7383C24.1781 18.7383 21.194 20.6276 18.5586 20.6276H16.4961V18.5631C16.4961 16.2599 18.32 14.4381 20.6231 14.4381V14.4384ZM3.07778 20.6097C2.50903 20.6174 2.05485 21.0863 2.06264 21.6551V22.6863C2.04284 24.081 4.14499 24.081 4.12514 22.6863V21.6551C4.1334 21.0737 3.65915 20.6006 3.07778 20.6097ZM24.585 20.8856L25.7834 22.088V23.7175C25.7834 26.0206 23.9615 27.8425 21.6584 27.8425C19.3554 27.8425 17.5293 26.0205 17.5294 23.7175V22.6904H18.5586C21.2028 22.6904 23.8995 21.3267 24.585 20.8856ZM19.5959 29.5446C20.242 29.7741 20.935 29.907 21.6584 29.907C22.3825 29.907 23.0743 29.7745 23.7209 29.5446V31.7722C23.7209 31.7722 23.3715 32.9967 21.6584 32.9967C19.9453 32.9967 19.5959 31.7862 19.5959 31.7862V29.5446ZM16.4961 32.9966H17.8939C17.8939 32.9966 18.7839 35.0592 21.6584 35.0592C24.5329 35.0592 25.4209 32.9966 25.4209 32.9966H26.8106C29.1137 32.9966 30.9376 34.8206 30.9376 37.1237H12.3792C12.3792 34.8206 14.193 32.9966 16.4961 32.9966ZM11.3459 45.3717C8.50718 45.3717 6.18361 47.6871 6.18361 50.5259V51.5611C6.18361 52.7615 6.61751 53.8538 7.31154 54.7315C4.34576 55.1857 2.06671 57.7494 2.06667 60.8404V62.9049C2.06461 63.4744 2.52437 63.9379 3.09389 63.9402H19.5899C20.1625 63.9422 20.6273 63.4776 20.6251 62.9049V60.8404C20.6251 57.7504 18.3418 55.187 15.3762 54.7315C16.0687 53.8538 16.5001 52.7615 16.5001 51.5611V50.5259C16.5001 47.6871 14.1846 45.3717 11.3459 45.3717ZM33.0042 45.3717C30.1654 45.3717 27.8419 47.6871 27.8419 50.5259V51.5611C27.8419 52.7613 28.2739 53.8539 28.9678 54.7315C26.0013 55.1862 23.7169 57.7497 23.7169 60.8404V62.9049C23.7148 63.4776 24.1795 63.9424 24.7521 63.9402H41.2481C41.8208 63.9422 42.2856 63.4776 42.2834 62.9049V60.8404C42.2834 57.7507 39.9995 55.1874 37.0345 54.7315C37.727 53.8538 38.1584 52.7615 38.1584 51.5611V50.5259C38.1584 47.6871 35.8429 45.3717 33.0042 45.3717ZM54.6544 45.3717C51.8156 45.3717 49.5001 47.6871 49.5001 50.5259V51.5611C49.5001 52.7615 49.9316 53.8538 50.624 54.7315C47.6585 55.187 45.3732 57.7504 45.3731 60.8404V62.9049C45.3711 63.4783 45.837 63.9435 46.4104 63.9402H62.9064C63.4791 63.9422 63.9439 63.4776 63.9417 62.9049V60.8404C63.9417 57.7494 61.6557 55.1857 58.6887 54.7315C59.3828 53.8538 59.8147 52.7615 59.8147 51.5611V50.5259C59.8147 47.6871 57.4931 45.3717 54.6544 45.3717ZM11.3459 47.4361C13.0777 47.4361 14.4356 48.7941 14.4356 50.5259V51.5611C14.4356 53.2929 13.0777 54.6528 11.3459 54.6528C9.61412 54.6528 8.24813 53.2929 8.24813 51.5611V50.5259C8.24813 48.7941 9.61412 47.4361 11.3459 47.4361ZM33.0042 47.4361C34.7359 47.4361 36.0939 48.7941 36.0939 50.5259V51.5611C36.0939 53.2929 34.7359 54.6528 33.0042 54.6528C31.2724 54.6528 29.9044 53.2929 29.9044 51.5611V50.5259C29.9044 48.7941 31.2724 47.4361 33.0042 47.4361ZM54.6544 47.4361C56.3861 47.4361 57.7522 48.7941 57.7522 50.5259V51.5611C57.7522 53.2929 56.3861 54.6528 54.6544 54.6528C52.9226 54.6528 51.5626 53.2929 51.5626 51.5611V50.5259C51.5626 48.7941 52.9226 47.4361 54.6544 47.4361ZM8.24813 56.7154H14.4356C16.7387 56.7154 18.5626 58.5373 18.5626 60.8404V61.8777H4.12111V60.8404C4.12114 58.5373 5.94506 56.7154 8.24813 56.7154ZM29.9044 56.7154H36.0939C38.3969 56.7154 40.2209 58.5373 40.2209 60.8404V61.8777H25.7794V60.8404C25.7794 58.5373 27.6013 56.7154 29.9044 56.7154ZM51.5626 56.7154H57.7522C60.0552 56.7154 61.8792 58.5373 61.8792 60.8404V61.8777H47.4376V60.8404C47.4377 58.5373 49.2596 56.7154 51.5626 56.7154Z" fill="white"/>
</g>
</g>
<defs>
<filter id="filter0_d_3333_6321" x="-1.9375" y="2.06519" width="69.8789" height="69.875" filterUnits="userSpaceOnUse" color-interpolation-filters="sRGB">
<feFlood flood-opacity="0" result="BackgroundImageFix"/>
<feColorMatrix in="SourceAlpha" type="matrix" values="0 0 0 0 0 0 0 0 0 0 0 0 0 0 0 0 0 0 127 0" result="hardAlpha"/>
<feOffset dy="4"/>
<feGaussianBlur stdDeviation="2"/>
<feComposite in2="hardAlpha" operator="out"/>
<feColorMatrix type="matrix" values="0 0 0 0 0 0 0 0 0 0 0 0 0 0 0 0 0 0 0.25 0"/>
<feBlend mode="normal" in2="BackgroundImageFix" result="effect1_dropShadow_3333_6321"/>
<feBlend mode="normal" in="SourceGraphic" in2="effect1_dropShadow_3333_6321" result="shape"/>
</filter>
<clipPath id="clip0_3333_6321">
<rect width="66" height="66" fill="white"/>
</clipPath>
</defs>
</svg>
