<svg width="84" height="84" viewBox="0 0 84 84" fill="none" xmlns="http://www.w3.org/2000/svg">
<g id="logo-ru 1" clip-path="url(#clip0_2404_76936)">
<path id="Vector" d="M0 0C0 2.4814 2.09606 4.50328 4.66849 4.50328H78.7927C81.3647 4.50328 83.4611 2.4814 83.4611 0H0Z" fill="#1976D2"/>
<path id="Vector_2" d="M34.1617 19.8633L33.8909 21.791H31.5537V29.3652H28.9172V21.791H26.4375V19.8633H34.1617Z" fill="#1976D2"/>
<path id="Vector_3" d="M41.4436 19.8633L41.1728 21.832H37.5388V29.3652H34.9023V19.8633H41.4436Z" fill="#1976D2"/>
<path id="Vector_4" d="M44.4939 19.6172C45.767 19.6172 46.7552 20.0319 47.4582 20.8613C48.1708 21.6816 48.527 22.8893 48.527 24.4843C48.527 26.1432 48.1518 27.4146 47.4012 28.2988C46.6601 29.1737 45.6293 29.6113 44.3087 29.6113C43.6437 29.6113 43.0641 29.5155 42.5701 29.3242C42.076 29.1327 41.6295 28.8547 41.2305 28.4902L42.3848 27.123C42.6699 27.3417 42.9406 27.5058 43.1971 27.6151C43.4632 27.7154 43.7624 27.7655 44.0949 27.7655C45.2065 27.7655 45.7956 26.968 45.8621 25.373H42.6699V23.6503H45.8621C45.8051 22.8665 45.6435 22.3014 45.3776 21.9551C45.1116 21.5996 44.741 21.4218 44.2659 21.4218C43.9334 21.4218 43.6389 21.4765 43.3824 21.5859C43.1259 21.6953 42.8503 21.8685 42.5558 22.1054L41.316 20.7246C41.7625 20.3509 42.2281 20.0729 42.7126 19.8906C43.2066 19.7083 43.8004 19.6172 44.4939 19.6172Z" fill="#1976D2"/>
<path id="Vector_5" d="M54.8887 26.4531C54.5846 27.2278 54.2378 27.8339 53.8483 28.2715C53.4588 28.709 52.9933 29.028 52.4517 29.2285C51.9197 29.429 51.2404 29.5566 50.4138 29.6113L50.0718 27.9433C50.6893 27.8886 51.1643 27.7838 51.4968 27.6288C51.8389 27.474 52.1239 27.2233 52.3519 26.8769H51.5396L48.5469 19.8633H51.2546L53.1358 25.4824L54.7746 19.8633H57.4539L54.8887 26.4531Z" fill="#1976D2"/>
<path id="Vector_6" d="M6.95703 9.09766C6.95703 11.579 9.05309 13.6009 11.6255 13.6009V71.3165V73.0628C11.6255 74.2572 12.5782 75.1764 13.8168 75.1764H21.6294C26.2979 75.1764 30.7759 76.5553 34.5868 79.0363L42.2088 83.9992L48.2112 79.6796C52.2127 76.739 57.1671 75.1764 62.1214 75.1764H69.6481C70.8867 75.1764 71.8398 74.2572 71.8398 73.0628V71.3165V13.6009H72.4114C74.9833 13.6009 77.0798 11.579 77.0798 9.09766H6.95703ZM45.3529 76.0956L42.0183 78.4852L37.1593 75.2686C32.5861 72.2357 27.1554 70.6732 21.5341 70.6732H16.1987V56.52H21.5341C26.2026 56.52 30.6805 57.8985 34.4916 60.3799L42.1136 65.3427L48.1159 61.0232C52.1175 58.0823 57.0718 56.52 62.0261 56.52H67.0757V70.6732H62.0261C56.119 70.6732 50.212 72.6032 45.3529 76.0956ZM39.4459 39.1501V58.0823L37.2545 56.6118C35.9207 55.6928 34.4916 54.9576 32.9672 54.3142V39.1501H39.4459ZM44.1143 39.1501H50.1167V54.6624L50.6883 54.4062C48.7828 55.2333 47.0679 56.2443 45.3529 57.439L44.0191 58.358V39.1501H44.1143ZM67.171 52.0167H62.1214C59.6442 52.0167 57.1671 52.3843 54.7852 53.0276V39.242H58.6915C61.2639 39.242 63.36 37.2202 63.36 34.7388H19.7239C19.7239 37.2202 21.82 39.242 24.3924 39.242H28.2987V52.9357C26.1074 52.3843 23.916 52.1086 21.6294 52.1086H16.294V13.6009H67.171V52.0167Z" fill="#1976D2"/>
</g>
<defs>
<clipPath id="clip0_2404_76936">
<rect width="84" height="84" fill="white"/>
</clipPath>
</defs>
</svg>
