<svg width="44" height="45" viewBox="0 0 44 45" fill="none" xmlns="http://www.w3.org/2000/svg">
<g id="budget 1" clip-path="url(#clip0_3614_2424)">
<path id="Vector" d="M40.2188 22.2363H26.8984C26.7617 22.2363 26.6305 22.2919 26.5338 22.3908C26.4371 22.4897 26.3828 22.6238 26.3828 22.7637V25.8398C26.3828 25.9797 26.4371 26.1138 26.5338 26.2127C26.6305 26.3116 26.7617 26.3672 26.8984 26.3672H40.2188C40.3555 26.3672 40.4867 26.3116 40.5834 26.2127C40.6801 26.1138 40.7344 25.9797 40.7344 25.8398V22.7637C40.7344 22.6238 40.6801 22.4897 40.5834 22.3908C40.4867 22.2919 40.3555 22.2363 40.2188 22.2363ZM39.6172 25.3125H27.4141V23.291H39.6172V25.3125Z" fill="black"/>
<path id="Vector_2" d="M28.6656 42.3985C29.0736 42.3985 29.4724 42.2748 29.8117 42.0429C30.151 41.8111 30.4154 41.4816 30.5715 41.096C30.7277 40.7105 30.7685 40.2862 30.6889 39.877C30.6093 39.4677 30.4128 39.0917 30.1243 38.7967C29.8358 38.5016 29.4682 38.3006 29.068 38.2192C28.6678 38.1378 28.253 38.1796 27.876 38.3393C27.499 38.4991 27.1769 38.7695 26.9502 39.1165C26.7235 39.4635 26.6025 39.8714 26.6025 40.2887C26.6032 40.8481 26.8207 41.3843 27.2075 41.7799C27.5942 42.1754 28.1186 42.3979 28.6656 42.3985ZM28.6656 39.2335C28.8696 39.2335 29.0691 39.2954 29.2388 39.4113C29.4084 39.5273 29.5407 39.6921 29.6188 39.8849C29.6969 40.0777 29.7173 40.2899 29.6775 40.4946C29.6377 40.6993 29.5394 40.8873 29.3951 41.0349C29.2508 41.1824 29.067 41.2829 28.8668 41.3236C28.6667 41.3644 28.4592 41.3435 28.2707 41.2636C28.0822 41.1837 27.921 41.0485 27.8077 40.8749C27.6943 40.7014 27.6338 40.4974 27.6338 40.2887C27.634 40.0089 27.7428 39.7406 27.9363 39.5428C28.1297 39.3449 28.392 39.2336 28.6656 39.2333V39.2335Z" fill="black"/>
<path id="Vector_3" d="M33.5601 42.3985C33.9681 42.3985 34.367 42.2748 34.7062 42.0429C35.0455 41.8111 35.3099 41.4816 35.4661 41.096C35.6222 40.7105 35.6631 40.2862 35.5835 39.877C35.5038 39.4677 35.3074 39.0917 35.0188 38.7967C34.7303 38.5016 34.3627 38.3006 33.9625 38.2192C33.5623 38.1378 33.1475 38.1796 32.7705 38.3393C32.3936 38.4991 32.0714 38.7695 31.8447 39.1165C31.618 39.4635 31.4971 39.8714 31.4971 40.2887C31.4977 40.8481 31.7153 41.3843 32.102 41.7799C32.4888 42.1754 33.0131 42.3979 33.5601 42.3985ZM33.5601 39.2335C33.7642 39.2335 33.9636 39.2954 34.1333 39.4113C34.303 39.5273 34.4352 39.6921 34.5133 39.8849C34.5914 40.0777 34.6118 40.2899 34.572 40.4946C34.5322 40.6993 34.434 40.8873 34.2897 41.0349C34.1454 41.1824 33.9615 41.2829 33.7614 41.3236C33.5612 41.3644 33.3538 41.3435 33.1652 41.2636C32.9767 41.1837 32.8156 41.0485 32.7022 40.8749C32.5888 40.7014 32.5283 40.4974 32.5283 40.2887C32.5286 40.0089 32.6374 39.7406 32.8308 39.5428C33.0242 39.3449 33.2865 39.2336 33.5601 39.2333V39.2335Z" fill="black"/>
<path id="Vector_4" d="M38.4536 42.3985C38.8617 42.3985 39.2605 42.2748 39.5998 42.0429C39.9391 41.8111 40.2035 41.4816 40.3596 41.096C40.5158 40.7105 40.5566 40.2862 40.477 39.877C40.3974 39.4677 40.2009 39.0917 39.9124 38.7967C39.6239 38.5016 39.2563 38.3006 38.8561 38.2192C38.4559 38.1378 38.0411 38.1796 37.6641 38.3393C37.2871 38.4991 36.9649 38.7695 36.7383 39.1165C36.5116 39.4635 36.3906 39.8714 36.3906 40.2887C36.3913 40.8481 36.6088 41.3843 36.9956 41.7799C37.3823 42.1754 37.9067 42.3979 38.4536 42.3985ZM38.4536 39.2335C38.6577 39.2335 38.8572 39.2954 39.0269 39.4113C39.1965 39.5273 39.3288 39.6921 39.4069 39.8849C39.485 40.0777 39.5054 40.2899 39.4656 40.4946C39.4258 40.6993 39.3275 40.8873 39.1832 41.0349C39.0389 41.1824 38.8551 41.2829 38.6549 41.3236C38.4548 41.3644 38.2473 41.3435 38.0588 41.2636C37.8703 41.1837 37.7091 41.0485 37.5958 40.8749C37.4824 40.7014 37.4219 40.4974 37.4219 40.2887C37.4221 40.0089 37.5309 39.7406 37.7243 39.5427C37.9178 39.3449 38.1801 39.2336 38.4536 39.2333V39.2335Z" fill="black"/>
<path id="Vector_5" d="M28.6656 37.7425C29.0736 37.7425 29.4724 37.6188 29.8117 37.3869C30.151 37.1551 30.4154 36.8256 30.5715 36.44C30.7277 36.0545 30.7685 35.6303 30.6889 35.221C30.6093 34.8117 30.4128 34.4358 30.1243 34.1407C29.8358 33.8456 29.4682 33.6447 29.068 33.5632C28.6678 33.4818 28.253 33.5236 27.8761 33.6833C27.4991 33.843 27.1769 34.1134 26.9502 34.4604C26.7235 34.8074 26.6025 35.2153 26.6025 35.6326C26.6032 36.192 26.8207 36.7283 27.2075 37.1238C27.5942 37.5194 28.1186 37.7419 28.6656 37.7425ZM28.6656 34.5775C28.8696 34.5775 29.0691 34.6394 29.2388 34.7554C29.4085 34.8713 29.5408 35.0362 29.6188 35.229C29.6969 35.4219 29.7173 35.634 29.6775 35.8388C29.6376 36.0435 29.5393 36.2315 29.3949 36.379C29.2506 36.5266 29.0667 36.627 28.8665 36.6677C28.6663 36.7084 28.4589 36.6874 28.2704 36.6074C28.0818 36.5275 27.9207 36.3922 27.8074 36.2186C27.6941 36.045 27.6337 35.8409 27.6338 35.6322C27.6342 35.3525 27.7431 35.0844 27.9365 34.8867C28.1299 34.689 28.3921 34.5778 28.6656 34.5775Z" fill="black"/>
<path id="Vector_6" d="M33.5601 37.7425C33.9681 37.7425 34.367 37.6188 34.7062 37.3869C35.0455 37.1551 35.3099 36.8256 35.4661 36.44C35.6222 36.0545 35.6631 35.6303 35.5835 35.221C35.5039 34.8117 35.3074 34.4358 35.0189 34.1407C34.7303 33.8456 34.3627 33.6447 33.9626 33.5632C33.5624 33.4818 33.1476 33.5236 32.7706 33.6833C32.3936 33.843 32.0714 34.1134 31.8448 34.4604C31.6181 34.8074 31.4971 35.2153 31.4971 35.6326C31.4977 36.192 31.7152 36.7283 32.102 37.1238C32.4887 37.5194 33.0131 37.7419 33.5601 37.7425ZM33.5601 34.5775C33.7642 34.5775 33.9637 34.6394 34.1334 34.7554C34.303 34.8713 34.4353 35.0362 34.5134 35.229C34.5914 35.4219 34.6118 35.634 34.572 35.8388C34.5321 36.0435 34.4338 36.2315 34.2895 36.379C34.1451 36.5266 33.9612 36.627 33.7611 36.6677C33.5609 36.7084 33.3534 36.6874 33.1649 36.6074C32.9764 36.5275 32.8153 36.3922 32.702 36.2186C32.5886 36.045 32.5282 35.8409 32.5283 35.6322C32.5288 35.3525 32.6376 35.0844 32.831 34.8867C33.0244 34.689 33.2866 34.5778 33.5601 34.5775Z" fill="black"/>
<path id="Vector_7" d="M38.4536 37.7425C38.8617 37.7425 39.2605 37.6188 39.5998 37.3869C39.9391 37.1551 40.2035 36.8256 40.3596 36.44C40.5158 36.0545 40.5566 35.6303 40.477 35.221C40.3974 34.8117 40.2009 34.4358 39.9124 34.1407C39.6239 33.8456 39.2563 33.6447 38.8561 33.5632C38.4559 33.4818 38.0411 33.5236 37.6642 33.6833C37.2872 33.843 36.965 34.1134 36.7383 34.4604C36.5116 34.8074 36.3906 35.2153 36.3906 35.6326C36.3912 36.192 36.6088 36.7283 36.9955 37.1238C37.3823 37.5194 37.9067 37.7419 38.4536 37.7425ZM38.4536 34.5775C38.6577 34.5775 38.8572 34.6394 39.0269 34.7554C39.1966 34.8713 39.3288 35.0362 39.4069 35.229C39.485 35.4219 39.5054 35.634 39.4655 35.8388C39.4257 36.0435 39.3274 36.2315 39.183 36.379C39.0387 36.5266 38.8548 36.627 38.6546 36.6677C38.4544 36.7084 38.247 36.6874 38.0584 36.6074C37.8699 36.5275 37.7088 36.3922 37.5955 36.2186C37.4822 36.045 37.4218 35.8409 37.4219 35.6322C37.4223 35.3525 37.5311 35.0844 37.7246 34.8867C37.918 34.689 38.1802 34.5778 38.4536 34.5775Z" fill="black"/>
<path id="Vector_8" d="M28.6656 33.0867C29.0736 33.0867 29.4724 32.963 29.8117 32.7312C30.151 32.4993 30.4154 32.1698 30.5715 31.7843C30.7277 31.3987 30.7685 30.9745 30.6889 30.5652C30.6093 30.1559 30.4128 29.78 30.1243 29.4849C29.8358 29.1898 29.4682 28.9889 29.068 28.9075C28.6678 28.8261 28.253 28.8679 27.8761 29.0275C27.4991 29.1872 27.1769 29.4577 26.9502 29.8046C26.7235 30.1516 26.6025 30.5595 26.6025 30.9768C26.6032 31.5362 26.8207 32.0725 27.2075 32.4681C27.5942 32.8636 28.1186 33.0861 28.6656 33.0867ZM28.6656 29.9216C28.8696 29.9216 29.0691 29.9835 29.2388 30.0995C29.4084 30.2154 29.5407 30.3802 29.6188 30.573C29.6969 30.7658 29.7173 30.978 29.6775 31.1827C29.6377 31.3874 29.5394 31.5754 29.3951 31.723C29.2508 31.8706 29.067 31.9711 28.8668 32.0118C28.6667 32.0525 28.4592 32.0316 28.2707 31.9517C28.0822 31.8719 27.921 31.7366 27.8077 31.5631C27.6943 31.3896 27.6338 31.1855 27.6338 30.9768C27.6341 30.6971 27.7429 30.4289 27.9363 30.2311C28.1298 30.0332 28.392 29.922 28.6656 29.9216Z" fill="black"/>
<path id="Vector_9" d="M33.5601 33.0867C33.9681 33.0867 34.367 32.963 34.7062 32.7312C35.0455 32.4993 35.3099 32.1698 35.4661 31.7843C35.6222 31.3987 35.6631 30.9745 35.5835 30.5652C35.5039 30.1559 35.3074 29.78 35.0189 29.4849C34.7303 29.1898 34.3627 28.9889 33.9626 28.9075C33.5624 28.8261 33.1476 28.8679 32.7706 29.0275C32.3936 29.1872 32.0714 29.4577 31.8448 29.8046C31.6181 30.1516 31.4971 30.5595 31.4971 30.9768C31.4977 31.5362 31.7152 32.0725 32.102 32.4681C32.4887 32.8636 33.0131 33.0861 33.5601 33.0867ZM33.5601 29.9216C33.7642 29.9216 33.9636 29.9835 34.1333 30.0995C34.303 30.2154 34.4352 30.3802 34.5133 30.573C34.5914 30.7658 34.6118 30.978 34.572 31.1827C34.5322 31.3874 34.434 31.5754 34.2897 31.723C34.1454 31.8706 33.9615 31.9711 33.7614 32.0118C33.5612 32.0525 33.3538 32.0316 33.1652 31.9517C32.9767 31.8719 32.8156 31.7366 32.7022 31.5631C32.5888 31.3896 32.5283 31.1855 32.5283 30.9768C32.5286 30.6971 32.6374 30.4289 32.8309 30.2311C33.0243 30.0332 33.2865 29.922 33.5601 29.9216Z" fill="black"/>
<path id="Vector_10" d="M38.4536 33.0867C38.8617 33.0867 39.2605 32.963 39.5998 32.7312C39.9391 32.4993 40.2035 32.1698 40.3596 31.7843C40.5158 31.3987 40.5566 30.9745 40.477 30.5652C40.3974 30.1559 40.2009 29.78 39.9124 29.4849C39.6239 29.1898 39.2563 28.9889 38.8561 28.9075C38.4559 28.8261 38.0411 28.8679 37.6642 29.0275C37.2872 29.1872 36.965 29.4577 36.7383 29.8046C36.5116 30.1516 36.3906 30.5595 36.3906 30.9768C36.3912 31.5362 36.6088 32.0725 36.9955 32.4681C37.3823 32.8636 37.9067 33.0861 38.4536 33.0867ZM38.4536 29.9216C38.6577 29.9216 38.8572 29.9835 39.0269 30.0995C39.1965 30.2154 39.3288 30.3802 39.4069 30.573C39.485 30.7658 39.5054 30.978 39.4656 31.1827C39.4258 31.3874 39.3275 31.5754 39.1832 31.723C39.0389 31.8706 38.8551 31.9711 38.6549 32.0118C38.4548 32.0525 38.2473 32.0316 38.0588 31.9517C37.8703 31.8719 37.7091 31.7366 37.5958 31.5631C37.4824 31.3896 37.4219 31.1855 37.4219 30.9768C37.4222 30.6971 37.531 30.4289 37.7244 30.231C37.9178 30.0332 38.1801 29.9219 38.4536 29.9216Z" fill="black"/>
<path id="Vector_11" d="M19.082 27.1582H13.7109C13.5742 27.1582 13.443 27.2138 13.3463 27.3127C13.2496 27.4116 13.1953 27.5457 13.1953 27.6855C13.1953 27.8254 13.2496 27.9595 13.3463 28.0584C13.443 28.1573 13.5742 28.2129 13.7109 28.2129H19.082C19.2188 28.2129 19.3499 28.1573 19.4466 28.0584C19.5433 27.9595 19.5977 27.8254 19.5977 27.6855C19.5977 27.5457 19.5433 27.4116 19.4466 27.3127C19.3499 27.2138 19.2188 27.1582 19.082 27.1582Z" fill="black"/>
<path id="Vector_12" d="M11.2568 28.2129H11.7811C11.9178 28.2129 12.049 28.1573 12.1457 28.0584C12.2424 27.9595 12.2967 27.8254 12.2967 27.6855C12.2967 27.5457 12.2424 27.4116 12.1457 27.3127C12.049 27.2138 11.9178 27.1582 11.7811 27.1582H11.2568C11.1201 27.1582 10.9889 27.2138 10.8922 27.3127C10.7955 27.4116 10.7412 27.5457 10.7412 27.6855C10.7412 27.8254 10.7955 27.9595 10.8922 28.0584C10.9889 28.1573 11.1201 28.2129 11.2568 28.2129Z" fill="black"/>
<path id="Vector_13" d="M18.3175 31.6406H15.5127C15.3759 31.6406 15.2448 31.6962 15.1481 31.7951C15.0514 31.894 14.9971 32.0281 14.9971 32.168C14.9971 32.3078 15.0514 32.442 15.1481 32.5409C15.2448 32.6398 15.3759 32.6953 15.5127 32.6953H18.3175C18.4543 32.6953 18.5854 32.6398 18.6821 32.5409C18.7788 32.442 18.8331 32.3078 18.8331 32.168C18.8331 32.0281 18.7788 31.894 18.6821 31.7951C18.5854 31.6962 18.4543 31.6406 18.3175 31.6406Z" fill="black"/>
<path id="Vector_14" d="M13.4982 31.6406H11.2568C11.1201 31.6406 10.9889 31.6962 10.8922 31.7951C10.7955 31.894 10.7412 32.0281 10.7412 32.168C10.7412 32.3078 10.7955 32.442 10.8922 32.5409C10.9889 32.6398 11.1201 32.6953 11.2568 32.6953H13.4982C13.6349 32.6953 13.7661 32.6398 13.8628 32.5409C13.9595 32.442 14.0138 32.3078 14.0138 32.168C14.0138 32.0281 13.9595 31.894 13.8628 31.7951C13.7661 31.6962 13.6349 31.6406 13.4982 31.6406Z" fill="black"/>
<path id="Vector_15" d="M9.19531 4.11377C9.05856 4.11377 8.92741 4.16933 8.83071 4.26822C8.73401 4.36712 8.67969 4.50125 8.67969 4.64111V4.85319C8.67969 4.99305 8.73401 5.12719 8.83071 5.22608C8.92741 5.32498 9.05856 5.38054 9.19531 5.38054C9.33206 5.38054 9.46322 5.32498 9.55991 5.22608C9.65661 5.12719 9.71094 4.99305 9.71094 4.85319V4.64111C9.71094 4.50125 9.65661 4.36712 9.55991 4.26822C9.46322 4.16933 9.33206 4.11377 9.19531 4.11377Z" fill="black"/>
<path id="Vector_16" d="M9.19531 6.38525C9.05856 6.38525 8.92741 6.44081 8.83071 6.53971C8.73401 6.63861 8.67969 6.77274 8.67969 6.9126V13.898C8.67969 14.0378 8.73401 14.172 8.83071 14.2709C8.92741 14.3698 9.05856 14.4253 9.19531 14.4253C9.33206 14.4253 9.46322 14.3698 9.55991 14.2709C9.65661 14.172 9.71094 14.0378 9.71094 13.898V6.9126C9.71094 6.77274 9.65661 6.63861 9.55991 6.53971C9.46322 6.44081 9.33206 6.38525 9.19531 6.38525Z" fill="black"/>
<path id="Vector_17" d="M19.8176 5.69995C18.3127 5.69995 16.8417 6.15633 15.5905 7.01137C14.3392 7.86641 13.364 9.08171 12.7882 10.5036C12.2123 11.9255 12.0616 13.4901 12.3552 14.9995C12.6488 16.509 13.3734 17.8955 14.4375 18.9838C15.5016 20.072 16.8573 20.8132 18.3332 21.1134C19.8091 21.4137 21.3389 21.2596 22.7292 20.6706C24.1195 20.0816 25.3078 19.0843 26.1438 17.8046C26.9799 16.5249 27.4261 15.0205 27.4261 13.4814C27.4238 11.4184 26.6215 9.44047 25.1951 7.98166C23.7687 6.52286 21.8348 5.70228 19.8176 5.69995ZM26.3832 13.0956H20.924L24.8154 9.11573C25.7508 10.2305 26.3016 11.629 26.3832 13.0956ZM19.8176 6.75464C21.3835 6.75365 22.898 7.32675 24.0862 8.36998L19.82 12.7331L16.4626 7.69911C17.4769 7.08003 18.6363 6.75364 19.8176 6.75464ZM19.8176 20.2081C18.4646 20.2088 17.1444 19.7826 16.0371 18.9876C14.9297 18.1926 14.0892 17.0675 13.6301 15.7659C13.1711 14.4643 13.1158 13.0495 13.472 11.7146C13.8281 10.3797 14.5783 9.18973 15.6201 8.30696L19.3633 13.9201C19.4106 13.991 19.4741 14.0491 19.5484 14.0892C19.6226 14.1293 19.7053 14.1503 19.7893 14.1503H26.3622C26.198 15.8095 25.4379 17.3474 24.229 18.4664C23.02 19.5855 21.4481 20.2061 19.8176 20.2081Z" fill="black"/>
<path id="Vector_18" d="M40.443 20.0391H33.5156V8.67823C33.5182 8.29292 33.3724 7.92205 33.1097 7.64587L26.6625 0.88541C26.5284 0.744788 26.3682 0.632921 26.1913 0.556349C26.0144 0.479778 25.8244 0.440038 25.6323 0.439453H7.59791C7.41011 0.440597 7.2244 0.479853 7.05154 0.554946C6.87869 0.630039 6.72212 0.739476 6.59093 0.876913C6.45974 1.01435 6.35652 1.17705 6.28727 1.35559C6.21802 1.53412 6.18411 1.72494 6.1875 1.91698V3.33984H4.81577C4.62566 3.33583 4.43666 3.37035 4.25966 3.44141C4.08266 3.51248 3.92118 3.61868 3.78452 3.7539C3.6491 3.88641 3.54103 4.04532 3.46666 4.22126C3.3923 4.3972 3.35317 4.5866 3.35156 4.77826V5.625H2.31172C2.12235 5.62133 1.93417 5.65621 1.75811 5.72763C1.58206 5.79905 1.42165 5.90557 1.28623 6.04099C1.15161 6.17417 1.04447 6.3336 0.971157 6.50987C0.897839 6.68613 0.859829 6.87565 0.859375 7.0672V42.0984C0.860758 42.493 1.01405 42.8712 1.28606 43.151C1.55808 43.4309 1.92692 43.59 2.31275 43.5938H24.4914C24.7362 43.8965 25.0435 44.1402 25.3911 44.3073C25.7387 44.4744 26.1182 44.5609 26.5023 44.5605H40.443C41.1356 44.5605 41.7999 44.2791 42.2897 43.7782C42.7795 43.2773 43.0547 42.5979 43.0547 41.8895V22.7101C43.0547 22.0017 42.7795 21.3224 42.2897 20.8214C41.7999 20.3205 41.1356 20.0391 40.443 20.0391ZM26.3828 2.10138L31.8049 7.82227H28.9932C28.6488 7.81948 28.3084 7.74707 27.9915 7.60921C27.6746 7.47134 27.3875 7.27074 27.1467 7.01895C26.6552 6.51096 26.3805 5.82451 26.3828 5.10987V2.10138ZM4.38281 4.77765C4.38482 4.72442 4.39754 4.67219 4.42018 4.62422C4.44282 4.57626 4.47489 4.53358 4.51438 4.49886C4.59776 4.42466 4.70642 4.38716 4.81671 4.39453H6.1875V37.0434C6.1843 37.2343 6.21855 37.424 6.28823 37.6011C6.35792 37.7782 6.46162 37.9392 6.5932 38.0747C6.72479 38.2101 6.88159 38.3172 7.05434 38.3896C7.22708 38.4619 7.41227 38.4982 7.59894 38.4961H23.8906V40.166H4.81705C4.70242 40.16 4.59416 40.1102 4.51374 40.0264C4.43331 39.9427 4.38658 39.8311 4.38281 39.7137V4.77765ZM2.31301 42.5391C2.201 42.536 2.09458 42.4884 2.01635 42.4063C1.93699 42.3241 1.89191 42.2136 1.89062 42.0981V7.06641C1.89151 7.01329 1.90311 6.96094 1.92472 6.91263C1.94633 6.86432 1.97746 6.8211 2.01618 6.78568C2.05627 6.74878 2.10313 6.7204 2.15405 6.70221C2.20497 6.68401 2.25891 6.67635 2.31275 6.67969H3.35156V39.7139C3.35566 40.1108 3.51108 40.4904 3.78474 40.7718C4.0584 41.0532 4.42867 41.2143 4.81671 41.2207H23.8906V41.8895C23.8906 42.1085 23.9168 42.3266 23.9688 42.5391H2.31301ZM23.8906 22.7101V27.4003C23.844 27.326 23.7799 27.265 23.7042 27.2227C23.6285 27.1804 23.5437 27.1582 23.4574 27.1582H21.5279C21.3912 27.1582 21.26 27.2138 21.1633 27.3127C21.0666 27.4116 21.0123 27.5457 21.0123 27.6855C21.0123 27.8254 21.0666 27.9595 21.1633 28.0584C21.26 28.1573 21.3912 28.2129 21.5279 28.2129H23.4574C23.5437 28.2129 23.6285 28.1907 23.7042 28.1484C23.7799 28.1061 23.844 28.0451 23.8906 27.9708V31.6406H20.2998C20.1631 31.6406 20.0319 31.6962 19.9352 31.7951C19.8385 31.894 19.7842 32.0281 19.7842 32.168C19.7842 32.3078 19.8385 32.442 19.9352 32.5409C20.0319 32.6398 20.1631 32.6953 20.2998 32.6953H23.8906V37.4414H7.5992C7.54817 37.4437 7.49724 37.435 7.44973 37.4158C7.40223 37.3966 7.35922 37.3674 7.32351 37.33C7.28745 37.2924 7.25951 37.2474 7.24146 37.198C7.22342 37.1486 7.21569 37.0959 7.21875 37.0433V1.91602C7.21532 1.86248 7.22256 1.80878 7.24004 1.75819C7.25752 1.70761 7.28486 1.66118 7.32041 1.62172C7.35597 1.58227 7.39899 1.55062 7.44687 1.52869C7.49475 1.50676 7.54648 1.495 7.59894 1.49414H25.3516V5.10961C25.3496 6.10187 25.7312 7.0547 26.4133 7.7604C27.0953 8.4661 28.0225 8.86744 28.9926 8.87695H32.4844V20.0391H26.5023C25.8097 20.0391 25.1454 20.3205 24.6556 20.8214C24.1658 21.3224 23.8906 22.0017 23.8906 22.7101ZM42.1094 41.8895C42.1066 42.3191 41.9377 42.7302 41.6397 43.033C41.3417 43.3358 40.9387 43.5058 40.5186 43.5059H26.5439C25.6724 43.5059 24.9219 42.7808 24.9219 41.8895V28.2129H42.1094V41.8895ZM42.1094 27.1582H24.9219V22.712C24.9219 21.8207 25.6724 21.0938 26.5439 21.0938H40.5186C40.9389 21.0943 41.3419 21.2646 41.6399 21.5678C41.9379 21.8709 42.1066 22.2822 42.1094 22.712V27.1582Z" fill="black"/>
</g>
<defs>
<clipPath id="clip0_3614_2424">
<rect width="44" height="45" fill="white"/>
</clipPath>
</defs>
</svg>
