<svg width="16" height="16" viewBox="0 0 16 16" fill="none" xmlns="http://www.w3.org/2000/svg">
<path d="M14 1H2C1.173 1 0.5 1.673 0.5 2.5V10.5C0.5 11.327 1.173 12 2 12H3.5V14.5C3.5 14.6925 3.6105 14.867 3.783 14.9505C3.8525 14.9835 3.9265 15 4 15C4.1115 15 4.222 14.963 4.3125 14.8905L7.9255 12H14C14.827 12 15.5 11.327 15.5 10.5V2.5C15.5 1.673 14.827 1 14 1ZM8 8H4C3.7235 8 3.5 7.776 3.5 7.5C3.5 7.224 3.7235 7 4 7H8C8.2765 7 8.5 7.224 8.5 7.5C8.5 7.776 8.2765 8 8 8ZM12 6H4C3.7235 6 3.5 5.776 3.5 5.5C3.5 5.224 3.7235 5 4 5H12C12.2765 5 12.5 5.224 12.5 5.5C12.5 5.776 12.2765 6 12 6Z" fill="white"/>
</svg>
