<svg width="70" height="71" viewBox="0 0 70 71" fill="none" xmlns="http://www.w3.org/2000/svg">
<rect width="70" height="71" rx="10" fill="#FFDAAD"/>
<g clip-path="url(#clip0_3333_5485)">
<path d="M56.6184 45.7411L52.1084 43.4348L49.2381 35.7989C49.2043 35.7086 49.1527 35.6264 49.0864 35.5575C49.0202 35.4885 48.9407 35.4343 48.8531 35.3981L31.0434 28.1172C30.9189 28.0665 30.7826 28.0542 30.6512 28.0817C30.5199 28.1091 30.3994 28.1753 30.3043 28.2719L27.929 30.7012C27.8357 30.7985 27.7721 30.9214 27.7459 31.055C27.7197 31.1885 27.7319 31.327 27.7812 31.4536L34.9003 49.668C34.9356 49.7577 34.9886 49.8389 35.0561 49.9067C35.1235 49.9744 35.2039 50.0272 35.2921 50.0618L42.7584 52.9973L45.0134 57.6098C45.0609 57.7115 45.1316 57.8001 45.2195 57.868C45.3074 57.9359 45.41 57.9812 45.5187 58.0001C45.5553 58.0035 45.5921 58.0035 45.6287 58.0001C45.8107 57.9993 45.985 57.9247 46.1134 57.7926L56.7971 46.8661C56.8758 46.7885 56.9352 46.6928 56.9704 46.5871C57.0057 46.4813 57.0158 46.3684 56.9999 46.2579C56.9815 46.1468 56.9372 46.0418 56.8708 45.9519C56.8044 45.8619 56.7178 45.7896 56.6184 45.7411ZM29.2215 31.3622L29.6031 30.9755L38.4684 40.0422C37.8841 40.889 37.6318 41.9291 37.7613 42.9569C37.8908 43.9847 38.3926 44.9254 39.1677 45.593C39.9427 46.2606 40.9344 46.6065 41.9468 46.5622C42.9592 46.518 43.9184 46.0868 44.635 45.354C45.3515 44.6213 45.773 43.6402 45.8163 42.6048C45.8596 41.5694 45.5214 40.5551 44.8686 39.7625C44.2159 38.9699 43.296 38.4566 42.2911 38.3242C41.2861 38.1917 40.2691 38.4498 39.4412 39.0473L30.5759 29.9805L30.954 29.5903L48.0624 36.5899L50.7609 43.7688L43.0849 51.6192L36.0656 48.8594L29.2215 31.3622ZM41.7718 39.6942C42.3897 39.6951 42.9882 39.9151 43.4652 40.3167C43.9423 40.7183 44.2685 41.2767 44.3882 41.8966C44.5079 42.5166 44.4137 43.1598 44.1217 43.7167C43.8297 44.2736 43.358 44.7098 42.7868 44.9509C42.2157 45.192 41.5805 45.2231 40.9894 45.0389C40.3983 44.8547 39.888 44.4667 39.5453 43.9408C39.2026 43.415 39.0488 42.7839 39.1101 42.1551C39.1713 41.5263 39.4438 40.9386 39.8812 40.4922C40.3831 39.9805 41.0631 39.6935 41.7718 39.6942ZM45.8178 56.1087L44.099 52.593L51.7062 44.813L55.1437 46.5708L45.8178 56.1087Z" fill="black"/>
<path d="M26.1488 50.6171C26.0174 50.49 25.8433 50.4192 25.6624 50.4192C25.4815 50.4192 25.3075 50.49 25.176 50.6171L24.3029 51.5101C21.9729 48.2759 20.6875 44.3788 20.6259 40.362C20.5643 36.3452 21.7295 32.4088 23.9592 29.1015C24.6272 29.4774 25.3963 29.6218 26.1513 29.5131C26.9063 29.4043 27.6065 29.0483 28.147 28.4982C28.6875 27.9482 29.0392 27.2339 29.1493 26.4623C29.2594 25.6907 29.1221 24.9034 28.7579 24.2183C31.9918 21.9379 35.8407 20.7462 39.7682 20.8093C43.6957 20.8723 47.5062 22.1869 50.6685 24.5698L49.7817 25.4523C49.6538 25.5841 49.5821 25.7623 49.5823 25.948C49.5818 26.0405 49.5991 26.1322 49.6333 26.2179C49.6675 26.3036 49.7179 26.3815 49.7817 26.4472L52.8135 29.5234C52.9423 29.6543 53.1166 29.7278 53.2982 29.7278C53.4798 29.7278 53.6541 29.6543 53.7829 29.5234L56.7976 26.4402C56.8615 26.3749 56.9122 26.2973 56.9468 26.212C56.9814 26.1266 56.9992 26.0351 56.9992 25.9427C56.9992 25.8503 56.9814 25.7588 56.9468 25.6734C56.9122 25.5881 56.8615 25.5105 56.7976 25.4452L53.7829 22.362C53.6541 22.2311 53.4798 22.1576 53.2982 22.1576C53.1166 22.1576 52.9423 22.2311 52.8135 22.362L51.6482 23.5468C48.7762 21.3365 45.3807 19.9478 41.8104 19.5234C38.2402 19.0989 34.6238 19.654 31.3326 21.1316L35.296 17.0886C35.7454 17.3082 36.2564 17.3579 36.7382 17.2289C37.22 17.0999 37.6416 16.8005 37.9281 16.3839C38.2146 15.9672 38.3476 15.4602 38.3034 14.9528C38.2592 14.4455 38.0407 13.9705 37.6866 13.6122C37.3326 13.2539 36.8659 13.0355 36.3694 12.9956C35.8728 12.9558 35.3786 13.0971 34.9742 13.3945C34.5698 13.6919 34.2816 14.1262 34.1605 14.6203C34.0395 15.1144 34.0934 15.6364 34.3129 16.0937L27.6235 22.9456C26.9443 22.4797 26.128 22.2693 25.314 22.3506C24.5 22.4318 23.7389 22.7996 23.1606 23.391C22.5823 23.9825 22.2227 24.7609 22.1433 25.5934C22.0638 26.4259 22.2695 27.2608 22.7251 27.9554L16.0254 34.7968C15.5765 34.5731 15.0647 34.5194 14.5808 34.6452C14.0968 34.7711 13.6722 35.0683 13.3823 35.4841C13.0925 35.8999 12.9561 36.4073 12.9975 36.9162C13.0389 37.4251 13.2554 37.9025 13.6084 38.2636C13.9615 38.6247 14.4283 38.8461 14.9259 38.8884C15.4235 38.9308 15.9196 38.7913 16.3262 38.4949C16.7327 38.1984 17.0234 37.7641 17.1464 37.2692C17.2694 36.7743 17.2169 36.2508 16.9982 35.7917L20.9617 31.7488C19.5155 35.1138 18.971 38.8119 19.3842 42.4633C19.7975 46.1147 21.1534 49.5878 23.3129 52.5261L22.151 53.7179C22.023 53.8496 21.9511 54.0278 21.9511 54.2136C21.9511 54.3994 22.023 54.5776 22.151 54.7093L25.1657 57.7925C25.2941 57.9245 25.4684 57.9991 25.6504 57.9999C25.7411 58 25.831 57.9817 25.9147 57.9461C25.9985 57.9105 26.0746 57.8583 26.1385 57.7925L29.1567 54.7093C29.2847 54.5776 29.3566 54.3994 29.3566 54.2136C29.3566 54.0278 29.2847 53.8496 29.1567 53.7179L26.1488 50.6171ZM53.3051 23.8456L55.347 25.9339L53.3051 28.0222L51.2632 25.9339L53.3051 23.8456ZM35.6879 14.6277C35.7901 14.5223 35.9205 14.4504 36.0627 14.421C36.2049 14.3916 36.3524 14.4061 36.4866 14.4626C36.6207 14.5191 36.7354 14.6151 36.8161 14.7383C36.8968 14.8616 36.9399 15.0066 36.9399 15.155C36.9399 15.3034 36.8968 15.4484 36.8161 15.5717C36.7354 15.6949 36.6207 15.7909 36.4866 15.8474C36.3524 15.9039 36.2049 15.9184 36.0627 15.889C35.9205 15.8596 35.7901 15.7877 35.6879 15.6823C35.6201 15.6131 35.5664 15.5309 35.5297 15.4404C35.493 15.3499 35.4741 15.253 35.4741 15.155C35.4741 15.057 35.493 14.9601 35.5297 14.8696C35.5664 14.7791 35.6201 14.6969 35.6879 14.6277ZM24.1379 24.3905C24.3375 24.1854 24.5748 24.0226 24.8362 23.9115C25.0975 23.8004 25.3777 23.7433 25.6607 23.7433C25.9437 23.7433 26.2239 23.8004 26.4853 23.9115C26.7466 24.0226 26.9839 24.1854 27.1835 24.3905C27.4853 24.6987 27.6909 25.0914 27.7744 25.5191C27.8578 25.9468 27.8153 26.3902 27.6523 26.7932C27.4893 27.1962 27.213 27.5407 26.8585 27.783C26.504 28.0254 26.0871 28.1548 25.6607 28.1548C25.2343 28.1548 24.8174 28.0254 24.4629 27.783C24.1084 27.5407 23.8322 27.1962 23.6691 26.7932C23.5061 26.3902 23.4636 25.9468 23.5471 25.5191C23.6305 25.0914 23.8361 24.6987 24.1379 24.3905ZM15.6267 37.2577C15.4863 37.3774 15.3072 37.4391 15.1247 37.4307C14.9421 37.4223 14.7692 37.3443 14.64 37.2121C14.5108 37.08 14.4345 36.9032 14.4263 36.7164C14.418 36.5297 14.4784 36.3466 14.5954 36.2031C14.733 36.0648 14.9181 35.9873 15.111 35.9873C15.3039 35.9873 15.4891 36.0648 15.6267 36.2031C15.6944 36.2723 15.7482 36.3545 15.7849 36.445C15.8215 36.5354 15.8404 36.6324 15.8404 36.7304C15.8404 36.8283 15.8215 36.9253 15.7849 37.0158C15.7482 37.1063 15.6944 37.1885 15.6267 37.2577ZM25.6607 56.2878L23.6188 54.1995L25.6607 52.1113L27.7026 54.1995L25.6607 56.2878Z" fill="black"/>
</g>
<defs>
<clipPath id="clip0_3333_5485">
<rect width="44" height="45" fill="white" transform="translate(13 13)"/>
</clipPath>
</defs>
</svg>
