<svg width="44" height="45" viewBox="0 0 44 45" fill="none" xmlns="http://www.w3.org/2000/svg">
<g id="data 1" clip-path="url(#clip0_3614_2127)">
<path id="Vector" d="M5.0669 16.4835C5.19245 16.6119 5.35728 16.6765 5.52211 16.6765C5.68693 16.6765 5.85176 16.6123 5.97764 16.4835C6.22908 16.2264 6.22908 15.8093 5.97764 15.5521L4.41398 13.9529L5.97764 12.354C6.22908 12.0965 6.22908 11.6797 5.97764 11.4226C5.72621 11.1654 5.31834 11.1654 5.0669 11.4226L3.04804 13.4873C2.92719 13.6109 2.85938 13.7785 2.85938 13.9529C2.85938 14.1276 2.92719 14.2952 3.04804 14.4188L5.0669 16.4835Z" fill="black"/>
<path id="Vector_2" d="M11.4573 13.953L9.89361 15.5522C9.64218 15.8093 9.64218 16.2265 9.89395 16.4836C10.0195 16.612 10.1843 16.6766 10.3492 16.6766C10.514 16.6766 10.6788 16.612 10.8044 16.4836L12.8236 14.4185C13.075 14.1614 13.075 13.7443 12.8236 13.4874L10.8044 11.4224C10.5529 11.1652 10.1454 11.1652 9.89395 11.4224C9.64218 11.6798 9.64218 12.0966 9.89395 12.3538L11.4573 13.953Z" fill="black"/>
<path id="Vector_3" d="M6.97599 16.6308C7.0532 16.6617 7.13309 16.6765 7.21131 16.6765C7.46845 16.6765 7.71116 16.5179 7.81086 16.2587L9.39702 12.1288C9.52727 11.7903 9.36412 11.4082 9.03312 11.275C8.70246 11.1421 8.3285 11.3086 8.19859 11.6471L6.61209 15.777C6.48218 16.1155 6.64499 16.498 6.97599 16.6308Z" fill="black"/>
<path id="Vector_4" d="M3.8675 20.5402H8.20568C8.56118 20.5402 8.84954 20.2453 8.84954 19.8814C8.84954 19.5178 8.56118 19.2229 8.20568 19.2229H3.8675C3.51166 19.2229 3.22363 19.5178 3.22363 19.8814C3.22363 20.2453 3.51166 20.5402 3.8675 20.5402Z" fill="black"/>
<path id="Vector_5" d="M18.1976 19.2229H10.5706C10.2151 19.2229 9.92676 19.5178 9.92676 19.8814C9.92676 20.2453 10.2151 20.5402 10.5706 20.5402H18.1976C18.5534 20.5402 18.8418 20.2453 18.8418 19.8814C18.8418 19.5178 18.5534 19.2229 18.1976 19.2229Z" fill="black"/>
<path id="Vector_6" d="M3.8675 23.3181H5.71549C6.071 23.3181 6.35936 23.0232 6.35936 22.6592C6.35936 22.2956 6.071 22.0007 5.71549 22.0007H3.8675C3.51166 22.0007 3.22363 22.2956 3.22363 22.6592C3.22363 23.0232 3.51166 23.3181 3.8675 23.3181Z" fill="black"/>
<path id="Vector_7" d="M15.8421 22.0007C15.4863 22.0007 15.1982 22.2956 15.1982 22.6592C15.1982 23.0232 15.4863 23.3181 15.8421 23.3181H16.9674C17.3232 23.3181 17.6116 23.0232 17.6116 22.6592C17.6116 22.2956 17.3232 22.0007 16.9674 22.0007H15.8421Z" fill="black"/>
<path id="Vector_8" d="M14.1473 22.6592C14.1473 22.2956 13.8589 22.0007 13.5034 22.0007H7.97589C7.62006 22.0007 7.33203 22.2956 7.33203 22.6592C7.33203 23.0232 7.62006 23.3181 7.97589 23.3181H13.5034C13.8589 23.3181 14.1473 23.0232 14.1473 22.6592Z" fill="black"/>
<path id="Vector_9" d="M18.3652 22.6592C18.3652 23.0232 18.6536 23.3181 19.0091 23.3181H21.1169C21.4728 23.3181 21.7611 23.0232 21.7611 22.6592C21.7611 22.2956 21.4728 22.0007 21.1169 22.0007H19.0091C18.6536 22.0007 18.3652 22.2956 18.3652 22.6592Z" fill="black"/>
<path id="Vector_10" d="M14.8581 14.4814H17.0814C17.4372 14.4814 17.7256 14.1865 17.7256 13.8226C17.7256 13.459 17.4372 13.1641 17.0814 13.1641H14.8581C14.5022 13.1641 14.2139 13.459 14.2139 13.8226C14.2139 14.1865 14.5022 14.4814 14.8581 14.4814Z" fill="black"/>
<path id="Vector_11" d="M19.5719 14.4814H33.1377C33.4935 14.4814 33.7816 14.1865 33.7816 13.8226C33.7816 13.459 33.4935 13.1641 33.1377 13.1641H19.5719C19.2161 13.1641 18.9277 13.459 18.9277 13.8226C18.9277 14.1865 19.2161 14.4814 19.5719 14.4814Z" fill="black"/>
<path id="Vector_12" d="M31.0767 16.0615H25.5814C25.2259 16.0615 24.9375 16.3564 24.9375 16.7204C24.9375 17.0839 25.2259 17.3789 25.5814 17.3789H31.0767C31.4322 17.3789 31.7205 17.0839 31.7205 16.7204C31.7205 16.3564 31.4322 16.0615 31.0767 16.0615Z" fill="black"/>
<path id="Vector_13" d="M23.5211 16.0615H21.6321C21.2763 16.0615 20.9883 16.3564 20.9883 16.7204C20.9883 17.0839 21.2763 17.3789 21.6321 17.3789H23.5211C23.8769 17.3789 24.165 17.0839 24.165 16.7204C24.165 16.3564 23.8769 16.0615 23.5211 16.0615Z" fill="black"/>
<path id="Vector_14" d="M14.8581 17.3789H19.4856C19.8411 17.3789 20.1295 17.0839 20.1295 16.7204C20.1295 16.3564 19.8411 16.0615 19.4856 16.0615H14.8581C14.5022 16.0615 14.2139 16.3564 14.2139 16.7204C14.2139 17.0839 14.5022 17.3789 14.8581 17.3789Z" fill="black"/>
<path id="Vector_15" d="M13.5113 24.7554H9.17349C8.81766 24.7554 8.5293 25.0503 8.5293 25.4139C8.5293 25.7774 8.81766 26.0724 9.17349 26.0724H13.5113C13.8668 26.0724 14.1552 25.7774 14.1552 25.4139C14.1552 25.0503 13.8668 24.7554 13.5113 24.7554Z" fill="black"/>
<path id="Vector_16" d="M7.20027 24.7554H3.8675C3.51166 24.7554 3.22363 25.0503 3.22363 25.4139C3.22363 25.7774 3.51166 26.0724 3.8675 26.0724H7.20027C7.55611 26.0724 7.84413 25.7774 7.84413 25.4139C7.84413 25.0503 7.55611 24.7554 7.20027 24.7554Z" fill="black"/>
<path id="Vector_17" d="M21.3742 24.7554H15.7073C15.3515 24.7554 15.0635 25.0503 15.0635 25.4139C15.0635 25.7774 15.3515 26.0724 15.7073 26.0724H21.3742C21.7297 26.0724 22.0181 25.7774 22.0181 25.4139C22.0181 25.0503 21.7297 24.7554 21.3742 24.7554Z" fill="black"/>
<path id="Vector_18" d="M29.0386 21.3721H25.9398C25.5843 21.3721 25.2959 21.667 25.2959 22.0306C25.2959 22.3945 25.5843 22.6894 25.9398 22.6894H29.0386C29.3944 22.6894 29.6824 22.3945 29.6824 22.0306C29.6824 21.667 29.3944 21.3721 29.0386 21.3721Z" fill="black"/>
<path id="Vector_19" d="M34.4153 22.6894H38.7898C39.1456 22.6894 39.434 22.3945 39.434 22.0306C39.434 21.667 39.1456 21.3721 38.7898 21.3721H34.4153C34.0595 21.3721 33.7715 21.667 33.7715 22.0306C33.7715 22.3945 34.0598 22.6894 34.4153 22.6894Z" fill="black"/>
<path id="Vector_20" d="M32.2276 21.3721H31.2253C30.8694 21.3721 30.5811 21.667 30.5811 22.0306C30.5811 22.3945 30.8694 22.6894 31.2253 22.6894H32.2276C32.5835 22.6894 32.8715 22.3945 32.8715 22.0306C32.8715 21.667 32.5835 21.3721 32.2276 21.3721Z" fill="black"/>
<path id="Vector_21" d="M25.9398 29.8663H29.0386C29.3944 29.8663 29.6824 29.5717 29.6824 29.2078C29.6824 28.8442 29.3944 28.5493 29.0386 28.5493H25.9398C25.5843 28.5493 25.2959 28.8442 25.2959 29.2078C25.2959 29.5717 25.5843 29.8663 25.9398 29.8663Z" fill="black"/>
<path id="Vector_22" d="M34.4153 29.8663H38.7898C39.1456 29.8663 39.434 29.5717 39.434 29.2078C39.434 28.8442 39.1456 28.5493 38.7898 28.5493H34.4153C34.0595 28.5493 33.7715 28.8442 33.7715 29.2078C33.7715 29.5717 34.0598 29.8663 34.4153 29.8663Z" fill="black"/>
<path id="Vector_23" d="M31.2259 29.8663H32.2283C32.5841 29.8663 32.8725 29.5717 32.8725 29.2078C32.8725 28.8442 32.5841 28.5493 32.2283 28.5493H31.2259C30.8701 28.5493 30.582 28.8442 30.582 29.2078C30.582 29.5717 30.8701 29.8663 31.2259 29.8663Z" fill="black"/>
<path id="Vector_24" d="M29.0386 35.7266H25.9398C25.5843 35.7266 25.2959 36.0215 25.2959 36.3851C25.2959 36.7486 25.5843 37.0436 25.9398 37.0436H29.0386C29.3944 37.0436 29.6824 36.7486 29.6824 36.3851C29.6824 36.0215 29.3944 35.7266 29.0386 35.7266Z" fill="black"/>
<path id="Vector_25" d="M38.7898 35.7266H34.4153C34.0595 35.7266 33.7715 36.0215 33.7715 36.3851C33.7715 36.7486 34.0595 37.0436 34.4153 37.0436H38.7898C39.1456 37.0436 39.434 36.7486 39.434 36.3851C39.434 36.0215 39.1456 35.7266 38.7898 35.7266Z" fill="black"/>
<path id="Vector_26" d="M32.2276 35.7266H31.2253C30.8694 35.7266 30.5811 36.0215 30.5811 36.3851C30.5811 36.7486 30.8694 37.0436 31.2253 37.0436H32.2276C32.5835 37.0436 32.8715 36.7486 32.8715 36.3851C32.8715 36.0215 32.5835 35.7266 32.2276 35.7266Z" fill="black"/>
<path id="Vector_27" d="M41.1662 0.0878906H2.83427C1.27161 0.0878906 0 1.38806 0 2.98658V34.8529C0 36.4511 1.27161 37.7512 2.83427 37.7512H5.25765C5.61315 37.7512 5.90151 37.4567 5.90151 37.0927C5.90151 36.7292 5.61315 36.4342 5.25765 36.4342H2.83427C1.98161 36.4342 1.28806 35.7249 1.28806 34.8529V32.3545H24.7488V33.4895H24.2382C23.5396 33.4895 22.9716 34.0705 22.9716 34.7849V36.4342H9.17286C8.81736 36.4342 8.529 36.7292 8.529 37.0927C8.529 37.4567 8.81736 37.7512 9.17286 37.7512H15.3644V40.1133H13.4201C12.1229 40.1133 11.0679 41.1927 11.0679 42.519V43.9417C11.0679 44.547 11.5492 45.0393 12.1411 45.0393H31.8101C32.4019 45.0393 32.8833 44.547 32.8833 43.9417V42.519C32.8833 41.1927 31.8282 40.1133 30.5311 40.1133H28.5868V39.2807H40.4915C41.1897 39.2807 41.7577 38.6998 41.7577 37.9854V37.6754C43.0129 37.3773 43.9512 36.2255 43.9512 34.8529L43.9998 2.98623C44.0002 1.38806 42.7289 0.0878906 41.1662 0.0878906ZM24.2596 30.7866V27.6297H40.47V30.7866H24.2596ZM26.0365 26.3124V24.9267H38.6928V26.3124H26.0365ZM38.6928 32.1035V33.4895H26.0365V32.1035H38.6928ZM16.6521 37.7512H22.9716V37.9857C22.9716 38.6998 23.5396 39.2807 24.2382 39.2807H27.299V40.1133H16.6521V37.7512ZM30.5314 41.4306C31.1182 41.4306 31.5956 41.9188 31.5956 42.519V43.7223H12.3556V42.519C12.3556 41.9188 12.8333 41.4306 13.4201 41.4306H30.5314ZM40.47 37.9634H24.2596V34.8069H40.47V37.9634ZM42.6634 34.8529C42.6634 35.4908 42.2915 36.0404 41.7581 36.29V34.7846C41.7581 34.0705 41.1897 33.4895 40.4915 33.4895H39.9809V32.3545H42.6634V34.8529ZM42.6634 31.0375H41.7369C41.75 30.963 41.7581 27.6077 41.7581 27.6077C41.7581 26.8933 41.1897 26.3124 40.4915 26.3124H39.9809V24.9267H40.4915C41.1897 24.9267 41.7581 24.3455 41.7581 23.6313V20.4305C41.7581 19.7164 41.1897 19.1352 40.4915 19.1352H36.8542C36.4984 19.1352 36.2104 19.4301 36.2104 19.794C36.2104 20.1576 36.4984 20.4525 36.8542 20.4525H40.47V23.6094H24.2596V20.4525H32.8474C33.2032 20.4525 33.4913 20.1576 33.4913 19.794C33.4913 19.4301 33.2032 19.1352 32.8474 19.1352H24.2382C23.5396 19.1352 22.9716 19.7164 22.9716 20.4305V23.6313C22.9716 24.3455 23.5396 24.9267 24.2382 24.9267H24.7488V26.3124H24.2382C23.5396 26.3124 22.9716 26.8936 22.9716 27.6077C22.9716 27.6077 22.9796 30.963 22.9927 31.0375H1.28806V9.04659H42.6634V31.0375ZM42.6634 7.72925H1.33539V2.98623C1.33539 2.11453 2.02894 1.40523 2.8816 1.40523H41.1172C41.9699 1.40523 42.6634 2.11453 42.6634 2.98658V7.72925Z" fill="black"/>
<path id="Vector_28" d="M4.749 2.61572C3.707 2.61572 2.85938 3.48262 2.85938 4.54829C2.85938 5.61397 3.707 6.48121 4.749 6.48121C5.791 6.48121 6.63896 5.61397 6.63896 4.54829C6.63896 3.48262 5.791 2.61572 4.749 2.61572ZM4.749 5.16387C4.41733 5.16387 4.1471 4.88784 4.1471 4.54829C4.1471 4.20909 4.41733 3.93271 4.749 3.93271C5.081 3.93271 5.3509 4.20909 5.3509 4.54829C5.3509 4.88784 5.081 5.16387 4.749 5.16387Z" fill="black"/>
<path id="Vector_29" d="M9.56086 2.61572C8.51886 2.61572 7.6709 3.48262 7.6709 4.54829C7.6709 5.61397 8.51886 6.48121 9.56086 6.48121C10.6029 6.48121 11.4505 5.61397 11.4505 4.54829C11.4505 3.48262 10.6025 2.61572 9.56086 2.61572ZM9.56086 5.16387C9.22886 5.16387 8.95896 4.88784 8.95896 4.54829C8.95896 4.20909 9.22886 3.93271 9.56086 3.93271C9.89253 3.93271 10.1628 4.20909 10.1628 4.54829C10.1628 4.88784 9.89253 5.16387 9.56086 5.16387Z" fill="black"/>
<path id="Vector_30" d="M14.372 2.61572C13.3301 2.61572 12.4824 3.48262 12.4824 4.54829C12.4824 5.61397 13.3301 6.48121 14.372 6.48121C15.414 6.48121 16.262 5.61397 16.262 4.54829C16.262 3.48262 15.414 2.61572 14.372 2.61572ZM14.372 5.16387C14.0404 5.16387 13.7701 4.88784 13.7701 4.54829C13.7701 4.20909 14.0404 3.93271 14.372 3.93271C14.704 3.93271 14.9739 4.20909 14.9739 4.54829C14.9739 4.88784 14.704 5.16387 14.372 5.16387Z" fill="black"/>
</g>
<defs>
<clipPath id="clip0_3614_2127">
<rect width="44" height="45" fill="white"/>
</clipPath>
</defs>
</svg>
