<svg width="36" height="36" viewBox="0 0 36 36" fill="none" xmlns="http://www.w3.org/2000/svg">
<g clip-path="url(#clip0_3509_1527)">
<path d="M25.5 21C25.5 21.3979 25.342 21.7794 25.0607 22.0607C24.7794 22.342 24.3978 22.5 24 22.5H12C11.6022 22.5 11.2206 22.342 10.9393 22.0607C10.658 21.7794 10.5 21.3979 10.5 21C10.5 20.6022 10.658 20.2207 10.9393 19.9394C11.2206 19.6581 11.6022 19.5 12 19.5H24C24.3978 19.5 24.7794 19.6581 25.0607 19.9394C25.342 20.2207 25.5 20.6022 25.5 21ZM19.5 25.5H12C11.6022 25.5 11.2206 25.6581 10.9393 25.9394C10.658 26.2207 10.5 26.6022 10.5 27C10.5 27.3979 10.658 27.7794 10.9393 28.0607C11.2206 28.342 11.6022 28.5 12 28.5H19.5C19.8978 28.5 20.2794 28.342 20.5607 28.0607C20.842 27.7794 21 27.3979 21 27C21 26.6022 20.842 26.2207 20.5607 25.9394C20.2794 25.6581 19.8978 25.5 19.5 25.5ZM33 15.7275V28.5C32.9976 30.4884 32.2067 32.3947 30.8007 33.8007C29.3947 35.2067 27.4884 35.9977 25.5 36H10.5C8.51161 35.9977 6.60534 35.2067 5.19933 33.8007C3.79332 32.3947 3.00238 30.4884 3 28.5V7.50003C3.00238 5.51164 3.79332 3.60537 5.19933 2.19936C6.60534 0.793357 8.51161 0.00241636 10.5 3.4573e-05H17.2725C18.6519 -0.00351582 20.0184 0.266416 21.2928 0.794223C22.5673 1.32203 23.7245 2.09724 24.6975 3.07503L29.9235 8.30403C30.9019 9.27639 31.6775 10.4332 32.2056 11.7075C32.7337 12.9818 33.0037 14.3482 33 15.7275ZM22.5765 5.19603C22.1044 4.73878 21.5744 4.34542 21 4.02603V10.5C21 10.8979 21.158 11.2794 21.4393 11.5607C21.7206 11.842 22.1022 12 22.5 12H28.974C28.6544 11.4258 28.2605 10.8963 27.8025 10.425L22.5765 5.19603ZM30 15.7275C30 15.48 29.952 15.243 29.9295 15H22.5C21.3065 15 20.1619 14.5259 19.318 13.682C18.4741 12.8381 18 11.6935 18 10.5V3.07053C17.757 3.04803 17.5185 3.00003 17.2725 3.00003H10.5C9.30653 3.00003 8.16193 3.47414 7.31802 4.31805C6.47411 5.16197 6 6.30656 6 7.50003V28.5C6 29.6935 6.47411 30.8381 7.31802 31.682C8.16193 32.5259 9.30653 33 10.5 33H25.5C26.6935 33 27.8381 32.5259 28.682 31.682C29.5259 30.8381 30 29.6935 30 28.5V15.7275Z" fill="black"/>
<path d="M25.5 21C25.5 21.3979 25.342 21.7794 25.0607 22.0607C24.7794 22.342 24.3978 22.5 24 22.5H12C11.6022 22.5 11.2206 22.342 10.9393 22.0607C10.658 21.7794 10.5 21.3979 10.5 21C10.5 20.6022 10.658 20.2207 10.9393 19.9394C11.2206 19.6581 11.6022 19.5 12 19.5H24C24.3978 19.5 24.7794 19.6581 25.0607 19.9394C25.342 20.2207 25.5 20.6022 25.5 21ZM19.5 25.5H12C11.6022 25.5 11.2206 25.6581 10.9393 25.9394C10.658 26.2207 10.5 26.6022 10.5 27C10.5 27.3979 10.658 27.7794 10.9393 28.0607C11.2206 28.342 11.6022 28.5 12 28.5H19.5C19.8978 28.5 20.2794 28.342 20.5607 28.0607C20.842 27.7794 21 27.3979 21 27C21 26.6022 20.842 26.2207 20.5607 25.9394C20.2794 25.6581 19.8978 25.5 19.5 25.5ZM33 15.7275V28.5C32.9976 30.4884 32.2067 32.3947 30.8007 33.8007C29.3947 35.2067 27.4884 35.9977 25.5 36H10.5C8.51161 35.9977 6.60534 35.2067 5.19933 33.8007C3.79332 32.3947 3.00238 30.4884 3 28.5V7.50003C3.00238 5.51164 3.79332 3.60537 5.19933 2.19936C6.60534 0.793357 8.51161 0.00241636 10.5 3.4573e-05H17.2725C18.6519 -0.00351582 20.0184 0.266416 21.2928 0.794223C22.5673 1.32203 23.7245 2.09724 24.6975 3.07503L29.9235 8.30403C30.9019 9.27639 31.6775 10.4332 32.2056 11.7075C32.7337 12.9818 33.0037 14.3482 33 15.7275ZM22.5765 5.19603C22.1044 4.73878 21.5744 4.34542 21 4.02603V10.5C21 10.8979 21.158 11.2794 21.4393 11.5607C21.7206 11.842 22.1022 12 22.5 12H28.974C28.6544 11.4258 28.2605 10.8963 27.8025 10.425L22.5765 5.19603ZM30 15.7275C30 15.48 29.952 15.243 29.9295 15H22.5C21.3065 15 20.1619 14.5259 19.318 13.682C18.4741 12.8381 18 11.6935 18 10.5V3.07053C17.757 3.04803 17.5185 3.00003 17.2725 3.00003H10.5C9.30653 3.00003 8.16193 3.47414 7.31802 4.31805C6.47411 5.16197 6 6.30656 6 7.50003V28.5C6 29.6935 6.47411 30.8381 7.31802 31.682C8.16193 32.5259 9.30653 33 10.5 33H25.5C26.6935 33 27.8381 32.5259 28.682 31.682C29.5259 30.8381 30 29.6935 30 28.5V15.7275Z" fill="#C0C3FF"/>
</g>
<defs>
<clipPath id="clip0_3509_1527">
<rect width="36" height="36" fill="white"/>
</clipPath>
</defs>
</svg>
