<svg width="36" height="37" viewBox="0 0 36 37" fill="none" xmlns="http://www.w3.org/2000/svg">
<g id="arrow-right (1) 1" clip-path="url(#clip0_3465_2952)">
<path id="Vector" d="M36 18.4999C36 8.5588 27.9412 0.5 18.0001 0.5C8.05902 0.5 -0.000106812 8.5588 -0.000106812 18.4999C-0.000106812 28.441 8.05902 36.5001 18.0001 36.5001C27.9366 36.4889 35.9888 28.4367 36 18.4999V18.4999ZM1.80011 18.4999C1.80011 9.55284 9.05307 2.29989 18.0001 2.29989C26.9472 2.29989 34.2001 9.55284 34.2001 18.4999C34.2001 27.4469 26.9472 34.6999 18.0001 34.6999C9.05735 34.6897 1.81033 27.4426 1.80011 18.4999Z" fill="#6F6F6F"/>
<path id="Vector_2" d="M24.9767 16.3925C25.304 16.0181 25.2657 15.4495 24.8917 15.1222C24.5172 14.7953 23.9487 14.8335 23.6214 15.2076L17.9993 21.6333L12.3768 15.2073C12.0495 14.8328 11.481 14.7949 11.1069 15.1219C10.7325 15.4492 10.6942 16.0177 11.0215 16.3921L17.3216 23.592C17.4924 23.7875 17.7396 23.8995 17.9993 23.8995C18.259 23.8995 18.5059 23.7875 18.6769 23.592L24.9767 16.3925Z" fill="#6F6F6F"/>
</g>
<defs>
<clipPath id="clip0_3465_2952">
<rect width="36" height="36" fill="white" transform="matrix(0 1 -1 0 36 0.5)"/>
</clipPath>
</defs>
</svg>
