<svg width="24" height="25" viewBox="0 0 24 25" fill="none" xmlns="http://www.w3.org/2000/svg">
<g id="link (1) 1" clip-path="url(#clip0_2224_88690)">
<g id="Group">
<g id="Group_2">
<g id="Group_3">
<path id="Vector" d="M9.94944 18.7932L7.12141 21.6212C5.94896 22.7937 4.05028 22.7937 2.87882 21.6215C1.70713 20.4498 1.70713 18.5509 2.87859 17.3794L8.53564 11.7224C9.7071 10.5509 11.606 10.5509 12.7774 11.7224C13.1679 12.1129 13.8011 12.1129 14.1917 11.7224C14.5822 11.3319 14.5822 10.6987 14.1917 10.3082C12.2391 8.35561 9.07395 8.35561 7.12141 10.3082L1.46441 15.9652C-0.488136 17.9177 -0.488136 21.0829 1.46441 23.0354C3.41672 24.989 6.58211 24.989 8.53568 23.0354L11.3637 20.2074C11.7542 19.8169 11.7542 19.1837 11.3637 18.7931C10.9732 18.4026 10.34 18.4027 9.94944 18.7932Z" fill="#565EFF"/>
<path id="Vector_2" d="M22.5363 1.96441C20.5838 0.0118644 17.4176 0.0118644 15.4651 1.96441L12.072 5.35743C11.6815 5.74794 11.6815 6.38114 12.072 6.77165C12.4626 7.16217 13.0958 7.16217 13.4863 6.77165L16.8793 3.37863C18.0508 2.20713 19.9506 2.20713 21.1221 3.37863C22.2936 4.55009 22.2936 6.44896 21.1221 7.62042L14.9001 13.8425C13.7286 15.014 11.8297 15.014 10.6583 13.8425C10.2678 13.452 9.63458 13.452 9.24406 13.8425C8.85354 14.233 8.85354 14.8662 9.24406 15.2567C11.1966 17.2093 14.3618 17.2093 16.3143 15.2567L22.5363 9.0347C24.4889 7.08216 24.4889 3.91695 22.5363 1.96441Z" fill="#565EFF"/>
</g>
</g>
</g>
</g>
<defs>
<clipPath id="clip0_2224_88690">
<rect width="24" height="24" fill="white" transform="translate(0 0.5)"/>
</clipPath>
</defs>
</svg>
