<svg width="36" height="36" viewBox="0 0 36 36" fill="none" xmlns="http://www.w3.org/2000/svg">
<g clip-path="url(#clip0_3509_1540)">
<path d="M20.7684 25.9007L15.8754 30.7937C14.4548 32.1763 12.5469 32.9441 10.5646 32.9308C8.58222 32.9175 6.68481 32.1243 5.28285 30.7227C3.88089 29.3211 3.08713 27.4239 3.07328 25.4416C3.05944 23.4593 3.82664 21.5512 5.20889 20.1302L10.1019 15.2327C10.3831 14.9512 10.5411 14.5696 10.5409 14.1716C10.5408 13.7737 10.3826 13.3922 10.1011 13.1109C9.81968 12.8297 9.43801 12.6717 9.04011 12.6719C8.6422 12.672 8.26065 12.8302 7.97939 13.1117L3.08789 18.0092C1.11129 19.9868 0.00125018 22.6686 0.00195346 25.4646C0.00265674 28.2606 1.11405 30.9418 3.09164 32.9184C5.06922 34.895 7.75101 36.0051 10.547 36.0044C13.3431 36.0037 16.0243 34.8923 18.0009 32.9147L22.8939 28.0217C23.1671 27.7388 23.3183 27.3599 23.3149 26.9666C23.3115 26.5733 23.1537 26.1971 22.8756 25.919C22.5975 25.6408 22.2213 25.4831 21.828 25.4797C21.4347 25.4763 21.0558 25.6274 20.7729 25.9007H20.7684Z" fill="#C0C3FF"/>
<path d="M32.9157 3.09154C31.9397 2.10876 30.7782 1.32945 29.4988 0.798781C28.2194 0.268107 26.8473 -0.00338468 25.4622 3.69611e-05C24.0778 -0.00364063 22.7064 0.267154 21.4273 0.796764C20.1482 1.32637 18.9868 2.10429 18.0102 3.08554L13.1097 7.98004C12.8283 8.2613 12.6701 8.64285 12.6699 9.04076C12.6698 9.43866 12.8277 9.82033 13.109 10.1018C13.3902 10.3832 13.7718 10.5415 14.1697 10.5416C14.5676 10.5417 14.9493 10.3838 15.2307 10.1025L20.1282 5.20954C20.8266 4.50701 21.6573 3.94999 22.5724 3.57073C23.4875 3.19146 24.4687 2.99749 25.4592 3.00004C26.9506 3.00053 28.4084 3.44318 29.6482 4.27204C30.8881 5.10089 31.8544 6.27873 32.425 7.65667C32.9955 9.0346 33.1448 10.5508 32.8538 12.0135C32.5628 13.4762 31.8447 14.8199 30.7902 15.8745L25.8972 20.7675C25.6158 21.049 25.4576 21.4307 25.4576 21.8288C25.4576 22.2268 25.6158 22.6086 25.8972 22.89C26.1787 23.1715 26.5604 23.3296 26.9585 23.3296C27.3565 23.3296 27.7383 23.1715 28.0197 22.89L32.9127 18C34.8868 16.0217 35.9957 13.3412 35.9963 10.5464C35.9968 7.75162 34.889 5.07069 32.9157 3.09154Z" fill="#C0C3FF"/>
<path d="M21.4404 12.4406L12.4404 21.4406C12.2971 21.579 12.1828 21.7445 12.1042 21.9275C12.0256 22.1105 11.9842 22.3073 11.9825 22.5065C11.9807 22.7057 12.0187 22.9032 12.0941 23.0875C12.1695 23.2719 12.2809 23.4394 12.4218 23.5802C12.5626 23.721 12.7301 23.8324 12.9144 23.9078C13.0988 23.9833 13.2963 24.0212 13.4955 24.0195C13.6946 24.0177 13.8915 23.9764 14.0745 23.8978C14.2575 23.8191 14.423 23.7049 14.5614 23.5616L23.5614 14.5616C23.8346 14.2787 23.9858 13.8998 23.9824 13.5065C23.9789 13.1132 23.8212 12.737 23.5431 12.4589C23.265 12.1808 22.8888 12.023 22.4955 12.0196C22.1022 12.0162 21.7233 12.1674 21.4404 12.4406Z" fill="#C0C3FF"/>
</g>
<defs>
<clipPath id="clip0_3509_1540">
<rect width="36" height="36" fill="white"/>
</clipPath>
</defs>
</svg>
