<svg width="32" height="32" viewBox="0 0 32 32" fill="none" xmlns="http://www.w3.org/2000/svg">
<g id="right-arrow (4) 1" clip-path="url(#clip0_2224_90681)">
<g id="Group">
<g id="Group_2">
<path id="Vector" d="M31.7885 15.4868L24.5159 8.21418C24.2547 7.90913 23.7956 7.87357 23.4905 8.13487C23.1855 8.39612 23.1499 8.85524 23.4112 9.16029C23.4356 9.18873 23.4621 9.21529 23.4905 9.2396L29.5195 15.2759H0.727237C0.325619 15.2759 0 15.6015 0 16.0032C0 16.4049 0.325619 16.7304 0.727237 16.7304H29.5195L23.4905 22.7594C23.1855 23.0206 23.1499 23.4797 23.4112 23.7848C23.6725 24.0898 24.1316 24.1254 24.4366 23.8641C24.4651 23.8397 24.4916 23.8132 24.5159 23.7848L31.7886 16.5122C32.0705 16.2286 32.0705 15.7705 31.7885 15.4868Z" fill="#105DEB"/>
</g>
</g>
</g>
<defs>
<clipPath id="clip0_2224_90681">
<rect width="32" height="32" fill="white"/>
</clipPath>
</defs>
</svg>
