<svg width="44" height="45" viewBox="0 0 44 45" fill="none" xmlns="http://www.w3.org/2000/svg">
<g id="bullhorn 1">
<path id="Vector" d="M25.4375 37.9688H24.0625V31.0781C24.0625 30.8916 23.9901 30.7128 23.8611 30.5809C23.7322 30.4491 23.5573 30.375 23.375 30.375C23.1927 30.375 23.0178 30.4491 22.8889 30.5809C22.7599 30.7128 22.6875 30.8916 22.6875 31.0781V37.9688H4.8125V23.9062H10.5325C10.7148 23.9062 10.8897 23.8322 11.0186 23.7003C11.1476 23.5684 11.22 23.3896 11.22 23.2031C11.22 23.0166 11.1476 22.8378 11.0186 22.7059C10.8897 22.5741 10.7148 22.5 10.5325 22.5H4.125C3.94266 22.5 3.7678 22.5741 3.63886 22.7059C3.50993 22.8378 3.4375 23.0166 3.4375 23.2031V37.9688H2.0625C1.88016 37.9688 1.7053 38.0428 1.57636 38.1747C1.44743 38.3066 1.375 38.4854 1.375 38.6719V40.0781C1.375 41.0105 1.73716 41.9047 2.38182 42.564C3.02648 43.2234 3.90082 43.5938 4.8125 43.5938H22.6875C23.5992 43.5938 24.4735 43.2234 25.1182 42.564C25.7628 41.9047 26.125 41.0105 26.125 40.0781V38.6719C26.125 38.4854 26.0526 38.3066 25.9236 38.1747C25.7947 38.0428 25.6198 37.9688 25.4375 37.9688ZM24.75 40.0781C24.75 40.6376 24.5327 41.1741 24.1459 41.5697C23.7591 41.9653 23.2345 42.1875 22.6875 42.1875H21.3125V41.4844C21.3125 41.2979 21.2401 41.1191 21.1111 40.9872C20.9822 40.8553 20.8073 40.7812 20.625 40.7812C20.4427 40.7812 20.2678 40.8553 20.1389 40.9872C20.0099 41.1191 19.9375 41.2979 19.9375 41.4844V42.1875H7.5625V41.4844C7.5625 41.2979 7.49007 41.1191 7.36114 40.9872C7.2322 40.8553 7.05734 40.7812 6.875 40.7812C6.69266 40.7812 6.5178 40.8553 6.38886 40.9872C6.25993 41.1191 6.1875 41.2979 6.1875 41.4844V42.1875H4.8125C4.26549 42.1875 3.74089 41.9653 3.35409 41.5697C2.9673 41.1741 2.75 40.6376 2.75 40.0781V39.375H24.75V40.0781Z" fill="black"/>
<path id="Vector_2" d="M37.125 5.625H38.5C38.6823 5.625 38.8572 5.55092 38.9861 5.41906C39.1151 5.2872 39.1875 5.10836 39.1875 4.92188C39.1875 4.73539 39.1151 4.55655 38.9861 4.42469C38.8572 4.29283 38.6823 4.21875 38.5 4.21875H37.125C36.578 4.21875 36.0534 4.44099 35.6666 4.83657C35.2798 5.23216 35.0625 5.76868 35.0625 6.32812V7.03125H34.375C34.1927 7.03125 34.0178 7.10533 33.8889 7.23719C33.7599 7.36905 33.6875 7.54789 33.6875 7.73438C33.6875 7.92086 33.7599 8.0997 33.8889 8.23156C34.0178 8.36342 34.1927 8.4375 34.375 8.4375H35.0625V10.5469C35.0625 10.7334 35.1349 10.9122 35.2639 11.0441C35.3928 11.1759 35.5677 11.25 35.75 11.25C35.9323 11.25 36.1072 11.1759 36.2361 11.0441C36.3651 10.9122 36.4375 10.7334 36.4375 10.5469V8.4375H37.125C37.3073 8.4375 37.4822 8.36342 37.6111 8.23156C37.7401 8.0997 37.8125 7.92086 37.8125 7.73438C37.8125 7.54789 37.7401 7.36905 37.6111 7.23719C37.4822 7.10533 37.3073 7.03125 37.125 7.03125H36.4375V6.32812C36.4375 6.14164 36.5099 5.9628 36.6389 5.83094C36.7678 5.69908 36.9427 5.625 37.125 5.625Z" fill="black"/>
<path id="Vector_3" d="M40.5625 1.40625H32.3125C31.7655 1.40625 31.2409 1.62849 30.8541 2.02407C30.4673 2.41966 30.25 2.95618 30.25 3.51562V4.92188C30.25 5.10836 30.3224 5.2872 30.4514 5.41906C30.5803 5.55092 30.7552 5.625 30.9375 5.625C31.1198 5.625 31.2947 5.55092 31.4236 5.41906C31.5526 5.2872 31.625 5.10836 31.625 4.92188V3.51562C31.625 3.32914 31.6974 3.1503 31.8264 3.01844C31.9553 2.88658 32.1302 2.8125 32.3125 2.8125H40.5625C40.7448 2.8125 40.9197 2.88658 41.0486 3.01844C41.1776 3.1503 41.25 3.32914 41.25 3.51562V11.9531C41.25 12.1396 41.1776 12.3184 41.0486 12.4503C40.9197 12.5822 40.7448 12.6562 40.5625 12.6562H32.3125C32.1302 12.6562 31.9553 12.5822 31.8264 12.4503C31.6974 12.3184 31.625 12.1396 31.625 11.9531V7.73438C31.625 7.54789 31.5526 7.36905 31.4236 7.23719C31.2947 7.10533 31.1198 7.03125 30.9375 7.03125C30.7552 7.03125 30.5803 7.10533 30.4514 7.23719C30.3224 7.36905 30.25 7.54789 30.25 7.73438V11.9531C30.25 12.5126 30.4673 13.0491 30.8541 13.4447C31.2409 13.8403 31.7655 14.0625 32.3125 14.0625H40.5625C41.1095 14.0625 41.6341 13.8403 42.0209 13.4447C42.4077 13.0491 42.625 12.5126 42.625 11.9531V3.51562C42.625 2.95618 42.4077 2.41966 42.0209 2.02407C41.6341 1.62849 41.1095 1.40625 40.5625 1.40625Z" fill="black"/>
<path id="Vector_4" d="M33.6875 29.5312C33.6875 30.0875 33.8488 30.6313 34.151 31.0938C34.4531 31.5563 34.8826 31.9168 35.3851 32.1297C35.8876 32.3425 36.4406 32.3982 36.974 32.2897C37.5074 32.1812 37.9974 31.9133 38.382 31.52C38.7666 31.1267 39.0286 30.6255 39.1347 30.0799C39.2408 29.5344 39.1863 28.9689 38.9782 28.455C38.77 27.941 38.4176 27.5018 37.9653 27.1927C37.5131 26.8837 36.9814 26.7188 36.4375 26.7188C35.7082 26.7188 35.0087 27.0151 34.493 27.5425C33.9772 28.07 33.6875 28.7853 33.6875 29.5312ZM37.8125 29.5312C37.8125 29.8094 37.7319 30.0813 37.5808 30.3125C37.4297 30.5438 37.2149 30.724 36.9637 30.8305C36.7124 30.9369 36.436 30.9647 36.1692 30.9105C35.9025 30.8562 35.6575 30.7223 35.4652 30.5256C35.2729 30.329 35.142 30.0784 35.0889 29.8056C35.0359 29.5328 35.0631 29.2501 35.1672 28.9931C35.2712 28.7361 35.4475 28.5165 35.6736 28.362C35.8997 28.2075 36.1656 28.125 36.4375 28.125C36.8022 28.125 37.1519 28.2732 37.4098 28.5369C37.6676 28.8006 37.8125 29.1583 37.8125 29.5312Z" fill="black"/>
<path id="Vector_5" d="M40.5625 23.2031H32.3125C31.7655 23.2031 31.2409 23.4254 30.8541 23.8209C30.4673 24.2165 30.25 24.7531 30.25 25.3125V33.75C30.25 34.3094 30.4673 34.846 30.8541 35.2416C31.2409 35.6371 31.7655 35.8594 32.3125 35.8594H40.5625C41.1095 35.8594 41.6341 35.6371 42.0209 35.2416C42.4077 34.846 42.625 34.3094 42.625 33.75V32.3438C42.625 32.1573 42.5526 31.9784 42.4236 31.8466C42.2947 31.7147 42.1198 31.6406 41.9375 31.6406C41.7552 31.6406 41.5803 31.7147 41.4514 31.8466C41.3224 31.9784 41.25 32.1573 41.25 32.3438V33.75C41.25 33.9365 41.1776 34.1153 41.0486 34.2472C40.9197 34.379 40.7448 34.4531 40.5625 34.4531H32.3125C32.1302 34.4531 31.9553 34.379 31.8264 34.2472C31.6974 34.1153 31.625 33.9365 31.625 33.75V25.3125C31.625 25.126 31.6974 24.9472 31.8264 24.8153C31.9553 24.6835 32.1302 24.6094 32.3125 24.6094H40.5625C40.7448 24.6094 40.9197 24.6835 41.0486 24.8153C41.1776 24.9472 41.25 25.126 41.25 25.3125V29.5312C41.25 29.7177 41.3224 29.8966 41.4514 30.0284C41.5803 30.1603 41.7552 30.2344 41.9375 30.2344C42.1198 30.2344 42.2947 30.1603 42.4236 30.0284C42.5526 29.8966 42.625 29.7177 42.625 29.5312V25.3125C42.625 24.7531 42.4077 24.2165 42.0209 23.8209C41.6341 23.4254 41.1095 23.2031 40.5625 23.2031Z" fill="black"/>
<path id="Vector_6" d="M16.8231 9.73835C16.9325 9.8077 17.0588 9.84424 17.1875 9.84382C17.2951 9.84316 17.4011 9.81667 17.4969 9.76648L21.6219 7.6571C21.7345 7.5981 21.829 7.50845 21.895 7.39804C21.961 7.28762 21.9959 7.16073 21.9959 7.03132C21.9959 6.90191 21.961 6.77501 21.895 6.6646C21.829 6.55419 21.7345 6.46454 21.6219 6.40554L17.4969 4.29616C17.3922 4.24223 17.2758 4.21655 17.1587 4.22156C17.0416 4.22658 16.9277 4.26213 16.8279 4.32482C16.728 4.38752 16.6454 4.4753 16.588 4.5798C16.5307 4.68431 16.5004 4.80209 16.5 4.92194V9.14069C16.4998 9.26019 16.5293 9.37777 16.5858 9.48234C16.6424 9.58691 16.724 9.67502 16.8231 9.73835ZM17.875 6.06101L19.7725 7.03132L17.875 8.00163V6.06101Z" fill="black"/>
<path id="Vector_7" d="M18.5625 13.3594C19.7863 13.3594 20.9826 12.9882 22.0001 12.2929C23.0176 11.5976 23.8107 10.6092 24.279 9.45292C24.7473 8.29661 24.8699 7.02423 24.6311 5.7967C24.3924 4.56916 23.8031 3.4416 22.9377 2.55659C22.0724 1.67159 20.9699 1.06889 19.7696 0.824721C18.5694 0.580549 17.3253 0.705867 16.1946 1.18483C15.064 1.66379 14.0977 2.47488 13.4178 3.51553C12.7379 4.55619 12.375 5.77967 12.375 7.03125C12.375 8.70958 13.0269 10.3192 14.1873 11.5059C15.3477 12.6927 16.9215 13.3594 18.5625 13.3594ZM18.5625 2.10938C19.5143 2.10938 20.4448 2.39804 21.2362 2.93886C22.0276 3.47969 22.6444 4.24838 23.0087 5.14773C23.3729 6.04709 23.4682 7.03671 23.2825 7.99146C23.0968 8.94621 22.6385 9.82321 21.9655 10.5115C21.2924 11.1999 20.4349 11.6686 19.5014 11.8586C18.5678 12.0485 17.6002 11.951 16.7208 11.5785C15.8415 11.2059 15.0899 10.5751 14.5611 9.7657C14.0322 8.9563 13.75 8.00471 13.75 7.03125C13.75 5.72589 14.257 4.47399 15.1595 3.55096C16.0621 2.62793 17.2861 2.10938 18.5625 2.10938Z" fill="black"/>
<path id="Vector_8" d="M25.4375 16.1719C25.5442 16.1719 25.6495 16.1465 25.745 16.0976C25.8404 16.0488 25.9235 15.978 25.9875 15.8906L28.05 13.0781C28.1594 12.9289 28.2064 12.7414 28.1806 12.5568C28.1548 12.3722 28.0584 12.2056 27.9125 12.0938C27.7666 11.9819 27.5833 11.9338 27.4028 11.9602C27.2223 11.9866 27.0594 12.0852 26.95 12.2344L24.8875 15.0469C24.7781 15.1961 24.7311 15.3836 24.7569 15.5682C24.7827 15.7528 24.8791 15.9194 25.025 16.0313C25.144 16.1225 25.2887 16.1719 25.4375 16.1719Z" fill="black"/>
<path id="Vector_9" d="M26.95 18.7031C27.014 18.7905 27.0971 18.8613 27.1925 18.9101C27.288 18.959 27.3933 18.9844 27.5 18.9844C27.6488 18.9844 27.7935 18.935 27.9125 18.8438L30.6625 16.7344C30.8084 16.6225 30.9048 16.4559 30.9306 16.2713C30.9564 16.0867 30.9094 15.8992 30.8 15.75C30.6906 15.6008 30.5277 15.5022 30.3472 15.4758C30.1667 15.4494 29.9834 15.4975 29.8375 15.6094L27.0875 17.7188C26.9416 17.8306 26.8452 17.9972 26.8194 18.1818C26.7936 18.3664 26.8406 18.5539 26.95 18.7031Z" fill="black"/>
<path id="Vector_10" d="M33.6874 20.2499C33.6711 20.1567 33.6365 20.0679 33.5857 19.9886C33.535 19.9094 33.4691 19.8415 33.3921 19.789C33.315 19.7365 33.2284 19.7004 33.1374 19.6829C33.0464 19.6655 32.9528 19.667 32.8624 19.6874L29.4249 20.3906C29.3346 20.3998 29.247 20.4271 29.1671 20.471C29.0871 20.5149 29.0164 20.5744 28.9589 20.6462C28.8429 20.7913 28.7879 20.9775 28.8062 21.164C28.8244 21.3505 28.9143 21.5219 29.0561 21.6406C29.198 21.7593 29.3801 21.8155 29.5624 21.7968H29.6999L33.1374 21.0937C33.2286 21.077 33.3155 21.0416 33.3929 20.9897C33.4704 20.9378 33.5368 20.8704 33.5881 20.7916C33.6395 20.7128 33.6748 20.6242 33.6918 20.5312C33.7089 20.4381 33.7074 20.3424 33.6874 20.2499Z" fill="black"/>
<path id="Vector_11" d="M2.0625 20.3906H10.3125C10.4948 20.3906 10.6697 20.3165 10.7986 20.1847C10.9276 20.0528 11 19.874 11 19.6875V8.4375C11 8.25102 10.9276 8.07218 10.7986 7.94032C10.6697 7.80845 10.4948 7.73438 10.3125 7.73438H2.0625C1.88016 7.73438 1.7053 7.80845 1.57636 7.94032C1.44743 8.07218 1.375 8.25102 1.375 8.4375V19.6875C1.375 19.874 1.44743 20.0528 1.57636 20.1847C1.7053 20.3165 1.88016 20.3906 2.0625 20.3906ZM2.75 9.14062H9.625V18.9844H2.75V9.14062Z" fill="black"/>
<path id="Vector_12" d="M7.5625 10.5469H6.1875C6.00516 10.5469 5.8303 10.621 5.70136 10.7528C5.57243 10.8847 5.5 11.0635 5.5 11.25C5.5 11.4365 5.57243 11.6153 5.70136 11.7472C5.8303 11.879 6.00516 11.9531 6.1875 11.9531H7.5625C7.74484 11.9531 7.9197 11.879 8.04864 11.7472C8.17757 11.6153 8.25 11.4365 8.25 11.25C8.25 11.0635 8.17757 10.8847 8.04864 10.7528C7.9197 10.621 7.74484 10.5469 7.5625 10.5469Z" fill="black"/>
<path id="Vector_13" d="M7.5625 13.3594H4.8125C4.63016 13.3594 4.4553 13.4335 4.32636 13.5653C4.19743 13.6972 4.125 13.876 4.125 14.0625C4.125 14.249 4.19743 14.4278 4.32636 14.5597C4.4553 14.6915 4.63016 14.7656 4.8125 14.7656H7.5625C7.74484 14.7656 7.9197 14.6915 8.04864 14.5597C8.17757 14.4278 8.25 14.249 8.25 14.0625C8.25 13.876 8.17757 13.6972 8.04864 13.5653C7.9197 13.4335 7.74484 13.3594 7.5625 13.3594Z" fill="black"/>
<path id="Vector_14" d="M7.5625 16.1719H4.8125C4.63016 16.1719 4.4553 16.246 4.32636 16.3778C4.19743 16.5097 4.125 16.6885 4.125 16.875C4.125 17.0615 4.19743 17.2403 4.32636 17.3722C4.4553 17.504 4.63016 17.5781 4.8125 17.5781H7.5625C7.74484 17.5781 7.9197 17.504 8.04864 17.3722C8.17757 17.2403 8.25 17.0615 8.25 16.875C8.25 16.6885 8.17757 16.5097 8.04864 16.3778C7.9197 16.246 7.74484 16.1719 7.5625 16.1719Z" fill="black"/>
<path id="Vector_15" d="M24.8326 20.1797C24.7874 20.0994 24.7273 20.029 24.6555 19.9724C24.5838 19.9159 24.5018 19.8743 24.4143 19.8502C24.3269 19.826 24.2356 19.8197 24.1458 19.8316C24.0559 19.8435 23.9693 19.8734 23.8907 19.9196C23.8122 19.9658 23.7433 20.0273 23.688 20.1007C23.6327 20.1741 23.5921 20.2579 23.5685 20.3473C23.5448 20.4368 23.5387 20.5301 23.5503 20.622C23.562 20.7139 23.5912 20.8025 23.6363 20.8829L26.6682 26.2477L15.6682 30.4665C15.6682 30.4665 15.6682 30.4665 15.6201 30.4665H15.5651L13.7776 31.5212L12.5882 32.2243C12.4316 32.3169 12.2587 32.3769 12.0794 32.4011C11.9001 32.4252 11.7179 32.4129 11.5432 32.3649C11.1923 32.2679 10.8932 32.0328 10.7113 31.711L9.33634 29.2782C9.17458 28.9599 9.13787 28.5904 9.23372 28.2453C9.32957 27.9003 9.55074 27.6057 9.85197 27.4219L12.2307 26.0157L13.9495 29.0602C14.01 29.1675 14.0973 29.2565 14.2023 29.3183C14.3073 29.38 14.4264 29.4123 14.5476 29.4118C14.6685 29.4123 14.7874 29.3801 14.8923 29.3186C14.9972 29.2571 15.0844 29.1684 15.145 29.0614C15.2057 28.9545 15.2377 28.833 15.2378 28.7094C15.2379 28.5857 15.2062 28.4642 15.1457 28.3571L13.372 25.2211L22.0001 17.9438L22.282 18.443C22.3271 18.5234 22.3873 18.5938 22.459 18.6504C22.5308 18.7069 22.6128 18.7484 22.7002 18.7726C22.7877 18.7968 22.8789 18.8031 22.9688 18.7912C23.0586 18.7792 23.1453 18.7493 23.2238 18.7032C23.3024 18.657 23.3713 18.5955 23.4266 18.5221C23.4819 18.4487 23.5225 18.3649 23.5461 18.2754C23.5697 18.186 23.5759 18.0926 23.5642 18.0008C23.5526 17.9089 23.5234 17.8202 23.4782 17.7399L22.7907 16.5235C22.7403 16.4354 22.6718 16.3596 22.5899 16.3013C22.508 16.243 22.4146 16.2037 22.3163 16.186C22.2175 16.1669 22.1158 16.1703 22.0184 16.1958C21.921 16.2213 21.8303 16.2684 21.7526 16.3337L12.1276 24.4477L9.19884 26.1774C8.67326 26.4905 8.26399 26.973 8.0351 27.5493C7.8062 28.1256 7.77059 28.7633 7.93384 29.3626L7.24634 29.7633C6.89211 29.9714 6.60626 30.2823 6.42503 30.6567C6.24381 31.0311 6.17537 31.4521 6.22839 31.8664C6.28141 32.2806 6.45351 32.6694 6.72286 32.9835C6.99221 33.2975 7.34669 33.5227 7.74134 33.6305C7.9163 33.6779 8.0966 33.7016 8.27759 33.7008C8.63927 33.6993 8.99445 33.6024 9.30884 33.4196L9.99634 33.0188C10.3266 33.3677 10.7419 33.6202 11.1995 33.7501C11.4344 33.8173 11.6774 33.8504 11.9213 33.8485C12.4046 33.8496 12.8793 33.7185 13.2963 33.4688L13.8945 33.1172L15.2695 35.5571C15.5427 36.0403 15.9921 36.393 16.5192 36.538C17.0462 36.6829 17.608 36.6083 18.0813 36.3305C18.3162 36.1921 18.5221 36.0078 18.6872 35.7879C18.8523 35.5681 18.9735 35.3172 19.0437 35.0494C19.1139 34.7817 19.1319 34.5024 19.0965 34.2276C19.0612 33.9528 18.9732 33.6877 18.8376 33.4477L17.5863 31.2188L27.8988 27.2602C27.9924 27.2243 28.0771 27.1679 28.1472 27.095C28.2172 27.0222 28.2709 26.9346 28.3045 26.8383C28.3379 26.7432 28.351 26.6419 28.3426 26.5412C28.3343 26.4405 28.3049 26.3428 28.2563 26.2547L24.8326 20.1797ZM8.59384 32.1961C8.51555 32.2424 8.4291 32.2725 8.33944 32.2845C8.24978 32.2966 8.15868 32.2905 8.07134 32.2665C7.8952 32.2197 7.74439 32.1034 7.65197 31.943C7.60671 31.863 7.57734 31.7745 7.56554 31.6828C7.55374 31.5911 7.55975 31.498 7.58322 31.4086C7.60669 31.3189 7.64733 31.2347 7.70279 31.1611C7.75826 31.0875 7.82744 31.0258 7.90634 30.9797L8.50447 30.6282L9.19197 31.8446L8.59384 32.1961ZM17.6413 34.1649C17.6866 34.245 17.716 34.3334 17.7278 34.4251C17.7396 34.5168 17.7336 34.61 17.7101 34.6993C17.6611 34.878 17.5449 35.0297 17.387 35.1211C17.2299 35.2134 17.0437 35.2386 16.8686 35.1912C16.6935 35.1438 16.5438 35.0277 16.452 34.868L15.077 32.4282L16.2182 31.7602H16.2732L17.6413 34.1649Z" fill="black"/>
</g>
</svg>
