<svg width="22" height="22" viewBox="0 0 22 22" fill="none" xmlns="http://www.w3.org/2000/svg">
<path d="M1.34878 9.9721C1.34878 9.9721 11.0789 5.8326 14.4534 4.37498C15.747 3.79198 20.134 1.92623 20.134 1.92623C20.134 1.92623 22.1588 1.11003 21.99 3.0923C21.9337 3.90858 21.4838 6.7654 21.0339 9.8555C20.3589 14.2283 19.6278 19.0091 19.6278 19.0091C19.6278 19.0091 19.5153 20.3501 18.5592 20.5833C17.6031 20.8165 16.0282 19.7671 15.747 19.5338C15.522 19.359 11.5288 16.7353 10.0665 15.4526C9.67274 15.1028 9.22283 14.4032 10.1227 13.5869C12.1475 11.6629 14.5659 9.2725 16.0282 7.75662C16.7032 7.05694 17.378 5.42446 14.5659 7.40674C10.5727 10.2636 6.63564 12.9456 6.63564 12.9456C6.63564 12.9456 5.73572 13.5286 4.04845 13.0039C2.3611 12.4792 0.392589 11.7795 0.392589 11.7795C0.392589 11.7795 -0.957168 10.905 1.34878 9.9721Z" fill="white"/>
</svg>
