<?xml version="1.0" encoding="UTF-8" standalone="no"?>
<svg xmlns="http://www.w3.org/2000/svg" version="1.2" baseProfile="tiny" viewBox="0.00 0.00 99.00 26.00">
<circle fill="#565eff" cx="63.76" cy="2.60" r="2.28"/>
<path fill="#565eff" d="
  M 49.40 8.00
  C 56.22 3.01 61.10 11.73 58.22 17.21
  Q 55.60 22.20 48.97 19.32
  A 0.08 0.08 0.0 0 0 48.87 19.44
  Q 49.07 19.74 48.91 20.02
  Q 48.78 20.23 48.42 20.33
  Q 46.97 20.78 45.51 20.41
  Q 45.00 20.28 45.00 19.76
  L 45.00 1.70
  Q 45.00 1.09 45.61 1.13
  L 48.38 1.29
  A 0.56 0.56 0.0 0 1 48.91 1.87
  L 48.70 7.62
  Q 48.67 8.53 49.40 8.00
  Z
  M 52.0124 17.3196
  A 3.75 3.02 89.2 0 0 54.9797 13.5278
  A 3.75 3.02 89.2 0 0 51.9076 9.8204
  A 3.75 3.02 89.2 0 0 48.9403 13.6122
  A 3.75 3.02 89.2 0 0 52.0124 17.3196
  Z"
/>
<rect fill="#565eff" x="-2.16" y="-9.24" transform="translate(2.92,11.25) rotate(0.1)" width="4.32" height="18.48" rx="0.46"/>
<path fill="#565eff" d="
  M 10.35 11.47
  L 16.39 20.03
  A 0.30 0.30 0.0 0 1 16.15 20.51
  L 11.67 20.49
  A 0.30 0.30 0.0 0 1 11.42 20.36
  L 5.43 11.54
  A 0.30 0.30 0.0 0 1 5.43 11.21
  L 11.20 2.13
  A 0.30 0.30 0.0 0 1 11.46 1.99
  L 15.80 2.02
  A 0.30 0.30 0.0 0 1 16.05 2.48
  L 10.34 11.13
  A 0.30 0.30 0.0 0 0 10.35 11.47
  Z"
/>
<path fill="#565eff" d="
  M 25.31 19.85
  C 17.88 23.55 14.03 12.31 25.00 12.23
  Q 25.47 12.23 25.63 11.79
  Q 26.19 10.31 24.67 9.83
  Q 22.56 9.16 20.08 10.59
  A 0.54 0.54 0.0 0 1 19.27 10.13
  L 19.24 7.81
  Q 19.24 7.31 19.70 7.15
  C 31.41 2.95 29.81 12.83 29.74 19.72
  Q 29.73 20.17 29.33 20.34
  Q 27.40 21.13 25.99 19.94
  Q 25.68 19.67 25.31 19.85
  Z
  M 25.6093 15.3437
  A 1.80 1.43 -30.6 0 0 23.3321 15.0291
  A 1.80 1.43 -30.6 0 0 22.5107 17.1763
  A 1.80 1.43 -30.6 0 0 24.7879 17.4909
  A 1.80 1.43 -30.6 0 0 25.6093 15.3437
  Z"
/>
<path fill="#565eff" d="
  M 37.69 15.55
  C 28.56 12.73 33.49 4.43 41.31 6.92
  A 0.66 0.66 0.0 0 1 41.68 7.87
  Q 41.23 8.66 41.76 9.51
  A 0.58 0.58 0.0 0 1 40.97 10.32
  Q 39.00 9.12 37.03 10.27
  A 0.55 0.55 0.0 0 0 37.01 11.21
  C 39.41 12.72 44.66 14.56 41.83 18.49
  C 40.03 21.01 35.95 20.92 33.30 20.04
  Q 32.75 19.86 32.75 19.28
  L 32.75 16.98
  A 0.51 0.51 0.0 0 1 33.54 16.55
  Q 35.35 17.75 37.51 17.49
  A 1.00 0.99 -39.8 0 0 37.69 15.55
  Z"
/>
<path fill="#565eff" d="
  M 74.25 8.01
  Q 74.45 7.61 74.75 7.31
  Q 75.13 6.93 75.64 6.78
  C 83.82 4.41 81.73 15.77 81.83 19.88
  Q 81.84 20.51 81.21 20.51
  L 78.51 20.49
  Q 77.98 20.48 77.98 19.95
  L 77.95 11.64
  A 1.92 1.92 0.0 0 0 75.55 9.79
  C 72.01 10.72 73.33 17.11 73.18 19.89
  A 0.65 0.64 1.4 0 1 72.53 20.50
  L 70.00 20.50
  Q 69.25 20.50 69.25 19.75
  L 69.25 7.54
  Q 69.25 7.14 69.62 6.99
  Q 72.33 5.86 73.50 8.02
  Q 73.88 8.72 74.25 8.01
  Z"
/>
<path fill="#565eff" d="
  M 93.47 18.99
  C 84.32 24.49 81.09 8.32 89.08 6.67
  Q 91.07 6.25 92.92 7.37
  A 0.81 0.80 -44.0 0 0 93.73 7.38
  Q 95.44 6.41 97.46 6.79
  Q 97.95 6.89 97.96 7.39
  C 98.06 13.55 98.61 19.76 97.16 22.68
  C 95.36 26.31 89.55 26.25 86.30 25.00
  A 0.69 0.67 9.4 0 1 85.86 24.40
  L 85.71 21.81
  Q 85.66 20.95 86.45 21.28
  C 89.11 22.40 93.51 23.58 93.95 19.30
  Q 94.01 18.67 93.47 18.99
  Z
  M 91.1642 16.9161
  A 3.52 2.66 92.7 0 0 93.9870 13.5253
  A 3.52 2.66 92.7 0 0 91.4958 9.8839
  A 3.52 2.66 92.7 0 0 88.6730 13.2747
  A 3.52 2.66 92.7 0 0 91.1642 16.9161
  Z"
/>
<rect fill="#565eff" x="61.75" y="6.75" width="4.00" height="13.76" rx="0.60"/>
</svg>
