<?xml version="1.0" encoding="UTF-8" standalone="no"?>
<!DOCTYPE svg PUBLIC "-//W3C//DTD SVG 1.1//EN" "http://www.w3.org/Graphics/SVG/1.1/DTD/svg11.dtd">
<svg xmlns="http://www.w3.org/2000/svg" version="1.1" viewBox="0.00 0.00 100.00 100.00">
<g stroke-width="2.00" fill="none" stroke-linecap="butt">
<path stroke="#ffd665" vector-effect="non-scaling-stroke" d="
  M 56.28 11.71
  L 54.13 12.24
  A 1.02 1.00 -81.2 0 0 53.49 12.72
  Q 51.30 16.58 47.03 15.67
  Q 46.72 15.60 46.56 15.33
  L 46.37 14.98"
/>
<path stroke="#f0a039" vector-effect="non-scaling-stroke" d="
  M 56.78 15.29
  L 56.32 15.50
  Q 55.95 15.67 55.74 16.02
  Q 53.12 20.33 52.73 25.31
  Q 52.69 25.90 53.25 26.06
  Q 54.04 26.29 55.02 26.13"
/>
<path stroke="#a5dd8c" vector-effect="non-scaling-stroke" d="
  M 55.02 26.13
  L 47.25 26.20"
/>
<path stroke="#e39038" vector-effect="non-scaling-stroke" d="
  M 47.25 26.20
  L 46.37 16.29"
/>
<path stroke="#8aa772" vector-effect="non-scaling-stroke" d="
  M 47.25 26.20
  L 44.69 26.19"
/>
<path stroke="#d46a20" vector-effect="non-scaling-stroke" d="
  M 56.93 18.67
  Q 56.65 19.24 56.26 19.48
  Q 55.89 19.71 55.84 20.15
  L 55.28 26.17"
/>
<path stroke="#97b774" vector-effect="non-scaling-stroke" d="
  M 55.28 26.17
  Q 55.15 26.15 55.02 26.13"
/>
<path stroke="#30ebab" vector-effect="non-scaling-stroke" d="
  M 86.47 26.29
  Q 85.98 28.74 80.25 28.13"
/>
<path stroke="#2ee09b" vector-effect="non-scaling-stroke" d="
  M 80.25 28.13
  L 15.63 28.24
  Q 15.05 28.24 15.09 28.82
  L 15.25 31.36"
/>
<path stroke="#37efb6" vector-effect="non-scaling-stroke" d="
  M 15.25 31.36
  L 8.81 31.84"
/>
<path stroke="#d46a20" vector-effect="non-scaling-stroke" d="
  M 45.60 16.22
  L 44.69 26.19"
/>
<path stroke="#97b774" vector-effect="non-scaling-stroke" d="
  M 44.69 26.19
  Q 44.37 26.29 43.96 26.14"
/>
<path stroke="#e39038" vector-effect="non-scaling-stroke" d="
  M 57.30 19.50
  L 57.33 26.18"
/>
<path stroke="#8aa772" vector-effect="non-scaling-stroke" d="
  M 57.33 26.18
  Q 56.18 26.39 55.28 26.17"
/>
<path stroke="#11ca73" vector-effect="non-scaling-stroke" d="
  M 92.18 54.73
  Q 90.93 56.07 90.07 54.48
  Q 89.87 54.10 89.48 53.96
  Q 85.93 52.63 85.92 48.74
  Q 85.92 39.85 85.87 30.63"
/>
<path stroke="#12d780" vector-effect="non-scaling-stroke" d="
  M 85.87 30.63
  Q 87.60 27.39 80.25 28.13"
/>
<path stroke="#8aa772" vector-effect="non-scaling-stroke" d="
  M 35.88 26.15
  Q 35.68 26.14 35.49 26.13"
/>
<path stroke="#f0a039" vector-effect="non-scaling-stroke" d="
  M 45.26 15.01
  L 42.74 25.59
  Q 42.64 26.02 43.08 26.06
  L 43.96 26.14"
/>
<path stroke="#a5dd8c" vector-effect="non-scaling-stroke" d="
  M 43.96 26.14
  L 35.88 26.15"
/>
<path stroke="#e39038" vector-effect="non-scaling-stroke" d="
  M 35.88 26.15
  Q 37.18 26.40 35.78 23.00"
/>
<path stroke="#0fbf63" vector-effect="non-scaling-stroke" d="
  M 85.87 30.63
  Q 85.35 29.40 84.25 29.58
  C 82.73 29.82 82.77 31.26 80.67 30.95
  Q 80.13 30.87 79.61 31.03
  Q 72.74 33.07 67.43 37.87
  Q 67.05 38.22 66.53 38.32
  L 62.08 39.18"
/>
<path stroke="#19db8b" vector-effect="non-scaling-stroke" d="
  M 62.08 39.18
  C 54.57 30.65 40.59 32.58 36.39 43.59"
/>
<path stroke="#12d780" vector-effect="non-scaling-stroke" d="
  M 36.39 43.59
  L 35.75 47.66"
/>
<path stroke="#0fbf63" vector-effect="non-scaling-stroke" d="
  M 35.75 47.66
  Q 29.67 45.70 26.40 47.67"
/>
<path stroke="#12d780" vector-effect="non-scaling-stroke" d="
  M 26.40 47.67
  Q 26.91 46.76 26.43 45.64
  C 25.02 42.30 21.32 43.59 20.20 46.75"
/>
<path stroke="#0fbf63" vector-effect="non-scaling-stroke" d="
  M 20.20 46.75
  Q 19.78 45.55 18.16 46.51
  Q 17.73 46.77 17.23 46.71
  Q 16.03 46.59 15.06 47.34"
/>
<path stroke="#12d780" vector-effect="non-scaling-stroke" d="
  M 15.06 47.34
  L 14.99 42.38"
/>
<path stroke="#19db8b" vector-effect="non-scaling-stroke" d="
  M 14.99 42.38
  L 15.25 31.36"
/>
<path stroke="#e3a04b" vector-effect="non-scaling-stroke" d="
  M 35.33 23.52
  L 34.49 25.51
  A 0.43 0.43 0.0 0 0 34.87 26.11
  L 35.49 26.13"
/>
<path stroke="#a6ed9f" vector-effect="non-scaling-stroke" d="
  M 35.49 26.13
  L 26.46 26.25"
/>
<path stroke="#97b774" vector-effect="non-scaling-stroke" d="
  M 67.45 26.25
  L 62.07 26.26"
/>
<path stroke="#1be59b" vector-effect="non-scaling-stroke" d="
  M 14.99 42.38
  L 8.77 42.34"
/>
<path stroke="#f0a039" vector-effect="non-scaling-stroke" d="
  M 65.24 20.09
  L 64.56 21.05
  A 0.04 0.04 0.0 0 0 64.61 21.10
  L 65.15 20.74
  A 0.10 0.10 0.0 0 1 65.29 20.87
  L 62.07 26.26"
/>
<path stroke="#a5dd8c" vector-effect="non-scaling-stroke" d="
  M 62.07 26.26
  L 57.33 26.18"
/>
<path stroke="#78963c" vector-effect="non-scaling-stroke" d="
  M 80.42 68.66
  Q 81.39 67.18 81.55 66.05"
/>
<path stroke="#0a863d" vector-effect="non-scaling-stroke" d="
  M 81.55 66.05
  Q 82.35 66.94 85.31 65.84
  A 0.69 0.67 -10.9 0 0 85.76 65.19
  L 85.62 56.55"
/>
<path stroke="#0da54c" vector-effect="non-scaling-stroke" d="
  M 85.62 56.55
  Q 86.88 49.50 83.14 47.86"
/>
<path stroke="#7ea542" vector-effect="non-scaling-stroke" d="
  M 83.14 47.86
  L 82.79 44.90"
/>
<path stroke="#83b34a" vector-effect="non-scaling-stroke" d="
  M 82.79 44.90
  L 82.31 43.74"
/>
<path stroke="#87cc67" vector-effect="non-scaling-stroke" d="
  M 82.31 43.74
  C 80.68 40.46 74.16 44.96 72.86 46.61"
/>
<path stroke="#0da54c" vector-effect="non-scaling-stroke" d="
  M 72.86 46.61
  C 69.78 46.48 68.60 48.93 66.13 49.81
  Q 65.72 49.95 65.66 50.38
  Q 65.42 51.97 64.06 52.80"
/>
<path stroke="#11ca73" vector-effect="non-scaling-stroke" d="
  M 64.06 52.80
  Q 66.20 46.49 63.83 42.17"
/>
<path stroke="#18ce7e" vector-effect="non-scaling-stroke" d="
  M 63.83 42.17
  L 62.08 39.18"
/>
<path stroke="#ffd665" vector-effect="non-scaling-stroke" d="
  M 44.93 14.34
  Q 41.51 17.79 35.92 19.48"
/>
<path stroke="#11ca73" vector-effect="non-scaling-stroke" d="
  M 26.40 47.67
  Q 23.04 52.09 20.20 46.75"
/>
<path stroke="#1be59b" vector-effect="non-scaling-stroke" d="
  M 63.83 42.17
  Q 50.19 45.00 36.39 43.59"
/>
<path stroke="#0fbc69" vector-effect="non-scaling-stroke" d="
  M 64.06 52.80
  Q 55.77 65.28 42.16 58.61"
/>
<path stroke="#11ca73" vector-effect="non-scaling-stroke" d="
  M 42.16 58.61
  Q 36.31 54.71 35.75 47.66"
/>
<path stroke="#0da54c" vector-effect="non-scaling-stroke" d="
  M 42.16 58.61
  Q 28.68 56.19 14.98 58.24"
/>
<path stroke="#11ca73" vector-effect="non-scaling-stroke" d="
  M 15.06 47.34
  L 14.98 58.24"
/>
<path stroke="#0fbc69" vector-effect="non-scaling-stroke" d="
  M 14.98 58.24
  L 14.99 65.26
  Q 14.99 66.12 15.85 66.12
  L 60.22 66.08
  A 0.55 0.55 0.0 0 1 60.75 66.79
  Q 60.47 67.74 58.90 68.60"
/>
<path stroke="#6d9e57" vector-effect="non-scaling-stroke" d="
  M 58.90 68.60
  L 26.26 68.75"
/>
<path stroke="#81bd5f" vector-effect="non-scaling-stroke" d="
  M 26.26 68.75
  L 24.56 68.83"
/>
<path stroke="#f0b04d" vector-effect="non-scaling-stroke" d="
  M 67.23 19.68
  Q 66.06 19.71 65.24 20.09"
/>
<path stroke="#ffd665" vector-effect="non-scaling-stroke" d="
  M 65.24 20.09
  Q 62.41 19.87 61.32 21.76
  A 1.19 1.19 0.0 0 1 59.30 21.82
  L 57.46 19.04"
/>
<path stroke="#097933" vector-effect="non-scaling-stroke" d="
  M 85.62 56.55
  Q 84.88 54.21 82.74 54.13"
/>
<path stroke="#768932" vector-effect="non-scaling-stroke" d="
  M 82.74 54.13
  Q 82.73 53.90 82.73 53.68"
/>
<path stroke="#fccd5b" vector-effect="non-scaling-stroke" d="
  M 82.31 43.74
  L 80.81 44.93"
/>
<path stroke="#ffd665" vector-effect="non-scaling-stroke" d="
  M 80.81 44.93
  C 79.61 44.88 78.75 45.37 78.16 46.51
  Q 76.45 49.80 73.50 52.16
  Q 73.09 52.49 73.16 53.01
  Q 73.30 54.05 72.06 54.01
  Q 71.50 53.99 71.36 53.45
  L 71.17 52.73"
/>
<path stroke="#85bf5d" vector-effect="non-scaling-stroke" d="
  M 71.17 52.73
  Q 71.30 49.69 72.86 46.61"
/>
<path stroke="#746a22" vector-effect="non-scaling-stroke" d="
  M 82.74 54.13
  Q 83.08 59.70 81.55 66.05"
/>
<path stroke="#697930" vector-effect="non-scaling-stroke" d="
  M 60.21 68.52
  L 58.90 68.60"
/>
<path stroke="#7d9838" vector-effect="non-scaling-stroke" d="
  M 83.14 47.86
  L 82.73 53.68"
/>
<path stroke="#e88928" vector-effect="non-scaling-stroke" d="
  M 82.73 53.68
  Q 81.68 54.18 81.88 55.65
  Q 81.95 56.12 81.63 56.46
  C 80.76 57.42 80.96 58.74 80.72 59.57
  Q 78.76 66.34 75.10 71.37
  Q 69.03 79.72 59.71 85.58
  C 54.48 88.87 49.78 87.79 43.61 86.80
  Q 43.23 86.74 37.30 86.28
  Q 30.65 85.77 25.81 80.65"
/>
<path stroke="#db7926" vector-effect="non-scaling-stroke" d="
  M 26.26 68.75
  L 25.73 69.06
  A 0.34 0.34 0.0 0 0 25.89 69.70
  L 54.29 70.41"
/>
<path stroke="#f6af40" vector-effect="non-scaling-stroke" d="
  M 54.29 70.41
  L 29.45 71.68"
/>
<path stroke="#f3a636" vector-effect="non-scaling-stroke" d="
  M 82.79 44.90
  Q 81.36 45.04 80.88 47.03
  Q 79.19 54.13 77.47 61.25
  Q 76.94 63.42 75.50 65.08
  Q 69.70 71.75 67.40 73.90
  Q 65.55 75.62 62.63 76.20
  A 1.77 1.77 0.0 0 0 61.76 76.65
  Q 59.43 78.87 57.81 81.63
  C 56.49 83.87 55.49 84.26 53.01 84.03
  Q 42.22 83.05 34.27 81.63
  C 30.68 80.99 26.90 79.57 26.06 76.07
  Q 25.23 72.66 29.45 71.68"
/>
<path stroke="#fbbd47" vector-effect="non-scaling-stroke" d="
  M 29.45 71.68
  Q 27.92 73.82 28.18 75.16
  Q 28.29 75.70 28.82 75.83
  Q 40.72 78.74 53.01 78.77
  Q 55.90 78.78 56.55 76.00
  Q 57.26 72.95 57.63 70.07"
/>
<path stroke="#e0872e" vector-effect="non-scaling-stroke" d="
  M 57.63 70.07
  Q 59.13 69.96 60.21 68.52"
/>
<path stroke="#82a640" vector-effect="non-scaling-stroke" d="
  M 60.21 68.52
  Q 60.39 68.32 60.43 68.15"
/>
<path stroke="#fbbd47" vector-effect="non-scaling-stroke" d="
  M 60.43 68.15
  Q 60.55 68.38 60.59 68.61
  Q 60.66 69.00 61.05 69.05
  Q 64.66 69.49 68.05 68.60
  C 75.06 66.76 74.38 60.04 76.64 54.80
  Q 78.76 49.86 80.81 44.93"
/>
<path stroke="#e39038" vector-effect="non-scaling-stroke" d="
  M 57.63 70.07
  L 54.29 70.41"
/>
<path stroke="#85af4a" vector-effect="non-scaling-stroke" d="
  M 60.43 68.15
  Q 64.02 63.76 68.29 59.83
  C 70.70 57.60 71.06 55.84 71.17 52.73"
/>
</g>
<path fill="#ffe678" d="
  M 56.28 11.71
  L 54.13 12.24
  A 1.02 1.00 -81.2 0 0 53.49 12.72
  Q 51.30 16.58 47.03 15.67
  Q 46.72 15.60 46.56 15.33
  L 46.37 14.98
  C 45.93 10.42 48.64 8.39 52.98 9.11
  Q 55.63 9.55 56.28 11.71
  Z"
/>
<path fill="#fec651" d="
  M 56.28 11.71
  L 56.78 15.29
  L 56.32 15.50
  Q 55.95 15.67 55.74 16.02
  Q 53.12 20.33 52.73 25.31
  Q 52.69 25.90 53.25 26.06
  Q 54.04 26.29 55.02 26.13
  L 47.25 26.20
  L 46.37 16.29
  Q 46.10 15.73 46.37 14.98
  L 46.56 15.33
  Q 46.72 15.60 47.03 15.67
  Q 51.30 16.58 53.49 12.72
  A 1.02 1.00 -81.2 0 1 54.13 12.24
  L 56.28 11.71
  Z"
/>
<path fill="#ffe678" d="
  M 44.93 14.34
  Q 41.51 17.79 35.92 19.48
  C 35.97 14.01 40.14 10.27 44.93 14.34
  Z"
/>
<path fill="#fec651" d="
  M 44.93 14.34
  Q 44.92 14.51 45.26 15.01
  L 42.74 25.59
  Q 42.64 26.02 43.08 26.06
  L 43.96 26.14
  L 35.88 26.15
  Q 37.18 26.40 35.78 23.00
  L 35.92 19.48
  Q 41.51 17.79 44.93 14.34
  Z"
/>
<path fill="#e17a21" d="
  M 45.26 15.01
  Q 45.86 15.72 45.60 16.22
  L 44.69 26.19
  Q 44.37 26.29 43.96 26.14
  L 43.08 26.06
  Q 42.64 26.02 42.74 25.59
  L 45.26 15.01
  Z"
/>
<path fill="#e17a21" d="
  M 56.78 15.29
  L 56.93 18.67
  Q 56.65 19.24 56.26 19.48
  Q 55.89 19.71 55.84 20.15
  L 55.28 26.17
  Q 55.15 26.15 55.02 26.13
  Q 54.04 26.29 53.25 26.06
  Q 52.69 25.90 52.73 25.31
  Q 53.12 20.33 55.74 16.02
  Q 55.95 15.67 56.32 15.50
  L 56.78 15.29
  Z"
/>
<path fill="#c75a1e" d="
  M 45.60 16.22
  Q 45.98 16.20 46.12 16.48
  Q 46.17 16.58 46.19 16.47
  Q 46.21 16.27 46.37 16.29
  L 47.25 26.20
  L 44.69 26.19
  L 45.60 16.22
  Z"
/>
<path fill="#ffe678" d="
  M 67.23 19.68
  Q 66.06 19.71 65.24 20.09
  Q 62.41 19.87 61.32 21.76
  A 1.19 1.19 0.0 0 1 59.30 21.82
  L 57.46 19.04
  Q 58.37 16.85 61.00 16.42
  Q 65.89 15.63 67.23 19.68
  Z"
/>
<path fill="#c75a1e" d="
  M 56.93 18.67
  Q 56.90 19.39 57.30 19.50
  L 57.33 26.18
  Q 56.18 26.39 55.28 26.17
  L 55.84 20.15
  Q 55.89 19.71 56.26 19.48
  Q 56.65 19.24 56.93 18.67
  Z"
/>
<path fill="#fec651" d="
  M 57.46 19.04
  L 59.30 21.82
  A 1.19 1.19 0.0 0 0 61.32 21.76
  Q 62.41 19.87 65.24 20.09
  L 64.56 21.05
  A 0.04 0.04 0.0 0 0 64.61 21.10
  L 65.15 20.74
  A 0.10 0.10 0.0 0 1 65.29 20.87
  L 62.07 26.26
  L 57.33 26.18
  L 57.30 19.50
  Q 57.04 19.42 57.46 19.04
  Z"
/>
<path fill="#e17a21" d="
  M 67.23 19.68
  L 67.45 26.25
  L 62.07 26.26
  L 65.29 20.87
  A 0.10 0.10 0.0 0 0 65.15 20.74
  L 64.61 21.10
  A 0.04 0.04 0.0 0 1 64.56 21.05
  L 65.24 20.09
  Q 66.06 19.71 67.23 19.68
  Z"
/>
<path fill="#ffe678" d="
  M 35.33 23.52
  L 34.49 25.51
  A 0.43 0.43 0.0 0 0 34.87 26.11
  L 35.49 26.13
  L 26.46 26.25
  Q 26.65 19.64 32.99 21.09
  Q 34.72 21.49 35.33 23.52
  Z"
/>
<path fill="#c75a1e" d="
  M 35.78 23.00
  Q 37.18 26.40 35.88 26.15
  Q 35.68 26.14 35.49 26.13
  L 34.87 26.11
  A 0.43 0.43 0.0 0 1 34.49 25.51
  L 35.33 23.52
  Q 35.37 23.82 35.46 23.94
  Q 35.62 24.14 35.73 23.91
  Q 35.94 23.45 35.78 23.00
  Z"
/>
<path fill="#4cf4c6" d="
  M 67.45 26.25
  L 86.47 26.29
  Q 85.98 28.74 80.25 28.13
  L 15.63 28.24
  Q 15.05 28.24 15.09 28.82
  L 15.25 31.36
  L 8.81 31.84
  L 8.97 26.91
  Q 8.99 26.30 9.60 26.30
  L 26.46 26.25
  L 35.49 26.13
  Q 35.68 26.14 35.88 26.15
  L 43.96 26.14
  Q 44.37 26.29 44.69 26.19
  L 47.25 26.20
  L 55.02 26.13
  Q 55.15 26.15 55.28 26.17
  Q 56.18 26.39 57.33 26.18
  L 62.07 26.26
  L 67.45 26.25
  Z"
/>
<path fill="#13e190" d="
  M 86.47 26.29
  L 91.31 26.40
  A 0.94 0.93 0.9 0 1 92.23 27.34
  L 92.18 54.73
  Q 90.93 56.07 90.07 54.48
  Q 89.87 54.10 89.48 53.96
  Q 85.93 52.63 85.92 48.74
  Q 85.92 39.85 85.87 30.63
  Q 87.60 27.39 80.25 28.13
  Q 85.98 28.74 86.47 26.29
  Z"
/>
<path fill="#10cc6f" d="
  M 80.25 28.13
  Q 87.60 27.39 85.87 30.63
  Q 85.35 29.40 84.25 29.58
  C 82.73 29.82 82.77 31.26 80.67 30.95
  Q 80.13 30.87 79.61 31.03
  Q 72.74 33.07 67.43 37.87
  Q 67.05 38.22 66.53 38.32
  L 62.08 39.18
  C 54.57 30.65 40.59 32.58 36.39 43.59
  L 35.75 47.66
  Q 29.67 45.70 26.40 47.67
  Q 26.91 46.76 26.43 45.64
  C 25.02 42.30 21.32 43.59 20.20 46.75
  Q 19.78 45.55 18.16 46.51
  Q 17.73 46.77 17.23 46.71
  Q 16.03 46.59 15.06 47.34
  L 14.99 42.38
  L 15.25 31.36
  L 15.09 28.82
  Q 15.05 28.24 15.63 28.24
  L 80.25 28.13
  Z"
/>
<path fill="#0eb256" d="
  M 85.87 30.63
  Q 85.92 39.85 85.92 48.74
  Q 85.93 52.63 89.48 53.96
  Q 89.87 54.10 90.07 54.48
  Q 90.93 56.07 92.18 54.73
  L 92.02 68.08
  Q 92.01 68.73 91.37 68.72
  L 80.42 68.66
  Q 81.39 67.18 81.55 66.05
  Q 82.35 66.94 85.31 65.84
  A 0.69 0.67 -10.9 0 0 85.76 65.19
  L 85.62 56.55
  Q 86.88 49.50 83.14 47.86
  L 82.79 44.90
  L 82.31 43.74
  C 80.68 40.46 74.16 44.96 72.86 46.61
  C 69.78 46.48 68.60 48.93 66.13 49.81
  Q 65.72 49.95 65.66 50.38
  Q 65.42 51.97 64.06 52.80
  Q 66.20 46.49 63.83 42.17
  L 62.08 39.18
  L 66.53 38.32
  Q 67.05 38.22 67.43 37.87
  Q 72.74 33.07 79.61 31.03
  Q 80.13 30.87 80.67 30.95
  C 82.77 31.26 82.73 29.82 84.25 29.58
  Q 85.35 29.40 85.87 30.63
  Z"
/>
<path fill="#22e9a6" d="
  M 15.25 31.36
  L 14.99 42.38
  L 8.77 42.34
  L 8.81 31.84
  L 15.25 31.36
  Z"
/>
<path fill="#22e9a6" d="
  M 62.08 39.18
  L 63.83 42.17
  Q 50.19 45.00 36.39 43.59
  C 40.59 32.58 54.57 30.65 62.08 39.18
  Z"
/>
<path fill="#13e190" d="
  M 63.83 42.17
  Q 66.20 46.49 64.06 52.80
  Q 55.77 65.28 42.16 58.61
  Q 36.31 54.71 35.75 47.66
  L 36.39 43.59
  Q 50.19 45.00 63.83 42.17
  Z"
/>
<path fill="#13e190" d="
  M 14.99 42.38
  L 15.06 47.34
  L 14.98 58.24
  L 14.99 65.26
  Q 14.99 66.12 15.85 66.12
  L 60.22 66.08
  A 0.55 0.55 0.0 0 1 60.75 66.79
  Q 60.47 67.74 58.90 68.60
  L 26.26 68.75
  L 24.56 68.83
  L 10.18 68.81
  A 1.42 1.41 0.2 0 1 8.77 67.40
  L 8.77 42.34
  L 14.99 42.38
  Z"
/>
<path fill="#ffe678" d="
  M 82.31 43.74
  L 80.81 44.93
  C 79.61 44.88 78.75 45.37 78.16 46.51
  Q 76.45 49.80 73.50 52.16
  Q 73.09 52.49 73.16 53.01
  Q 73.30 54.05 72.06 54.01
  Q 71.50 53.99 71.36 53.45
  L 71.17 52.73
  Q 71.30 49.69 72.86 46.61
  C 74.16 44.96 80.68 40.46 82.31 43.74
  Z"
/>
<path fill="#13e190" d="
  M 26.40 47.67
  Q 23.04 52.09 20.20 46.75
  C 21.32 43.59 25.02 42.30 26.43 45.64
  Q 26.91 46.76 26.40 47.67
  Z"
/>
<path fill="#f8b43d" d="
  M 82.31 43.74
  L 82.79 44.90
  Q 81.36 45.04 80.88 47.03
  Q 79.19 54.13 77.47 61.25
  Q 76.94 63.42 75.50 65.08
  Q 69.70 71.75 67.40 73.90
  Q 65.55 75.62 62.63 76.20
  A 1.77 1.77 0.0 0 0 61.76 76.65
  Q 59.43 78.87 57.81 81.63
  C 56.49 83.87 55.49 84.26 53.01 84.03
  Q 42.22 83.05 34.27 81.63
  C 30.68 80.99 26.90 79.57 26.06 76.07
  Q 25.23 72.66 29.45 71.68
  Q 27.92 73.82 28.18 75.16
  Q 28.29 75.70 28.82 75.83
  Q 40.72 78.74 53.01 78.77
  Q 55.90 78.78 56.55 76.00
  Q 57.26 72.95 57.63 70.07
  Q 59.13 69.96 60.21 68.52
  Q 60.39 68.32 60.43 68.15
  Q 60.55 68.38 60.59 68.61
  Q 60.66 69.00 61.05 69.05
  Q 64.66 69.49 68.05 68.60
  C 75.06 66.76 74.38 60.04 76.64 54.80
  Q 78.76 49.86 80.81 44.93
  L 82.31 43.74
  Z"
/>
<path fill="#fec651" d="
  M 80.81 44.93
  Q 78.76 49.86 76.64 54.80
  C 74.38 60.04 75.06 66.76 68.05 68.60
  Q 64.66 69.49 61.05 69.05
  Q 60.66 69.00 60.59 68.61
  Q 60.55 68.38 60.43 68.15
  Q 64.02 63.76 68.29 59.83
  C 70.70 57.60 71.06 55.84 71.17 52.73
  L 71.36 53.45
  Q 71.50 53.99 72.06 54.01
  Q 73.30 54.05 73.16 53.01
  Q 73.09 52.49 73.50 52.16
  Q 76.45 49.80 78.16 46.51
  C 78.75 45.37 79.61 44.88 80.81 44.93
  Z"
/>
<path fill="#ee982e" d="
  M 82.79 44.90
  L 83.14 47.86
  L 82.73 53.68
  Q 81.68 54.18 81.88 55.65
  Q 81.95 56.12 81.63 56.46
  C 80.76 57.42 80.96 58.74 80.72 59.57
  Q 78.76 66.34 75.10 71.37
  Q 69.03 79.72 59.71 85.58
  C 54.48 88.87 49.78 87.79 43.61 86.80
  Q 43.23 86.74 37.30 86.28
  Q 30.65 85.77 25.81 80.65
  Q 24.25 75.22 24.56 68.83
  L 26.26 68.75
  L 25.73 69.06
  A 0.34 0.34 0.0 0 0 25.89 69.70
  L 54.29 70.41
  L 29.45 71.68
  Q 25.23 72.66 26.06 76.07
  C 26.90 79.57 30.68 80.99 34.27 81.63
  Q 42.22 83.05 53.01 84.03
  C 55.49 84.26 56.49 83.87 57.81 81.63
  Q 59.43 78.87 61.76 76.65
  A 1.77 1.77 0.0 0 1 62.63 76.20
  Q 65.55 75.62 67.40 73.90
  Q 69.70 71.75 75.50 65.08
  Q 76.94 63.42 77.47 61.25
  Q 79.19 54.13 80.88 47.03
  Q 81.36 45.04 82.79 44.90
  Z"
/>
<path fill="#0eb256" d="
  M 20.20 46.75
  Q 23.04 52.09 26.40 47.67
  Q 29.67 45.70 35.75 47.66
  Q 36.31 54.71 42.16 58.61
  Q 28.68 56.19 14.98 58.24
  L 15.06 47.34
  Q 16.03 46.59 17.23 46.71
  Q 17.73 46.77 18.16 46.51
  Q 19.78 45.55 20.20 46.75
  Z"
/>
<path fill="#0b9742" d="
  M 72.86 46.61
  Q 71.30 49.69 71.17 52.73
  C 71.06 55.84 70.70 57.60 68.29 59.83
  Q 64.02 63.76 60.43 68.15
  Q 60.39 68.32 60.21 68.52
  L 58.90 68.60
  Q 60.47 67.74 60.75 66.79
  A 0.55 0.55 0.0 0 0 60.22 66.08
  L 15.85 66.12
  Q 14.99 66.12 14.99 65.26
  L 14.98 58.24
  Q 28.68 56.19 42.16 58.61
  Q 55.77 65.28 64.06 52.80
  Q 65.42 51.97 65.66 50.38
  Q 65.72 49.95 66.13 49.81
  C 68.60 48.93 69.78 46.48 72.86 46.61
  Z"
/>
<path fill="#0b9742" d="
  M 85.62 56.55
  Q 84.88 54.21 82.74 54.13
  Q 82.73 53.90 82.73 53.68
  L 83.14 47.86
  Q 86.88 49.50 85.62 56.55
  Z"
/>
<path fill="#e17a21" d="
  M 82.73 53.68
  Q 82.73 53.90 82.74 54.13
  Q 83.08 59.70 81.55 66.05
  Q 81.39 67.18 80.42 68.66
  Q 78.31 74.16 75.42 79.24
  C 68.27 91.78 59.94 91.69 46.83 91.61
  C 36.27 91.54 28.85 92.10 25.81 80.65
  Q 30.65 85.77 37.30 86.28
  Q 43.23 86.74 43.61 86.80
  C 49.78 87.79 54.48 88.87 59.71 85.58
  Q 69.03 79.72 75.10 71.37
  Q 78.76 66.34 80.72 59.57
  C 80.96 58.74 80.76 57.42 81.63 56.46
  Q 81.95 56.12 81.88 55.65
  Q 81.68 54.18 82.73 53.68
  Z"
/>
<path fill="#065a23" d="
  M 82.74 54.13
  Q 84.88 54.21 85.62 56.55
  L 85.76 65.19
  A 0.69 0.67 -10.9 0 1 85.31 65.84
  Q 82.35 66.94 81.55 66.05
  Q 83.08 59.70 82.74 54.13
  Z"
/>
<path fill="#c75a1e" d="
  M 58.90 68.60
  L 60.21 68.52
  Q 59.13 69.96 57.63 70.07
  L 54.29 70.41
  L 25.89 69.70
  A 0.34 0.34 0.0 0 1 25.73 69.06
  L 26.26 68.75
  L 58.90 68.60
  Z"
/>
<path fill="#fec651" d="
  M 57.63 70.07
  Q 57.26 72.95 56.55 76.00
  Q 55.90 78.78 53.01 78.77
  Q 40.72 78.74 28.82 75.83
  Q 28.29 75.70 28.18 75.16
  Q 27.92 73.82 29.45 71.68
  L 54.29 70.41
  L 57.63 70.07
  Z"
/>
</svg>
