<?xml version="1.0" encoding="UTF-8" standalone="no"?>
<!DOCTYPE svg PUBLIC "-//W3C//DTD SVG 1.1//EN" "http://www.w3.org/Graphics/SVG/1.1/DTD/svg11.dtd">
<svg xmlns="http://www.w3.org/2000/svg" version="1.1" viewBox="0.00 0.00 100.00 100.00">
<g stroke-width="2.00" fill="none" stroke-linecap="butt">
<path stroke="#f2ad3e" vector-effect="non-scaling-stroke" d="
  M 97.13 18.26
  Q 97.14 19.44 94.71 19.80
  Q 89.58 20.54 79.18 22.90
  Q 75.57 23.72 72.24 23.45
  Q 61.93 22.59 51.35 20.21"
/>
<path stroke="#fdd66b" vector-effect="non-scaling-stroke" d="
  M 51.04 19.14
  L 73.52 22.93
  A 0.79 0.79 0.0 0 0 74.45 22.17
  L 75.02 0.69"
/>
<path stroke="#f2ad3e" vector-effect="non-scaling-stroke" d="
  M 60.69 43.00
  Q 61.72 43.60 62.11 42.84
  Q 62.44 42.21 62.48 42.15
  Q 66.55 36.67 70.59 31.14
  C 71.57 29.78 71.98 28.17 73.24 26.75
  A 0.86 0.86 0.0 0 0 72.25 25.39
  L 63.33 29.32
  A 1.30 1.29 -9.5 0 0 62.57 30.38
  L 62.41 31.98"
/>
<path stroke="#b06271" vector-effect="non-scaling-stroke" d="
  M 62.41 31.98
  Q 62.66 28.00 56.32 24.78"
/>
<path stroke="#b87a80" vector-effect="non-scaling-stroke" d="
  M 62.41 31.98
  L 61.54 36.73"
/>
<path stroke="#922fbc" vector-effect="non-scaling-stroke" d="
  M 52.74 44.64
  L 54.89 39.74"
/>
<path stroke="#8b41cb" vector-effect="non-scaling-stroke" d="
  M 54.89 39.74
  Q 58.44 36.91 58.14 33.13
  Q 58.10 32.62 57.67 32.34
  Q 54.23 30.08 52.59 25.89"
/>
<path stroke="#ad34cc" vector-effect="non-scaling-stroke" d="
  M 4.85 68.77
  Q 7.10 67.17 7.99 68.21
  Q 9.36 68.55 10.73 68.16
  Q 11.23 68.02 11.62 68.35
  Q 12.96 69.50 14.76 69.64
  Q 15.27 69.68 14.84 69.99
  Q 14.68 70.11 14.64 70.28
  Q 14.54 70.69 14.95 70.58
  Q 21.11 68.90 27.58 68.97
  A 1.58 1.45 -56.8 0 0 28.29 68.79
  L 32.51 66.44
  Q 32.89 66.22 33.08 65.82
  Q 33.57 64.78 34.66 64.51
  Q 35.17 64.39 35.44 63.94
  L 42.24 52.41"
/>
<path stroke="#a741d4" vector-effect="non-scaling-stroke" d="
  M 54.89 39.74
  Q 47.99 45.52 42.24 52.41"
/>
<path stroke="#a646db" vector-effect="non-scaling-stroke" d="
  M 42.24 52.41
  Q 38.94 51.80 38.03 52.12
  Q 35.95 52.85 33.92 53.57
  Q 32.08 54.22 29.71 54.37
  C 25.33 54.63 21.13 56.40 16.75 56.18
  Q 14.91 56.08 13.45 57.20
  Q 13.36 57.27 13.36 57.25
  Q 13.36 57.12 13.35 57.00
  Q 13.35 56.97 13.51 56.87
  Q 14.05 56.52 14.51 55.97
  A 0.35 0.31 -7.9 0 0 13.96 55.61
  Q 8.31 61.96 4.85 68.77"
/>
<path stroke="#a741d4" vector-effect="non-scaling-stroke" d="
  M 4.85 68.77
  Q 3.69 68.76 3.73 68.04"
/>
</g>
<path fill="#fac44d" d="
  M 97.13 18.26
  Q 97.14 19.44 94.71 19.80
  Q 89.58 20.54 79.18 22.90
  Q 75.57 23.72 72.24 23.45
  Q 61.93 22.59 51.35 20.21
  Q 52.07 18.05 51.04 19.14
  L 73.52 22.93
  A 0.79 0.79 0.0 0 0 74.45 22.17
  L 75.02 0.69
  Q 75.72 0.57 76.42 1.90
  Q 80.02 8.66 83.94 15.39
  Q 84.20 15.84 84.70 15.93
  L 97.13 18.26
  Z"
/>
<path fill="#ffe788" d="
  M 75.02 0.69
  L 74.45 22.17
  A 0.79 0.79 0.0 0 1 73.52 22.93
  L 51.04 19.14
  Q 58.31 17.10 64.42 16.21
  C 66.25 15.94 66.96 15.03 67.70 13.50
  Q 70.71 7.29 75.02 0.69
  Z"
/>
<path fill="#ea952f" d="
  M 97.13 18.26
  Q 98.21 18.27 98.54 18.58
  Q 99.56 19.53 98.48 20.42
  L 88.20 28.92
  A 1.04 1.04 0.0 0 0 87.84 29.86
  L 89.77 43.49
  A 2.10 1.73 77.8 0 1 88.64 45.68
  Q 88.48 45.73 87.65 45.30
  Q 81.50 42.13 75.65 38.98
  A 1.54 1.52 -44.6 0 0 74.20 38.98
  L 61.69 45.62
  Q 61.09 45.94 60.78 45.33
  Q 60.33 44.47 60.69 43.00
  Q 61.72 43.60 62.11 42.84
  Q 62.44 42.21 62.48 42.15
  Q 66.55 36.67 70.59 31.14
  C 71.57 29.78 71.98 28.17 73.24 26.75
  A 0.86 0.86 0.0 0 0 72.25 25.39
  L 63.33 29.32
  A 1.30 1.29 -9.5 0 0 62.57 30.38
  L 62.41 31.98
  Q 62.66 28.00 56.32 24.78
  L 51.35 20.21
  Q 61.93 22.59 72.24 23.45
  Q 75.57 23.72 79.18 22.90
  Q 89.58 20.54 94.71 19.80
  Q 97.14 19.44 97.13 18.26
  Z"
/>
<path fill="#762fb2" d="
  M 56.32 24.78
  Q 62.66 28.00 62.41 31.98
  L 61.54 36.73
  L 52.74 44.64
  L 54.89 39.74
  Q 58.44 36.91 58.14 33.13
  Q 58.10 32.62 57.67 32.34
  Q 54.23 30.08 52.59 25.89
  L 56.32 24.78
  Z"
/>
<path fill="#fac44d" d="
  M 60.69 43.00
  L 61.54 36.73
  L 62.41 31.98
  L 62.57 30.38
  A 1.30 1.29 -9.5 0 1 63.33 29.32
  L 72.25 25.39
  A 0.86 0.86 0.0 0 1 73.24 26.75
  C 71.98 28.17 71.57 29.78 70.59 31.14
  Q 66.55 36.67 62.48 42.15
  Q 62.44 42.21 62.11 42.84
  Q 61.72 43.60 60.69 43.00
  Z"
/>
<path fill="#a052e3" d="
  M 52.59 25.89
  Q 54.23 30.08 57.67 32.34
  Q 58.10 32.62 58.14 33.13
  Q 58.44 36.91 54.89 39.74
  Q 47.99 45.52 42.24 52.41
  Q 38.94 51.80 38.03 52.12
  Q 35.95 52.85 33.92 53.57
  Q 32.08 54.22 29.71 54.37
  C 25.33 54.63 21.13 56.40 16.75 56.18
  Q 14.91 56.08 13.45 57.20
  Q 13.36 57.27 13.36 57.25
  Q 13.36 57.12 13.35 57.00
  Q 13.35 56.97 13.51 56.87
  Q 14.05 56.52 14.51 55.97
  A 0.35 0.31 -7.9 0 0 13.96 55.61
  Q 8.31 61.96 4.85 68.77
  Q 3.69 68.76 3.73 68.04
  Q 18.83 36.38 52.59 25.89
  Z"
/>
<path fill="#ae2fc5" d="
  M 54.89 39.74
  L 52.74 44.64
  Q 39.93 59.59 34.06 78.45
  C 32.38 83.85 31.64 90.74 30.13 96.83
  A 0.91 0.91 0.0 0 1 28.40 96.93
  Q 25.29 88.43 25.83 78.94
  Q 25.85 78.50 25.70 78.10
  Q 25.48 77.50 25.41 77.29
  A 1.24 1.24 0.0 0 0 23.40 76.72
  C 17.65 81.80 13.95 90.34 11.29 97.38
  A 0.36 0.34 88.5 0 1 11.11 97.58
  L 10.32 97.98
  A 0.73 0.73 0.0 0 1 9.28 97.50
  C 7.46 89.81 10.19 80.44 13.47 73.46
  Q 14.25 71.81 14.06 70.53
  A 1.19 1.18 72.1 0 0 12.35 69.65
  Q 9.12 71.30 6.33 73.42
  C 5.01 74.42 3.62 76.31 1.49 76.98
  A 0.72 0.71 86.6 0 1 0.57 76.16
  Q 1.43 71.84 3.73 68.04
  Q 3.69 68.76 4.85 68.77
  Q 7.10 67.17 7.99 68.21
  Q 9.36 68.55 10.73 68.16
  Q 11.23 68.02 11.62 68.35
  Q 12.96 69.50 14.76 69.64
  Q 15.27 69.68 14.84 69.99
  Q 14.68 70.11 14.64 70.28
  Q 14.54 70.69 14.95 70.58
  Q 21.11 68.90 27.58 68.97
  A 1.58 1.45 -56.8 0 0 28.29 68.79
  L 32.51 66.44
  Q 32.89 66.22 33.08 65.82
  Q 33.57 64.78 34.66 64.51
  Q 35.17 64.39 35.44 63.94
  L 42.24 52.41
  Q 47.99 45.52 54.89 39.74
  Z"
/>
<path fill="#ac39d3" d="
  M 42.24 52.41
  L 35.44 63.94
  Q 35.17 64.39 34.66 64.51
  Q 33.57 64.78 33.08 65.82
  Q 32.89 66.22 32.51 66.44
  L 28.29 68.79
  A 1.58 1.45 -56.8 0 1 27.58 68.97
  Q 21.11 68.90 14.95 70.58
  Q 14.54 70.69 14.64 70.28
  Q 14.68 70.11 14.84 69.99
  Q 15.27 69.68 14.76 69.64
  Q 12.96 69.50 11.62 68.35
  Q 11.23 68.02 10.73 68.16
  Q 9.36 68.55 7.99 68.21
  Q 7.10 67.17 4.85 68.77
  Q 8.31 61.96 13.96 55.61
  A 0.35 0.31 -7.9 0 1 14.51 55.97
  Q 14.05 56.52 13.51 56.87
  Q 13.35 56.97 13.35 57.00
  Q 13.36 57.12 13.36 57.25
  Q 13.36 57.27 13.45 57.20
  Q 14.91 56.08 16.75 56.18
  C 21.13 56.40 25.33 54.63 29.71 54.37
  Q 32.08 54.22 33.92 53.57
  Q 35.95 52.85 38.03 52.12
  Q 38.94 51.80 42.24 52.41
  Z"
/>
</svg>
