<svg width="161" height="35" viewBox="0 0 161 35" fill="none" xmlns="http://www.w3.org/2000/svg">
<g clip-path="url(#clip0_3418_1824)">
<path d="M141.73 28.2914L138.843 22.522L135.953 28.2914H141.73ZM76.9962 14.4836L71.2212 17.3673L76.9962 20.253V14.4836ZM24.8203 20.9904L27.7088 26.7598L30.5989 20.9904H24.8203ZM156.914 8.69981C155.948 8.69981 155.01 9.43368 155.01 10.5486C155.01 11.745 155.975 12.4221 156.914 12.4221C157.96 12.4221 158.858 11.7184 158.858 10.5894C158.858 9.43368 157.92 8.69981 156.926 8.69981H156.914ZM148.956 14.5988V12.3442H153.757C152.9 11.5414 152.9 10.4671 152.9 10.1534C152.9 8.57943 154.031 6.44531 156.887 6.44531C159.607 6.44531 160.968 8.33295 160.968 10.2491C160.968 11.3108 160.451 12.1262 159.907 12.4381H160.707V14.5988H148.956ZM156.969 22.1655C157.661 22.1655 158.858 21.6499 158.858 20.2903C158.858 19.4892 158.477 18.9981 158.015 18.7128C157.716 18.5233 157.389 18.4275 157.049 18.4009C156.71 18.3743 156.371 18.4416 156.057 18.5904C155.54 18.8351 155.01 19.3508 155.01 20.3046C155.01 21.5967 156.098 22.1656 156.953 22.1656H156.969V22.1655ZM160.707 16.1445V18.4009H159.891C160.629 18.8085 160.968 19.7462 160.968 20.6289C160.968 23.0216 159.091 24.422 156.926 24.422C154.451 24.422 152.9 22.6424 152.9 20.6289C152.9 19.3933 153.498 18.7005 153.961 18.4009H153.159V16.1445H160.707ZM148.956 28.2914V26.035H160.707V28.2914H148.956Z" fill="#D52B1E"/>
<path d="M100.114 31.3414L101.8 35C109.799 28.8865 111.272 22.0588 106.065 14.7419C101.94 8.94394 106.48 3.78785 107.846 2.4478L104.784 0C102.783 2.19431 97.5309 9.05221 102.123 15.949C106.572 22.6295 106.111 26.2508 100.114 31.3414ZM37.9619 31.3414L39.6475 35C47.6473 28.8865 49.1199 22.0588 43.9109 14.7419C39.7876 8.94394 44.3259 3.78785 45.6921 2.4478L42.6317 0C40.6286 2.19431 35.3769 9.05221 39.9722 15.949C44.4201 22.6295 43.9587 26.2508 37.9619 31.3414ZM143.909 6.44487L138.843 15.2117L133.774 6.44487H129.651L138.843 22.3513L148.036 6.44487H143.909ZM61.2875 7.68382C59.8432 6.83657 58.0745 6.44487 55.72 6.44487H50.5572V28.291H54.684V10.566H55.7202C58.5766 10.566 60.5353 11.2696 60.5353 13.8344C60.5353 16.229 58.1756 17.2784 55.4416 17.3635C55.3582 17.3653 55.0512 17.3653 54.8472 17.367L57.5883 21.2789C58.9438 21.0396 60.161 20.6 61.1776 19.9779C61.2521 19.93 61.3267 19.8787 61.4011 19.8289C63.4751 18.4589 64.662 16.2892 64.662 13.8344C64.662 11.1437 63.4627 8.96002 61.2875 7.68382ZM93.9543 19.8289C96.0265 18.4589 97.2134 16.2892 97.2134 13.8344C97.2134 11.1438 96.0141 8.96002 93.837 7.68382C92.3963 6.83657 90.6258 6.44487 88.2713 6.44487H83.1083V28.291H87.2351V10.566H88.2713C91.1278 10.566 93.0884 11.2696 93.0884 13.8344C93.0884 16.229 90.7286 17.2784 87.9946 17.3635C87.9077 17.3653 87.6043 17.3653 87.4003 17.367L95.0561 28.291H99.8837L93.9543 19.8289ZM121.829 17.3669L129.484 6.44471H124.655L117.001 17.3669L124.655 28.2908H129.484L121.829 17.3669ZM116.836 6.44487H112.711V28.291H116.836V6.44487ZM9.15065 17.3669L16.8063 6.44471H11.9788L4.32303 17.3669L11.9788 28.2908H16.8063L9.15065 17.3669ZM4.15791 6.44487H0.03125V28.291H4.15807V6.44487H4.15791ZM79.9272 10.566V6.44487H66.933V28.291H79.9272V24.1699H71.0563V10.566H79.9272ZM38.2974 28.291H34.1706L27.7088 14.4478L21.249 28.291H17.1204L27.709 5.60813L38.2974 28.291Z" fill="#006D55"/>
</g>
<defs>
<clipPath id="clip0_3418_1824">
<rect width="161" height="35" fill="white"/>
</clipPath>
</defs>
</svg>
