<svg width="167" height="37" viewBox="0 0 167 37" fill="none" xmlns="http://www.w3.org/2000/svg">
<g clip-path="url(#clip0_3418_1818)">
<path d="M167 16.7372V13.6908H163.353V8.95489L163.23 8.9941L159.805 10.0813L159.737 10.1026V13.691H154.33V11.6919C154.33 10.7611 154.531 10.0488 154.926 9.57371C155.319 9.10436 155.881 8.86575 156.597 8.86575C157.112 8.86575 157.646 8.99159 158.182 9.23976L158.317 9.30209V6.09387L158.254 6.06974C157.753 5.88307 157.072 5.78906 156.228 5.78906C155.164 5.78906 154.198 6.02919 153.355 6.50507C152.511 6.98163 151.848 7.66195 151.383 8.52693C150.92 9.3909 150.685 10.3888 150.685 11.493V13.6908H148.145V16.7372H150.685V29.5709H154.33V16.7372H159.737V24.8928C159.737 28.2517 161.265 29.9538 164.277 29.9538C164.772 29.9538 165.293 29.8936 165.825 29.7758C166.367 29.6549 166.735 29.534 166.952 29.405L167 29.3755V26.301L166.852 26.4027C166.654 26.5395 166.408 26.6512 166.119 26.7343C165.829 26.819 165.587 26.8614 165.399 26.8614C164.693 26.8614 164.171 26.6641 163.847 26.2749C163.52 25.8821 163.353 25.1952 163.353 24.2344V16.7372H167ZM140.004 26.8619C138.681 26.8619 137.637 26.4068 136.902 25.5103C136.162 24.6093 135.788 23.3247 135.788 21.6926C135.788 20.0087 136.162 18.6908 136.902 17.7739C137.638 16.863 138.671 16.4007 139.974 16.4007C141.238 16.4007 142.244 16.8422 142.965 17.7137C143.69 18.5898 144.057 19.8971 144.057 21.6006C144.057 23.325 143.712 24.6497 143.03 25.5357C142.353 26.4151 141.335 26.8619 140.004 26.8619ZM140.166 13.3083C137.641 13.3083 135.636 14.0756 134.206 15.5888C132.778 17.1023 132.053 19.1967 132.053 21.8144C132.053 24.3008 132.76 26.3007 134.155 27.7577C135.55 29.2152 137.448 29.9535 139.797 29.9535C142.244 29.9535 144.209 29.1755 145.638 27.6412C147.067 26.1087 147.791 24.034 147.791 21.4775C147.791 18.9522 147.112 16.9374 145.771 15.4901C144.43 14.0422 142.544 13.3083 140.166 13.3083ZM126.175 13.3083C124.458 13.3083 123.038 13.7639 121.953 14.6622C120.861 15.5659 120.307 16.7511 120.307 18.1853C120.307 18.9308 120.427 19.593 120.662 20.1547C120.898 20.7182 121.265 21.2144 121.751 21.6308C122.234 22.0438 122.979 22.4765 123.967 22.9167C124.798 23.2711 125.417 23.5709 125.81 23.8071C126.195 24.0387 126.467 24.2715 126.622 24.4982C126.771 24.72 126.847 25.0237 126.847 25.3983C126.847 26.4652 126.077 26.9844 124.492 26.9844C123.904 26.9844 123.234 26.857 122.499 26.606C121.77 26.3588 121.081 25.9967 120.458 25.5326L120.307 25.42V29.0607L120.362 29.0875C120.878 29.3345 121.528 29.5428 122.295 29.7066C123.06 29.8707 123.755 29.9541 124.359 29.9541C126.223 29.9541 127.723 29.4963 128.818 28.5927C129.92 27.6828 130.479 26.4696 130.479 24.9858C130.479 23.9154 130.178 22.9974 129.585 22.2571C128.997 21.5229 127.975 20.8487 126.551 20.2529C125.416 19.7803 124.689 19.3881 124.389 19.087C124.099 18.7961 123.952 18.3847 123.952 17.8637C123.952 17.4019 124.134 17.0319 124.506 16.7323C124.881 16.4312 125.403 16.278 126.057 16.278C126.665 16.278 127.286 16.3776 127.904 16.5726C128.522 16.7677 129.064 17.0289 129.517 17.3485L129.666 17.454V14.0005L129.609 13.975C129.191 13.7892 128.64 13.6302 127.971 13.5011C127.305 13.3729 126.701 13.3083 126.175 13.3083ZM110.803 26.8619C109.48 26.8619 108.436 26.4068 107.701 25.5103C106.961 24.6093 106.587 23.325 106.587 21.6926C106.587 20.0087 106.962 18.6908 107.702 17.7739C108.437 16.863 109.47 16.4007 110.774 16.4007C112.037 16.4007 113.044 16.8422 113.765 17.7137C114.489 18.5898 114.857 19.8971 114.857 21.6006C114.857 23.325 114.511 24.6497 113.829 25.5357C113.152 26.4151 112.134 26.8619 110.803 26.8619ZM110.965 13.3083C108.44 13.3083 106.435 14.0756 105.006 15.5888C103.577 17.1023 102.852 19.1967 102.852 21.8144C102.852 24.3018 103.56 26.3007 104.955 27.7577C106.35 29.2152 108.248 29.9535 110.596 29.9535C113.043 29.9535 115.009 29.1755 116.438 27.6412C117.866 26.1087 118.591 24.034 118.591 21.4775C118.591 18.9522 117.911 16.9374 116.57 15.4901C115.229 14.0422 113.343 13.3083 110.965 13.3083ZM97.3185 16.4409V13.6908H93.7173V29.5706H97.3185V21.4475C97.3185 20.0662 97.6204 18.9315 98.2162 18.0744C98.8044 17.2275 99.5882 16.7983 100.545 16.7983C100.87 16.7983 101.234 16.8538 101.628 16.9636C102.018 17.0726 102.301 17.1911 102.468 17.3158L102.619 17.4296V13.6637L102.561 13.6377C102.226 13.4899 101.751 13.4153 101.151 13.4153C100.246 13.4153 99.4359 13.717 98.7422 14.3108C98.1333 14.8328 97.6933 15.5485 97.3568 16.4409H97.3185ZM87.2681 13.3083C85.6159 13.3083 84.1423 13.6757 82.8888 14.4001C81.6328 15.1262 80.6614 16.1628 80.0005 17.4808C79.3425 18.7957 79.0084 20.3316 79.0084 22.0445C79.0084 23.5449 79.3323 24.9218 79.9726 26.1353C80.6131 27.3508 81.5197 28.3018 82.6674 28.9613C83.8134 29.62 85.1379 29.954 86.6044 29.954C88.3159 29.954 89.7771 29.5991 90.9486 28.8991L90.996 28.871V25.4488L90.8446 25.5634C90.3139 25.9644 89.7209 26.2844 89.0828 26.515C88.4463 26.7454 87.866 26.8619 87.3571 26.8619C85.944 26.8619 84.8096 26.4032 83.9862 25.499C83.161 24.5937 82.7426 23.3224 82.7426 21.7226C82.7426 20.1128 83.179 18.8088 84.0389 17.8466C84.8962 16.8873 86.0327 16.4007 87.4165 16.4007C88.6002 16.4007 89.7537 16.8164 90.8449 17.6375L90.996 17.7513V14.1454L90.9472 14.1169C90.5365 13.8785 89.9764 13.6816 89.2811 13.5323C88.5887 13.3833 87.9115 13.3083 87.2681 13.3083ZM76.5282 13.691H72.927V29.5706H76.5282V13.691ZM74.7644 6.92617C74.1717 6.92617 73.6547 7.13546 73.23 7.55018C72.8035 7.96608 72.5872 8.48973 72.5872 9.10771C72.5872 9.71598 72.8009 10.2301 73.2234 10.6349C73.6431 11.0386 74.1617 11.2432 74.7646 11.2432C75.3673 11.2432 75.8878 11.0386 76.3125 10.6356C76.74 10.2301 76.9568 9.71615 76.9568 9.10771C76.9568 8.51134 76.7458 7.99306 76.3301 7.56694C75.9148 7.14166 75.3878 6.92617 74.7644 6.92617ZM65.7791 12.5194V29.5706H69.4543V7.41228H64.3676L57.9021 23.8708L51.6278 7.41228H46.334V29.5704H49.7877V12.5177H49.9063L56.5319 29.5706H59.1383L65.6605 12.5194H65.7791Z" fill="#706D6E"/>
<path d="M16.9413 17.5802H0V0.0078125H16.9413V17.5802Z" fill="#F1511B"/>
<path d="M35.646 17.5802H18.7051V0.0078125H35.646V17.5802Z" fill="#80CC28"/>
<path d="M16.9408 36.9901H0V19.418H16.9408V36.9901Z" fill="#00ADEF"/>
<path d="M35.646 36.9901H18.7051V19.418H35.646V36.9901Z" fill="#FBBC09"/>
</g>
<defs>
<clipPath id="clip0_3418_1818">
<rect width="167" height="37" fill="white"/>
</clipPath>
</defs>
</svg>
