<svg width="132" height="29" viewBox="0 0 132 29" fill="none" xmlns="http://www.w3.org/2000/svg">
<path fill-rule="evenodd" clip-rule="evenodd" d="M85.1825 0.503906V28.4417H103.313V25.2491H97.7247V0.503906H85.1825ZM50.5167 0.503906H29.7625V28.4417H50.5167V25.2491H43.4466V15.8987H50.5167V12.7047H43.4466V3.69649H50.5167V0.503906ZM0 0.503906V3.69649H5.58825V28.4994H18.1312V3.69649H23.7187V0.503906H0ZM107.076 28.4417L114.032 0.503906H124.637L131.708 28.4417H118.821L114.659 11.793L112.436 20.916H116.939L118.023 25.2491H111.295L110.497 28.4417H107.076ZM57.4158 28.4417H69.2745C79.2528 28.4417 79.9371 19.7185 77.0296 15.4988L72.4685 8.77083C71.6694 7.57335 71.6694 5.86336 72.0123 5.29313C72.3551 4.7229 72.8676 3.69649 75.0345 3.69649H78.1694V0.503906H66.3093C56.3324 0.503906 55.6474 9.22701 58.5556 13.446L63.1167 20.174C63.915 21.3715 63.915 23.0822 63.5729 23.6524C63.2307 24.2227 62.7182 25.2491 60.5507 25.2491H57.4151V28.4417H57.4158Z" fill="black"/>
</svg>
