<svg width="129" height="49" viewBox="0 0 129 49" fill="none" xmlns="http://www.w3.org/2000/svg">
<g clip-path="url(#clip0_3418_1810)">
<path d="M0.234375 0.265625H129.001V49.001H0.234375" fill="#26559A"/>
<path d="M68.0155 24.4347C67.1515 24.4347 66.5293 24.7197 65.8978 25.0099V31.582C66.5034 31.6417 66.8479 31.6417 67.4231 31.6417C69.4965 31.6417 69.7801 30.6848 69.7801 29.3511V26.2114C69.7801 25.2262 69.4556 24.4347 68.0155 24.4347ZM54.2489 24.0758C52.8104 24.0758 52.4834 24.8708 52.4834 25.8551V26.4076H56.0144V25.8551C56.0139 24.8704 55.6856 24.0758 54.2489 24.0758ZM27.581 30.9171C27.581 31.6949 27.9455 32.0997 28.7511 32.0997C29.6156 32.0997 30.1266 31.8164 30.7576 31.5241V29.9662H28.8678C27.9736 29.9667 27.581 30.1332 27.581 30.9171ZM81.4073 24.4347C79.9668 24.4347 79.4677 25.2262 79.4677 26.2106V29.8074C79.4677 30.7956 79.9668 31.588 81.4073 31.588C82.8437 31.588 83.347 30.7947 83.347 29.8074V26.2106C83.3466 25.2262 82.8437 24.4347 81.4073 24.4347ZM20.5207 34.9483H16.2871V24.63H14.1699V21.0735H16.2871V18.9387C16.2871 16.0377 17.482 14.3125 20.875 14.3125H23.7017V17.869H21.9362C20.6144 17.869 20.5267 18.3661 20.5267 19.2933L20.5207 21.0731H23.7221L23.3474 24.6296H20.5207V34.9483ZM34.9942 34.975H31.4649L31.3133 34.0761C29.7012 34.975 28.2627 35.1209 27.314 35.1209C24.7249 35.1209 23.3478 33.3802 23.3478 30.9729C23.3478 28.1333 24.9549 27.1189 27.8309 27.1189H30.7581V26.505C30.7581 25.0545 30.5928 24.6296 28.3785 24.6296H24.7573L25.1116 21.0731H29.0692C33.9288 21.0731 34.9942 22.6197 34.9942 26.5338V34.975ZM46.9957 24.891C44.7997 24.5115 44.1687 24.4282 43.1126 24.4282C41.2143 24.4282 40.6403 24.8502 40.6403 26.4724V29.5425C40.6403 31.1652 41.2143 31.5884 43.1126 31.5884C44.1687 31.5884 44.7997 31.5047 46.9957 31.124V34.5916C45.0714 35.0269 43.8186 35.1406 42.76 35.1406C38.2126 35.1406 36.4067 32.7337 36.4067 29.2558V26.7643C36.4067 23.2847 38.2126 20.8726 42.76 20.8726C43.8186 20.8726 45.0723 20.9881 46.9957 21.4229V24.891ZM60.2479 29.2558H52.483V29.5425C52.483 31.1652 53.057 31.5884 54.9545 31.5884C56.6612 31.5884 57.7019 31.5047 59.8941 31.124V34.5916C57.7803 35.0269 56.6791 35.1406 54.6036 35.1406C50.0566 35.1406 48.2485 32.7337 48.2485 29.2558V26.4072C48.2485 23.3654 49.5907 20.8726 54.2493 20.8726C58.9087 20.8726 60.2484 23.3357 60.2484 26.4072L60.2479 29.2558ZM74.0141 29.321C74.0141 32.6822 73.0603 35.1338 67.2805 35.1338C65.1948 35.1338 63.9688 34.9483 61.6647 34.5912V15.3801L65.8978 14.6697V21.389C66.8121 21.0464 67.9972 20.873 69.0749 20.873C73.3094 20.873 74.0145 22.7846 74.0145 25.8543V29.321H74.0141ZM87.5853 29.3944C87.5853 32.2937 86.3959 35.1063 81.4214 35.1063C76.4439 35.1063 75.2328 32.2937 75.2328 29.3944V26.5952C75.2328 23.695 76.4439 20.882 81.4214 20.882C86.3959 20.882 87.5853 23.695 87.5853 26.5952V29.3944ZM101.145 29.3944C101.145 32.2937 99.9547 35.1063 94.9819 35.1063C90.0044 35.1063 88.7925 32.2937 88.7925 29.3944V26.5952C88.7925 23.695 90.0044 20.882 94.9819 20.882C99.9547 20.882 101.145 23.695 101.145 26.5952V29.3944ZM115.064 34.9483H110.474L106.593 28.4273V34.9483H102.359V15.3801L106.593 14.6697V27.267L110.474 21.0735H115.064L110.826 27.8319L115.064 34.9483ZM94.9674 24.4347C93.5294 24.4347 93.0303 25.2262 93.0303 26.2106V29.8074C93.0303 30.7956 93.5294 31.588 94.9674 31.588C96.4037 31.588 96.9118 30.7947 96.9118 29.8074V26.2106C96.9118 25.2262 96.4037 24.4347 94.9674 24.4347ZM117.481 32.5152C118.193 32.5152 118.761 33.1003 118.761 33.831C118.761 34.5732 118.193 35.1522 117.475 35.1522C116.761 35.1522 116.181 34.5727 116.181 33.831C116.181 33.1003 116.761 32.5152 117.475 32.5152H117.481ZM117.474 32.72C116.9 32.72 116.43 33.2171 116.43 33.8318C116.43 34.4573 116.9 34.9492 117.481 34.9492C118.06 34.9552 118.524 34.4573 118.524 33.8374C118.524 33.218 118.06 32.72 117.481 32.72H117.474ZM117.23 34.5981H116.999V33.1291C117.12 33.1115 117.236 33.0948 117.41 33.0948C117.631 33.0948 117.776 33.1407 117.863 33.2055C117.95 33.2703 117.995 33.3695 117.995 33.5099C117.995 33.7026 117.869 33.8198 117.713 33.867V33.8786C117.84 33.9022 117.927 34.0177 117.955 34.234C117.99 34.4628 118.025 34.5508 118.049 34.5981H117.805C117.77 34.5517 117.734 34.416 117.707 34.2242C117.672 34.0361 117.579 33.9657 117.392 33.9657H117.231V34.5981H117.23ZM117.23 33.7846H117.399C117.589 33.7846 117.752 33.7142 117.752 33.533C117.752 33.4034 117.659 33.275 117.399 33.275C117.323 33.275 117.27 33.2815 117.23 33.2866V33.7846Z" fill="white"/>
</g>
<defs>
<clipPath id="clip0_3418_1810">
<rect width="129" height="49" fill="white"/>
</clipPath>
</defs>
</svg>
